<svg width="246" height="246" viewBox="0 0 246 246" fill="none" xmlns="http://www.w3.org/2000/svg">
<path d="M126.08 67.1875C95.5758 73.1357 36.5358 75.5957 44.2897 119.339C51.9699 162.768 119.108 158.473 149.912 144.677C181.056 130.739 240.834 70.1247 202.847 43.7141C176.707 25.5397 159.752 60.6094 126.08 67.1875Z" fill="#64BC26"/>
<path opacity="0.9" d="M126.08 67.1875C95.5758 73.1357 36.5358 75.5957 44.2897 119.339C51.9699 162.768 119.108 158.473 149.912 144.677C181.056 130.739 240.834 70.1247 202.847 43.7141C176.707 25.5397 159.752 60.6094 126.08 67.1875Z" fill="white"/>
<path d="M123 210.36C175.685 210.36 218.394 207.866 218.394 204.79C218.394 201.714 175.685 199.221 123 199.221C70.3157 199.221 27.6064 201.714 27.6064 204.79C27.6064 207.866 70.3157 210.36 123 210.36Z" fill="#F5F5F5"/>
<path d="M185.976 49.1411H200.307C203.161 49.1411 205.478 52.4818 203.82 55.8225H146.994C148.962 51.8865 145.445 49.1411 143.477 49.1411H185.976Z" fill="#64BC26"/>
<path d="M140.83 49.1411H199.132C191.146 49.1411 184.027 55.6109 183.22 63.5912L172.888 166.011C172.081 173.991 164.962 180.461 156.977 180.461H127.59C119.61 180.461 113.814 173.991 114.596 166.011L124.928 63.5912C125.725 55.5962 132.839 49.1411 140.83 49.1411Z" fill="#64BC26"/>
<path opacity="0.7" d="M140.83 49.1411H199.132C191.146 49.1411 184.027 55.6109 183.22 63.5912L172.888 166.011C172.081 173.991 164.962 180.461 156.977 180.461H127.59C119.61 180.461 113.814 173.991 114.596 166.011L124.928 63.5912C125.725 55.5962 132.839 49.1411 140.83 49.1411Z" fill="white"/>
<path d="M143.993 166.011C144.07 165.413 144.017 164.805 143.837 164.23C143.657 163.654 143.356 163.124 142.953 162.676C142.55 162.228 142.055 161.872 141.502 161.632C140.948 161.392 140.35 161.275 139.747 161.288H81.4453C82.0484 161.274 82.6473 161.391 83.2011 161.631C83.7549 161.87 84.2505 162.226 84.6541 162.674C85.0576 163.123 85.3597 163.653 85.5395 164.229C85.7194 164.805 85.7728 165.412 85.6962 166.011C84.8893 173.991 90.7097 180.461 98.6899 180.461H156.987C149.007 180.461 143.172 173.991 143.993 166.011Z" fill="#64BC26"/>
<path d="M84.5204 161.283H70.1884C68.9286 161.288 67.7207 161.785 66.8225 162.668C65.9244 163.552 65.4073 164.751 65.3816 166.011H134.941C134.966 164.751 135.483 163.552 136.382 162.668C137.28 161.785 138.488 161.288 139.747 161.283H84.5204Z" fill="#64BC26"/>
<path opacity="0.6" d="M84.5204 161.283H70.1884C68.9286 161.288 67.7207 161.785 66.8225 162.668C65.9244 163.552 65.4073 164.751 65.3816 166.011H134.941C134.966 164.751 135.483 163.552 136.382 162.668C137.28 161.785 138.488 161.288 139.747 161.283H84.5204Z" fill="white"/>
<g opacity="0.5">
<path opacity="0.5" d="M134.35 99.3496H129.952L130.399 94.9561H134.793L134.35 99.3496Z" fill="white"/>
<path opacity="0.5" d="M141.607 99.3496H137.214L137.656 94.9561H142.05L141.607 99.3496Z" fill="white"/>
<path opacity="0.5" d="M148.869 99.3496H144.471L144.914 94.9561H149.312L148.869 99.3496Z" fill="white"/>
<path opacity="0.5" d="M156.126 99.3496H151.728L152.175 94.9561H156.569L156.126 99.3496Z" fill="white"/>
<path opacity="0.5" d="M163.383 99.3496H158.99L159.433 94.9561H163.826L163.383 99.3496Z" fill="white"/>
<path opacity="0.5" d="M170.645 99.3496H166.247L166.689 94.9561H171.088L170.645 99.3496Z" fill="white"/>
<path opacity="0.5" d="M133.617 106.612H129.224L129.666 102.213H134.06L133.617 106.612Z" fill="white"/>
<path opacity="0.5" d="M140.879 106.612H136.481L136.924 102.213H141.322L140.879 106.612Z" fill="white"/>
<path opacity="0.5" d="M148.136 106.612H143.738L144.186 102.213H148.579L148.136 106.612Z" fill="white"/>
<path opacity="0.5" d="M155.392 106.612H150.999L151.442 102.213H155.835L155.392 106.612Z" fill="white"/>
<path opacity="0.5" d="M162.654 106.612H158.256L158.698 102.213H163.097L162.654 106.612Z" fill="white"/>
<path opacity="0.5" d="M169.911 106.612H165.513L165.955 102.213H170.354L169.911 106.612Z" fill="white"/>
<path opacity="0.5" d="M132.888 113.868H128.49L128.933 109.47H133.331L132.888 113.868Z" fill="white"/>
<path opacity="0.5" d="M140.145 113.868H135.747L136.19 109.47H140.588L140.145 113.868Z" fill="white"/>
<path opacity="0.5" d="M147.402 113.868H143.009L143.452 109.47H147.845L147.402 113.868Z" fill="white"/>
<path opacity="0.5" d="M154.664 113.868H150.266L150.709 109.47H155.107L154.664 113.868Z" fill="white"/>
<path opacity="0.5" d="M161.921 113.868H157.523L157.966 109.47H162.364L161.921 113.868Z" fill="white"/>
<path opacity="0.5" d="M169.178 113.868H164.785L165.228 109.47H169.621L169.178 113.868Z" fill="white"/>
<path opacity="0.5" d="M132.155 121.125H127.757L128.2 116.732H132.598L132.155 121.125Z" fill="white"/>
<path opacity="0.5" d="M139.412 121.125H135.019L135.462 116.732H139.855L139.412 121.125Z" fill="white"/>
<path opacity="0.5" d="M146.669 121.125H142.276L142.719 116.732H147.112L146.669 121.125Z" fill="white"/>
<path opacity="0.5" d="M153.931 121.125H149.533L149.976 116.732H154.374L153.931 121.125Z" fill="white"/>
<path opacity="0.5" d="M161.188 121.125H156.795L157.238 116.732H161.631L161.188 121.125Z" fill="white"/>
<path opacity="0.5" d="M168.445 121.125H164.052L164.495 116.732H168.888L168.445 121.125Z" fill="white"/>
<path opacity="0.5" d="M131.422 128.388H127.029L127.472 123.989H131.865L131.422 128.388Z" fill="white"/>
<path opacity="0.5" d="M138.679 128.388H134.286L134.729 123.989H139.122L138.679 128.388Z" fill="white"/>
<path opacity="0.5" d="M145.941 128.388H141.543L141.986 123.989H146.384L145.941 128.388Z" fill="white"/>
<path opacity="0.5" d="M153.198 128.388H148.8L149.248 123.989H153.641L153.198 128.388Z" fill="white"/>
<path opacity="0.5" d="M160.456 128.388H156.062L156.505 123.989H160.898L160.456 128.388Z" fill="white"/>
<path opacity="0.5" d="M167.717 128.388H163.319L163.762 123.989H168.16L167.717 128.388Z" fill="white"/>
<path opacity="0.5" d="M130.689 135.645H126.296L126.739 131.246H131.132L130.689 135.645Z" fill="white"/>
<path opacity="0.5" d="M137.951 135.645H133.553L133.996 131.246H138.394L137.951 135.645Z" fill="white"/>
<path opacity="0.5" d="M145.208 135.645H140.81L141.258 131.246H145.651L145.208 135.645Z" fill="white"/>
<path opacity="0.5" d="M152.466 135.645H148.072L148.515 131.246H152.908L152.466 135.645Z" fill="white"/>
<path opacity="0.5" d="M159.727 135.645H155.329L155.772 131.246H160.17L159.727 135.645Z" fill="white"/>
<path opacity="0.5" d="M166.984 135.645H162.586L163.034 131.246H167.427L166.984 135.645Z" fill="white"/>
</g>
<path d="M132.968 131.246C132.91 131.744 132.674 132.204 132.303 132.541C131.932 132.878 131.452 133.07 130.951 133.081C130.717 133.086 130.484 133.04 130.27 132.947C130.055 132.854 129.863 132.715 129.706 132.541C129.55 132.367 129.433 132.161 129.363 131.938C129.293 131.714 129.273 131.478 129.303 131.246C129.36 130.748 129.596 130.288 129.967 129.951C130.338 129.615 130.819 129.424 131.32 129.416C131.554 129.41 131.786 129.455 132.001 129.548C132.215 129.641 132.408 129.779 132.564 129.952C132.721 130.126 132.838 130.332 132.907 130.555C132.977 130.778 132.998 131.014 132.968 131.246V131.246Z" fill="#64BC26"/>
<path d="M142.423 109.47C142.364 109.968 142.127 110.428 141.755 110.766C141.384 111.103 140.903 111.294 140.401 111.305C140.166 111.311 139.933 111.267 139.717 111.174C139.501 111.082 139.308 110.943 139.15 110.769C138.993 110.595 138.875 110.388 138.804 110.164C138.734 109.94 138.713 109.703 138.743 109.47C138.804 108.973 139.041 108.514 139.413 108.178C139.784 107.841 140.264 107.65 140.765 107.64C141 107.635 141.232 107.68 141.447 107.772C141.662 107.865 141.855 108.003 142.012 108.176C142.17 108.35 142.288 108.555 142.359 108.778C142.43 109.002 142.452 109.238 142.423 109.47V109.47Z" fill="#64BC26"/>
<path d="M156.21 116.732C156.151 117.23 155.913 117.69 155.542 118.028C155.17 118.365 154.689 118.556 154.188 118.567C153.954 118.572 153.721 118.526 153.507 118.433C153.292 118.34 153.1 118.201 152.943 118.027C152.787 117.853 152.67 117.647 152.6 117.424C152.53 117.2 152.51 116.964 152.54 116.732C152.599 116.235 152.835 115.775 153.206 115.438C153.576 115.101 154.056 114.909 154.557 114.897C154.791 114.892 155.023 114.938 155.238 115.031C155.453 115.124 155.646 115.263 155.803 115.437C155.959 115.611 156.077 115.817 156.147 116.04C156.217 116.263 156.239 116.499 156.21 116.732V116.732Z" fill="#64BC26"/>
<path d="M172.2 102.213C172.14 102.711 171.903 103.172 171.532 103.509C171.16 103.846 170.679 104.038 170.178 104.048C169.943 104.053 169.711 104.007 169.496 103.914C169.282 103.821 169.089 103.682 168.933 103.508C168.777 103.334 168.66 103.128 168.59 102.905C168.52 102.681 168.5 102.445 168.529 102.213C168.589 101.715 168.826 101.255 169.197 100.918C169.569 100.58 170.05 100.389 170.551 100.378C170.785 100.373 171.018 100.419 171.233 100.512C171.447 100.605 171.639 100.744 171.796 100.918C171.952 101.092 172.069 101.298 172.139 101.522C172.209 101.745 172.229 101.981 172.2 102.213V102.213Z" fill="#64BC26"/>
<path d="M131.133 131.787C131.043 131.787 130.955 131.765 130.877 131.723C130.798 131.68 130.731 131.619 130.682 131.544C130.633 131.47 130.604 131.384 130.597 131.295C130.589 131.206 130.605 131.116 130.641 131.034L140.097 109.258C140.126 109.19 140.169 109.128 140.223 109.077C140.277 109.027 140.342 108.988 140.412 108.963C140.482 108.94 140.556 108.93 140.629 108.936C140.703 108.942 140.775 108.963 140.84 108.998L154.291 116.078L169.991 101.81C170.097 101.714 170.237 101.664 170.38 101.672C170.523 101.679 170.657 101.743 170.753 101.849C170.801 101.901 170.837 101.962 170.861 102.029C170.884 102.095 170.894 102.166 170.891 102.236C170.887 102.306 170.87 102.375 170.839 102.439C170.809 102.502 170.766 102.56 170.714 102.607L154.734 117.13C154.653 117.205 154.55 117.252 154.441 117.266C154.331 117.279 154.22 117.257 154.124 117.204L140.84 110.218L131.63 131.462C131.587 131.559 131.518 131.641 131.43 131.699C131.341 131.757 131.238 131.787 131.133 131.787Z" fill="#64BC26"/>
<path opacity="0.5" d="M129.121 151.211H124.727L124.948 149.012H129.342L129.121 151.211Z" fill="#64BC26"/>
<path opacity="0.6" d="M136.383 151.212H131.984L132.747 143.64H137.145L136.383 151.212Z" fill="#64BC26"/>
<path opacity="0.7" d="M143.639 151.211H139.241L139.689 146.813H144.082L143.639 151.211Z" fill="#64BC26"/>
<path opacity="0.8" d="M150.896 151.211H146.502L147.083 145.43H151.481L150.896 151.211Z" fill="#64BC26"/>
<path opacity="0.9" d="M158.158 151.211H153.759L154.113 147.703H158.512L158.158 151.211Z" fill="#64BC26"/>
<path d="M165.415 151.211H161.016L161.242 149.012H165.636L165.415 151.211Z" fill="#64BC26"/>
<path opacity="0.5" d="M170.596 87.2858H132.436C132.275 87.2892 132.115 87.2578 131.967 87.1937C131.819 87.1295 131.686 87.0342 131.578 86.9142C131.47 86.7941 131.39 86.6522 131.342 86.4981C131.294 86.3441 131.279 86.1814 131.3 86.0213L133.037 68.7521C133.077 68.4088 133.24 68.0916 133.496 67.8592C133.752 67.6268 134.083 67.4948 134.429 67.4877H172.593C172.755 67.4851 172.914 67.5171 173.062 67.5815C173.21 67.6459 173.342 67.7412 173.45 67.8611C173.557 67.9809 173.638 68.1225 173.687 68.2762C173.735 68.4299 173.75 68.5922 173.73 68.7521L171.988 86.0213C171.948 86.3647 171.785 86.6819 171.529 86.9143C171.273 87.1467 170.942 87.2786 170.596 87.2858Z" fill="white"/>
<path d="M144.426 77.3868L147.585 70.5972C148.928 71.1071 150.06 72.0542 150.799 73.2858C151.538 74.5175 151.841 75.962 151.659 77.3868C151.446 79.131 150.683 80.762 149.479 82.0424C148.276 83.3229 146.695 84.1859 144.967 84.506L144.426 77.3868Z" fill="#64BC26"/>
<path d="M144.426 77.3867L144.968 84.5059C144.548 84.5785 144.124 84.6148 143.698 84.6142C142.777 84.6287 141.864 84.4457 141.02 84.0775C140.175 83.7092 139.42 83.1643 138.804 82.4794C138.188 81.7945 137.726 80.9856 137.449 80.1071C137.172 79.2286 137.087 78.301 137.199 77.3867C137.437 75.4306 138.37 73.6251 139.827 72.2987C141.285 70.9723 143.17 70.2131 145.14 70.1592C145.968 70.1565 146.79 70.3049 147.565 70.5971L144.426 77.3867Z" fill="white"/>
<path d="M161.607 75.6304H164.347L163.442 84.6045H160.702L161.607 75.6304Z" fill="white"/>
<path d="M165.783 80.4028H168.524L168.101 84.6045H165.36L165.783 80.4028Z" fill="white"/>
<path d="M165.784 80.4027H168.524L168.785 77.8394H166.045L165.784 80.4027Z" fill="#64BC26"/>
<path d="M161.607 75.6305H164.347L164.898 70.1594H162.158L161.607 75.6305Z" fill="#64BC26"/>
<path d="M156.786 77.2639H159.526L158.788 84.6046H156.048L156.786 77.2639Z" fill="white"/>
<path d="M156.786 77.2637H159.526L159.866 73.8984H157.125L156.786 77.2637Z" fill="#64BC26"/>
<path d="M66.076 78.4984C65.8596 78.8576 65.584 79.3102 65.3725 79.7235C65.1609 80.1368 64.8805 80.5845 64.6788 81.0175C64.236 81.8932 63.7882 82.7641 63.3799 83.6595C62.5575 85.4167 61.8476 87.2243 61.2544 89.0715L61.0478 89.7603L60.9494 90.1096L60.9199 90.1933C60.8885 90.4125 60.9139 90.6361 60.9937 90.8427C61.276 91.664 61.6524 92.4499 62.1154 93.1846C63.1605 94.8613 64.2971 96.4792 65.5201 98.0308L63.9604 99.679C62.2193 98.3916 60.6342 96.9056 59.2372 95.251C58.4521 94.3458 57.7994 93.3337 57.2988 92.2449C56.9586 91.5067 56.7904 90.7009 56.8068 89.8882C56.8145 89.7563 56.8293 89.625 56.851 89.4946L56.8855 89.288V89.1896L56.9691 88.7862L57.1413 87.9793C57.6509 85.8684 58.3338 83.8032 59.1831 81.8047C59.6062 80.8207 60.054 79.8367 60.5558 78.8822C60.8018 78.3902 61.0478 77.9277 61.3233 77.4554C61.5988 76.9831 61.8596 76.5354 62.1892 76.0237L66.076 78.4984Z" fill="#FF8B7B"/>
<path d="M64.3934 97.1453L68.0932 97.2978L66.6172 100.471C66.6172 100.471 63.985 100.324 62.9961 98.7295L64.3934 97.1453Z" fill="#FF8B7B"/>
<path d="M69.0084 98.7247L68.0933 101.568L66.6025 100.476L68.0933 97.2979L69.0084 98.7247Z" fill="#FF8B7B"/>
<path d="M72.0781 200.47C71.6765 200.459 71.2773 200.405 70.8874 200.308C70.8671 200.303 70.8486 200.293 70.8338 200.278C70.8191 200.263 70.8087 200.245 70.8038 200.224C70.8 200.204 70.8022 200.183 70.8101 200.164C70.8179 200.144 70.8311 200.128 70.8481 200.116C71.0006 200.013 72.3585 199.132 72.885 199.368C72.944 199.395 72.995 199.437 73.0329 199.49C73.0709 199.542 73.0945 199.604 73.1014 199.668C73.1251 199.769 73.1222 199.874 73.0928 199.973C73.0635 200.073 73.0088 200.162 72.9342 200.234C72.6864 200.413 72.3825 200.497 72.0781 200.47V200.47ZM71.1876 200.155C71.9748 200.313 72.5602 200.283 72.7866 200.077C72.8363 200.029 72.8722 199.968 72.8903 199.901C72.9085 199.835 72.9084 199.764 72.8899 199.698C72.8882 199.669 72.8791 199.641 72.8636 199.617C72.8481 199.593 72.8267 199.573 72.8013 199.56C72.5209 199.437 71.7386 199.816 71.1876 200.155Z" fill="#64BC26"/>
<path d="M70.912 200.308C70.8943 200.313 70.8755 200.313 70.8578 200.308C70.8417 200.298 70.8284 200.284 70.8189 200.268C70.8094 200.252 70.8042 200.233 70.8037 200.214C70.8037 200.16 70.8037 198.861 71.2957 198.428C71.3554 198.373 71.4264 198.332 71.5038 198.307C71.5811 198.283 71.6629 198.275 71.7434 198.286C71.8289 198.288 71.9111 198.319 71.9771 198.373C72.043 198.428 72.0889 198.502 72.1075 198.586C72.2158 199.078 71.4089 200.062 70.9858 200.308C70.9619 200.317 70.9358 200.317 70.912 200.308ZM71.6549 198.488C71.568 198.487 71.4839 198.519 71.4187 198.576C71.1284 198.837 71.0399 199.56 71.0202 199.998C71.4433 199.654 71.9452 198.925 71.8763 198.615C71.8763 198.566 71.8369 198.502 71.6992 198.488H71.6549Z" fill="#64BC26"/>
<path d="M105.372 198.463C105.353 198.464 105.335 198.46 105.318 198.453C105.3 198.445 105.285 198.433 105.274 198.419C105.261 198.401 105.253 198.379 105.253 198.357C105.253 198.335 105.261 198.313 105.274 198.296C105.411 198.119 106.622 196.598 107.276 196.554H107.32C107.379 196.556 107.437 196.573 107.488 196.603C107.539 196.633 107.581 196.675 107.611 196.726C107.663 196.804 107.695 196.895 107.703 196.989C107.711 197.082 107.694 197.177 107.655 197.262C107.399 197.863 106.125 198.246 105.387 198.458L105.372 198.463ZM107.286 196.766C106.927 196.79 106.169 197.553 105.653 198.173C106.637 197.882 107.316 197.523 107.463 197.189C107.488 197.131 107.497 197.069 107.491 197.007C107.485 196.945 107.464 196.886 107.429 196.834C107.417 196.814 107.399 196.796 107.379 196.784C107.358 196.772 107.335 196.766 107.311 196.766H107.286Z" fill="#64BC26"/>
<path d="M105.372 198.463C105.353 198.461 105.336 198.454 105.321 198.442C105.306 198.431 105.295 198.416 105.288 198.399C105.288 198.355 104.84 197.248 105.155 196.588C105.201 196.491 105.266 196.403 105.346 196.332C105.427 196.26 105.521 196.205 105.623 196.17C105.908 196.067 106.056 196.17 106.115 196.259C106.415 196.667 105.854 197.981 105.46 198.428C105.449 198.441 105.435 198.45 105.42 198.456C105.405 198.462 105.388 198.464 105.372 198.463V198.463ZM105.78 196.308C105.736 196.313 105.693 196.323 105.652 196.337C105.577 196.363 105.508 196.404 105.449 196.458C105.389 196.511 105.341 196.575 105.308 196.647C105.172 197.134 105.198 197.652 105.382 198.123C105.746 197.597 106.08 196.613 105.903 196.367C105.89 196.346 105.872 196.33 105.85 196.32C105.828 196.309 105.804 196.305 105.78 196.308V196.308Z" fill="#64BC26"/>
<path d="M71.9211 60.3831C72.4131 63.0595 73.5743 68.9094 71.6948 70.6511C71.6948 70.6511 72.4082 73.3768 77.3774 73.4752C82.8435 73.5785 80.0047 70.8184 80.0047 70.8184C77.0281 70.0459 77.1167 67.8418 77.648 65.7754L71.9211 60.3831Z" fill="#FF8B7B"/>
<path d="M70.3568 72.0092L69.4023 67.2909C70.773 67.6909 72.1872 67.9222 73.6139 67.9797C75.5277 67.9797 79.6753 67.8272 81.7368 67.1138C82.3075 67.9207 85.2989 70.0658 85.2989 70.0658L83.9606 72.3241L70.3568 72.0092Z" fill="#64BC26"/>
<path opacity="0.8" d="M70.3568 72.0092L69.4023 67.2909C70.773 67.6909 72.1872 67.9222 73.6139 67.9797C75.5277 67.9797 79.6753 67.8272 81.7368 67.1138C82.3075 67.9207 85.2989 70.0658 85.2989 70.0658L83.9606 72.3241L70.3568 72.0092Z" fill="white"/>
<path d="M82.5873 55.2419C82.5541 55.237 82.5223 55.2253 82.4939 55.2074C82.4468 55.1762 82.4138 55.1279 82.4019 55.0728C82.3899 55.0177 82.4 54.9601 82.4299 54.9122C82.6075 54.6265 82.8514 54.3879 83.1409 54.2166C83.4304 54.0453 83.757 53.9464 84.0929 53.9282C84.1494 53.9282 84.2038 53.9503 84.2442 53.9899C84.2847 54.0294 84.308 54.0832 84.3093 54.1398C84.3093 54.1964 84.2872 54.2507 84.2477 54.2911C84.2081 54.3316 84.1543 54.355 84.0978 54.3563C83.8316 54.374 83.5737 54.4558 83.3458 54.5945C83.118 54.7333 82.927 54.925 82.7891 55.1533C82.7672 55.1856 82.7367 55.211 82.701 55.2267C82.6653 55.2424 82.6259 55.2476 82.5873 55.2419Z" fill="#263238"/>
<path d="M83.9607 57.7559C84.2969 58.5857 84.7455 59.3655 85.294 60.0732C85.1101 60.2057 84.8994 60.2964 84.6767 60.3388C84.4541 60.3813 84.2248 60.3746 84.005 60.3192L83.9607 57.7559Z" fill="#FF5652"/>
<path d="M83.6401 57.131C83.6401 57.495 83.8419 57.7902 84.078 57.7902C84.3142 57.7902 84.5061 57.495 84.4962 57.131C84.4864 56.7669 84.2945 56.4717 84.0583 56.4717C83.8222 56.4717 83.6401 56.7669 83.6401 57.131Z" fill="#263238"/>
<path d="M83.9355 56.4914L84.8064 56.2405C84.8064 56.2405 84.3685 56.9244 83.9355 56.4914Z" fill="#263238"/>
<path d="M101.072 201.302L105.436 199.801L102.356 190.094L97.9968 191.6L101.072 201.302Z" fill="#FF8B7B"/>
<path d="M65.6729 200.205H70.1748L69.6778 189.774H65.176L65.6729 200.205Z" fill="#FF8B7B"/>
<path d="M70.5286 199.683H65.4659C65.3799 199.682 65.2965 199.713 65.2314 199.769C65.1662 199.825 65.1236 199.903 65.1117 199.988L64.5902 203.993C64.5813 204.095 64.5937 204.197 64.6265 204.294C64.6593 204.391 64.7118 204.48 64.7807 204.555C64.8496 204.63 64.9334 204.691 65.0268 204.732C65.1202 204.773 65.2211 204.795 65.3233 204.795C67.0895 204.765 67.9358 204.662 70.1596 204.662C71.5323 204.662 73.5298 204.8 75.424 204.8C77.3182 204.8 77.392 202.935 76.5999 202.763C73.0575 202.005 72.4868 200.957 71.2814 199.959C71.0692 199.784 70.8036 199.686 70.5286 199.683V199.683Z" fill="#263238"/>
<path d="M104.865 198.03L100.186 200.244C100.105 200.277 100.039 200.339 100.002 200.419C99.9642 200.498 99.958 200.588 99.9842 200.672L101.19 204.431C101.228 204.526 101.285 204.612 101.358 204.683C101.431 204.755 101.519 204.811 101.614 204.847C101.71 204.883 101.812 204.899 101.915 204.893C102.017 204.888 102.117 204.861 102.208 204.815C103.827 204.022 104.57 203.56 106.636 202.596C107.901 202 110.572 200.893 112.333 200.072C114.095 199.25 113.362 197.567 112.56 197.759C108.968 198.63 107.226 198.315 105.672 197.956C105.402 197.891 105.118 197.917 104.865 198.03Z" fill="#263238"/>
<path opacity="0.2" d="M102.356 190.099L104.009 195.294L99.5809 196.603L97.9917 191.599L102.356 190.099Z" fill="black"/>
<path opacity="0.2" d="M65.176 189.779H69.6778L69.9337 195.152H65.4319L65.176 189.779Z" fill="black"/>
<path d="M63.9157 71.5218C62.0412 71.8957 59.9797 78.582 59.9797 78.582L65.2441 84.3039C65.2441 84.3039 69.6721 78.0752 68.7915 75.7333C67.896 73.3077 66.1297 71.0839 63.9157 71.5218Z" fill="#64BC26"/>
<path opacity="0.2" d="M63.9157 71.5218C62.0412 71.8957 59.9797 78.582 59.9797 78.582L65.2441 84.3039C65.2441 84.3039 69.6721 78.0752 68.7915 75.7333C67.896 73.3077 66.1297 71.0839 63.9157 71.5218Z" fill="black"/>
<path opacity="0.4" d="M66.8585 75.8615C67.808 75.0152 68.4476 75.2858 68.8806 75.9795C69.2988 77.9869 66.7256 82.1197 65.6875 83.6842C65.225 81.7851 64.7035 77.7852 66.8585 75.8615Z" fill="black"/>
<path d="M87.9746 73.0767C88.3091 75.0447 88.3829 81.0422 85.3079 99.2314L67.0006 98.8919C67.3548 91.4578 67.3893 86.8724 63.9158 71.5417C66.4841 71.0631 69.0838 70.772 71.6943 70.6708C74.4647 70.5307 77.2416 70.5866 80.0042 70.8381C82.6659 71.1284 85.5884 71.7089 86.8922 71.9845C87.161 72.0377 87.4078 72.1701 87.6007 72.3648C87.7936 72.5594 87.9238 72.8074 87.9746 73.0767Z" fill="#64BC26"/>
<path opacity="0.2" d="M87.9746 73.0767C88.3091 75.0447 88.3829 81.0422 85.3079 99.2314L67.0006 98.8919C67.3548 91.4578 67.3893 86.8724 63.9158 71.5417C66.4841 71.0631 69.0838 70.772 71.6943 70.6708C74.4647 70.5307 77.2416 70.5866 80.0042 70.8381C82.6659 71.1284 85.5884 71.7089 86.8922 71.9845C87.161 72.0377 87.4078 72.1701 87.6007 72.3648C87.7936 72.5594 87.9238 72.8074 87.9746 73.0767Z" fill="black"/>
<path d="M71.3995 55.9256C71.7489 60.388 71.803 62.2822 74.0908 64.5651C77.5348 68.0091 82.9468 66.6708 83.9308 62.2133C84.8213 58.1986 84.098 51.5763 79.7045 49.81C78.7462 49.4093 77.7005 49.2636 76.6692 49.3872C75.6379 49.5109 74.6562 49.8996 73.8198 50.5155C72.9834 51.1313 72.3209 51.9534 71.8967 52.9016C71.4726 53.8497 71.3013 54.8915 71.3995 55.9256V55.9256Z" fill="#FF8B7B"/>
<path d="M72.5799 47.7239C67.7386 48.0831 66.6168 53.7706 68.5012 57.4016C65.5 61.9673 65.8641 63.6155 66.8235 64.6783C68.4717 66.5183 76.9537 68.7323 82.0312 64.9095C84.2993 63.2023 80.0976 57.131 80.0976 57.131C80.0976 57.131 82.5429 46.9712 72.5799 47.7239Z" fill="#263238"/>
<path d="M67.2861 64.8604C65.9134 64.8604 65.4263 64.1814 65.2689 63.5812C64.7769 61.6132 67.2369 57.7953 69.6969 56.7375C69.7603 56.718 69.8286 56.7225 69.8889 56.7501C69.9492 56.7777 69.9973 56.8265 70.024 56.8872C70.0507 56.9479 70.0542 57.0163 70.0338 57.0794C70.0134 57.1425 69.9706 57.1959 69.9134 57.2295C67.7338 58.1692 65.3476 61.7657 65.7953 63.4434C65.9774 64.1322 66.6465 64.4274 67.7633 64.2897C67.8344 64.2828 67.9053 64.3043 67.9606 64.3494C68.0159 64.3946 68.0511 64.4598 68.0585 64.5308C68.0626 64.5657 68.0598 64.6011 68.0501 64.6349C68.0404 64.6687 68.0241 64.7002 68.0021 64.7277C67.9802 64.7552 67.953 64.778 67.9221 64.7949C67.8912 64.8117 67.8573 64.8223 67.8224 64.826C67.6403 64.8456 67.4534 64.8604 67.2861 64.8604Z" fill="#263238"/>
<path d="M74.5923 59.1483L69.264 59.3254C69.054 59.3327 68.8448 59.2974 68.6489 59.2216C68.453 59.1458 68.2745 59.0312 68.1241 58.8845C67.9737 58.7378 67.8547 58.5622 67.7741 58.3682C67.6934 58.1742 67.653 57.9659 67.6551 57.7559V57.7559C67.6572 57.3246 67.8247 56.9106 68.1232 56.5994C68.4217 56.2881 68.8282 56.1033 69.259 56.0831L74.5874 55.906C74.7973 55.8987 75.0065 55.9339 75.2025 56.0097C75.3984 56.0855 75.5769 56.2002 75.7273 56.3469C75.8776 56.4935 75.9967 56.6692 76.0773 56.8631C76.1579 57.0571 76.1984 57.2654 76.1962 57.4755V57.4755C76.1942 57.9067 76.0266 58.3207 75.7282 58.632C75.4297 58.9433 75.0231 59.1281 74.5923 59.1483V59.1483Z" fill="#64BC26"/>
<path d="M73.1809 49.3475C74.9964 46.5235 79.7491 45.6723 82.7552 47.4435C86.273 49.5148 86.1992 53.6722 80.2608 55.9994C73.8008 58.5479 73.1809 49.3475 73.1809 49.3475Z" fill="#263238"/>
<path d="M81.264 55.9501C81.9841 56.5708 82.4874 57.405 82.7007 58.3314C82.9663 59.5073 82.2087 59.3498 81.3378 58.8677C80.5506 58.4347 79.3206 57.5786 79.3698 56.5995C79.419 55.6205 80.4916 55.2859 81.264 55.9501Z" fill="#FF8B7B"/>
<path d="M80.4724 99.1331C80.4724 99.1331 77.6828 129.962 74.8685 147.315C72.5955 161.327 70.6718 194.114 70.6718 194.114H64.5316C64.5316 194.114 62.5292 162.134 63.7198 148.23C66.7407 113.106 60.4775 110.115 67.0015 98.8723L80.4724 99.1331Z" fill="#263238"/>
<path opacity="0.4" d="M74.2289 109.44C75.8279 111.792 77.9632 114.503 78.6569 117.367C78.1059 122.567 77.4614 128.318 76.7627 133.849C75.0702 129.199 72.1773 119.905 74.2289 109.44Z" fill="black"/>
<path d="M85.3088 99.2313C85.3088 99.2313 91.2965 132.973 93.8106 146.493C96.4231 160.549 103.838 191.84 103.838 191.84L97.7122 194.989C97.7122 194.989 85.0432 157.204 83.5327 150.114C79.5377 135.3 68.0938 98.8918 68.0938 98.8918L85.3088 99.2313Z" fill="#263238"/>
<path d="M105.107 193.154L97.6628 196.121L96.2163 193.528L104.182 190.345L105.107 193.154Z" fill="#64BC26"/>
<path d="M71.5127 194.237H63.6948L63.2422 191.491L71.5176 191.211L71.5127 194.237Z" fill="#64BC26"/>
<path d="M66.7349 97.7949L65.8985 99.4135C65.8346 99.5365 65.9871 99.6694 66.1986 99.6743L85.3866 100.053C85.5539 100.053 85.6917 99.9744 85.7015 99.8711L85.8737 98.2426C85.8737 98.1294 85.7458 98.031 85.5638 98.0261L67.0301 97.662C66.9735 97.6559 66.9164 97.665 66.8645 97.6883C66.8126 97.7117 66.7679 97.7485 66.7349 97.7949V97.7949Z" fill="#64BC26"/>
<path d="M69.2148 99.9103H68.7228C68.6244 99.9103 68.5457 99.8562 68.5555 99.7972L68.8015 97.6766C68.8015 97.6127 68.895 97.5635 68.9934 97.5635H69.4854C69.5838 97.5635 69.6576 97.6176 69.6527 97.6816L69.4067 99.8021C69.3968 99.8759 69.3132 99.9152 69.2148 99.9103Z" fill="#263238"/>
<path d="M81.2446 100.146H80.7526C80.6542 100.146 80.5804 100.092 80.5902 100.033L80.8313 97.9127C80.8313 97.8488 80.9248 97.7996 81.0281 97.7996H81.5201C81.6234 97.7996 81.6972 97.8537 81.6874 97.9176L81.4414 100.038C81.4316 100.102 81.343 100.151 81.2446 100.146Z" fill="#263238"/>
<path d="M90.2974 75.3843C90.8534 76.324 91.4438 77.3523 92.049 78.292C92.6541 79.2317 93.2544 80.2256 93.889 81.1604C94.5237 82.0952 95.1781 83.0201 95.857 83.9106C96.536 84.8012 97.2248 85.6425 97.948 86.4149C98.5387 86.9856 99.2679 87.3925 100.064 87.5957C101.066 87.878 102.095 88.056 103.134 88.1271C105.371 88.28 107.618 88.2438 109.85 88.0188L110.342 90.2427C107.985 91.0092 105.539 91.464 103.065 91.5957C101.748 91.6672 100.426 91.583 99.1288 91.3448C98.4169 91.2046 97.7212 90.9919 97.0526 90.7101C96.3069 90.3905 95.6201 89.9481 95.0207 89.4014C93.2085 87.6921 91.5748 85.8029 90.1449 83.763C88.7151 81.7956 87.4135 79.738 86.2483 77.6032L90.2974 75.3843Z" fill="#FF8B7B"/>
<path d="M87.6744 72.0926C92.0434 72.7863 93.849 79.02 93.849 79.02L88.5994 84.0777C88.5994 84.0777 82.656 78.6214 82.656 75.1479C82.656 72.5649 85.2931 71.7138 87.6744 72.0926Z" fill="#64BC26"/>
<path opacity="0.2" d="M87.6744 72.0926C92.0434 72.7863 93.849 79.02 93.849 79.02L88.5994 84.0777C88.5994 84.0777 82.656 78.6214 82.656 75.1479C82.656 72.5649 85.2931 71.7138 87.6744 72.0926Z" fill="black"/>
<path d="M115.025 85.185C114.966 85.9673 114.863 86.7397 114.75 87.5072C114.637 88.2747 114.499 89.0373 114.356 89.795C114.213 90.5527 114.051 91.3104 113.864 92.0631C113.677 92.8159 113.712 93.6179 112.88 94.1837C112.748 94.2576 112.595 94.2861 112.444 94.2647C112.294 94.2434 112.155 94.1735 112.049 94.0656C112.007 94.0227 111.97 93.9747 111.94 93.9229C111.448 92.9881 111.876 92.3042 112.014 91.5465C112.152 90.7889 112.403 90.0705 112.614 89.3129C112.826 88.5552 113.052 87.8369 113.293 87.1038C113.534 86.3707 113.785 85.6278 114.085 84.9242C114.149 84.8265 114.245 84.7546 114.357 84.7212C114.469 84.6879 114.589 84.6953 114.696 84.7422C114.788 84.7746 114.87 84.8341 114.928 84.913C114.987 84.9919 115.021 85.0867 115.025 85.185Z" fill="#263238"/>
<path d="M115.089 86.0165L113.613 85.7754C113.392 85.736 113.284 85.4654 113.367 85.1702C113.451 84.875 113.702 84.6782 113.923 84.6782L115.399 84.9242C115.621 84.9587 115.729 85.2293 115.645 85.5294C115.562 85.8443 115.311 86.0558 115.089 86.0165Z" fill="#263238"/>
<path d="M117.549 74.3412C115.306 73.6917 112.708 75.5859 111.753 78.5773C110.799 81.5687 111.842 84.5207 114.086 85.1701C116.329 85.8195 118.927 83.9204 119.886 80.934C120.846 77.9475 119.798 74.9906 117.549 74.3412ZM114.361 84.314C112.467 83.7679 111.591 81.2833 112.393 78.7642C113.195 76.2452 115.384 74.6511 117.274 75.1972C119.163 75.7434 120.049 78.228 119.242 80.747C118.435 83.2661 116.25 84.8601 114.361 84.314Z" fill="#64BC26"/>
<path opacity="0.1" d="M114.882 84.6239C113.111 84.1319 112.285 81.7802 113.037 79.4235C113.79 77.0668 115.842 75.5613 117.618 76.0779C119.394 76.5945 120.216 78.9216 119.458 81.2783C118.7 83.635 116.654 85.1159 114.882 84.6239Z" fill="#64BC26"/>
<path d="M108.432 90.4051L113.254 91.3055L113.746 87.2612C113.746 87.2612 109.78 87.4925 108.417 88.7372L108.432 90.4051Z" fill="#FF8B7B"/>
<path d="M114.465 91.2955L115.316 88.6092C115.347 88.5193 115.347 88.4213 115.315 88.3316C115.283 88.2419 115.22 88.1662 115.139 88.1172L113.761 87.2463L113.269 91.2906L113.933 91.5464C114.037 91.5829 114.151 91.577 114.25 91.53C114.35 91.483 114.427 91.3988 114.465 91.2955V91.2955Z" fill="#FF8B7B"/>
</svg>
