<svg width="246" height="246" viewBox="0 0 246 246" fill="none" xmlns="http://www.w3.org/2000/svg">
<path d="M56.2945 123.212C55.1383 108.535 26.6712 84.4617 36.6883 72.2404C49.1359 57.0573 96.4564 78.6118 117.627 74.4643C140.328 70.0363 179.821 28.7083 199.791 38.317C223.496 49.7511 191.122 105.067 194.443 128.132C196.308 141.096 219.043 169.834 208.775 179.792C192.49 195.536 142.473 169.902 118.04 171.649C99.064 173.007 55.0399 197.873 41.8986 186.468C28.2997 174.66 57.5983 139.807 56.2945 123.212Z" fill="#64BC26"/>
<path opacity="0.9" d="M56.2945 123.212C55.1383 108.535 26.6712 84.4617 36.6883 72.2404C49.1359 57.0573 96.4564 78.6118 117.627 74.4643C140.328 70.0363 179.821 28.7083 199.791 38.317C223.496 49.7511 191.122 105.067 194.443 128.132C196.308 141.096 219.043 169.834 208.775 179.792C192.49 195.536 142.473 169.902 118.04 171.649C99.064 173.007 55.0399 197.873 41.8986 186.468C28.2997 174.66 57.5983 139.807 56.2945 123.212Z" fill="white"/>
<path d="M123 210.36C175.685 210.36 218.394 207.866 218.394 204.79C218.394 201.714 175.685 199.221 123 199.221C70.3157 199.221 27.6064 201.714 27.6064 204.79C27.6064 207.866 70.3157 210.36 123 210.36Z" fill="#F5F5F5"/>
<path d="M123.43 168.287C150.958 168.287 173.274 145.971 173.274 118.443C173.274 90.9145 150.958 68.5986 123.43 68.5986C95.9023 68.5986 73.5864 90.9145 73.5864 118.443C73.5864 145.971 95.9023 168.287 123.43 168.287Z" fill="#64BC26"/>
<path opacity="0.2" d="M165.005 128.228C170.427 105.257 156.2 82.239 133.228 76.8172C110.256 71.3954 87.2389 85.6224 81.8171 108.594C76.3953 131.566 90.6223 154.583 113.594 160.005C136.566 165.427 159.583 151.2 165.005 128.228Z" fill="black"/>
<path d="M118.115 138.852C117.536 138.864 116.96 138.762 116.42 138.552C115.881 138.341 115.388 138.026 114.97 137.625L96.8249 119.857C95.9908 119.048 95.5123 117.941 95.4946 116.779C95.477 115.618 95.9215 114.496 96.7305 113.662C97.5396 112.828 98.6468 112.35 99.8086 112.332C100.97 112.314 102.092 112.759 102.926 113.568L117.8 128.128L143.524 99.4167C144.313 98.6217 145.377 98.1598 146.496 98.1262C147.615 98.0927 148.705 98.49 149.54 99.2362C150.375 99.9825 150.892 101.021 150.984 102.137C151.075 103.253 150.735 104.362 150.034 105.234L121.259 137.342C120.863 137.786 120.379 138.144 119.838 138.393C119.297 138.641 118.71 138.776 118.115 138.789V138.852Z" fill="white"/>
</svg>
