<svg width="233" height="221" viewBox="0 0 233 221" fill="none" xmlns="http://www.w3.org/2000/svg">
<path d="M179 4.03074C159.558 -3.18547 135.93 -0.203563 117.633 8.93298C108.431 13.5311 102.3 20.4729 94.9703 27.4208C84.6827 37.1179 75.7489 38.1556 62.7657 41.6206C24.9671 51.7591 21.854 93.297 31.3902 119.675C42.9898 151.754 76.5183 172.103 110.965 167.982C134.164 165.214 154.561 157.545 170.353 143.53C182.686 132.575 181.714 119.442 181.028 104.169C180.509 92.4859 179.096 79.616 183.682 68.4875C187.857 58.3073 197.589 61.7246 203.959 54.0432C220.216 34.4461 195.365 10.1079 179 4.03074Z" fill="#64BC26"/>
<path opacity="0.9" d="M179 4.03074C159.558 -3.18547 135.93 -0.203563 117.633 8.93298C108.431 13.5311 102.3 20.4729 94.9703 27.4208C84.6827 37.1179 75.7489 38.1556 62.7657 41.6206C24.9671 51.7591 21.854 93.297 31.3902 119.675C42.9898 151.754 76.5183 172.103 110.965 167.982C134.164 165.214 154.561 157.545 170.353 143.53C182.686 132.575 181.714 119.442 181.028 104.169C180.509 92.4859 179.096 79.616 183.682 68.4875C187.857 58.3073 197.589 61.7246 203.959 54.0432C220.216 34.4461 195.365 10.1079 179 4.03074Z" fill="white"/>
<path d="M116.45 221C180.312 221 232.082 217.978 232.082 214.249C232.082 210.521 180.312 207.498 116.45 207.498C52.5882 207.498 0.817871 210.521 0.817871 214.249C0.817871 217.978 52.5882 221 116.45 221Z" fill="#F5F5F5"/>
<g clip-path="url(#clip0)">
<path d="M70.6336 99.9096C70.7083 100.323 70.7731 100.642 70.8477 100.996L71.1017 102.024C71.276 102.702 71.4553 103.38 71.6744 104.048C72.1015 105.394 72.6104 106.713 73.1983 107.997C73.803 109.321 74.5141 110.593 75.3247 111.801L75.6434 112.255L75.8028 112.484L75.9323 112.654L76.0966 112.868C76.5494 113.406 77.1136 113.838 77.75 114.135C78.722 114.562 79.7844 114.742 80.8426 114.658C82.3809 114.529 83.8914 114.171 85.3245 113.596C86.6258 113.099 87.8948 112.521 89.1242 111.866C91.5224 110.598 93.82 109.148 95.9966 107.528C96.2765 107.316 96.4683 107.007 96.5354 106.662C96.6024 106.316 96.5401 105.958 96.3602 105.656C96.1803 105.354 95.8955 105.128 95.5601 105.023C95.2248 104.918 94.8625 104.94 94.5424 105.085H94.5025C92.1968 106.167 89.7965 107.199 87.4409 108.077C86.2557 108.511 85.0705 108.904 83.9151 109.209C82.8758 109.511 81.8002 109.67 80.718 109.682C80.4577 109.696 80.1985 109.641 79.966 109.523C79.966 109.523 80.0356 109.523 80.0855 109.577V109.533L79.9809 109.348L79.7717 108.974C79.2217 107.934 78.7393 106.86 78.3275 105.758C77.8893 104.636 77.5158 103.475 77.1672 102.298C77.0029 101.71 76.8236 101.121 76.6692 100.528L76.2459 98.8027L76.216 98.6681C76.0328 97.9484 75.5787 97.3275 74.9487 96.9354C74.3187 96.5432 73.5617 96.4103 72.836 96.5642C72.1103 96.7182 71.4721 97.1471 71.0551 97.7613C70.6381 98.3756 70.4745 99.1275 70.5986 99.8598L70.6336 99.9096Z" fill="#FFC3BD"/>
<path d="M94.4925 108.081L97.4456 108.171L97.3012 103.604C97.3012 103.604 94.4029 104.332 93.2227 106.162L94.4925 108.081Z" fill="#FFC3BD"/>
<path d="M100.553 105.105L100.518 104.945C100.453 104.5 100.219 104.096 99.865 103.818C99.5111 103.539 99.0641 103.408 98.616 103.449L97.3013 103.624L97.4457 108.191L98.9396 107.907C100.04 107.678 100.812 106.361 100.553 105.105V105.105Z" fill="#FFC3BD"/>
<path d="M72.6502 91.7225C76.8683 93.5225 77.9589 98.5634 77.9589 101.969C75.7547 103.373 73.3525 104.439 70.8325 105.13C70.8325 105.13 67.0627 100.518 66.7938 97.6908C66.3058 92.5103 70.0009 90.5608 72.6502 91.7225Z" fill="#64BC26"/>
<path d="M67.2471 94.1256C67.5787 93.3216 68.1334 92.6294 68.8457 92.1312C70.1753 92.0664 71.505 91.9567 72.8296 91.8071C73.7077 92.2108 74.4979 92.7834 75.1553 93.4924C72.5362 93.8792 69.8943 94.0908 67.2471 94.1256V94.1256Z" fill="white"/>
<path d="M67.0379 98.7679C66.9158 98.4108 66.834 98.0412 66.7939 97.666C66.7662 97.381 66.7529 97.0947 66.754 96.8083C70.1072 96.8047 73.4542 96.5162 76.7587 95.9458C77.0357 96.5555 77.2606 97.1877 77.431 97.8355C74.0011 98.4542 70.523 98.7663 67.0378 98.7679H67.0379Z" fill="white"/>
<path d="M68.2979 101.445C71.5172 101.394 74.7268 101.077 77.8942 100.498C77.939 100.997 77.959 101.495 77.959 101.944C77.5357 102.223 77.1223 102.467 76.704 102.702C74.3331 103.074 71.9415 103.299 69.5428 103.375C69.1444 102.807 68.7062 102.143 68.2979 101.445Z" fill="white"/>
<path d="M57.9644 200.508L53.3579 200.069L52.1478 210.714L56.7542 211.148L57.9644 200.508Z" fill="#FFC3BD"/>
<path d="M29.7183 194.953L25.4753 193.069L20.0522 202.338L24.2951 204.222L29.7183 194.953Z" fill="#FFC3BD"/>
<path d="M25.495 202.537L21.8846 198.763C21.8552 198.726 21.8189 198.696 21.7777 198.675C21.7366 198.653 21.6915 198.639 21.645 198.635C21.5986 198.631 21.5518 198.636 21.5074 198.65C21.463 198.664 21.4219 198.687 21.3866 198.718L18.0948 201.211C18.0135 201.278 17.9469 201.362 17.8995 201.456C17.852 201.55 17.8246 201.653 17.8189 201.759C17.8133 201.864 17.8297 201.97 17.8669 202.068C17.9041 202.167 17.9614 202.257 18.0352 202.333C19.315 203.629 19.9973 204.188 21.5859 205.848C22.5819 206.845 24.5739 209.273 25.9284 210.684C27.283 212.095 28.6923 210.814 28.254 210.106C26.2621 206.92 25.9433 204.935 25.8139 203.32C25.7995 203.03 25.6871 202.754 25.4952 202.537L25.495 202.537Z" fill="#263238"/>
<path d="M57.2971 208.441H51.8192C51.7217 208.442 51.6275 208.475 51.551 208.536C51.4745 208.596 51.4199 208.68 51.3959 208.775L50.3252 213.122C50.3001 213.227 50.2992 213.335 50.3224 213.44C50.3457 213.544 50.3925 213.642 50.4592 213.726C50.526 213.81 50.611 213.877 50.7078 213.923C50.8045 213.968 50.9104 213.991 51.0174 213.99C52.9546 213.99 53.8709 213.855 56.2812 213.855C57.7752 213.855 61.6048 214 63.6515 214C65.6983 214 66.017 211.971 65.1854 211.786C61.4404 210.964 59.2692 209.827 58.0889 208.745C57.8741 208.545 57.5904 208.436 57.2971 208.441V208.441Z" fill="#263238"/>
<path opacity="0.2" d="M52.6806 205.997L53.3579 200.074L57.9644 200.513L57.2871 206.461L52.6806 205.997Z" fill="black"/>
<path opacity="0.2" d="M26.9195 199.73L22.6766 197.845L25.4704 193.069L29.7183 194.953L26.9195 199.73Z" fill="black"/>
<path d="M48.4629 114.11L66.4306 119.595C71.5798 108.401 74.0449 101.984 75.2003 98.3141C75.6124 97.0061 75.5409 95.5933 74.9987 94.3336C74.4565 93.074 73.4799 92.0517 72.2472 91.4534C71.5848 91.1293 70.8827 90.7952 70.1705 90.4811C69.7174 90.2767 69.2592 90.0822 68.806 89.8927C66.1494 88.8694 63.4234 88.0363 60.6488 87.3997C60.2405 87.2901 59.8321 87.2003 59.4287 87.1056C58.1041 86.8114 56.8193 86.6069 55.7336 86.4324C55.3553 86.3786 54.9699 86.4043 54.6021 86.508C54.2342 86.6116 53.892 86.7909 53.5972 87.0344C53.3025 87.2779 53.0617 87.5803 52.8902 87.9222C52.7187 88.2641 52.6203 88.6381 52.6012 89.0202C52.4917 91.2041 52.3672 93.1536 52.2277 94.9187C51.9638 98.2045 51.655 100.837 51.2815 103.116C50.6363 106.85 49.6938 110.526 48.4629 114.11V114.11Z" fill="#64BC26"/>
<path d="M52.626 88.7907C52.7217 88.1109 53.066 87.4908 53.5921 87.0505C59.2102 88.6387 64.9239 89.8661 70.6982 90.7253C71.2311 90.9696 71.759 91.2239 72.257 91.4582C73.0512 91.8436 73.7451 92.4086 74.2838 93.1086C66.9602 92.2551 59.7175 90.8111 52.626 88.7907V88.7907Z" fill="white"/>
<path d="M52.4615 91.498C59.9738 93.596 67.6507 95.0505 75.4092 95.8459C75.4953 96.4728 75.4768 97.1098 75.3544 97.7306C67.5739 96.9652 59.8722 95.5407 52.332 93.4725C52.3768 92.8393 52.4216 92.1811 52.4615 91.498H52.4615Z" fill="white"/>
<path d="M51.9385 98.1096C52.0032 97.4813 52.0629 96.8381 52.1227 96.155C59.4796 98.1301 66.9866 99.4942 74.5674 100.234C74.3732 100.792 74.1541 101.4 73.9101 102.054C66.4921 101.333 59.1444 100.014 51.9385 98.1096V98.1096Z" fill="white"/>
<path d="M51.3511 102.692C51.4457 102.078 51.5403 101.44 51.625 100.767C58.627 102.581 65.7602 103.843 72.9591 104.542C72.735 105.12 72.491 105.718 72.232 106.356C65.1887 105.669 58.208 104.444 51.3511 102.692V102.692Z" fill="white"/>
<path d="M50.4697 107.179C50.6141 106.566 50.7486 105.943 50.883 105.294C57.5578 106.972 64.3475 108.154 71.1963 108.83C70.9523 109.408 70.6983 110.011 70.4294 110.634C63.7012 109.97 57.0303 108.815 50.4697 107.179V107.179Z" fill="white"/>
<path d="M49.2593 111.587C49.4485 110.963 49.6278 110.35 49.8021 109.732C56.2336 111.323 62.7708 112.452 69.3634 113.107C69.1044 113.691 68.8405 114.294 68.5616 114.912C62.0577 114.258 55.6077 113.146 49.2593 111.587V111.587Z" fill="white"/>
<path d="M59.742 87.5791L69.3334 90.5707C69.3334 90.5707 71.8234 92.9291 66.3056 95.3823C55.509 89.9974 59.742 87.5791 59.742 87.5791V87.5791Z" fill="white"/>
<path opacity="0.3" d="M52.2276 94.9334C52.2276 94.7589 52.2576 94.5794 52.2675 94.3999C52.6833 94.4216 53.085 94.5582 53.4281 94.7944C53.7712 95.0306 54.0423 95.3572 54.2114 95.7382C54.3805 96.1191 54.441 96.5395 54.3863 96.9528C54.3315 97.366 54.1635 97.756 53.901 98.0796C53.2348 98.8851 52.4964 99.6278 51.6948 100.298C51.889 98.7028 52.0683 96.9428 52.2277 94.9334H52.2276Z" fill="black"/>
<path d="M63.557 82.3336C62.8448 84.5474 61.7094 86.7214 59.9913 87.3695C59.9913 87.3695 56.3061 89.5983 66.2212 94.325C71.5548 91.9567 69.2092 90.4559 69.2092 90.4559C66.1764 88.6609 66.8537 86.7263 68.9801 83.8295L66.6943 82.0644C65.9125 80.8877 63.9653 81.0572 63.557 82.3336V82.3336Z" fill="#FFC3BD"/>
<path opacity="0.2" d="M66.6845 82.0646C65.9524 80.9528 64.1945 81.0675 63.6367 82.1344C64.263 84.135 65.5126 85.8823 67.2024 87.1205C67.3916 86.1581 68.044 85.0761 68.9703 83.8147L66.6845 82.0646Z" fill="black"/>
<path d="M72.944 70.4919C77.9239 77.4724 76.1361 83.2063 72.0277 83.9094C67.8097 79.5316 72.944 70.4919 72.944 70.4919Z" fill="#263238"/>
<path d="M61.1466 74.7947C61.6446 79.4068 61.7442 81.3663 64.1346 83.6848C67.75 87.1751 73.208 85.6792 74.0945 81.0522C74.8813 76.8839 73.9451 70.043 69.4183 68.3079C64.8915 66.5728 60.6536 70.1826 61.1466 74.7947Z" fill="#FFC3BD"/>
<path d="M74.4777 74.1467L74.5076 74.1167C74.5432 74.0699 74.5594 74.0111 74.5529 73.9527C74.5464 73.8942 74.5178 73.8405 74.4728 73.8026C74.2178 73.568 73.9091 73.3999 73.5739 73.3129C73.2386 73.226 72.8872 73.2229 72.5505 73.304C72.5015 73.3272 72.4626 73.3674 72.441 73.4172C72.4193 73.467 72.4165 73.5229 72.4329 73.5747C72.4493 73.6264 72.4839 73.6704 72.5302 73.6986C72.5766 73.7268 72.6315 73.7371 72.6849 73.7278C72.9519 73.6676 73.2294 73.6729 73.4939 73.7432C73.7583 73.8135 74.0019 73.9468 74.2038 74.1317C74.24 74.1668 74.2876 74.1877 74.338 74.1904C74.3883 74.1932 74.4379 74.1777 74.4777 74.1467V74.1467Z" fill="#263238"/>
<path d="M60.0659 78.8934C60.3401 79.8313 60.9642 80.6276 61.8089 81.1172C62.9294 81.7455 63.7611 80.8181 63.6764 79.6214C63.6017 78.5245 62.9245 76.8741 61.6845 76.7395C60.4444 76.6049 59.7422 77.7616 60.0659 78.8934V78.8934Z" fill="#FFC3BD"/>
<path d="M64.5179 72.7207C66.6294 76.545 65.5138 82.8723 62.3167 84.4379C59.5229 85.8141 57.6953 83.9094 58.2182 82.3887C56.3408 82.5831 53.7711 80.0901 55.7033 78.2303C57.0579 76.9289 58.6913 73.0548 58.0539 70.4222C57.4164 67.7896 59.2739 67.3209 60.5737 67.8743C60.489 64.2993 72.7597 66.0095 74.3981 69.8687C75.6879 72.9301 70.7577 72.1424 69.9958 71.2549C69.9459 73.4936 65.2599 73.4138 64.5179 72.7207Z" fill="#263238"/>
<path d="M53.5918 69.2853C53.5519 70.4221 54.3139 71.3295 55.295 71.3146C55.8073 71.2621 56.2812 71.0187 56.6225 70.6326C56.9639 70.2465 57.1477 69.7459 57.1376 69.2304C57.1724 68.0936 56.4105 67.1861 55.4344 67.2011C54.9221 67.2536 54.4482 67.497 54.1068 67.8831C53.7655 68.2692 53.5817 68.7697 53.5918 69.2853V69.2853Z" fill="#64BC26"/>
<path d="M72.0678 67.5951C70.9423 66.3485 64.9066 63.2871 58.1737 65.9696C54.5632 67.4056 55.5592 69.9585 56.4855 69.42C56.3791 69.6974 56.3439 69.997 56.3833 70.2916C56.4226 70.5861 56.5351 70.8661 56.7106 71.1058C56.886 71.3454 57.1188 71.5371 57.3875 71.6634C57.6561 71.7896 57.9522 71.8463 58.2484 71.8282C57.9646 72.98 70.4942 71.1152 72.0678 67.5951Z" fill="#64BC26"/>
<path opacity="0.3" d="M72.0678 67.5951C70.9423 66.3485 64.9066 63.2871 58.1737 65.9696C54.5632 67.4056 55.5592 69.9585 56.4855 69.42C56.3791 69.6974 56.3439 69.997 56.3833 70.2916C56.4226 70.5861 56.5351 70.8661 56.7106 71.1058C56.886 71.3454 57.1188 71.5371 57.3875 71.6634C57.6561 71.7896 57.9522 71.8463 58.2484 71.8282C57.9646 72.98 70.4942 71.1152 72.0678 67.5951Z" fill="black"/>
<path d="M71.8338 67.1812C72.4015 67.1812 73.8955 68.5623 73.8756 69.0758C70.4793 69.5744 61.1568 72.237 57.6011 74.9045C57.0334 73.0647 57.4317 71.9777 57.4317 71.9777C57.4317 71.9777 64.2941 67.1812 71.8337 67.1812H71.8338Z" fill="#64BC26"/>
<path d="M66.4304 119.644C66.4304 119.644 65.1655 143.178 64.3189 161.268C63.6416 175.647 58.8061 203.853 58.8061 203.853L51.7744 202.856C51.7744 202.856 50.9527 174.58 54.6329 161.936C51.4357 141.493 45.7237 121.928 52.0084 115.142L66.4304 119.644Z" fill="#263238"/>
<path d="M59.279 205.03L51.4007 204.492L51.0919 200.792L59.9214 201.211L59.279 205.03Z" fill="#263238"/>
<path opacity="0.3" d="M56.3707 132.523L49.2295 127.462C49.5582 134.667 51.4605 143.861 53.2134 153.659C56.057 146.299 57.8099 138.491 56.3707 132.523Z" fill="black"/>
<path d="M62.4913 118.473C62.4913 118.473 53.119 142.745 49.0853 160.32C48.604 162.478 47.929 164.587 47.0684 166.623C41.0377 180.698 29.011 197.875 29.011 197.875L23.3887 194.809C23.3887 194.809 34.1753 165.262 38.8266 158.466C39.9719 138.242 40.4948 120.427 48.4777 114.09L62.4913 118.473Z" fill="#263238"/>
<path d="M23.4085 192.39L31.0776 196.399L28.8118 199.261L22.2332 195.975L23.4085 192.39Z" fill="#263238"/>
<path d="M48.4875 112.968L47.2325 114.339C47.133 114.444 47.2325 114.618 47.4516 114.683L66.2958 120.462C66.4552 120.512 66.6145 120.462 66.6494 120.377L67.2619 118.802C67.3018 118.697 67.1872 118.557 67.0129 118.503L48.8162 112.918C48.7619 112.896 48.7028 112.89 48.645 112.899C48.5873 112.907 48.5329 112.931 48.4875 112.968V112.968Z" fill="#64BC26"/>
<path opacity="0.4" d="M48.4875 112.968L47.2325 114.339C47.133 114.444 47.2325 114.618 47.4516 114.683L66.2958 120.462C66.4552 120.512 66.6145 120.462 66.6494 120.377L67.2619 118.802C67.3018 118.697 67.1872 118.557 67.0129 118.503L48.8162 112.918C48.7619 112.896 48.7028 112.89 48.645 112.899C48.5873 112.907 48.5329 112.931 48.4875 112.968V112.968Z" fill="black"/>
<path d="M50.3651 115.765L49.8671 115.615C49.7724 115.585 49.7127 115.516 49.7376 115.456L50.5443 113.416C50.5692 113.357 50.6687 113.332 50.7634 113.362L51.2614 113.511C51.361 113.541 51.4209 113.616 51.3958 113.676L50.5841 115.71C50.5642 115.77 50.4646 115.795 50.365 115.765L50.3651 115.765Z" fill="#263238"/>
<path d="M64.8765 120.218L64.3785 120.068C64.2838 120.038 64.2241 119.968 64.2441 119.908L65.0558 117.869C65.0807 117.809 65.1802 117.784 65.2749 117.814L65.773 117.964C65.8676 117.994 65.9273 118.069 65.9073 118.128L65.0956 120.163C65.0708 120.222 64.9761 120.247 64.8765 120.217L64.8765 120.218Z" fill="#263238"/>
<path d="M57.621 117.994L57.1229 117.844C57.0283 117.814 56.9686 117.739 56.9934 117.68L57.8102 115.655C57.835 115.596 57.9346 115.571 58.0293 115.601L58.5273 115.75C58.622 115.78 58.6867 115.855 58.6617 115.91L57.8499 117.949C57.82 117.999 57.7204 118.024 57.6209 117.994L57.621 117.994Z" fill="#263238"/>
<path d="M68.8158 75.9468C68.8158 76.3207 69.0449 76.6199 69.2839 76.6149C69.5229 76.6093 69.7072 76.3008 69.6923 75.9268C69.6772 75.5529 69.4632 75.2487 69.2241 75.2537C68.9851 75.2594 68.8008 75.5678 68.8158 75.9468Z" fill="#263238"/>
<path d="M72.9991 75.852C72.9991 76.226 73.2232 76.5251 73.4672 76.5201C73.7112 76.5145 73.8905 76.206 73.8756 75.8321C73.8605 75.4581 73.6465 75.154 73.4024 75.159C73.1584 75.1646 72.9792 75.4731 72.9991 75.852V75.852Z" fill="#263238"/>
<path d="M73.2979 75.1838L74.1743 74.9045C74.1743 74.9045 73.751 75.6175 73.2979 75.1838Z" fill="#263238"/>
<path d="M71.5396 76.0164C71.9846 77.0395 72.5641 77.9987 73.2626 78.8684C72.6999 79.4418 71.684 79.2074 71.684 79.2074L71.5396 76.0164Z" fill="#ED847E"/>
<path d="M70.1304 80.6583C70.15 80.6492 70.1662 80.6342 70.1769 80.6154C70.1876 80.5967 70.1923 80.5751 70.1903 80.5536C70.1902 80.5245 70.1787 80.4965 70.1582 80.476C70.1376 80.4554 70.1098 80.4439 70.0807 80.4439C69.6152 80.463 69.1516 80.3729 68.7271 80.1807C68.3025 79.9885 67.9287 79.6996 67.6356 79.337C67.628 79.3249 67.6181 79.3144 67.6064 79.3062C67.5946 79.2981 67.5813 79.2925 67.5673 79.2897C67.5533 79.2868 67.5389 79.2869 67.5249 79.2899C67.511 79.2929 67.4978 79.2987 67.4861 79.307C67.4743 79.3155 67.4642 79.3262 67.4565 79.3385C67.4488 79.3509 67.4436 79.3646 67.4413 79.379C67.439 79.3934 67.4396 79.4081 67.443 79.4223C67.4465 79.4364 67.4527 79.4498 67.4613 79.4616C67.7727 79.857 68.1735 80.1726 68.6306 80.3823C69.0878 80.5921 69.5883 80.6901 70.0907 80.6682L70.1304 80.6583Z" fill="#263238"/>
<path d="M67.4164 74.6903C67.4517 74.6774 67.4816 74.6528 67.5011 74.6206C67.6486 74.3919 67.8494 74.2025 68.0862 74.0687C68.3231 73.935 68.5888 73.8608 68.8606 73.8527C68.9179 73.854 68.9734 73.8329 69.0153 73.7937C69.0572 73.7546 69.0821 73.7006 69.0847 73.6433C69.0849 73.5844 69.063 73.5276 69.0233 73.4842C68.9836 73.4408 68.9291 73.4139 68.8705 73.4089C68.5266 73.4136 68.189 73.5029 67.8877 73.6689C67.5863 73.835 67.3304 74.0727 67.1425 74.3612C67.1118 74.4104 67.1004 74.4693 67.1105 74.5264C67.1206 74.5835 67.1516 74.6348 67.1973 74.6704C67.2283 74.6938 67.2653 74.7081 67.304 74.7116C67.3427 74.7151 67.3816 74.7078 67.4164 74.6904L67.4164 74.6903Z" fill="#263238"/>
<path d="M26.7349 204.721H26.8097C26.915 204.724 27.0193 204.7 27.1127 204.651C27.206 204.602 27.2852 204.53 27.3425 204.442C27.3866 204.39 27.4158 204.328 27.4272 204.261C27.4386 204.194 27.4318 204.126 27.4073 204.063C27.2031 203.499 25.5945 203.12 25.4153 203.066C25.3951 203.06 25.3737 203.061 25.3541 203.068C25.3344 203.075 25.3175 203.088 25.3057 203.105C25.2948 203.124 25.2891 203.146 25.2891 203.168C25.2891 203.19 25.2948 203.211 25.3057 203.23C25.5995 203.769 26.1822 204.616 26.735 204.721L26.7349 204.721ZM25.6194 203.37C26.2618 203.539 27.1134 203.868 27.208 204.147C27.217 204.176 27.2185 204.206 27.2124 204.234C27.2063 204.263 27.1928 204.29 27.1732 204.312C27.1369 204.373 27.085 204.423 27.0228 204.457C26.9607 204.492 26.8905 204.508 26.8196 204.506C26.5109 204.491 26.0677 204.068 25.6195 203.37H25.6194Z" fill="#64BC26"/>
<path d="M25.4751 203.33C26.0229 203.435 27.1435 203.33 27.4173 202.911C27.4688 202.836 27.4924 202.745 27.4842 202.654C27.4761 202.563 27.4366 202.477 27.3725 202.412C27.3246 202.343 27.2615 202.286 27.1881 202.246C27.1147 202.205 27.033 202.182 26.9492 202.178C26.2869 202.128 25.3507 203.065 25.3109 203.105C25.2981 203.119 25.289 203.136 25.2847 203.155C25.2803 203.173 25.2808 203.192 25.286 203.21C25.2894 203.229 25.2982 203.247 25.3115 203.261C25.3248 203.275 25.3419 203.285 25.3607 203.29L25.4751 203.33ZM26.9691 202.417C27.0598 202.434 27.1402 202.486 27.1932 202.562C27.2779 202.672 27.258 202.741 27.2281 202.781C27.0489 203.055 26.1623 203.205 25.6095 203.13C25.9382 202.836 26.5308 202.382 26.9243 202.412L26.9691 202.417Z" fill="#64BC26"/>
<path d="M59.7423 209.348C60.1152 209.375 60.4875 209.286 60.808 209.094C60.8893 209.031 60.9552 208.952 61.001 208.86C61.0467 208.768 61.071 208.667 61.0719 208.565C61.0766 208.506 61.0651 208.447 61.0387 208.395C61.0124 208.342 60.9722 208.297 60.9225 208.266C60.4245 207.932 58.572 208.765 58.2084 208.954C58.1885 208.964 58.172 208.98 58.1613 208.999C58.1507 209.019 58.1462 209.042 58.1486 209.064C58.1533 209.086 58.1641 209.107 58.18 209.124C58.1958 209.14 58.2159 209.153 58.2381 209.158C58.7315 209.274 59.2356 209.337 59.7421 209.348L59.7423 209.348ZM60.5889 208.401C60.6652 208.395 60.7415 208.413 60.808 208.45C60.8239 208.461 60.8365 208.476 60.8444 208.494C60.8523 208.512 60.8552 208.531 60.8528 208.55C60.8526 208.622 60.8359 208.692 60.8039 208.756C60.7719 208.82 60.7256 208.876 60.6685 208.919C60.3548 209.164 59.5978 209.193 58.6118 209.014C59.2377 208.705 59.9082 208.496 60.5988 208.396L60.5889 208.401Z" fill="#64BC26"/>
<path d="M58.2482 209.158H58.2881C58.9007 208.904 60.1207 207.902 60.0361 207.383C60.0361 207.269 59.9365 207.129 59.6526 207.094C58.557 206.965 58.1586 208.949 58.1337 209.034C58.1313 209.053 58.1337 209.073 58.1407 209.091C58.1476 209.109 58.1589 209.126 58.1736 209.139C58.1841 209.147 58.1961 209.153 58.209 209.156C58.2218 209.16 58.2352 209.16 58.2483 209.159L58.2482 209.158ZM59.5579 207.304H59.6327C59.7473 207.304 59.8119 207.348 59.8169 207.403C59.8668 207.703 59.0251 208.495 58.4076 208.844C58.5619 208.396 58.9255 207.304 59.5829 207.304L59.5579 207.304Z" fill="#64BC26"/>
<path d="M69.1196 75.2683L69.9961 74.9841C69.9961 74.9841 69.5728 75.7121 69.1196 75.2683Z" fill="#263238"/>
<path d="M52.8301 88.5563C51.7993 89.6133 50.863 90.6853 49.9019 91.7723C48.9407 92.8592 48.0344 93.9711 47.138 95.1179C46.2416 96.2647 45.3601 97.4414 44.5235 98.678C43.6142 99.9689 42.8226 101.339 42.158 102.771L42.0984 102.911C41.953 103.237 41.8825 103.592 41.892 103.949C41.9014 104.307 41.9907 104.657 42.1531 104.975C42.5135 105.677 42.9958 106.308 43.5774 106.84C44.1044 107.324 44.7002 107.728 45.3453 108.037C46.452 108.561 47.642 108.887 48.8611 108.999C49.9491 109.106 51.045 109.106 52.133 108.999C52.6608 108.954 53.1837 108.869 53.7017 108.785C54.232 108.696 54.7573 108.58 55.2753 108.436C55.5978 108.345 55.8783 108.144 56.0683 107.868C56.2583 107.592 56.3459 107.258 56.3157 106.924C56.2856 106.59 56.1396 106.277 55.9032 106.04C55.6668 105.802 55.3548 105.655 55.0213 105.623H54.8969L53.5573 105.509C53.1042 105.464 52.651 105.394 52.2078 105.324C51.3496 105.202 50.5022 105.014 49.673 104.761C49.2984 104.645 48.9309 104.506 48.5724 104.347C48.2646 104.204 47.9682 104.037 47.6859 103.849C47.2998 103.602 47.007 103.234 46.8543 102.801V105.005C47.487 103.922 48.196 102.886 48.9758 101.904C49.7974 100.847 50.659 99.79 51.5504 98.7429C52.4418 97.6958 53.3432 96.6487 54.2644 95.6117C55.1857 94.5746 56.122 93.5275 57.0184 92.5153C57.507 91.9523 57.7581 91.2213 57.7188 90.4765C57.6794 89.7317 57.3528 89.0313 56.8076 88.523C56.2625 88.0147 55.5415 87.7383 54.7967 87.7519C54.0519 87.7656 53.3415 88.0684 52.8153 88.5963L52.8301 88.5563Z" fill="#FFC3BD"/>
<path d="M53.7217 105.644L58.0941 105.419L57.0135 109.827C57.0135 109.827 53.6719 109.378 52.2925 107.673L53.7217 105.644Z" fill="#FFC3BD"/>
<path d="M60.6735 107.299L60.3249 108.685C60.2609 108.933 60.1233 109.155 59.9303 109.322C59.7373 109.489 59.4981 109.594 59.2443 109.622L57.0332 109.827L58.1138 105.419L59.7373 105.758C59.9011 105.796 60.0557 105.865 60.1921 105.964C60.3284 106.062 60.4436 106.187 60.5309 106.33C60.6182 106.474 60.6758 106.634 60.7003 106.8C60.7248 106.967 60.7157 107.136 60.6735 107.299V107.299Z" fill="#FFC3BD"/>
<path d="M55.1956 86.4171C51.4009 86.2077 47.5713 92.6347 47.5713 92.6347C49.4836 95.7111 51.4457 98.3587 53.5174 100.199C53.5174 100.199 59.5979 96.6036 58.9455 91.5578C58.6168 88.9999 58.1388 86.5817 55.1956 86.4171V86.4171Z" fill="#64BC26"/>
<path d="M53.7661 86.6268C54.2221 86.4693 54.7034 86.3983 55.1854 86.4173C57.7849 86.5619 58.4622 88.4616 58.8108 90.6505C57.0573 89.4022 55.3733 88.059 53.7661 86.6268V86.6268Z" fill="white"/>
<path d="M49.9468 89.4639C50.3871 88.9726 50.8596 88.5112 51.3611 88.0828C53.6775 90.206 56.1587 92.1416 58.7812 93.8715C58.6096 94.5151 58.3517 95.1323 58.0143 95.7064C55.1511 93.8614 52.4519 91.7728 49.9468 89.4639V89.4639Z" fill="white"/>
<path d="M47.5713 92.6347C47.5713 92.6347 47.8203 92.2109 48.2585 91.5876C50.7859 93.8992 53.5066 95.9893 56.3908 97.8351C55.9233 98.3213 55.4242 98.7761 54.8968 99.1963C52.8639 97.8856 50.9116 96.4537 49.0504 94.9083C48.5573 94.1804 48.0593 93.4225 47.5713 92.6347V92.6347Z" fill="white"/>
<path d="M218.818 54H136.236V213.994H218.818V54Z" fill="#97CE70"/>
<path d="M193.699 54H136.236V95.5321H193.699V54Z" fill="#64BC26"/>
<path d="M193.699 94.9341H136.236V214H193.699V94.9341Z" fill="#64BC26"/>
<path d="M190.899 55.843H136.462C135.626 55.843 134.949 56.521 134.949 57.3574V93.4506C134.949 94.287 135.626 94.965 136.462 94.965H190.899C191.735 94.965 192.412 94.287 192.412 93.4506V57.3574C192.412 56.521 191.735 55.843 190.899 55.843Z" fill="#C1E4A8"/>
<path d="M190.899 99.6821H136.462C135.626 99.6821 134.949 100.36 134.949 101.196V211.422C134.949 212.259 135.626 212.937 136.462 212.937H190.899C191.735 212.937 192.412 212.259 192.412 211.422V101.196C192.412 100.36 191.735 99.6821 190.899 99.6821Z" fill="#C1E4A8"/>
<path d="M143.902 74.7629H140.916C140.916 74.7629 136.713 81.2779 136.713 93.8632H139.931L143.902 74.7629Z" fill="#64BC26"/>
<path d="M143.902 93.8632V74.7629C143.902 74.7629 140.729 81.323 139.912 93.8632H143.902Z" fill="#50961E"/>
<path d="M143.413 81.3357V91.4658H141.945C141.945 91.4658 142.087 83.4171 143.413 81.3357Z" fill="#64BC26"/>
<path d="M143.902 120.284H140.916C140.916 120.284 136.713 113.769 136.713 101.184H139.931L143.902 120.284Z" fill="#64BC26"/>
<path d="M143.902 101.184V120.284C143.902 120.284 140.729 113.73 139.912 101.184H143.902Z" fill="#50961E"/>
<path d="M143.413 113.704V103.581H141.945C141.945 103.581 142.087 111.61 143.413 113.704Z" fill="#64BC26"/>
</g>
<defs>
<clipPath id="clip0">
<rect width="201" height="160" fill="white" transform="translate(17.8179 54)"/>
</clipPath>
</defs>
</svg>
