<svg width="246" height="246" viewBox="0 0 246 246" fill="none" xmlns="http://www.w3.org/2000/svg">
<path d="M187.772 71.9207C204.992 72.2749 216.765 104.949 207.801 127.482C195.59 158.188 138.651 176.107 103.32 176.062C84.7766 176.038 55.3747 176.062 38.9271 139.275C30.2138 119.797 31.4143 63.783 59.1483 56.3587C103.02 44.6098 102.936 88.4568 120.358 90.4396C145.14 93.2637 149.037 71.1335 187.772 71.9207Z" fill="#64BC26"/>
<path opacity="0.9" d="M187.772 71.9207C204.992 72.2749 216.765 104.949 207.801 127.482C195.59 158.188 138.651 176.107 103.32 176.062C84.7766 176.038 55.3747 176.062 38.9271 139.275C30.2138 119.797 31.4143 63.783 59.1483 56.3587C103.02 44.6098 102.936 88.4568 120.358 90.4396C145.14 93.2637 149.037 71.1335 187.772 71.9207Z" fill="white"/>
<path d="M120.629 208.466C173.314 208.466 216.023 205.972 216.023 202.896C216.023 199.82 173.314 197.327 120.629 197.327C67.9445 197.327 25.2352 199.82 25.2352 202.896C25.2352 205.972 67.9445 208.466 120.629 208.466Z" fill="#F5F5F5"/>
<path d="M44.6453 115.759C44.6453 115.759 44.3008 111.086 47.5136 111.194C50.7264 111.302 46.8445 111.794 44.6453 115.759Z" fill="#263238"/>
<g opacity="0.3">
<path opacity="0.3" d="M44.6453 115.759C44.6453 115.759 44.3008 111.086 47.5136 111.194C50.7264 111.302 46.8445 111.794 44.6453 115.759Z" fill="white"/>
</g>
<path d="M41.3787 116.187C41.3787 116.187 37.4427 114.785 38.5202 113.501C39.4353 112.419 40.2078 114.77 41.4476 114.839C41.4476 114.839 40.9901 112.089 42.3923 111.681C42.3923 111.681 42.4464 114.214 43.8929 114.918C43.8929 114.918 45.5706 113.019 48.6554 114.082C48.6554 114.082 45.2114 115.066 46.2692 115.759C47.327 116.453 50.156 113.905 50.894 115.071C51.632 116.237 48.621 116.773 48.621 116.773C49.6228 117.465 50.7776 117.904 51.9863 118.052C51.9863 118.052 50.4463 119.671 47.145 117.831C43.8437 115.991 41.3787 116.187 41.3787 116.187Z" fill="#64BC26"/>
<path d="M52.414 125.191C51.3266 128.34 43.3267 136.084 38.392 134.382C33.4572 132.679 33.4424 122.175 34.5248 119.026C35.6072 115.878 40.4928 114.712 45.4325 116.414C50.3722 118.116 53.4964 122.047 52.414 125.191Z" fill="#64BC26"/>
<path opacity="0.4" d="M52.414 125.191C51.3266 128.34 43.3267 136.084 38.392 134.382C33.4572 132.679 33.4424 122.175 34.5248 119.026C35.6072 115.878 40.4928 114.712 45.4325 116.414C50.3722 118.116 53.4964 122.047 52.414 125.191Z" fill="white"/>
<path opacity="0.2" d="M35.2333 125.929C35.2333 125.929 34.1361 119.041 36.6257 117.983C39.1152 116.926 35.3415 121.068 35.2333 125.929Z" fill="white"/>
<path opacity="0.1" d="M38.8695 132.635C35.4894 131.892 34.4415 128.438 34.4021 128.36C34.9876 131.154 36.2077 133.629 38.3922 134.382C43.3122 136.084 51.3269 128.34 52.4142 125.191C52.7287 124.227 52.6974 123.183 52.3257 122.239C52.9161 125.157 42.2938 133.408 38.8695 132.635Z" fill="black"/>
<g opacity="0.8">
<path opacity="0.8" d="M35.7003 119.139C35.5625 119.543 35.2821 119.808 35.0705 119.735C34.859 119.661 34.8049 119.282 34.9426 118.879C35.0804 118.475 35.3608 118.21 35.5724 118.283C35.7839 118.357 35.838 118.746 35.7003 119.139Z" fill="white"/>
<path opacity="0.8" d="M39.3953 120.423C39.2576 120.827 38.9772 121.093 38.7656 121.019C38.554 120.945 38.4999 120.561 38.6377 120.163C38.7754 119.764 39.0559 119.494 39.2674 119.562C39.479 119.631 39.5331 120.02 39.3953 120.423Z" fill="white"/>
<path opacity="0.8" d="M43.0904 121.698C42.9526 122.096 42.6722 122.367 42.4606 122.293C42.2491 122.219 42.1949 121.836 42.3327 121.437C42.4704 121.039 42.7509 120.768 42.9624 120.837C43.174 120.906 43.2281 121.294 43.0904 121.698Z" fill="white"/>
<path opacity="0.8" d="M46.7855 122.972C46.6477 123.37 46.3624 123.641 46.1557 123.567C45.9491 123.493 45.8851 123.11 46.0278 122.706C46.1705 122.303 46.446 122.037 46.6576 122.111C46.8691 122.185 46.9232 122.583 46.7855 122.972Z" fill="white"/>
<path opacity="0.8" d="M50.4795 124.241C50.3418 124.645 50.0564 124.915 49.8498 124.842C49.6431 124.768 49.5792 124.384 49.7218 123.981C49.8645 123.577 50.14 123.312 50.3516 123.385C50.5632 123.459 50.6173 123.843 50.4795 124.241Z" fill="white"/>
<path opacity="0.8" d="M36.02 122.947C35.8822 123.351 35.5969 123.617 35.3902 123.543C35.1836 123.469 35.1196 123.085 35.2623 122.687C35.405 122.288 35.6805 122.018 35.8921 122.086C36.1036 122.155 36.1725 122.544 36.02 122.947Z" fill="white"/>
<path opacity="0.8" d="M39.7298 124.222C39.5921 124.625 39.3067 124.891 39.1001 124.817C38.8934 124.743 38.8294 124.36 38.9672 123.961C39.105 123.563 39.3903 123.292 39.6019 123.361C39.8135 123.43 39.8676 123.818 39.7298 124.222Z" fill="white"/>
<path opacity="0.8" d="M43.4248 125.496C43.2871 125.894 43.0017 126.165 42.7951 126.091C42.5884 126.017 42.5245 125.634 42.6622 125.23C42.8 124.827 43.0853 124.561 43.2969 124.635C43.5085 124.709 43.5626 125.092 43.4248 125.496Z" fill="white"/>
<path opacity="0.8" d="M47.12 126.765C46.9773 127.169 46.6969 127.439 46.4853 127.366C46.2738 127.292 46.2197 126.908 46.3574 126.505C46.4952 126.101 46.7805 125.835 46.9872 125.909C47.1938 125.983 47.2578 126.367 47.12 126.765Z" fill="white"/>
<path opacity="0.8" d="M50.1063 127.799C49.9636 128.197 49.6832 128.468 49.4716 128.394C49.26 128.32 49.2059 127.937 49.3437 127.538C49.4814 127.139 49.7668 126.864 49.9734 126.938C50.1801 127.012 50.244 127.395 50.1063 127.799Z" fill="white"/>
<path opacity="0.8" d="M36.2558 126.519C36.1181 126.918 35.8376 127.188 35.6261 127.115C35.4145 127.041 35.3604 126.657 35.4982 126.254C35.6359 125.85 35.9164 125.585 36.1279 125.658C36.3395 125.732 36.3936 126.111 36.2558 126.519Z" fill="white"/>
<path opacity="0.8" d="M39.9559 127.784C39.8181 128.187 39.5377 128.453 39.3262 128.384C39.1146 128.315 39.0605 127.927 39.1982 127.523C39.336 127.12 39.6164 126.854 39.828 126.928C40.0395 127.002 40.0887 127.385 39.9559 127.784Z" fill="white"/>
<path opacity="0.8" d="M37.9293 132.325C37.7866 132.728 37.5062 132.994 37.2946 132.925C37.083 132.856 37.0289 132.468 37.1667 132.064C37.3044 131.661 37.5898 131.395 37.7964 131.469C38.0031 131.543 38.067 131.931 37.9293 132.325Z" fill="white"/>
<path opacity="0.8" d="M41.2111 133.142C41.0733 133.54 40.7929 133.811 40.5813 133.737C40.3698 133.663 40.3157 133.28 40.4534 132.876C40.5912 132.473 40.8765 132.207 41.0832 132.281C41.2898 132.355 41.3538 132.738 41.2111 133.142Z" fill="white"/>
<path opacity="0.8" d="M43.646 129.058C43.5082 129.462 43.2228 129.727 43.0162 129.659C42.8096 129.59 42.7456 129.201 42.8883 128.798C43.031 128.394 43.3065 128.128 43.518 128.202C43.7296 128.276 43.7837 128.655 43.646 129.058Z" fill="white"/>
<path opacity="0.8" d="M46.5788 130.072C46.441 130.475 46.1606 130.741 45.949 130.667C45.7374 130.593 45.6833 130.21 45.8211 129.811C45.9589 129.413 46.2442 129.142 46.4509 129.211C46.6575 129.28 46.7214 129.668 46.5788 130.072Z" fill="white"/>
<path opacity="0.8" d="M36.4531 129.535C36.3154 129.939 36.03 130.204 35.8234 130.131C35.6167 130.057 35.5528 129.678 35.6905 129.275C35.8283 128.871 36.1137 128.605 36.3252 128.679C36.5368 128.753 36.5909 129.132 36.4531 129.535Z" fill="white"/>
<path opacity="0.8" d="M40.1483 130.81C40.0057 131.213 39.7252 131.479 39.5137 131.405C39.3021 131.331 39.248 130.947 39.3857 130.549C39.5235 130.15 39.8088 129.88 40.0155 129.949C40.2221 130.018 40.2861 130.406 40.1483 130.81Z" fill="white"/>
<path opacity="0.8" d="M43.8434 132.084C43.7007 132.488 43.4203 132.753 43.2087 132.679C42.9972 132.606 42.943 132.222 43.0808 131.823C43.2186 131.425 43.5039 131.154 43.7106 131.223C43.9172 131.292 43.9812 131.681 43.8434 132.084Z" fill="white"/>
<path opacity="0.8" d="M39.0848 117.127C38.9471 117.531 38.6666 117.801 38.4551 117.727C38.2435 117.654 38.1894 117.27 38.3271 116.866C38.4649 116.463 38.7453 116.197 38.9569 116.271C39.1685 116.345 39.2226 116.729 39.0848 117.127Z" fill="white"/>
<path opacity="0.8" d="M42.7799 118.402C42.6421 118.805 42.3617 119.071 42.1501 119.002C41.9386 118.933 41.8844 118.544 42.0222 118.141C42.16 117.737 42.4404 117.472 42.652 117.546C42.8635 117.619 42.9078 118.003 42.7799 118.402Z" fill="white"/>
<path opacity="0.8" d="M46.4749 119.676C46.3372 120.079 46.0518 120.345 45.8452 120.271C45.6385 120.197 45.5746 119.818 45.7173 119.415C45.8599 119.011 46.1355 118.746 46.347 118.819C46.5586 118.893 46.6127 119.272 46.4749 119.676Z" fill="white"/>
<path opacity="0.8" d="M50.17 120.95C50.0323 121.353 49.7469 121.619 49.5403 121.545C49.3336 121.471 49.2696 121.088 49.4123 120.689C49.555 120.291 49.8305 120.02 50.0421 120.089C50.2536 120.158 50.2881 120.546 50.17 120.95Z" fill="white"/>
</g>
<path d="M195.045 156.194C195.321 156.053 195.566 155.859 195.767 155.623C195.967 155.388 196.119 155.114 196.214 154.82C196.309 154.525 196.345 154.215 196.32 153.906C196.295 153.597 196.21 153.297 196.068 153.021C195.959 152.806 195.816 152.61 195.645 152.44L195.749 152.396C196.401 152.062 196.925 151.522 197.239 150.859C197.553 150.197 197.639 149.449 197.484 148.733C197.329 148.016 196.942 147.371 196.383 146.897C195.823 146.424 195.123 146.148 194.391 146.113C194.417 145.533 194.293 144.955 194.032 144.436C193.627 143.651 192.928 143.059 192.088 142.789C191.248 142.519 190.335 142.593 189.549 142.994C189.174 143.191 188.84 143.458 188.565 143.781C188.212 143.431 187.757 143.201 187.265 143.124C186.772 143.047 186.269 143.127 185.825 143.353C185.506 143.517 185.229 143.751 185.015 144.039C184.801 144.326 184.655 144.659 184.59 145.011C184.182 144.822 183.729 144.752 183.283 144.812C182.838 144.872 182.418 145.058 182.075 145.348C181.732 145.638 181.478 146.02 181.345 146.45C181.212 146.879 181.204 147.338 181.323 147.771C181.033 148.308 180.891 148.912 180.911 149.521C180.931 150.13 181.112 150.723 181.437 151.24C181.761 151.756 182.216 152.177 182.756 152.46C183.297 152.743 183.902 152.877 184.511 152.849C184.416 153.243 184.425 153.655 184.536 154.045C184.648 154.434 184.858 154.789 185.146 155.074C185.435 155.358 185.792 155.563 186.184 155.669C186.575 155.775 186.987 155.778 187.38 155.678C187.429 155.982 187.527 156.276 187.67 156.549C187.934 157.064 188.34 157.493 188.841 157.784C189.342 158.075 189.916 158.216 190.494 158.19C191.073 158.164 191.632 157.973 192.105 157.638C192.577 157.303 192.944 156.84 193.161 156.303C193.465 156.415 193.79 156.464 194.114 156.445C194.438 156.427 194.755 156.341 195.045 156.194Z" fill="#64BC26"/>
<path opacity="0.1" d="M191.08 158.098C194.263 155.919 191.714 152.912 191.714 152.912C192.698 149.104 189.594 149.158 189.594 149.158C188.571 146.088 186.101 148.391 186.101 148.391H183.287L181.136 150.654C181.181 150.762 181.225 150.871 181.279 150.979C181.58 151.566 182.043 152.054 182.614 152.386C183.184 152.717 183.838 152.878 184.497 152.848C184.402 153.243 184.411 153.655 184.522 154.044C184.633 154.434 184.843 154.789 185.132 155.073C185.42 155.358 185.778 155.563 186.169 155.669C186.56 155.775 186.972 155.778 187.365 155.677C187.415 155.981 187.513 156.275 187.655 156.548C187.968 157.155 188.476 157.638 189.098 157.919C189.719 158.201 190.418 158.264 191.08 158.098Z" fill="black"/>
<path d="M189.997 152.932C190.412 152.593 190.726 152.148 190.907 151.644C191.088 151.139 191.128 150.596 191.023 150.07C190.919 149.545 190.673 149.058 190.313 148.662C189.953 148.266 189.491 147.975 188.979 147.82C189.254 146.819 189.143 145.751 188.668 144.827C188.193 143.903 187.39 143.191 186.415 142.831C186.724 141.977 186.744 141.046 186.472 140.179C186.201 139.312 185.653 138.559 184.912 138.033C184.171 137.508 183.278 137.24 182.371 137.27C181.463 137.301 180.59 137.628 179.886 138.202C179.467 138.536 179.12 138.951 178.863 139.422C178.414 139.134 177.896 138.973 177.363 138.956C176.83 138.939 176.302 139.067 175.836 139.325C175.37 139.584 174.982 139.965 174.715 140.426C174.447 140.887 174.31 141.413 174.317 141.946C173.721 141.813 173.099 141.869 172.536 142.104C171.973 142.34 171.497 142.744 171.173 143.262C170.85 143.779 170.694 144.384 170.729 144.993C170.763 145.603 170.985 146.186 171.365 146.664C171.607 146.959 171.903 147.206 172.236 147.392C172.075 148.16 172.126 148.957 172.384 149.697C172.642 150.438 173.097 151.094 173.7 151.596C174.303 152.097 175.032 152.424 175.807 152.543C176.582 152.661 177.375 152.566 178.1 152.268L178.209 152.416C178.568 152.856 179.048 153.183 179.589 153.358C180.13 153.532 180.71 153.547 181.259 153.4C181.304 153.473 181.353 153.544 181.407 153.611C181.9 154.218 182.613 154.604 183.391 154.685C184.169 154.766 184.947 154.536 185.554 154.044C185.905 153.76 186.184 153.397 186.371 152.986C186.895 153.382 187.537 153.591 188.193 153.582C188.85 153.572 189.485 153.343 189.997 152.932Z" fill="#64BC26"/>
<path opacity="0.2" d="M189.997 152.932C190.412 152.593 190.726 152.148 190.907 151.644C191.088 151.139 191.128 150.596 191.023 150.07C190.919 149.545 190.673 149.058 190.313 148.662C189.953 148.266 189.491 147.975 188.979 147.82C189.254 146.819 189.143 145.751 188.668 144.827C188.193 143.903 187.39 143.191 186.415 142.831C186.724 141.977 186.744 141.046 186.472 140.179C186.201 139.312 185.653 138.559 184.912 138.033C184.171 137.508 183.278 137.24 182.371 137.27C181.463 137.301 180.59 137.628 179.886 138.202C179.467 138.536 179.12 138.951 178.863 139.422C178.414 139.134 177.896 138.973 177.363 138.956C176.83 138.939 176.302 139.067 175.836 139.325C175.37 139.584 174.982 139.965 174.715 140.426C174.447 140.887 174.31 141.413 174.317 141.946C173.721 141.813 173.099 141.869 172.536 142.104C171.973 142.34 171.497 142.744 171.173 143.262C170.85 143.779 170.694 144.384 170.729 144.993C170.763 145.603 170.985 146.186 171.365 146.664C171.607 146.959 171.903 147.206 172.236 147.392C172.075 148.16 172.126 148.957 172.384 149.697C172.642 150.438 173.097 151.094 173.7 151.596C174.303 152.097 175.032 152.424 175.807 152.543C176.582 152.661 177.375 152.566 178.1 152.268L178.209 152.416C178.568 152.856 179.048 153.183 179.589 153.358C180.13 153.532 180.71 153.547 181.259 153.4C181.304 153.473 181.353 153.544 181.407 153.611C181.9 154.218 182.613 154.604 183.391 154.685C184.169 154.766 184.947 154.536 185.554 154.044C185.905 153.76 186.184 153.397 186.371 152.986C186.895 153.382 187.537 153.591 188.193 153.582C188.85 153.572 189.485 153.343 189.997 152.932Z" fill="white"/>
<path opacity="0.1" d="M186.125 149.237C186.125 149.237 186.327 146.576 184.374 145.769C181.751 144.686 179.252 148.061 179.252 148.061C179.252 148.061 175.882 145.567 173.923 147.048C171.965 148.529 173.102 150.984 173.102 150.984C173.687 151.705 174.488 152.218 175.388 152.447C176.287 152.677 177.237 152.611 178.096 152.258L178.204 152.406C178.564 152.846 179.043 153.173 179.584 153.348C180.125 153.522 180.705 153.537 181.254 153.39C181.299 153.463 181.348 153.534 181.402 153.601C181.895 154.208 182.609 154.594 183.386 154.675C184.164 154.757 184.942 154.526 185.549 154.034C185.9 153.75 186.18 153.388 186.366 152.977C186.891 153.373 187.534 153.582 188.192 153.571C188.85 153.561 189.485 153.331 189.997 152.917C192.319 149.316 186.125 149.237 186.125 149.237Z" fill="black"/>
<path d="M174.12 148.406C174.12 148.406 177.919 154.571 171.208 164.583C171.208 164.583 172.285 171.382 180.064 168.844C180.064 168.844 181.466 157.469 191.714 155.688C191.767 155.307 191.715 154.92 191.562 154.567C191.409 154.215 191.162 153.911 190.848 153.69C190.848 153.69 185.997 156.765 184.757 155.791C183.518 154.817 188.743 151.963 188.743 151.963C188.743 151.963 187.759 150.025 186.42 150.079C186.42 150.079 183.887 153.582 182.11 152.937C180.334 152.293 182.11 148.406 182.11 148.406C181.751 148.119 181.319 147.937 180.862 147.879C180.406 147.822 179.942 147.892 179.523 148.081C179.523 148.081 179.198 152.342 178.283 152.18C177.368 152.017 176.772 147.835 176.772 147.835C176.772 147.835 175.626 147.22 174.12 148.406Z" fill="#64BC26"/>
<path opacity="0.5" d="M174.12 148.406C174.12 148.406 177.919 154.571 171.208 164.583C171.208 164.583 172.285 171.382 180.064 168.844C180.064 168.844 181.466 157.469 191.714 155.688C191.767 155.307 191.715 154.92 191.562 154.567C191.409 154.215 191.162 153.911 190.848 153.69C190.848 153.69 185.997 156.765 184.757 155.791C183.518 154.817 188.743 151.963 188.743 151.963C188.743 151.963 187.759 150.025 186.42 150.079C186.42 150.079 183.887 153.582 182.11 152.937C180.334 152.293 182.11 148.406 182.11 148.406C181.751 148.119 181.319 147.937 180.862 147.879C180.406 147.822 179.942 147.892 179.523 148.081C179.523 148.081 179.198 152.342 178.283 152.18C177.368 152.017 176.772 147.835 176.772 147.835C176.772 147.835 175.626 147.22 174.12 148.406Z" fill="white"/>
<path opacity="0.3" d="M180.049 168.839C176.87 161.887 171.193 164.578 171.193 164.578C171.193 164.578 172.285 171.382 180.049 168.839Z" fill="white"/>
<path opacity="0.1" d="M175.842 162.713C175.842 162.713 179.616 156.46 178.898 153.857C178.179 151.255 177.678 158.433 175.842 162.713Z" fill="black"/>
<path opacity="0.1" d="M178.991 161.813C178.991 161.813 182.602 155.633 183.68 156.352C184.757 157.07 182.032 158.039 178.991 161.813Z" fill="black"/>
<path opacity="0.1" d="M179.473 157.714C179.473 157.714 180.914 153.508 181.633 153.872C182.351 154.236 179.473 157.714 179.473 157.714Z" fill="black"/>
<path opacity="0.1" d="M178.037 163.613C178.361 161.025 175.158 164.907 174.981 162.713C174.878 161.434 173.505 161.95 172.418 162.605C172.059 163.244 171.66 163.904 171.208 164.573C171.208 164.573 172.285 171.372 180.064 168.833C180.064 168.833 180.88 162.241 185.796 158.305C182.194 160.337 177.712 166.201 178.037 163.613Z" fill="black"/>
<path d="M188.068 86.2819C188.068 86.2819 191.118 73.3866 199.645 80.2303C199.645 80.2303 194.985 86.4738 188.068 86.2819Z" fill="#64BC26"/>
<path opacity="0.4" d="M188.068 86.2819C188.068 86.2819 191.118 73.3866 199.645 80.2303C199.645 80.2303 194.985 86.4738 188.068 86.2819Z" fill="white"/>
<path opacity="0.3" d="M195.044 80.1911C198.08 79.4629 199.217 79.9402 199.536 80.1517C191.084 73.495 188.068 86.2821 188.068 86.2821C188.068 86.2821 191.29 81.0816 195.044 80.1911Z" fill="white"/>
<path d="M187.207 87.9253C187.207 87.9253 188.275 82.2771 185.323 79.9352C185.323 79.9352 185.869 78.907 187.605 79.4777C188.475 82.206 188.675 85.1032 188.191 87.9253H187.207Z" fill="#263238"/>
<path opacity="0.4" d="M187.207 87.9253C187.207 87.9253 188.275 82.2771 185.323 79.9352C185.323 79.9352 185.869 78.907 187.605 79.4777C188.475 82.206 188.675 85.1032 188.191 87.9253H187.207Z" fill="white"/>
<path d="M193.903 84.8846C191.969 84.8403 189.721 85.7997 187.935 87.3446C185.805 85.7948 183.241 84.8354 181.308 84.8846C175.197 85.0224 173.928 92.5155 175.005 97.3125C175.989 101.573 178.774 109.258 183.409 109.736C184.585 109.859 186.292 108.82 187.837 107.276C189.121 108.825 190.621 109.863 191.773 109.736C196.412 109.244 199.207 101.573 200.176 97.3125C201.298 92.5303 200.014 85.0224 193.903 84.8846Z" fill="#64BC26"/>
<path opacity="0.1" d="M200.555 93.8784C200.53 98.0506 196.791 103.177 193.44 103.177C190.09 103.177 190.488 99.8119 188.107 99.8119C185.726 99.8119 185.893 104.983 183.433 104.983C180.973 104.983 180.156 101.047 178.759 101.209C177.878 101.313 177.323 102.503 177.037 103.364C178.513 106.552 180.619 109.45 183.409 109.736C184.584 109.859 186.292 108.82 187.837 107.276C189.121 108.825 190.621 109.863 191.773 109.736C196.412 109.244 199.207 101.573 200.176 97.3126C200.436 96.1866 200.563 95.034 200.555 93.8784Z" fill="black"/>
<path opacity="0.2" d="M176.323 94.8968C176.323 94.8968 176.653 86.9952 179.767 87.0887C182.882 87.1822 177.942 89.8095 176.323 94.8968Z" fill="white"/>
<path d="M187.605 79.4777C185.869 78.907 185.323 79.9352 185.323 79.9352C185.323 79.9352 187.389 80.875 187.605 79.4777Z" fill="#263238"/>
<path d="M159.92 42.6968C159.288 42.696 158.658 42.7504 158.035 42.8592C156.858 43.0609 155.655 43.0609 154.478 42.8592C153.854 42.7501 153.222 42.6958 152.589 42.6968C146.577 42.6968 141.696 47.4003 141.696 53.2108C141.696 59.0213 146.577 63.7249 152.589 63.7249C152.982 63.726 153.374 63.7047 153.765 63.6609C155.421 63.4838 157.092 63.4838 158.749 63.6609C159.137 63.7045 159.528 63.7259 159.92 63.7249C165.937 63.7249 170.813 59.0164 170.813 53.2108C170.813 47.4052 165.937 42.6968 159.92 42.6968Z" fill="#64BC26"/>
<path opacity="0.1" d="M159.92 42.6968C159.288 42.696 158.658 42.7504 158.035 42.8592C156.858 43.0609 155.655 43.0609 154.478 42.8592C153.854 42.7501 153.222 42.6958 152.589 42.6968C146.577 42.6968 141.696 47.4003 141.696 53.2108C141.696 59.0213 146.577 63.7249 152.589 63.7249C152.982 63.726 153.374 63.7047 153.765 63.6609C155.421 63.4838 157.092 63.4838 158.749 63.6609C159.137 63.7045 159.528 63.7259 159.92 63.7249C165.937 63.7249 170.813 59.0164 170.813 53.2108C170.813 47.4052 165.937 42.6968 159.92 42.6968Z" fill="black"/>
<path opacity="0.2" d="M145.41 48.3842C146.227 46.8098 147.378 45.5503 148.421 45.9734C149.144 46.2735 148.195 47.7101 149.09 48.0595C149.986 48.4088 150.817 46.8098 151.708 46.736C152.598 46.6622 152.377 48.704 153.548 48.7532C154.719 48.8024 154.532 46.8787 155.28 46.9475C156.111 47.0263 155.836 51.7741 154.832 51.8085C154.217 51.8085 154.276 50.3325 153.494 50.3325C152.136 50.3325 151.206 52.3448 149.981 52.3448C148.756 52.3448 149.592 50.1947 148.697 49.9832C147.801 49.7716 146.355 53.1812 145.13 52.3448C143.905 51.5084 144.844 49.4715 145.41 48.3842Z" fill="white"/>
<path opacity="0.2" d="M159.919 63.7248C165.936 63.7248 170.812 59.0164 170.812 53.2108C170.809 51.8108 170.521 50.4261 169.966 49.1412C169.41 47.8562 168.598 46.698 167.58 45.7373C168.195 46.3425 172.741 51.1887 168.623 57.2058C164.224 63.6461 159.683 61.2353 154.311 62.1258C149.026 62.9917 143.86 59.3903 143.688 59.2673C144.715 60.6603 146.056 61.791 147.603 62.5673C149.15 63.3437 150.858 63.7436 152.589 63.7347C152.981 63.7358 153.374 63.7145 153.764 63.6707C155.421 63.4936 157.092 63.4936 158.748 63.6707C159.137 63.7111 159.528 63.7291 159.919 63.7248Z" fill="black"/>
<path d="M155.531 42.1803C154.025 42.3525 152.416 38.5739 151.019 38.8937C151.019 38.8937 153.056 40.6699 153.563 42.259C153.563 42.259 148.102 41.339 146.768 42.938C146.768 42.938 154.252 41.7965 154.148 43.7842C154.109 44.4337 152.431 44.5468 152.431 45.7522C152.431 45.7522 154.468 44.3549 155.875 44.4189C157.282 44.4829 158.158 46.5148 158.158 46.5148C157.953 45.7878 157.953 45.018 158.158 44.291C158.547 43.1495 163.048 42.6969 164.51 44.227C164.51 44.227 163.162 41.6834 159.541 42.4657C159.541 42.4657 161.587 40.4189 164.067 40.8617C164.067 40.8617 161.518 39.494 158.63 41.8457C158.335 42.084 157.973 42.2247 157.594 42.2485C157.215 42.2723 156.838 42.178 156.515 41.9786L156.062 41.7031C156.062 41.7031 155.865 42.1409 155.531 42.1803Z" fill="#263238"/>
<path d="M155.841 42.5443C155.693 41.2159 156.505 38.7805 155.428 37.2209C155.428 37.2209 156.727 36.3353 157.489 37.5062C157.713 38.3551 157.758 39.2411 157.621 40.1083C157.485 40.9755 157.17 41.805 156.697 42.5443C156.579 42.746 155.92 43.2823 155.841 42.5443Z" fill="#263238"/>
<path opacity="0.2" d="M155.841 42.5443C155.693 41.2159 156.505 38.7805 155.428 37.2209C155.428 37.2209 156.727 36.3353 157.489 37.5062C157.713 38.3551 157.758 39.2411 157.621 40.1083C157.485 40.9755 157.17 41.805 156.697 42.5443C156.579 42.746 155.92 43.2823 155.841 42.5443Z" fill="white"/>
<path opacity="0.4" d="M157.489 37.5062C156.726 36.3353 155.428 37.2209 155.428 37.2209C155.428 37.2209 156.446 38.318 157.489 37.5062Z" fill="white"/>
<path d="M112.56 163.128C138.857 163.128 160.175 141.809 160.175 115.512C160.175 89.2143 138.857 67.896 112.56 67.896C86.2623 67.896 64.944 89.2143 64.944 115.512C64.944 141.809 86.2623 163.128 112.56 163.128Z" fill="#64BC26"/>
<path opacity="0.6" d="M152.332 115.512C152.329 124.791 149.082 133.777 143.153 140.914C137.223 148.051 128.985 152.891 119.864 154.595C110.743 156.299 101.313 154.76 93.2064 150.245C85.1001 145.73 78.8275 138.523 75.4745 129.871C72.1215 121.219 71.8991 111.667 74.8458 102.868C77.7925 94.0696 83.7228 86.5782 91.6103 81.6907C99.4977 76.8032 108.846 74.8273 118.036 76.105C127.227 77.3827 135.681 81.8337 141.937 88.6873C141.949 88.6818 141.962 88.6789 141.975 88.6789C141.989 88.6789 142.002 88.6818 142.014 88.6873C148.683 96.0261 152.364 105.595 152.332 115.512Z" fill="white"/>
<path d="M152.332 115.512C152.332 123.243 150.078 130.806 145.848 137.277C141.617 143.748 135.592 148.845 128.509 151.945C121.427 155.046 113.595 156.015 105.971 154.734C98.3464 153.453 91.2606 149.978 85.5802 144.734C78.6349 137.166 74.8871 127.204 75.1216 116.935C75.356 106.665 79.5545 96.885 86.8378 89.6417C94.1212 82.3983 103.925 78.2537 114.195 78.0758C124.465 77.8979 134.406 81.7005 141.936 88.6873C141.948 88.6817 141.962 88.6788 141.975 88.6788C141.988 88.6788 142.002 88.6817 142.014 88.6873C148.683 96.0261 152.364 105.595 152.332 115.512Z" fill="white"/>
<path d="M112.561 117.832C112.256 117.833 111.955 117.773 111.673 117.656C111.392 117.539 111.136 117.368 110.921 117.152L91.5223 97.7525C91.2943 97.5401 91.1115 97.2839 90.9846 96.9992C90.8578 96.7146 90.7896 96.4073 90.7841 96.0958C90.7786 95.7842 90.8359 95.4747 90.9526 95.1858C91.0693 94.8968 91.243 94.6344 91.4634 94.414C91.6837 94.1937 91.9462 94.02 92.2352 93.9033C92.5241 93.7865 92.8336 93.7292 93.1451 93.7347C93.4567 93.7402 93.764 93.8084 94.0486 93.9352C94.3333 94.0621 94.5894 94.2449 94.8019 94.4729L112.561 112.232L122.818 101.976C123.257 101.566 123.839 101.343 124.44 101.353C125.042 101.364 125.615 101.607 126.04 102.033C126.465 102.458 126.709 103.031 126.72 103.632C126.73 104.234 126.507 104.815 126.097 105.255L114.201 117.152C113.765 117.585 113.176 117.83 112.561 117.832Z" fill="#263238"/>
<path d="M51.7466 57.4799L53.1075 57.9638C53.1075 57.9638 64.2307 61.3389 70.5574 55.2904C76.8841 49.2419 78.741 42.1107 81.0516 42.3164C83.3621 42.522 84.469 52.8407 73.9446 61.4296C63.4202 70.0185 53.9845 65.2583 51.6014 59.615L50.676 58.5989L51.7466 57.4799Z" fill="#64BC26"/>
<path opacity="0.6" d="M81.0507 42.3164C78.7402 42.1349 76.8954 49.2419 70.5748 55.2904C64.5263 61.0667 54.1047 58.2481 53.1974 57.988L51.6006 59.5848C53.9535 65.2583 63.4194 70.0124 73.9438 61.3994C84.4681 52.7863 83.3552 42.5039 81.0507 42.3164Z" fill="white"/>
<path d="M73.9514 59.9598C73.9514 59.9598 78.0523 61.7744 76.1591 63.9216C74.2659 66.0688 71.5441 67.708 72.0522 68.585C72.5603 69.462 82.3891 64.2422 75.3365 59.6514L73.9514 59.9598Z" fill="#64BC26"/>
<path opacity="0.3" d="M73.9514 59.9598C73.9514 59.9598 78.0523 61.7744 76.1591 63.9216C74.2659 66.0688 71.5441 67.708 72.0522 68.585C72.5603 69.462 82.3891 64.2422 75.3365 59.6514L73.9514 59.9598Z" fill="white"/>
<path d="M69.4201 53.3971C64.9019 48.3405 57.2808 52.1511 57.4139 51.2741C57.5469 50.397 66.1902 48.2498 70.3395 52.9374C74.4888 57.625 69.5109 60.5948 63.5592 61.5686C57.6074 62.5424 52.4299 58.75 52.4299 58.75L53.1255 57.9637C53.1255 57.9637 62.8031 60.9033 69.2447 56.379C69.6354 56.1089 69.9073 55.6989 70.0041 55.2339C70.1009 54.769 70.0153 54.2846 69.7649 53.881C69.6611 53.712 69.5459 53.5504 69.4201 53.3971Z" fill="#64BC26"/>
<path opacity="0.3" d="M69.4201 53.3971C64.9019 48.3405 57.2808 52.1511 57.4139 51.2741C57.5469 50.397 66.1902 48.2498 70.3395 52.9374C74.4888 57.625 69.5109 60.5948 63.5592 61.5686C57.6074 62.5424 52.4299 58.75 52.4299 58.75L53.1255 57.9637C53.1255 57.9637 62.8031 60.9033 69.2447 56.379C69.6354 56.1089 69.9073 55.6989 70.0041 55.2339C70.1009 54.769 70.0153 54.2846 69.7649 53.881C69.6611 53.712 69.5459 53.5504 69.4201 53.3971Z" fill="white"/>
<path d="M66.3408 65.5606C59.131 67.5808 53.3668 63.8429 51.6006 59.5847L52.4293 58.75C52.4293 58.75 57.6008 62.5364 63.5585 61.5686C66.7703 61.0424 69.6977 59.9416 71.0647 58.2964C72.3349 58.3932 74.724 58.9436 75.3289 61.611C76.0124 64.6352 68.9356 67.8349 65.9658 67.7078C65.4396 67.7078 63.3347 67.1877 66.1896 65.603L66.3408 65.5606Z" fill="#64BC26"/>
<path opacity="0.3" d="M66.342 65.5606L66.0758 65.6635C63.3963 67.1998 65.471 67.6837 65.967 67.7078C68.9368 67.8349 76.0135 64.6836 75.33 61.611C74.7252 58.9436 72.3058 58.3932 71.0658 58.2964C74.7857 59.125 66.342 65.5606 66.342 65.5606Z" fill="white"/>
</svg>
