<svg width="227" height="217" viewBox="0 0 227 217" fill="none" xmlns="http://www.w3.org/2000/svg">
<path d="M167.081 3.94992C148.029 -3.1216 124.874 -0.199481 106.944 8.75387C97.926 13.2598 91.9182 20.0624 84.7356 26.871C74.6543 36.3737 65.8997 37.3906 53.1768 40.7861C16.1361 50.7213 13.0854 91.4263 22.4303 117.275C33.7973 148.711 66.6536 168.652 100.41 164.614C123.144 161.902 143.131 154.386 158.607 140.652C170.693 129.916 169.74 117.047 169.068 102.08C168.559 90.6315 167.174 78.0196 171.668 67.1143C175.759 57.1382 185.297 60.487 191.539 52.9596C207.47 33.7555 183.117 9.90518 167.081 3.94992Z" fill="#64BC26"/>
<path opacity="0.9" d="M167.081 3.94992C148.029 -3.1216 124.874 -0.199481 106.944 8.75387C97.926 13.2598 91.9182 20.0624 84.7356 26.871C74.6543 36.3737 65.8997 37.3906 53.1768 40.7861C16.1361 50.7213 13.0854 91.4263 22.4303 117.275C33.7973 148.711 66.6536 168.652 100.41 164.614C123.144 161.902 143.131 154.386 158.607 140.652C170.693 129.916 169.74 117.047 169.068 102.08C168.559 90.6315 167.174 78.0196 171.668 67.1143C175.759 57.1382 185.297 60.487 191.539 52.9596C207.47 33.7555 183.117 9.90518 167.081 3.94992Z" fill="white"/>
<path d="M113.314 216.569C175.895 216.569 226.627 213.607 226.627 209.954C226.627 206.3 175.895 203.338 113.314 203.338C50.7323 203.338 0 206.3 0 209.954C0 213.607 50.7323 216.569 113.314 216.569Z" fill="#F5F5F5"/>
<path d="M105.242 43.7372C107.194 38.5942 107.843 31.324 98.9888 32.0487C91.5374 27.6831 83.4314 34.0825 85.7925 40.5988C86.8386 43.4742 87.949 45.1222 85.173 48.2255C82.397 51.3288 87.4639 51.9483 85.7925 54.6133C83.1275 58.8796 87.1659 63.7887 94.9796 61.3634C99.9823 59.8088 106.937 62.6257 107.551 57.5704C108.164 52.5152 103.822 47.4892 105.242 43.7372Z" fill="#263238"/>
<path d="M87.4696 209.947C83.1975 209.947 83.5072 209.883 81.1052 209.801C79.0539 209.725 78.563 209.982 76.9091 209.947C75.5298 209.918 75.5824 208.597 76.0091 207.078C76.2195 206.312 76.5467 205.383 76.8448 204.156H83.3143C83.8284 205.067 84.5558 205.84 85.4342 206.409C86.3126 206.978 87.3158 207.326 88.3579 207.422C90.6722 207.72 89.1586 209.947 87.4696 209.947Z" fill="#64BC26"/>
<path d="M122.687 209.947C118.491 209.947 117.076 209.672 114.715 209.59C112.687 209.514 112.378 209.947 110.326 209.947C108.965 209.947 108.708 208.416 109.158 207.27C109.641 206.268 110.032 205.223 110.326 204.149H116.112C117.246 205.985 120.156 207.34 123.347 207.568C125.632 207.738 124.37 209.947 122.687 209.947Z" fill="#64BC26"/>
<path d="M112.425 95.511C112.425 95.511 114.675 125.72 113.78 144.901C114.739 162.907 116.118 204.149 116.118 204.149C116.025 205.067 111.174 204.699 110.332 204.149C110.332 204.149 99.877 174.11 102.53 144.901C91.0522 114.435 92.3321 95.511 92.3321 95.511H112.425Z" fill="#263238"/>
<path d="M106.399 95.511C106.399 95.511 96.5808 129.606 92.6008 146.356C88.4222 163.935 82.6657 192.473 83.3319 204.155C82.3325 204.74 78.8143 204.769 76.8448 204.155C76.8448 204.155 70.2408 164.058 80.3513 147.133C78.0663 105.481 89.369 95.5168 89.369 95.5168L106.399 95.511Z" fill="#263238"/>
<path d="M83.8228 201.718C83.839 202.521 83.9132 203.322 84.0449 204.114C84.0574 204.18 84.0565 204.248 84.0423 204.313C84.028 204.378 84.0007 204.44 83.9619 204.495C83.9232 204.55 83.8738 204.596 83.8167 204.631C83.7597 204.666 83.6961 204.689 83.6299 204.699C81.2513 205.079 77.8149 204.529 76.7279 204.331C76.6266 204.312 76.5334 204.263 76.4611 204.19C76.3889 204.117 76.3412 204.023 76.3246 203.921L75.9681 201.677C75.9562 201.605 75.9602 201.53 75.9801 201.46C75.9999 201.389 76.035 201.323 76.083 201.268C76.1309 201.212 76.1904 201.167 76.2574 201.137C76.3244 201.107 76.3973 201.092 76.4707 201.093L83.3319 201.221C83.4621 201.224 83.5861 201.278 83.6777 201.371C83.7693 201.463 83.8213 201.588 83.8228 201.718V201.718Z" fill="#263238"/>
<path opacity="0.1" d="M83.8228 201.718C83.839 202.521 83.9132 203.322 84.0449 204.114C84.0574 204.18 84.0565 204.248 84.0423 204.313C84.028 204.378 84.0007 204.44 83.9619 204.495C83.9232 204.55 83.8738 204.596 83.8167 204.631C83.7597 204.666 83.6961 204.689 83.6299 204.699C81.2513 205.079 77.8149 204.529 76.7279 204.331C76.6266 204.312 76.5334 204.263 76.4611 204.19C76.3889 204.117 76.3412 204.023 76.3246 203.921L75.9681 201.677C75.9562 201.605 75.9602 201.53 75.9801 201.46C75.9999 201.389 76.035 201.323 76.083 201.268C76.1309 201.212 76.1904 201.167 76.2574 201.137C76.3244 201.107 76.3973 201.092 76.4707 201.093L83.3319 201.221C83.4621 201.224 83.5861 201.278 83.6777 201.371C83.7693 201.463 83.8213 201.588 83.8228 201.718V201.718Z" fill="white"/>
<path d="M116.656 201.631C116.702 202.256 116.79 203.384 116.889 204.196C116.897 204.261 116.893 204.326 116.875 204.389C116.858 204.452 116.828 204.51 116.788 204.561C116.748 204.612 116.698 204.655 116.641 204.687C116.584 204.718 116.521 204.738 116.457 204.746C114.33 204.923 112.191 204.899 110.069 204.675C109.965 204.668 109.866 204.627 109.787 204.558C109.708 204.49 109.653 204.398 109.631 204.296L109.093 202.051C109.077 201.98 109.076 201.905 109.092 201.833C109.108 201.761 109.139 201.694 109.183 201.635C109.228 201.577 109.285 201.529 109.35 201.495C109.415 201.46 109.487 201.441 109.561 201.438L116.141 201.175C116.27 201.168 116.395 201.212 116.491 201.298C116.588 201.383 116.647 201.502 116.656 201.631V201.631Z" fill="#263238"/>
<path opacity="0.1" d="M116.656 201.631C116.702 202.256 116.79 203.384 116.889 204.196C116.897 204.261 116.893 204.326 116.875 204.389C116.858 204.452 116.828 204.51 116.788 204.561C116.748 204.612 116.698 204.655 116.641 204.687C116.584 204.718 116.521 204.738 116.457 204.746C114.33 204.923 112.191 204.899 110.069 204.675C109.965 204.668 109.866 204.627 109.787 204.558C109.708 204.49 109.653 204.398 109.631 204.296L109.093 202.051C109.077 201.98 109.076 201.905 109.092 201.833C109.108 201.761 109.139 201.694 109.183 201.635C109.228 201.577 109.285 201.529 109.35 201.495C109.415 201.46 109.487 201.441 109.561 201.438L116.141 201.175C116.27 201.168 116.395 201.212 116.491 201.298C116.588 201.383 116.647 201.502 116.656 201.631V201.631Z" fill="white"/>
<path d="M111.653 64.7357L115.341 70.5799L119.034 76.4242L120.893 79.3463L121.828 80.8073C122.268 81.461 122.637 82.1606 122.927 82.8937C123.32 83.8675 123.507 84.9122 123.476 85.9619C123.454 86.5349 123.357 87.1027 123.19 87.6509C123.022 88.1753 122.784 88.6747 122.482 89.1353C121.961 89.9293 121.271 90.5979 120.46 91.0932C120.108 91.3076 119.739 91.4913 119.356 91.6425C119.169 91.7185 118.982 91.7828 118.771 91.8412L118.123 92.0166C117.64 92.2045 117.103 92.2 116.624 92.004C116.144 91.808 115.758 91.4354 115.546 90.9632C115.333 90.491 115.309 89.9551 115.48 89.466C115.65 88.9769 116.002 88.572 116.463 88.3347C116.463 88.2938 116.545 88.1827 116.591 88.0951C116.638 88.0074 116.714 87.9198 116.767 87.8262C116.873 87.6604 116.967 87.4865 117.047 87.3061C117.178 87.0609 117.227 86.7805 117.187 86.5054C117.166 86.4467 117.129 86.3946 117.081 86.3546C117.033 86.3146 116.975 86.288 116.913 86.2775C116.802 86.2775 116.714 86.149 116.539 85.9853C116.248 85.7205 115.987 85.4246 115.761 85.1028L114.663 83.6944C113.938 82.7535 113.237 81.7892 112.53 80.8307C111.822 79.8723 111.139 78.908 110.461 77.9086C109.783 76.9092 109.105 75.9566 108.45 74.9865C107.13 72.9994 105.867 71.0241 104.652 68.9143C104.196 67.9959 104.103 66.94 104.389 65.9556C104.675 64.9713 105.32 64.1302 106.197 63.5989C107.073 63.0677 108.118 62.8848 109.123 63.0867C110.128 63.2886 111.02 63.8604 111.624 64.689L111.653 64.7357Z" fill="#CA706C"/>
<path d="M106.983 60.3171C111.238 61.1178 113.494 64.7295 117.684 72.2686C116.714 75.0855 110.087 77.7738 110.087 77.7738C110.087 77.7738 99.9644 65.8107 106.983 60.3171Z" fill="#64BC26"/>
<path d="M113.705 68.3822C113.833 71.8988 113.782 75.4196 113.553 78.931C113.377 83.5129 113.062 88.0188 112.384 95.5286H89.3633C89.8309 89.0357 89.0711 81.6311 84.9334 67.0205C84.6847 66.2549 84.6111 65.4432 84.718 64.6454C84.8249 63.8476 85.1096 63.0839 85.5511 62.4108C85.9925 61.7377 86.5795 61.1723 87.2686 60.7563C87.9578 60.3403 88.7316 60.0844 89.5328 60.0074C90.4445 59.9139 91.4147 59.8379 92.4082 59.7853C95.8928 59.5367 99.3906 59.5367 102.875 59.7853C104.015 59.8905 105.213 60.0308 106.323 60.1886C108.313 60.4873 110.136 61.4677 111.483 62.9623C112.829 64.4568 113.614 66.3727 113.705 68.3822V68.3822Z" fill="#64BC26"/>
<path d="M80.2929 146.111C84.5942 145.947 88.8663 145.637 92.8579 145.263C93.7346 141.663 94.8333 137.362 96.043 132.815L80.1175 131.646C79.9831 135.965 80.024 140.775 80.2929 146.111Z" fill="black"/>
<path d="M98.5093 133.002C99.5729 136.532 100.837 140.276 102.302 144.234C108.111 143.492 112.419 142.773 113.909 142.516C113.991 139.869 114.026 137.046 114.02 134.165L98.5093 133.002Z" fill="black"/>
<path d="M113.798 96.014C114.072 89.8951 113.798 78.5807 113.798 78.5807C113.798 78.5807 113.167 64.1454 108.538 60.6155C108.497 60.5812 108.449 60.5554 108.398 60.5395C107.632 60.3058 106.995 60.0662 106.744 60.259C106.492 60.4519 110.583 63.6428 110.946 72.3741C103.424 73.0462 93.1852 72.0994 93.1852 72.0994C93.1852 72.0994 93.2553 63.8181 91.5371 59.8265C91.5045 59.753 91.4483 59.6923 91.3774 59.6542C91.3065 59.6161 91.2249 59.6027 91.1455 59.6161L90.1579 59.7622C90.0945 59.7709 90.0344 59.796 89.9837 59.835C89.9329 59.8739 89.8932 59.9255 89.8684 59.9844C89.8437 60.0434 89.8347 60.1079 89.8424 60.1714C89.8501 60.2349 89.8742 60.2953 89.9124 60.3467C91.765 63.5142 90.6196 75.3079 87.6741 80.106C87.9195 82.9171 88.3462 94.7166 88.3462 94.7166C88.3462 94.7166 77.6454 107.252 78.4986 138.326C91.7124 145.298 115.078 140.161 115.078 140.161C115.078 140.161 113.523 102.127 113.798 96.014Z" fill="#263238"/>
<path d="M93.1441 48.0034C94.0558 51.3697 95.1721 57.547 92.9805 59.7912C92.9805 59.7912 96.1714 59.312 102.951 63.5023C104.909 60.6912 103.453 59.7912 103.453 59.7912C99.6312 58.8971 99.5202 56.1094 99.9468 53.4911L93.1441 48.0034Z" fill="#CA706C"/>
<path d="M101.525 62.6607C99.2924 62.9763 98.6028 66.3484 98.6028 66.3484C98.6028 66.3484 93.2495 62.538 91.5371 59.8847C92.2102 59.5029 92.8636 59.0874 93.4949 58.6399C93.4949 58.6399 100.222 61.3691 101.525 62.6607Z" fill="white"/>
<path d="M103.646 62.2984C103.646 62.2984 105.575 62.8185 106.27 65.5302C106.779 60.6211 104.488 59.7853 104.488 59.7853C103.875 59.4419 103.157 59.3378 102.472 59.4931C102.963 59.7517 103.348 60.173 103.563 60.6848C103.777 61.1966 103.807 61.7671 103.646 62.2984Z" fill="white"/>
<path opacity="0.2" d="M95.9322 50.2651L99.9764 53.5145C99.8595 54.1273 99.7969 54.7492 99.7894 55.373C98.34 55.1626 96.2536 53.5847 95.9848 52.0827C95.8563 51.4852 95.8384 50.8691 95.9322 50.2651V50.2651Z" fill="black"/>
<path d="M90.2632 41.2418C91.2859 46.6828 91.6073 48.9971 94.7106 51.6095C99.386 55.531 105.815 53.4563 106.399 47.9101C106.983 42.9191 105.189 34.8658 99.5847 33.0658C98.3939 32.6406 97.1112 32.5413 95.8692 32.7783C94.6272 33.0153 93.4711 33.5799 92.5205 34.4136C91.5699 35.2474 90.8594 36.32 90.4626 37.5205C90.0657 38.721 89.9968 40.0058 90.2632 41.2418V41.2418Z" fill="#CA706C"/>
<path d="M101.893 33.3516C95.932 30.4295 84.1909 34.0705 86.552 40.5868L91.3209 43.9005C94.2956 43.7777 102.337 40.2829 101.893 33.3516Z" fill="#263238"/>
<path d="M98.8836 42.1477C98.9479 42.6094 99.2401 42.9659 99.5381 42.9426C99.8362 42.9192 100.017 42.5276 99.9472 42.0718C99.8771 41.6159 99.5907 41.2536 99.2985 41.2769C99.0063 41.3003 98.8135 41.686 98.8836 42.1477Z" fill="#263238"/>
<path d="M104.435 41.8206C104.506 42.2823 104.798 42.6388 105.09 42.6154C105.382 42.592 105.569 42.2005 105.505 41.7446C105.441 41.2888 105.148 40.9264 104.85 40.9498C104.552 40.9732 104.354 41.3589 104.435 41.8206Z" fill="#263238"/>
<path d="M104.728 40.9846L105.762 40.5872C105.762 40.5872 105.329 41.4989 104.728 40.9846Z" fill="#263238"/>
<path d="M103.003 42.6677C103.556 43.6898 104.237 44.6366 105.031 45.4846C104.82 45.6704 104.569 45.8053 104.298 45.8793C104.026 45.9532 103.741 45.9642 103.465 45.9113L103.003 42.6677Z" fill="#985854"/>
<path d="M101.116 47.8283C101.37 47.849 101.626 47.849 101.881 47.8283C101.899 47.8277 101.916 47.8234 101.932 47.8154C101.948 47.8075 101.962 47.7962 101.973 47.7823C101.985 47.7684 101.993 47.7522 101.997 47.7349C102.001 47.7176 102.002 47.6996 101.998 47.6822C101.993 47.646 101.974 47.6131 101.946 47.5895C101.918 47.5659 101.883 47.5531 101.846 47.5536C101.269 47.6023 100.689 47.5186 100.149 47.309C99.6089 47.0993 99.1241 46.7692 98.7312 46.3438C98.7052 46.3192 98.6706 46.3054 98.6348 46.3054C98.5989 46.3054 98.5644 46.3192 98.5383 46.3438C98.5141 46.3689 98.5005 46.4024 98.5005 46.4373C98.5005 46.4722 98.5141 46.5058 98.5383 46.5308C99.2114 47.262 100.127 47.7232 101.116 47.8283V47.8283Z" fill="#263238"/>
<path d="M89.4625 44.7015C89.587 45.2164 89.8176 45.6997 90.1396 46.1204C90.4617 46.5411 90.868 46.8898 91.3327 47.1444C92.5015 47.7288 93.3314 46.408 93.2028 44.906C93.0918 43.5502 92.3437 41.6157 91.0697 41.68C89.7956 41.7443 89.0943 43.3223 89.4625 44.7015Z" fill="#CA706C"/>
<path d="M97.2877 38.5765C97.3226 38.579 97.3576 38.5735 97.39 38.5603C97.4225 38.5472 97.4514 38.5267 97.4747 38.5005C97.6886 38.252 97.9605 38.0601 98.2664 37.9418C98.5722 37.8236 98.9025 37.7826 99.2279 37.8226C99.2615 37.8302 99.2963 37.8307 99.33 37.824C99.3637 37.8173 99.3957 37.8036 99.4238 37.7837C99.4519 37.7639 99.4755 37.7384 99.4931 37.7088C99.5107 37.6793 99.5219 37.6464 99.526 37.6122C99.5364 37.5396 99.5185 37.4658 99.4761 37.406C99.4337 37.3462 99.37 37.305 99.2981 37.2908C98.8853 37.2289 98.4635 37.2725 98.0721 37.4176C97.6807 37.5627 97.3324 37.8046 97.0597 38.1206C97.037 38.1478 97.0198 38.1793 97.0093 38.2131C96.9987 38.247 96.9949 38.2826 96.9982 38.3179C97.0015 38.3532 97.0117 38.3875 97.0283 38.4188C97.0448 38.4502 97.0674 38.4779 97.0948 38.5005C97.1199 38.5259 97.15 38.5457 97.1832 38.5588C97.2164 38.5719 97.252 38.5779 97.2877 38.5765V38.5765Z" fill="#263238"/>
<path d="M106.002 39.1026C106.034 39.1093 106.068 39.1086 106.1 39.1005C106.133 39.0924 106.163 39.0772 106.189 39.0558C106.216 39.0338 106.238 39.0065 106.255 38.9757C106.271 38.9448 106.281 38.911 106.285 38.8762C106.288 38.8413 106.284 38.8062 106.274 38.7728C106.263 38.7394 106.246 38.7085 106.224 38.6818C105.966 38.3301 105.632 38.0419 105.246 37.8393C104.86 37.6367 104.433 37.5251 103.997 37.5129C103.962 37.515 103.928 37.5243 103.898 37.5401C103.867 37.5559 103.839 37.578 103.817 37.6049C103.795 37.6318 103.779 37.663 103.77 37.6964C103.761 37.7299 103.758 37.7649 103.763 37.7993C103.773 37.8711 103.809 37.9368 103.864 37.9841C103.919 38.0314 103.989 38.0571 104.061 38.0565C104.407 38.0723 104.744 38.1663 105.047 38.3313C105.351 38.4963 105.613 38.728 105.815 39.0091C105.838 39.0366 105.866 39.0591 105.898 39.0752C105.931 39.0913 105.966 39.1006 106.002 39.1026V39.1026Z" fill="#263238"/>
<path d="M99.1699 41.312L100.204 40.9146C100.204 40.9146 99.7777 41.8146 99.1699 41.312Z" fill="#263238"/>
<path d="M105.429 83.6592C105.336 83.658 105.246 83.6227 105.178 83.5599L95.4997 74.4955C95.4308 74.4264 95.3921 74.3329 95.3921 74.2354C95.3921 74.1379 95.4308 74.0444 95.4997 73.9753C95.5694 73.9079 95.6627 73.8701 95.7597 73.8701C95.8568 73.8701 95.95 73.9079 96.0198 73.9753L105.698 83.0397C105.752 83.0902 105.789 83.1557 105.805 83.2277C105.822 83.2997 105.816 83.375 105.789 83.4437C105.762 83.5124 105.715 83.5713 105.654 83.6129C105.592 83.6544 105.52 83.6767 105.447 83.6767L105.429 83.6592Z" fill="#64BC26"/>
<path d="M99.8886 77.4816L98.1763 77.318C97.8592 77.2858 97.539 77.3307 97.2429 77.4487C96.9469 77.5667 96.6837 77.7544 96.4756 77.9959L94.4886 80.2751C94.0979 80.7245 93.8203 81.2608 93.6789 81.8393C93.5376 82.4177 93.5367 83.0216 93.6762 83.6005L93.8516 84.331C96.6743 84.7986 100.07 83.2265 100.07 83.2265L101.087 82.8875C101.298 82.8235 101.494 82.7183 101.664 82.5778C101.834 82.4374 101.975 82.2646 102.078 82.0694C102.18 81.8742 102.243 81.6605 102.263 81.4408C102.282 81.2211 102.258 80.9997 102.191 80.7894L101.543 78.7673C101.421 78.4157 101.2 78.1068 100.907 77.8785C100.613 77.6503 100.259 77.5123 99.8886 77.4816V77.4816Z" fill="#CA706C"/>
<path d="M90.1406 69.3174L89.8367 70.1239L89.5036 71.018C89.2932 71.6025 89.0769 72.2278 88.8724 72.8415C88.4633 74.0687 88.1127 75.3136 87.7795 76.5584C87.4464 77.8032 87.1951 79.0539 86.9672 80.2987C86.7393 81.5435 86.6107 82.7883 86.5055 84.0215L86.4237 83.25C86.3456 83.0382 86.2331 82.8407 86.0905 82.6656C85.9145 82.4458 85.6852 82.2748 85.4243 82.1688C85.0386 82.0519 85.1204 82.1981 85.3717 82.2214C85.7272 82.2586 86.0857 82.2586 86.4412 82.2214C86.8737 82.1864 87.3412 82.1104 87.8204 82.0227C88.7964 81.8474 89.8192 81.5844 90.8536 81.3039C91.888 81.0234 92.9634 80.6844 93.9744 80.398L94.0913 80.363C94.543 80.2328 95.0257 80.2617 95.4586 80.4449C95.8916 80.6281 96.2485 80.9544 96.4696 81.3692C96.6907 81.7841 96.7626 82.2622 96.6733 82.7238C96.584 83.1853 96.3389 83.6022 95.979 83.9046C95.0541 84.6878 94.0779 85.4082 93.0569 86.0611C92.0047 86.7376 90.9051 87.3372 89.7666 87.8553C89.1497 88.1293 88.5174 88.3673 87.873 88.5683C87.1276 88.8106 86.3571 88.9675 85.5763 89.0358C84.4234 89.1553 83.2595 88.9657 82.2041 88.4864C81.435 88.124 80.7653 87.5806 80.2522 86.9027C79.7767 86.2696 79.4366 85.5455 79.2528 84.7754C79.2105 84.597 79.185 84.415 79.1768 84.2318V83.9981C79.1052 82.4392 79.1384 80.8772 79.2762 79.3227C79.3346 78.5454 79.4398 77.7857 79.5392 77.0201C79.6385 76.2545 79.7846 75.5006 79.9424 74.7525C80.2425 73.2589 80.6209 71.7822 81.0762 70.3284C81.31 69.6037 81.5437 68.8791 81.8243 68.1602C81.9587 67.8037 82.0931 67.4414 82.245 67.0849C82.397 66.7284 82.5431 66.3894 82.7477 65.9453C83.2264 65.0452 84.024 64.3563 84.9841 64.0135C85.9443 63.6708 86.9978 63.6989 87.9384 64.0923C88.8789 64.4858 89.6386 65.2163 90.0686 66.1406C90.4987 67.065 90.5681 68.1166 90.2633 69.0895L90.1406 69.3174Z" fill="#CA706C"/>
<path d="M89.3163 60.0364C85.5643 60.6208 84.0565 61.7604 80.9883 69.3053C82.3851 72.1164 88.9014 74.8106 88.9014 74.8106C88.9014 74.8106 92.4254 65.0624 89.3163 60.0364Z" fill="#64BC26"/>
<path d="M95.5464 96.3408C97.1988 93.4415 98.7046 90.4611 100.058 87.4108C102.115 82.7004 103.828 77.0899 103.828 77.0899C103.828 77.0899 118.164 77.049 120.776 78.7614C119.023 84.7809 111.723 99.2162 111.723 99.2162C111.723 99.2162 100.906 98.6201 95.5464 96.3408Z" fill="white"/>
<path d="M110.151 100.093L97.1475 99.2459C95.8384 99.1582 95.2014 98.1822 95.7332 97.066L104.605 78.4346C104.939 77.8483 105.427 77.3644 106.016 77.0349C106.605 76.7053 107.273 76.5427 107.948 76.5644L120.945 77.4118C122.254 77.4995 122.891 78.4755 122.36 79.5917L113.494 98.2231C113.159 98.8094 112.671 99.2933 112.082 99.6228C111.493 99.9524 110.826 100.115 110.151 100.093V100.093Z" fill="#64BC26"/>
<path d="M115.966 86.8208L115.323 88.9715C115.176 89.399 115.199 89.8669 115.389 90.2775C115.578 90.688 115.919 91.0095 116.34 91.1748L117.293 91.5254L120.133 85.1318L117.544 85.4416C117.176 85.4935 116.83 85.6515 116.55 85.8965C116.27 86.1414 116.067 86.4626 115.966 86.8208V86.8208Z" fill="#CA706C"/>
</svg>
