<svg width="246" height="246" viewBox="0 0 246 246" fill="none" xmlns="http://www.w3.org/2000/svg">
<path d="M43.3404 52.2802C57.0721 23.0308 105.854 27.1587 124.678 47.7243C143.502 68.2899 149.622 81.4755 166.601 73.8003C183.58 66.1251 205.233 68.1718 206.453 92.575C207.673 116.978 187.821 145.839 156.245 154.375C124.668 162.911 124.678 193.125 82.8874 187.029C60.1029 183.703 59.5863 159.054 62.8039 138.666C66.0216 118.277 27.4095 86.2036 43.3404 52.2802Z" fill="#64BC26"/>
<path opacity="0.9" d="M43.3404 52.2802C57.0721 23.0308 105.854 27.1587 124.678 47.7243C143.502 68.2899 149.622 81.4755 166.601 73.8003C183.58 66.1251 205.233 68.1718 206.453 92.575C207.673 116.978 187.821 145.839 156.245 154.375C124.668 162.911 124.678 193.125 82.8874 187.029C60.1029 183.703 59.5863 159.054 62.8039 138.666C66.0216 118.277 27.4095 86.2036 43.3404 52.2802Z" fill="white"/>
<path d="M123 210.36C175.684 210.36 218.394 207.866 218.394 204.79C218.394 201.714 175.684 199.221 123 199.221C70.3153 199.221 27.606 201.714 27.606 204.79C27.606 207.866 70.3153 210.36 123 210.36Z" fill="#F5F5F5"/>
<path d="M129.558 51.9355H54.3807C51.5548 51.9355 49.2639 54.2264 49.2639 57.0523V200.446C49.2639 203.272 51.5548 205.563 54.3807 205.563H129.558C132.384 205.563 134.675 203.272 134.675 200.446V57.0523C134.675 54.2264 132.384 51.9355 129.558 51.9355Z" fill="#64BC26"/>
<path opacity="0.4" d="M129.558 51.9355H54.3807C51.5548 51.9355 49.2639 54.2264 49.2639 57.0523V200.446C49.2639 203.272 51.5548 205.563 54.3807 205.563H129.558C132.384 205.563 134.675 203.272 134.675 200.446V57.0523C134.675 54.2264 132.384 51.9355 129.558 51.9355Z" fill="white"/>
<path d="M131.797 57.0726V200.141C131.796 200.419 131.741 200.693 131.633 200.949C131.526 201.204 131.369 201.436 131.171 201.631C130.973 201.825 130.739 201.978 130.481 202.082C130.224 202.185 129.949 202.236 129.671 202.232H54.0412C53.7896 202.235 53.5401 202.187 53.3074 202.091C53.0748 201.995 52.8638 201.854 52.687 201.675C52.5102 201.496 52.3713 201.283 52.2786 201.049C52.1858 200.815 52.1411 200.565 52.147 200.313V56.9102C52.1297 56.4621 52.291 56.0254 52.5954 55.6961C52.8998 55.3668 53.3225 55.1717 53.7706 55.1538H72.6782C72.9429 55.159 73.2002 55.2427 73.4174 55.3942C73.6346 55.5457 73.802 55.7583 73.8983 56.005L74.6806 57.9336C74.7771 58.1784 74.9441 58.3891 75.1604 58.5389C75.3768 58.6887 75.6327 58.7708 75.8958 58.7749H108.087C108.349 58.774 108.605 58.6948 108.821 58.5475C109.038 58.4002 109.206 58.1916 109.303 57.9484L110.085 56.0099C110.181 55.7627 110.348 55.5494 110.565 55.3971C110.782 55.2447 111.04 55.1601 111.305 55.1538H129.937C130.436 55.1679 130.91 55.3764 131.257 55.7349C131.605 56.0934 131.798 56.5734 131.797 57.0726Z" fill="#263238"/>
<path opacity="0.3" d="M131.797 64.0933H52.147V192.751H131.797V64.0933Z" fill="white"/>
<path opacity="0.6" d="M60.9245 60.9199H61.9084V59.6063H60.9245V60.9199Z" fill="white"/>
<path opacity="0.6" d="M59.3204 60.9199H60.3044V59.1684H59.3204V60.9199Z" fill="white"/>
<path opacity="0.6" d="M57.7216 60.9199H58.7056V58.7354H57.7216V60.9199Z" fill="white"/>
<path opacity="0.6" d="M56.1176 60.9199H57.1016V58.2976H56.1176V60.9199Z" fill="white"/>
<path opacity="0.6" d="M122.779 59.1289H122.198V60.4425H122.779V59.1289Z" fill="white"/>
<path opacity="0.6" d="M123.182 60.9199H127.827V58.6518H123.182V60.9199Z" fill="white"/>
<path d="M129.829 66.6177H54.1101V79.5917H129.829V66.6177Z" fill="#64BC26"/>
<path opacity="0.8" d="M129.829 80.7036H54.1101V190.931H129.829V80.7036Z" fill="white"/>
<g opacity="0.1">
<path opacity="0.1" d="M127.827 167.802H56.1127C56.0475 167.802 55.9849 167.776 55.9388 167.73C55.8926 167.684 55.8667 167.621 55.8667 167.556C55.8667 167.491 55.8926 167.428 55.9388 167.382C55.9849 167.336 56.0475 167.31 56.1127 167.31H127.827C127.892 167.31 127.954 167.336 128.001 167.382C128.047 167.428 128.073 167.491 128.073 167.556C128.073 167.621 128.047 167.684 128.001 167.73C127.954 167.776 127.892 167.802 127.827 167.802Z" fill="black"/>
</g>
<path opacity="0.3" d="M73.3081 159.433H60.7425C60.5872 159.433 60.4383 159.371 60.3285 159.262C60.2187 159.152 60.157 159.003 60.157 158.848C60.157 158.692 60.2187 158.543 60.3285 158.434C60.4383 158.324 60.5872 158.262 60.7425 158.262H73.3081C73.4634 158.262 73.6123 158.324 73.7221 158.434C73.8319 158.543 73.8936 158.692 73.8936 158.848C73.8936 159.003 73.8319 159.152 73.7221 159.262C73.6123 159.371 73.4634 159.433 73.3081 159.433Z" fill="black"/>
<path opacity="0.3" d="M88.0681 161.956H60.7425C60.6658 161.957 60.5898 161.942 60.5188 161.913C60.4478 161.884 60.3832 161.842 60.3288 161.788C60.2743 161.734 60.2311 161.67 60.2016 161.599C60.1722 161.528 60.157 161.452 60.157 161.376C60.157 161.22 60.2187 161.071 60.3285 160.962C60.4383 160.852 60.5872 160.79 60.7425 160.79H88.0681C88.2234 160.79 88.3723 160.852 88.4821 160.962C88.5919 161.071 88.6536 161.22 88.6536 161.376C88.6536 161.452 88.6384 161.528 88.609 161.599C88.5795 161.67 88.5363 161.734 88.4818 161.788C88.4274 161.842 88.3628 161.884 88.2918 161.913C88.2208 161.942 88.1448 161.957 88.0681 161.956Z" fill="black"/>
<g opacity="0.1">
<path opacity="0.1" d="M127.827 182.168H56.1127C56.0475 182.168 55.9849 182.142 55.9388 182.096C55.8926 182.05 55.8667 181.988 55.8667 181.922C55.868 181.857 55.8943 181.796 55.9401 181.75C55.986 181.704 56.0479 181.678 56.1127 181.676H127.827C127.892 181.676 127.954 181.702 128.001 181.748C128.047 181.794 128.073 181.857 128.073 181.922C128.073 181.988 128.047 182.05 128.001 182.096C127.954 182.142 127.892 182.168 127.827 182.168Z" fill="black"/>
</g>
<path opacity="0.3" d="M73.3081 173.799H60.7425C60.6658 173.799 60.5898 173.785 60.5188 173.756C60.4478 173.727 60.3832 173.685 60.3288 173.631C60.2743 173.577 60.2311 173.512 60.2016 173.442C60.1722 173.371 60.157 173.295 60.157 173.218C60.157 173.063 60.2187 172.914 60.3285 172.804C60.4383 172.694 60.5872 172.633 60.7425 172.633H73.3081C73.4634 172.633 73.6123 172.694 73.7221 172.804C73.8319 172.914 73.8936 173.063 73.8936 173.218C73.8936 173.295 73.8784 173.371 73.849 173.442C73.8195 173.512 73.7763 173.577 73.7218 173.631C73.6674 173.685 73.6028 173.727 73.5318 173.756C73.4608 173.785 73.3848 173.799 73.3081 173.799Z" fill="black"/>
<path opacity="0.3" d="M88.0681 176.329H60.7425C60.5872 176.329 60.4383 176.267 60.3285 176.157C60.2187 176.047 60.157 175.898 60.157 175.743C60.157 175.588 60.2187 175.439 60.3285 175.329C60.4383 175.219 60.5872 175.158 60.7425 175.158H88.0681C88.2234 175.158 88.3723 175.219 88.4821 175.329C88.5919 175.439 88.6536 175.588 88.6536 175.743C88.6536 175.898 88.5919 176.047 88.4821 176.157C88.3723 176.267 88.2234 176.329 88.0681 176.329Z" fill="black"/>
<path d="M92.5994 198.739H91.3448C91.0268 198.738 90.7222 198.611 90.4973 198.386C90.2725 198.161 90.1456 197.856 90.1443 197.538V196.308C90.1456 195.991 90.2726 195.687 90.4976 195.463C90.7226 195.239 91.0272 195.113 91.3448 195.113H92.5994C92.9165 195.113 93.2205 195.239 93.4448 195.463C93.669 195.687 93.7949 195.991 93.7949 196.308V197.563C93.7885 197.876 93.6599 198.175 93.4365 198.394C93.2131 198.614 92.9127 198.738 92.5994 198.739ZM91.3448 195.58C91.1577 195.58 90.9782 195.654 90.8455 195.786C90.7128 195.918 90.6376 196.097 90.6363 196.284V197.538C90.6376 197.726 90.7126 197.905 90.8452 198.038C90.9778 198.17 91.1573 198.246 91.3448 198.247H92.5994C92.7864 198.246 92.9654 198.17 93.0972 198.038C93.229 197.905 93.3029 197.725 93.3029 197.538V196.308C93.3029 196.122 93.2288 195.943 93.0969 195.811C92.9649 195.679 92.786 195.605 92.5994 195.605L91.3448 195.58Z" fill="white"/>
<path opacity="0.6" d="M91.9597 55.3452C91.9607 55.5624 91.8972 55.775 91.7772 55.956C91.6572 56.1371 91.4862 56.2785 91.2858 56.3623C91.0854 56.4461 90.8647 56.4685 90.6515 56.4268C90.4384 56.385 90.2424 56.2809 90.0885 56.1276C89.9345 55.9744 89.8296 55.7789 89.7868 55.5659C89.7441 55.353 89.7655 55.1321 89.8484 54.9314C89.9313 54.7306 90.0719 54.559 90.2525 54.4382C90.433 54.3174 90.6453 54.2529 90.8625 54.2529C91.1527 54.2529 91.431 54.3678 91.6366 54.5725C91.8422 54.7772 91.9584 55.055 91.9597 55.3452Z" fill="black"/>
<path opacity="0.6" d="M94.1688 55.3452C94.1678 55.4831 94.126 55.6177 94.0486 55.732C93.9713 55.8462 93.8618 55.935 93.7341 55.9871C93.6063 56.0392 93.466 56.0524 93.3308 56.0249C93.1956 55.9974 93.0716 55.9304 92.9744 55.8325C92.8772 55.7346 92.8111 55.6101 92.7846 55.4747C92.758 55.3394 92.7721 55.1991 92.8251 55.0718C92.8782 54.9444 92.9677 54.8356 93.0825 54.759C93.1973 54.6825 93.3321 54.6416 93.4701 54.6416C93.5623 54.6416 93.6535 54.6598 93.7386 54.6952C93.8237 54.7307 93.9009 54.7826 93.9659 54.848C94.0308 54.9134 94.0822 54.991 94.117 55.0763C94.1518 55.1616 94.1694 55.253 94.1688 55.3452Z" fill="black"/>
<path d="M91.9695 135.586C104.227 135.586 114.164 125.649 114.164 113.392C114.164 101.134 104.227 91.1978 91.9695 91.1978C79.712 91.1978 69.7754 101.134 69.7754 113.392C69.7754 125.649 79.712 135.586 91.9695 135.586Z" fill="#263238"/>
<path d="M79.3646 111.581C79.1359 111.582 78.9119 111.515 78.7216 111.388C78.5312 111.262 78.3831 111.081 78.2964 110.869C78.2096 110.657 78.1881 110.425 78.2347 110.201C78.2813 109.977 78.3937 109.772 78.5577 109.613C82.1174 106.059 86.9419 104.062 91.9721 104.062C97.0022 104.063 101.827 106.059 105.386 109.613C105.493 109.719 105.578 109.846 105.635 109.985C105.693 110.124 105.723 110.274 105.723 110.424C105.723 110.575 105.693 110.724 105.635 110.864C105.578 111.003 105.493 111.13 105.386 111.236C105.28 111.343 105.153 111.427 105.014 111.485C104.875 111.543 104.725 111.572 104.575 111.572C104.424 111.572 104.275 111.543 104.135 111.485C103.996 111.427 103.869 111.343 103.763 111.236C100.633 108.112 96.3917 106.358 91.9696 106.358C87.5475 106.358 83.3061 108.112 80.1764 111.236C80.0705 111.344 79.9442 111.43 79.8049 111.49C79.6656 111.549 79.5159 111.58 79.3646 111.581Z" fill="white"/>
<path d="M83.2613 115.478C83.0332 115.478 82.8103 115.41 82.6207 115.284C82.4312 115.157 82.2836 114.977 82.1966 114.766C82.1096 114.555 82.0873 114.323 82.1323 114.099C82.1773 113.876 82.2877 113.671 82.4495 113.51C84.9766 110.989 88.4003 109.574 91.9697 109.574C95.539 109.574 98.9627 110.989 101.49 113.51C101.678 113.729 101.776 114.011 101.765 114.299C101.754 114.587 101.635 114.861 101.431 115.065C101.228 115.27 100.954 115.39 100.666 115.401C100.378 115.413 100.096 115.316 99.8761 115.129C97.7796 113.037 94.9388 111.862 91.9771 111.862C89.0153 111.862 86.1745 113.037 84.078 115.129C83.9721 115.239 83.8453 115.326 83.705 115.386C83.5647 115.446 83.4138 115.477 83.2613 115.478Z" fill="white"/>
<path d="M87.1578 119.369C86.9287 119.372 86.7041 119.306 86.513 119.179C86.3219 119.053 86.173 118.872 86.0856 118.66C85.9983 118.448 85.9764 118.215 86.0228 117.991C86.0692 117.766 86.1818 117.561 86.346 117.401C87.8393 115.911 89.8626 115.075 91.9721 115.075C94.0815 115.075 96.1048 115.911 97.5981 117.401C97.7047 117.508 97.7893 117.634 97.847 117.774C97.9047 117.913 97.9344 118.062 97.9344 118.213C97.9344 118.364 97.9047 118.513 97.847 118.652C97.7893 118.792 97.7047 118.918 97.5981 119.025C97.4915 119.132 97.3649 119.216 97.2256 119.274C97.0864 119.331 96.9371 119.361 96.7863 119.361C96.6355 119.361 96.4862 119.331 96.347 119.274C96.2077 119.216 96.0811 119.132 95.9745 119.025C95.449 118.499 94.8251 118.082 94.1384 117.797C93.4516 117.513 92.7155 117.366 91.9721 117.366C91.2287 117.366 90.4926 117.513 89.8058 117.797C89.119 118.082 88.4951 118.499 87.9697 119.025C87.7546 119.242 87.4631 119.365 87.1578 119.369Z" fill="white"/>
<path d="M93.1308 121.874C93.3609 122.103 93.5176 122.396 93.5812 122.715C93.6448 123.034 93.6124 123.364 93.4881 123.665C93.3638 123.965 93.1532 124.222 92.8829 124.403C92.6126 124.583 92.2948 124.68 91.9697 124.68C91.6446 124.68 91.3268 124.583 91.0565 124.403C90.7862 124.222 90.5756 123.965 90.4513 123.665C90.327 123.364 90.2946 123.034 90.3582 122.715C90.4218 122.396 90.5785 122.103 90.8086 121.874C91.1167 121.566 91.5343 121.393 91.9697 121.393C92.4051 121.393 92.8227 121.566 93.1308 121.874Z" fill="white"/>
<path d="M60.393 76.2303C60.3283 76.2307 60.2641 76.2182 60.2042 76.1938C60.1442 76.1693 60.0897 76.1332 60.0437 76.0876L57.4066 73.4505C57.361 73.4045 57.3249 73.35 57.3004 73.29C57.276 73.2301 57.2635 73.1659 57.2639 73.1012C57.2645 72.9721 57.3157 72.8484 57.4066 72.7568L60.0437 70.1196C60.1359 70.028 60.2606 69.9766 60.3906 69.9766C60.5206 69.9766 60.6453 70.028 60.7374 70.1196C60.8291 70.2118 60.8805 70.3365 60.8805 70.4665C60.8805 70.5965 60.8291 70.7212 60.7374 70.8134L58.4496 73.1012L60.7374 75.389C60.7835 75.4347 60.8202 75.4891 60.8451 75.5491C60.8701 75.609 60.883 75.6733 60.883 75.7383C60.883 75.8032 60.8701 75.8675 60.8451 75.9275C60.8202 75.9874 60.7835 76.0419 60.7374 76.0876C60.6458 76.1785 60.5221 76.2297 60.393 76.2303Z" fill="white"/>
<path d="M126.173 70.8877C126.173 71.0025 126.139 71.1148 126.075 71.2102C126.012 71.3057 125.921 71.3801 125.815 71.4241C125.709 71.468 125.592 71.4795 125.48 71.4571C125.367 71.4347 125.263 71.3794 125.182 71.2982C125.101 71.217 125.046 71.1136 125.023 71.001C125.001 70.8883 125.012 70.7716 125.056 70.6655C125.1 70.5594 125.175 70.4688 125.27 70.405C125.366 70.3412 125.478 70.3071 125.593 70.3071C125.747 70.3071 125.894 70.3683 126.003 70.4772C126.112 70.5861 126.173 70.7337 126.173 70.8877Z" fill="white"/>
<path d="M126.173 73.1011C126.173 73.2159 126.139 73.3281 126.075 73.4236C126.012 73.5191 125.921 73.5935 125.815 73.6374C125.709 73.6814 125.592 73.6929 125.48 73.6705C125.367 73.6481 125.263 73.5928 125.182 73.5116C125.101 73.4304 125.046 73.327 125.023 73.2143C125.001 73.1017 125.012 72.985 125.056 72.8789C125.1 72.7728 125.175 72.6821 125.27 72.6184C125.366 72.5546 125.478 72.5205 125.593 72.5205C125.747 72.5205 125.894 72.5817 126.003 72.6906C126.112 72.7994 126.173 72.9471 126.173 73.1011Z" fill="white"/>
<path d="M126.173 75.3159C126.173 75.4307 126.139 75.543 126.075 75.6385C126.012 75.7339 125.921 75.8083 125.815 75.8523C125.709 75.8962 125.592 75.9077 125.48 75.8853C125.367 75.8629 125.263 75.8076 125.182 75.7264C125.101 75.6452 125.046 75.5418 125.023 75.4292C125.001 75.3166 125.012 75.1998 125.056 75.0937C125.1 74.9877 125.175 74.897 125.27 74.8332C125.366 74.7694 125.478 74.7354 125.593 74.7354C125.747 74.7354 125.894 74.7965 126.003 74.9054C126.112 75.0143 126.173 75.1619 126.173 75.3159Z" fill="white"/>
<path d="M109.775 135.586C113.916 135.586 117.273 132.229 117.273 128.088C117.273 123.947 113.916 120.59 109.775 120.59C105.634 120.59 102.277 123.947 102.277 128.088C102.277 132.229 105.634 135.586 109.775 135.586Z" fill="#64BC26"/>
<path d="M112.786 131.591C112.721 131.591 112.657 131.579 112.597 131.554C112.537 131.53 112.483 131.493 112.437 131.448L106.42 125.426C106.339 125.332 106.297 125.211 106.302 125.087C106.306 124.963 106.358 124.845 106.445 124.758C106.533 124.67 106.65 124.619 106.774 124.614C106.898 124.609 107.019 124.651 107.113 124.732L113.16 130.749C113.206 130.795 113.243 130.849 113.268 130.909C113.293 130.969 113.306 131.034 113.306 131.099C113.306 131.163 113.293 131.228 113.268 131.288C113.243 131.348 113.206 131.402 113.16 131.448C113.111 131.497 113.053 131.534 112.988 131.559C112.924 131.584 112.855 131.594 112.786 131.591Z" fill="white"/>
<path d="M106.764 131.59C106.666 131.59 106.571 131.562 106.489 131.508C106.408 131.454 106.344 131.377 106.307 131.287C106.269 131.196 106.259 131.097 106.279 131.001C106.298 130.905 106.345 130.817 106.415 130.749L112.432 124.731C112.477 124.685 112.532 124.649 112.592 124.624C112.652 124.599 112.716 124.586 112.781 124.586C112.846 124.586 112.91 124.599 112.97 124.624C113.03 124.649 113.085 124.685 113.13 124.731C113.222 124.824 113.273 124.948 113.273 125.078C113.273 125.208 113.222 125.333 113.13 125.425L107.108 131.447C107.017 131.538 106.893 131.589 106.764 131.59Z" fill="white"/>
<g opacity="0.1">
<path opacity="0.1" d="M127.827 153.435H56.1127C56.0479 153.434 55.986 153.408 55.9401 153.362C55.8943 153.316 55.868 153.254 55.8667 153.189C55.8667 153.124 55.8926 153.062 55.9388 153.015C55.9849 152.969 56.0475 152.943 56.1127 152.943H127.827C127.892 152.943 127.954 152.969 128.001 153.015C128.047 153.062 128.073 153.124 128.073 153.189C128.073 153.255 128.047 153.317 128.001 153.363C127.954 153.409 127.892 153.435 127.827 153.435Z" fill="black"/>
</g>
<g opacity="0.3">
<path opacity="0.3" d="M115 159.709C114.923 159.708 114.848 159.684 114.784 159.641C114.721 159.597 114.671 159.536 114.642 159.465C114.612 159.394 114.605 159.316 114.619 159.24C114.634 159.164 114.671 159.095 114.725 159.04C115.938 157.83 117.582 157.151 119.295 157.151C121.009 157.151 122.652 157.83 123.866 159.04C123.939 159.113 123.98 159.212 123.98 159.315C123.98 159.419 123.939 159.518 123.866 159.591C123.793 159.664 123.694 159.705 123.59 159.705C123.487 159.705 123.388 159.664 123.315 159.591C122.247 158.528 120.802 157.931 119.295 157.931C117.789 157.931 116.343 158.528 115.276 159.591C115.24 159.628 115.198 159.658 115.15 159.679C115.103 159.699 115.052 159.709 115 159.709Z" fill="black"/>
<path opacity="0.3" d="M116.329 161.033C116.277 161.034 116.226 161.024 116.179 161.005C116.132 160.985 116.089 160.956 116.053 160.919C116.017 160.883 115.988 160.84 115.968 160.793C115.949 160.746 115.938 160.695 115.938 160.644C115.938 160.593 115.949 160.542 115.968 160.495C115.988 160.447 116.017 160.404 116.053 160.368C116.913 159.508 118.079 159.025 119.295 159.025C120.511 159.025 121.678 159.508 122.538 160.368C122.611 160.441 122.652 160.541 122.652 160.644C122.652 160.747 122.611 160.846 122.538 160.919C122.464 160.992 122.365 161.034 122.262 161.034C122.159 161.034 122.06 160.992 121.987 160.919C121.272 160.207 120.304 159.808 119.295 159.808C118.286 159.808 117.319 160.207 116.604 160.919C116.568 160.956 116.525 160.985 116.478 161.005C116.431 161.024 116.38 161.034 116.329 161.033Z" fill="black"/>
<path opacity="0.3" d="M117.657 162.361C117.552 162.36 117.452 162.32 117.376 162.248C117.303 162.174 117.261 162.074 117.261 161.97C117.261 161.865 117.303 161.766 117.376 161.692C117.886 161.185 118.576 160.9 119.295 160.9C120.014 160.9 120.704 161.185 121.214 161.692C121.282 161.767 121.318 161.865 121.316 161.966C121.313 162.067 121.272 162.163 121.201 162.234C121.129 162.306 121.033 162.347 120.932 162.35C120.831 162.352 120.733 162.316 120.658 162.248C120.479 162.068 120.267 161.926 120.033 161.829C119.799 161.732 119.548 161.682 119.295 161.682C119.042 161.682 118.791 161.732 118.557 161.829C118.324 161.926 118.111 162.068 117.932 162.248C117.858 162.319 117.76 162.36 117.657 162.361Z" fill="black"/>
<path opacity="0.3" d="M119.295 164.171C119.605 164.171 119.856 163.92 119.856 163.61C119.856 163.3 119.605 163.049 119.295 163.049C118.985 163.049 118.734 163.3 118.734 163.61C118.734 163.92 118.985 164.171 119.295 164.171Z" fill="black"/>
</g>
<path d="M125.15 162.021C125.149 162.446 125.022 162.861 124.785 163.214C124.549 163.567 124.212 163.842 123.82 164.004C123.427 164.166 122.994 164.208 122.578 164.124C122.161 164.041 121.778 163.836 121.478 163.535C121.178 163.234 120.974 162.851 120.891 162.434C120.808 162.017 120.851 161.585 121.014 161.192C121.177 160.8 121.453 160.464 121.806 160.228C122.16 159.992 122.575 159.866 123 159.866C123.283 159.866 123.563 159.922 123.824 160.03C124.085 160.139 124.322 160.298 124.522 160.498C124.722 160.698 124.88 160.935 124.988 161.197C125.096 161.458 125.151 161.738 125.15 162.021Z" fill="#263238"/>
<path d="M123.861 163.128C123.796 163.127 123.734 163.101 123.689 163.054L121.962 161.327C121.917 161.281 121.892 161.22 121.892 161.155C121.892 161.091 121.917 161.029 121.962 160.983C121.985 160.96 122.012 160.942 122.042 160.929C122.072 160.917 122.104 160.91 122.137 160.91C122.169 160.91 122.201 160.917 122.231 160.929C122.261 160.942 122.288 160.96 122.311 160.983L124.038 162.71C124.083 162.756 124.108 162.818 124.108 162.882C124.108 162.946 124.083 163.008 124.038 163.054C123.991 163.101 123.928 163.128 123.861 163.128Z" fill="white"/>
<path d="M122.139 163.128C122.073 163.128 122.009 163.101 121.962 163.054C121.917 163.008 121.892 162.946 121.892 162.882C121.892 162.818 121.917 162.756 121.962 162.71L123.689 160.983C123.712 160.96 123.739 160.942 123.769 160.929C123.799 160.917 123.831 160.91 123.864 160.91C123.896 160.91 123.928 160.917 123.958 160.929C123.988 160.942 124.015 160.96 124.038 160.983C124.083 161.029 124.108 161.091 124.108 161.155C124.108 161.22 124.083 161.281 124.038 161.327L122.311 163.054C122.266 163.101 122.204 163.127 122.139 163.128Z" fill="white"/>
<g opacity="0.3">
<path opacity="0.3" d="M115 173.976C114.897 173.975 114.799 173.934 114.725 173.863C114.651 173.789 114.61 173.689 114.61 173.585C114.61 173.48 114.651 173.381 114.725 173.307C115.938 172.097 117.582 171.418 119.295 171.418C121.009 171.418 122.652 172.097 123.866 173.307C123.94 173.381 123.981 173.48 123.981 173.585C123.981 173.689 123.94 173.789 123.866 173.863C123.83 173.899 123.787 173.928 123.74 173.947C123.692 173.967 123.642 173.977 123.59 173.977C123.539 173.977 123.489 173.967 123.441 173.947C123.394 173.928 123.351 173.899 123.315 173.863C122.248 172.797 120.803 172.199 119.295 172.199C117.788 172.199 116.342 172.797 115.276 173.863C115.239 173.899 115.196 173.927 115.149 173.947C115.102 173.966 115.051 173.976 115 173.976Z" fill="black"/>
<path opacity="0.3" d="M116.329 175.304C116.277 175.304 116.226 175.293 116.179 175.273C116.131 175.253 116.088 175.223 116.053 175.185C116.017 175.149 115.988 175.106 115.968 175.059C115.949 175.012 115.938 174.961 115.938 174.91C115.938 174.859 115.949 174.808 115.968 174.761C115.988 174.713 116.017 174.671 116.053 174.634C116.913 173.775 118.079 173.292 119.295 173.292C120.511 173.292 121.678 173.775 122.538 174.634C122.611 174.708 122.652 174.807 122.652 174.91C122.652 175.013 122.611 175.112 122.538 175.185C122.464 175.259 122.365 175.3 122.262 175.3C122.159 175.3 122.06 175.259 121.987 175.185C121.272 174.473 120.304 174.074 119.295 174.074C118.286 174.074 117.319 174.473 116.604 175.185C116.569 175.223 116.526 175.253 116.478 175.273C116.431 175.293 116.38 175.304 116.329 175.304Z" fill="black"/>
<path opacity="0.3" d="M117.657 176.628C117.552 176.628 117.452 176.587 117.376 176.515C117.34 176.479 117.311 176.436 117.292 176.389C117.272 176.341 117.262 176.291 117.262 176.239C117.262 176.188 117.272 176.138 117.292 176.09C117.311 176.043 117.34 176 117.376 175.964C117.628 175.711 117.927 175.51 118.256 175.373C118.586 175.237 118.939 175.166 119.295 175.166C119.652 175.166 120.005 175.237 120.334 175.373C120.664 175.51 120.963 175.711 121.214 175.964C121.25 176 121.279 176.043 121.299 176.09C121.319 176.138 121.329 176.188 121.329 176.239C121.329 176.291 121.319 176.341 121.299 176.389C121.279 176.436 121.25 176.479 121.214 176.515C121.14 176.589 121.04 176.63 120.936 176.63C120.832 176.63 120.732 176.589 120.658 176.515C120.479 176.336 120.267 176.193 120.033 176.096C119.799 175.999 119.549 175.949 119.295 175.949C119.042 175.949 118.791 175.999 118.557 176.096C118.324 176.193 118.111 176.336 117.932 176.515C117.858 176.586 117.76 176.627 117.657 176.628Z" fill="black"/>
<path opacity="0.3" d="M119.295 178.438C119.605 178.438 119.856 178.187 119.856 177.877C119.856 177.568 119.605 177.316 119.295 177.316C118.985 177.316 118.734 177.568 118.734 177.877C118.734 178.187 118.985 178.438 119.295 178.438Z" fill="black"/>
</g>
<path d="M125.15 176.289C125.149 176.714 125.022 177.129 124.785 177.482C124.549 177.835 124.212 178.11 123.82 178.272C123.427 178.434 122.994 178.476 122.578 178.392C122.161 178.309 121.778 178.104 121.478 177.803C121.178 177.502 120.974 177.119 120.891 176.702C120.808 176.285 120.851 175.853 121.014 175.46C121.177 175.068 121.453 174.732 121.806 174.496C122.16 174.26 122.575 174.134 123 174.134C123.283 174.134 123.563 174.19 123.824 174.298C124.085 174.407 124.322 174.566 124.522 174.766C124.722 174.966 124.88 175.204 124.988 175.465C125.096 175.726 125.151 176.006 125.15 176.289Z" fill="#263238"/>
<path d="M123.861 177.396C123.797 177.395 123.736 177.37 123.689 177.327L121.962 175.6C121.916 175.554 121.891 175.491 121.891 175.426C121.891 175.36 121.916 175.298 121.962 175.251C121.985 175.228 122.012 175.21 122.042 175.197C122.072 175.185 122.104 175.178 122.137 175.178C122.169 175.178 122.201 175.185 122.231 175.197C122.261 175.21 122.288 175.228 122.311 175.251L124.038 176.978C124.084 177.025 124.109 177.087 124.109 177.153C124.109 177.218 124.084 177.28 124.038 177.327C123.99 177.371 123.927 177.396 123.861 177.396Z" fill="white"/>
<path d="M122.139 177.396C122.073 177.396 122.01 177.371 121.962 177.327C121.916 177.28 121.891 177.218 121.891 177.153C121.891 177.087 121.916 177.025 121.962 176.978L123.689 175.251C123.712 175.228 123.739 175.21 123.769 175.197C123.799 175.185 123.831 175.178 123.863 175.178C123.896 175.178 123.928 175.185 123.958 175.197C123.988 175.21 124.015 175.228 124.038 175.251C124.084 175.298 124.109 175.36 124.109 175.426C124.109 175.491 124.084 175.554 124.038 175.6L122.311 177.327C122.264 177.37 122.203 177.395 122.139 177.396Z" fill="white"/>
<path opacity="0.2" d="M127.497 55.1538L52.1521 130.504V56.9102C52.1348 56.4621 52.2961 56.0254 52.6005 55.6961C52.9049 55.3668 53.3276 55.1717 53.7757 55.1538H72.6833C72.9481 55.159 73.2053 55.2427 73.4226 55.3942C73.6398 55.5457 73.8071 55.7583 73.9035 56.005L74.6857 57.9336C74.7822 58.1784 74.9492 58.3891 75.1655 58.5389C75.3819 58.6887 75.6379 58.7708 75.901 58.7749H108.093C108.354 58.774 108.61 58.6948 108.827 58.5475C109.043 58.4002 109.211 58.1916 109.308 57.9484L110.09 56.0099C110.186 55.7627 110.353 55.5494 110.57 55.3971C110.788 55.2447 111.045 55.1601 111.31 55.1538H127.497Z" fill="white"/>
<path opacity="0.2" d="M131.797 69.1216V75.306L52.147 154.951V148.771L131.797 69.1216Z" fill="white"/>
<path d="M133.686 90.5671L133.194 87.4626C132.824 86.8587 132.401 86.289 131.93 85.7603C131.541 85.4307 130.946 82.518 131.438 81.2487C131.93 79.9793 134.744 78.9707 134.744 78.9707L136.102 85.7603L135.408 86.9854L135.959 89.5487L133.686 90.5671Z" fill="#EBB376"/>
<path d="M150.011 81.7559C146.808 82.2036 141.204 97.8689 139.255 97.6376C138.601 97.5589 135.792 87.0842 135.792 87.0842L132.909 88.9784C132.909 88.9784 135.3 101.844 137.671 102.877C141.42 104.526 149.253 91.3892 149.253 91.3892L150.011 81.7559Z" fill="#64BC26"/>
<path d="M149.199 80.6387C147.403 80.7814 140.884 92.3876 140.884 92.3876L145.042 99.0788L147.502 96.3532L149.199 80.6387Z" fill="#64BC26"/>
<path opacity="0.6" d="M149.199 80.6387L148.363 88.4024L147.502 96.3532L145.042 99.0788L144.008 97.4159L140.884 92.3926C140.884 92.3926 147.403 80.7814 149.199 80.6387Z" fill="white"/>
<path opacity="0.2" d="M148.362 88.4023L147.501 96.3531L145.041 99.0788L144.008 97.4158C144.2 92.8254 146.946 89.7111 148.362 88.4023Z" fill="black"/>
<path d="M138.813 84.5894C138.825 84.6362 138.827 84.685 138.819 84.7326C138.811 84.7802 138.793 84.8256 138.766 84.8656C138.739 84.9057 138.704 84.9395 138.663 84.9648C138.621 84.9902 138.575 85.0065 138.527 85.0126L134.778 85.539C134.671 85.5561 134.562 85.5328 134.471 85.4737C134.38 85.4146 134.314 85.324 134.286 85.2192L132.412 77.9376C132.395 77.8869 132.388 77.8332 132.394 77.7799C132.399 77.7267 132.415 77.6751 132.442 77.6286C132.468 77.5821 132.504 77.5418 132.547 77.5103C132.591 77.4787 132.64 77.4567 132.692 77.4456L136.441 76.9241C136.553 76.9205 136.663 76.9552 136.752 77.0222C136.842 77.0893 136.905 77.1848 136.933 77.2931L138.813 84.5894Z" fill="#263238"/>
<path opacity="0.5" d="M136.515 77.318L138.409 84.6685C138.427 84.7105 138.434 84.7559 138.43 84.8012C138.426 84.8464 138.411 84.8901 138.387 84.9285C138.363 84.967 138.33 84.9992 138.292 85.0224C138.253 85.0457 138.209 85.0593 138.163 85.0621L134.985 85.5098C134.773 85.5393 134.365 85.4754 134.311 85.2687L132.412 77.8887C132.363 77.6821 132.702 77.4607 132.904 77.4312L136.082 76.9884C136.183 76.9757 136.285 77.0032 136.366 77.0648C136.447 77.1264 136.5 77.2173 136.515 77.318Z" fill="white"/>
<path d="M165.951 200.997H170.822C170.902 200.999 170.979 201.027 171.041 201.076C171.103 201.126 171.147 201.195 171.167 201.272L171.954 204.844C171.97 204.92 171.972 204.998 171.958 205.074C171.944 205.15 171.915 205.223 171.873 205.288C171.831 205.353 171.777 205.409 171.713 205.453C171.649 205.496 171.577 205.527 171.501 205.543C171.457 205.548 171.412 205.548 171.368 205.543C169.794 205.518 168.648 205.42 166.665 205.42C165.45 205.42 161.769 205.548 160.087 205.548C158.404 205.548 158.188 203.885 158.876 203.732C161.966 203.058 164.288 202.128 165.272 201.238C165.46 201.074 165.703 200.988 165.951 200.997Z" fill="#263238"/>
<path d="M145.297 200.869H150.168C150.248 200.87 150.325 200.898 150.387 200.948C150.449 200.998 150.493 201.067 150.513 201.144L151.3 204.716C151.316 204.792 151.318 204.87 151.304 204.947C151.29 205.023 151.262 205.096 151.22 205.162C151.177 205.227 151.123 205.284 151.059 205.328C150.995 205.372 150.923 205.403 150.847 205.42H150.714C149.14 205.395 147.993 205.297 146.011 205.297C144.795 205.297 141.115 205.424 139.433 205.424C137.75 205.424 137.534 203.762 138.222 203.609C141.312 202.935 143.634 202.005 144.618 201.115C144.805 200.949 145.048 200.862 145.297 200.869Z" fill="#263238"/>
<path d="M168.535 110.7H147.256C145.233 121.751 139.448 166.459 143.994 201.297L151.098 202.074C151.098 202.074 149.981 148.584 156.343 131.463C157.071 140.609 157.942 150.346 158.695 155.526C160.549 168.274 164.722 201.504 164.722 201.504L171.92 201.701C171.92 201.701 170.345 169.47 169.651 156.929C168.894 143.335 168.564 113.51 168.535 110.7Z" fill="#263238"/>
<path opacity="0.2" d="M168.535 110.7H147.256C145.233 121.751 139.448 166.459 143.994 201.297L151.098 202.074C151.098 202.074 149.981 148.584 156.343 131.463C157.071 140.609 157.942 150.346 158.695 155.526C160.549 168.274 164.722 201.504 164.722 201.504L171.92 201.701C171.92 201.701 170.345 169.47 169.651 156.929C168.894 143.335 168.564 113.51 168.535 110.7Z" fill="white"/>
<path opacity="0.2" d="M156.338 131.463C155.293 134.46 154.498 137.539 153.962 140.668C153.366 132.525 155.747 123.891 155.747 123.891L156.338 131.463Z" fill="black"/>
<path d="M147.078 110.971H168.5V113.524L146.803 113.259L147.078 110.971Z" fill="#263238"/>
<path d="M161.612 109.824H160.849V114.351H161.612V109.824Z" fill="#263238"/>
<path d="M150.773 109.824H150.011V114.351H150.773V109.824Z" fill="#263238"/>
<path d="M156.84 110.527H152.879V113.381H156.84V110.527Z" fill="white"/>
<path opacity="0.2" d="M161.612 109.824H160.849V114.351H161.612V109.824Z" fill="white"/>
<path opacity="0.2" d="M150.773 109.824H150.011V114.351H150.773V109.824Z" fill="white"/>
<path d="M149.199 80.639C149.199 80.639 162.734 80.1175 172.815 82.2036C172.815 82.2036 168.362 100.54 168.53 110.971H147.078C147.078 110.971 145.686 91.404 149.199 80.639Z" fill="#64BC26"/>
<path d="M164.913 81.1801C162.97 82.9464 158.212 82.292 158.212 82.292C158.212 82.292 155.236 81.4802 155.86 80.5503C157.612 80.26 158.458 79.4433 158.812 78.3954C159.002 77.7477 159.062 77.0689 158.989 76.3978C158.96 76.0233 158.91 75.6505 158.842 75.281L164.746 70.9219C163.954 73.8001 163.014 79.1038 164.913 81.1801Z" fill="#EBB376"/>
<path opacity="0.2" d="M163.368 73.7012C163.132 77.2337 160.229 78.2079 158.812 78.4047C159.002 77.757 159.063 77.0782 158.99 76.4072L163.368 73.7012Z" fill="black"/>
<path d="M154.764 61.7803C154.764 61.7803 153.12 67.0939 155.693 69.6178C158.267 72.1418 159.782 62.0214 159.782 62.0214L154.764 61.7803Z" fill="#263238"/>
<path d="M163.423 75.1924C162.684 75.9976 161.701 76.5378 160.626 76.7298C159.55 76.9218 158.441 76.7551 157.469 76.2551C156.2 75.6341 155.217 74.5517 154.719 73.2293C154.646 73.0462 154.583 72.8589 154.532 72.6684C153.612 69.1359 154.04 63.2565 157.873 61.6034C158.719 61.2343 159.646 61.088 160.565 61.1783C161.484 61.2685 162.364 61.5924 163.123 62.119C163.881 62.6457 164.492 63.3576 164.898 64.187C165.303 65.0165 165.49 65.936 165.44 66.8579C165.312 70.8087 165.386 73.1358 163.423 75.1924Z" fill="#EBB376"/>
<path d="M159.846 68.0484C159.875 68.3682 159.693 68.6338 159.477 68.6388C159.26 68.6437 159.093 68.3829 159.083 68.0631C159.073 67.7433 159.246 67.4776 159.452 67.4727C159.659 67.4678 159.836 67.7236 159.846 68.0484Z" fill="#263238"/>
<path d="M155.718 68.1226C155.747 68.4424 155.555 68.7081 155.349 68.713C155.142 68.7179 154.965 68.4572 154.955 68.1374C154.945 67.8176 155.118 67.5519 155.324 67.5469C155.531 67.542 155.713 67.8176 155.718 68.1226Z" fill="#263238"/>
<path d="M156.987 68.2949C156.625 69.2862 156.128 70.2232 155.511 71.0796C155.735 71.2328 155.99 71.335 156.258 71.3792C156.526 71.4234 156.8 71.4085 157.061 71.3355L156.987 68.2949Z" fill="#D58745"/>
<path d="M160.569 66.9122C160.534 66.9164 160.499 66.9118 160.466 66.8989C160.434 66.886 160.405 66.8652 160.382 66.8384C160.24 66.6493 160.056 66.4961 159.844 66.391C159.632 66.2859 159.399 66.2319 159.162 66.2332C159.137 66.2355 159.113 66.2329 159.089 66.2256C159.066 66.2183 159.044 66.2064 159.025 66.1907C159.006 66.1749 158.99 66.1556 158.979 66.1337C158.967 66.1119 158.96 66.088 158.958 66.0635C158.956 66.0389 158.958 66.0142 158.965 65.9906C158.973 65.9671 158.985 65.9452 159 65.9263C159.016 65.9073 159.036 65.8916 159.057 65.8801C159.079 65.8686 159.103 65.8616 159.128 65.8593C159.427 65.8499 159.724 65.913 159.994 66.0432C160.264 66.1734 160.498 66.3669 160.677 66.6072C160.694 66.6254 160.707 66.6469 160.714 66.6703C160.722 66.6937 160.725 66.7184 160.723 66.743C160.72 66.7675 160.713 66.7913 160.701 66.8128C160.689 66.8343 160.672 66.8531 160.653 66.8679L160.569 66.9122Z" fill="#263238"/>
<path d="M154.242 66.9368C154.205 66.9488 154.166 66.9488 154.129 66.9368C154.084 66.9163 154.049 66.8793 154.03 66.8335C154.012 66.7877 154.012 66.7366 154.03 66.6908C154.149 66.4152 154.333 66.1725 154.566 65.9832C154.799 65.7939 155.075 65.6636 155.369 65.6035C155.418 65.5964 155.467 65.609 155.507 65.6385C155.547 65.668 155.573 65.712 155.58 65.7609C155.587 65.8098 155.575 65.8595 155.545 65.8992C155.516 65.9388 155.472 65.9652 155.423 65.9725C155.192 66.0282 154.977 66.1367 154.795 66.2895C154.613 66.4423 154.469 66.6353 154.375 66.8532C154.36 66.8755 154.34 66.8944 154.317 66.9088C154.294 66.9232 154.269 66.9327 154.242 66.9368Z" fill="#263238"/>
<path d="M162.438 61.9922L162.178 63.724C162.469 63.8724 162.693 64.125 162.806 64.4313C162.919 64.7377 162.913 65.0754 162.788 65.3771C162.183 66.8531 162.95 69.1213 164.052 70.0561C164.052 70.0561 164.101 69.4263 164.633 69.5887C165.164 69.751 164.928 73.0327 163.841 74.6021C165.228 73.1684 166.218 71.3982 166.714 69.4657C167.629 66.2775 167.536 63.9208 166.911 62.6613L162.438 61.9922Z" fill="#263238"/>
<path d="M167.231 70.0656C166.814 70.9756 166.053 71.6833 165.115 72.0336C163.87 72.4764 163.147 71.389 163.423 70.1689C163.664 69.0816 164.598 67.5121 165.883 67.6056C167.167 67.699 167.733 68.9487 167.231 70.0656Z" fill="#EBB376"/>
<path d="M157.819 73.46H157.774C157.759 73.4546 157.745 73.4462 157.734 73.4352C157.722 73.4242 157.712 73.4109 157.706 73.3962C157.7 73.3814 157.696 73.3655 157.696 73.3494C157.696 73.3333 157.699 73.3174 157.705 73.3026C157.705 73.3026 158.389 71.5117 160.067 71.5708C160.1 71.5708 160.131 71.5837 160.154 71.6068C160.177 71.6299 160.19 71.6611 160.19 71.6938C160.191 71.7105 160.188 71.7273 160.182 71.7429C160.176 71.7585 160.166 71.7726 160.154 71.7842C160.142 71.7959 160.127 71.8048 160.112 71.8104C160.096 71.816 160.079 71.8182 160.062 71.8168C158.586 71.7676 157.942 73.3764 157.932 73.3912C157.921 73.4122 157.905 73.4299 157.885 73.4421C157.865 73.4543 157.842 73.4606 157.819 73.46Z" fill="#263238"/>
<path d="M156.279 61.9919C157.017 63.4925 161.612 61.9033 162.881 62.8775C164.151 63.8517 167.334 64.2403 167.334 64.2403C167.334 64.2403 169.051 61.1407 165.445 59.4679C159.083 56.5159 151.57 58.9759 153.868 63.5958C153.868 63.5958 153.46 61.6623 154.852 61.1358C154.852 61.1358 153.529 61.8738 154.793 63.5958L156.279 61.9919Z" fill="#263238"/>
<path d="M164.913 80.1025L162.178 81.4605L163.545 115.33L171.924 114.351L172.82 82.1985L164.913 80.1025Z" fill="#64BC26"/>
<path opacity="0.6" d="M172.82 82.2034L172.593 90.3657L172.421 96.4074L171.919 114.351L163.545 115.33L162.178 81.4654L164.913 80.1025L172.82 82.2034Z" fill="white"/>
<path d="M162.178 81.4605L165.391 78.9316L167.388 80.5798L164.913 83.7483L162.178 81.4605Z" fill="#64BC26"/>
<path opacity="0.7" d="M162.178 81.4605L165.391 78.9316L167.388 80.5798L164.913 83.7483L162.178 81.4605Z" fill="white"/>
<path d="M155.861 80.5596C154.508 82.4341 148.766 115.329 148.766 115.329L144.584 114.837C144.584 114.837 146.518 82.8277 149.199 80.6334L155.861 80.5596Z" fill="#64BC26"/>
<path opacity="0.6" d="M155.861 80.5596C154.508 82.4341 148.766 115.329 148.766 115.329L144.584 114.837C144.584 114.837 146.518 82.8277 149.199 80.6334L155.861 80.5596Z" fill="white"/>
<path d="M156.84 78.9316L154.016 80.5602L153.868 82.4199L156.338 80.6782L156.84 78.9316Z" fill="#64BC26"/>
<path opacity="0.7" d="M156.84 78.9316L154.016 80.5602L153.868 82.4199L156.338 80.6782L156.84 78.9316Z" fill="white"/>
<path d="M172.82 106.184L170.852 108.078C170.852 108.078 169.302 108.914 169.076 109.554C168.544 111.03 170.06 114.897 170.424 115.345C170.916 115.979 175.137 115.345 175.137 115.345C175.137 115.345 174.119 111.236 173.528 110.188C173.309 109.787 173.028 109.422 172.697 109.106L174.552 107.364L172.82 106.184Z" fill="#EBB376"/>
<path opacity="0.2" d="M172.594 90.3652L172.421 96.4316C170.631 93.2139 171.777 88.4268 171.777 88.4268C171.777 88.4268 172.126 89.209 172.594 90.3652Z" fill="black"/>
<path d="M173.779 84.7666C176.697 85.0077 184.731 95.7136 184.431 98.0506C184.131 100.388 173.966 108.934 173.966 108.934L171.427 106.69C171.427 106.69 179.678 98.6164 179.791 97.716C179.904 96.8157 172.593 89.0076 172.593 89.0076L173.779 84.7666Z" fill="#64BC26"/>
<path d="M172.82 82.2031C173.878 82.6951 177.135 85.5487 181.223 91.1477L176.21 95.7774L172.505 93.3863C172.505 93.3863 171.88 91.5856 171.737 87.5462C171.595 83.5069 172.82 82.2031 172.82 82.2031Z" fill="#64BC26"/>
<path opacity="0.6" d="M172.82 82.2031C173.878 82.6951 177.135 85.5487 181.223 91.1477L176.21 95.7774L172.505 93.3863C172.505 93.3863 171.88 91.5856 171.737 87.5462C171.595 83.5069 172.82 82.2031 172.82 82.2031Z" fill="white"/>
</svg>
