<svg width="232" height="221" viewBox="0 0 232 221" fill="none" xmlns="http://www.w3.org/2000/svg">
<path d="M170.581 4.03074C151.139 -3.18547 127.511 -0.203563 109.214 8.93298C100.012 13.5311 93.8809 20.4729 86.5513 27.4208C76.2638 37.1179 67.33 38.1556 54.3468 41.6206C16.5482 51.7591 13.4351 93.297 22.9712 119.675C34.5708 151.754 68.0993 172.103 102.546 167.982C125.745 165.214 146.142 157.545 161.934 143.53C174.267 132.575 173.295 119.442 172.609 104.169C172.09 92.4859 170.677 79.616 175.263 68.4875C179.438 58.3073 189.171 61.7246 195.54 54.0432C211.797 34.4461 186.946 10.1079 170.581 4.03074Z" fill="#64BC26"/>
<path opacity="0.9" d="M170.581 4.03074C151.139 -3.18547 127.511 -0.203563 109.214 8.93298C100.012 13.5311 93.8809 20.4729 86.5513 27.4208C76.2638 37.1179 67.33 38.1556 54.3468 41.6206C16.5482 51.7591 13.4351 93.297 22.9712 119.675C34.5708 151.754 68.0993 172.103 102.546 167.982C125.745 165.214 146.142 157.545 161.934 143.53C174.267 132.575 173.295 119.442 172.609 104.169C172.09 92.4859 170.677 79.616 175.263 68.4875C179.438 58.3073 189.171 61.7246 195.54 54.0432C211.797 34.4461 186.946 10.1079 170.581 4.03074Z" fill="white"/>
<path d="M115.714 221C179.576 221 231.346 217.978 231.346 214.249C231.346 210.521 179.576 207.498 115.714 207.498C51.8523 207.498 0.0820312 210.521 0.0820312 214.249C0.0820312 217.978 51.8523 221 115.714 221Z" fill="#F5F5F5"/>
<path d="M131.481 216.475H163.178C163.178 216.475 162.204 211.243 158.038 211.004C153.871 210.766 153.122 210.678 151.306 207.899C149.491 205.12 147.276 207.534 144.657 206.439C142.039 205.344 140.676 200.544 140.676 200.544C140.676 200.544 137.41 205.558 139.216 207.777C139.216 207.777 133.91 208.347 134.898 210.454C135.886 212.562 129.885 212.801 131.481 216.475Z" fill="#64BC26"/>
<path opacity="0.6" d="M163.178 216.475H131.482C130.128 213.365 134.217 212.718 134.913 211.311C134.978 211.178 135.012 211.031 135.012 210.883C135.012 210.734 134.978 210.588 134.913 210.454C134.378 209.315 135.682 208.624 136.996 208.235C137.727 208.022 138.475 207.869 139.23 207.777C138.953 207.422 138.776 206.998 138.719 206.551C138.374 204.117 140.691 200.544 140.691 200.544C140.691 200.544 142.058 205.373 144.672 206.453C147.286 207.534 149.506 205.12 151.321 207.913C153.137 210.707 153.872 210.78 158.053 211.019C159.219 211.08 160.318 211.581 161.129 212.421C162.157 213.569 162.863 214.967 163.178 216.475Z" fill="white"/>
<path opacity="0.4" d="M161.119 212.406C159.625 213.234 157.196 213.798 154.086 214.353C146.546 215.721 142.341 213.774 144.94 213.38C147.539 212.985 150.908 210.805 149.559 211.009C148.318 211.199 137.834 212.338 134.918 211.316C134.983 211.182 135.017 211.036 135.017 210.887C135.017 210.739 134.983 210.592 134.918 210.459C134.383 209.32 135.687 208.629 137.001 208.24C140.409 211.009 144.303 207.904 144.303 207.904C144.303 207.904 141.567 208.493 139.352 207.242C139.075 207.081 138.851 206.843 138.71 206.555C138.364 204.122 140.681 200.549 140.681 200.549C140.681 200.549 142.049 205.378 144.663 206.458C147.276 207.539 149.496 205.124 151.312 207.918C153.127 210.712 153.862 210.785 158.043 211.024C159.206 211.079 160.305 211.573 161.119 212.406V212.406Z" fill="white"/>
<path d="M94.6061 88.4233C91.6857 86.0626 92.114 79.8226 96.1491 77.861C97.7352 77.1542 99.1264 76.0737 100.204 74.7118C101.45 73.1494 102.516 71.0418 104.336 67.8001C107.69 61.8472 118.383 58.3573 124.779 60.8251C127.23 61.7022 129.362 63.2922 130.902 65.3907C132.061 66.9045 132.888 68.3112 134.475 69.1824C137.746 70.9493 141.124 69.7811 143.275 76.5322C145.427 83.2833 114.718 104.744 94.6061 88.4233Z" fill="#263238"/>
<path opacity="0.2" d="M130.893 65.3763C130.621 66.6272 129.35 67.3232 127.564 67.0945C123.504 66.5737 121.879 63.9161 116.369 65.9263C110.859 67.9365 114.422 65.8533 113.964 64.4661C113.507 63.0789 108.089 66.2232 107.568 68.3065C107.164 69.937 104.059 74.4929 100.204 74.6876C101.45 73.1252 102.516 71.0176 104.337 67.7759C107.69 61.8231 118.384 58.3331 124.78 60.8009C127.228 61.6824 129.357 63.2757 130.893 65.3763V65.3763Z" fill="white"/>
<path d="M156.52 109.392C154.12 113.549 150.601 114.401 149.822 116.84C149.733 117.119 149.682 117.408 149.671 117.701C149.646 118.483 149.449 119.25 149.095 119.948C148.741 120.646 148.238 121.258 147.622 121.741C145.188 123.654 141.173 123.532 138.505 120.101C134.543 115.005 140.189 104.734 130.455 102.344C120.72 99.9545 117.06 94.5955 121.966 91.2905C126.872 87.9856 121.28 83.8629 122.127 79.0733C123.869 69.1633 133.842 73.4271 133.842 73.4271C135.917 72.3037 138.234 71.7023 140.593 71.6749C147.564 71.5191 156.242 75.9095 158.34 92.118C159.499 101.186 158.33 106.238 156.52 109.392Z" fill="#99EC5F"/>
<path opacity="0.2" d="M156.52 109.392C154.12 113.549 150.601 114.401 149.822 116.839C148.664 117.019 147.622 116.781 146.965 116.022C145.256 114.075 144.113 120.694 147.622 121.741C145.188 123.654 141.173 123.532 138.505 120.1C134.543 115.004 140.189 104.734 130.455 102.344C120.72 99.9542 117.06 94.5952 121.966 91.2902C126.872 87.9853 121.28 83.8626 122.127 79.073C123.869 69.163 133.842 73.4268 133.842 73.4268C135.917 72.3034 138.234 71.702 140.593 71.6746C138.875 72.614 137.522 73.714 137.941 74.7264C138.943 77.1601 142.433 80.2217 143.134 84.2179C143.835 88.214 142.312 90.8765 145.733 94.4394C149.155 98.0024 155.356 100.378 156.734 99.9786C158.111 99.5794 156.51 102.656 154.407 102.753C152.304 102.85 149.691 102.091 147.106 99.044C144.521 95.997 146.415 108.054 149.958 109.056C152.592 109.84 155.799 108.38 156.52 109.392Z" fill="black"/>
<path d="M144.298 117.02L88.6973 186.424L91.3208 97.5012L93.1655 98.1827L144.298 117.02Z" fill="#6AD91C"/>
<g opacity="0.2">
<path opacity="0.2" d="M96.2075 99.3312L91.306 97.5303L91.1162 103.984L97.0837 101.23L96.2075 99.3312Z" fill="black"/>
<path opacity="0.2" d="M105.028 113.101L115.814 108.117L114.938 106.219L101.942 101.439L100.043 102.315L105.028 113.101Z" fill="black"/>
<path opacity="0.2" d="M123.757 119.993L134.543 115.004L133.667 113.111L120.671 108.326L118.773 109.202L123.757 119.993Z" fill="black"/>
<path opacity="0.2" d="M140.263 122.062L144.303 117.019L139.401 115.218L137.503 116.094L140.263 122.062Z" fill="black"/>
<path opacity="0.2" d="M102.827 114.522L97.8432 103.731L91.0337 106.881L90.7417 116.698L92.0413 119.507L102.827 114.522Z" fill="black"/>
<path opacity="0.2" d="M116.571 110.611L105.787 115.597L110.772 126.382L121.557 121.396L116.571 110.611Z" fill="black"/>
<path opacity="0.2" d="M124.517 122.495L129.501 133.286L132.309 131.987L138.452 124.32L135.303 117.511L124.517 122.495Z" fill="black"/>
<path opacity="0.2" d="M103.587 117.017L92.8027 122.003L97.7883 132.787L108.573 127.802L103.587 117.017Z" fill="black"/>
<path opacity="0.2" d="M122.315 123.903L111.53 128.889L116.516 139.674L127.301 134.688L122.315 123.903Z" fill="black"/>
<path opacity="0.2" d="M90.5958 123.43L90.5422 123.454L90.1528 136.727L95.58 134.216L90.5958 123.43Z" fill="black"/>
<path opacity="0.2" d="M109.331 130.309L98.5464 135.295L103.532 146.079L114.317 141.094L109.331 130.309Z" fill="black"/>
<path opacity="0.2" d="M117.274 142.194L119.781 147.626L128.084 137.263L128.06 137.209L117.274 142.194Z" fill="black"/>
<path opacity="0.2" d="M101.324 147.509L96.3395 136.723L90.0654 139.624L89.7344 150.76L90.5375 152.493L101.324 147.509Z" fill="black"/>
<path opacity="0.2" d="M104.283 148.599L109.272 159.385L111.005 158.582L117.97 149.889L115.069 143.61L104.283 148.599Z" fill="black"/>
<path opacity="0.2" d="M102.087 150.009L91.3018 154.994L96.2873 165.779L107.072 160.794L102.087 150.009Z" fill="black"/>
<path opacity="0.2" d="M89.5394 157.385L89.1841 169.471L94.0807 167.207L89.5394 157.385Z" fill="black"/>
<path opacity="0.2" d="M99.3034 173.189L106.862 163.756L97.04 168.293L99.3034 173.189Z" fill="black"/>
<path opacity="0.2" d="M89.7001 185.178L97.4928 175.453L94.84 169.714L89.0965 172.367L88.7314 184.822L89.0381 185.484L89.7001 185.178Z" fill="black"/>
</g>
<path opacity="0.2" d="M88.6973 186.424C89.3008 185.475 109.374 153.949 108.108 150.848C106.843 147.748 109.914 140.3 111.725 133.364C113.536 126.428 111.808 119.619 111.968 117.341C112.129 115.063 108.887 106.774 102.881 106.326C98.471 105.995 94.7913 100.889 93.1461 98.207L144.293 117.02L88.6973 186.424Z" fill="black"/>
<path d="M144.449 116.168C143.753 118.382 142.531 120.247 141.528 122.495C140.346 125.102 139.814 127.956 139.98 130.814C139.98 130.916 139.98 131.018 139.98 131.13C140.331 137.219 139.669 142.13 138.481 144.759C137.586 146.75 136.398 147.47 135.113 146.477C132.12 144.155 133.473 132.162 132.83 123.547C132.188 114.931 121.63 114.041 120.72 121.035C119.81 128.03 114.733 133.457 114.198 127.806C113.662 122.155 115.687 118.071 112.29 115.579C108.892 113.087 110.781 106.725 106.712 103.994C102.642 101.264 98.0136 104.822 93.2971 102.047C88.5805 99.273 89.2084 95.5494 89.2084 95.5494C89.3447 91.0811 92.8736 92.9599 95.025 83.9358C95.5846 81.8386 96.6001 79.8908 97.999 78.2312C103.504 71.3924 115.181 66.0334 126.381 69.4163C140.603 73.7142 141.47 88.1412 140.462 95.5007C140.274 96.618 140.228 97.7547 140.326 98.8836C140.706 102.189 143.081 101.853 144.677 109.402C145.212 111.637 145.133 113.974 144.449 116.168Z" fill="#64BC26"/>
<path opacity="0.7" d="M144.449 116.168C143.753 118.382 142.531 120.247 141.528 122.495C140.346 125.102 139.814 127.956 139.98 130.814C139.98 130.916 139.98 131.018 139.98 131.13C140.331 137.219 139.669 142.13 138.481 144.759C137.586 146.75 136.398 147.47 135.113 146.477C132.12 144.155 133.473 132.162 132.83 123.547C132.188 114.931 121.63 114.041 120.72 121.035C119.81 128.03 114.733 133.457 114.198 127.806C113.662 122.155 115.687 118.071 112.29 115.579C108.892 113.087 110.781 106.725 106.712 103.994C102.642 101.264 98.0136 104.822 93.2971 102.047C88.5805 99.273 89.2084 95.5494 89.2084 95.5494C89.3447 91.0811 92.8736 92.9599 95.025 83.9358C95.5846 81.8386 96.6001 79.8908 97.999 78.2312C103.504 71.3924 115.181 66.0334 126.381 69.4163C140.603 73.7142 141.47 88.1412 140.462 95.5007C140.274 96.618 140.228 97.7547 140.326 98.8836C140.706 102.189 143.081 101.853 144.677 109.402C145.212 111.637 145.133 113.974 144.449 116.168Z" fill="white"/>
<path opacity="0.4" d="M140 131.125C140.35 137.214 139.688 142.125 138.501 144.754C132.85 144.511 135.58 132.585 138.16 131.982C138.851 131.723 139.476 131.314 139.99 130.784C139.99 130.911 139.995 131.013 140 131.125Z" fill="white"/>
<path opacity="0.4" d="M144.449 116.168C143.752 118.382 142.531 120.247 141.528 122.495C136.899 122.495 135.298 114.508 138.749 116.197C139.645 116.604 140.618 116.812 141.602 116.807C142.586 116.802 143.557 116.584 144.449 116.168V116.168Z" fill="white"/>
<path d="M148.654 106.004C148.645 106.285 148.616 106.565 148.566 106.842C148.355 108.149 147.771 109.368 146.884 110.352C145.997 111.336 144.845 112.042 143.566 112.387C142.287 112.732 140.936 112.7 139.674 112.295C138.413 111.89 137.296 111.129 136.456 110.105C135.617 109.08 135.091 107.835 134.942 106.518C134.794 105.202 135.028 103.871 135.618 102.685C136.208 101.499 137.127 100.508 138.266 99.8319C139.405 99.1558 140.716 98.8231 142.039 98.8737C142.667 98.8954 143.288 99.0069 143.884 99.2047C145.313 99.6617 146.552 100.574 147.413 101.802C148.275 103.03 148.711 104.506 148.654 106.004Z" fill="#263238"/>
<path opacity="0.2" d="M139.216 102.845C139.209 103.047 139.141 103.241 139.023 103.404C138.904 103.567 138.74 103.691 138.551 103.76C138.362 103.83 138.157 103.842 137.961 103.795C137.766 103.747 137.588 103.643 137.452 103.495C137.315 103.347 137.226 103.162 137.195 102.963C137.164 102.764 137.192 102.56 137.277 102.378C137.362 102.195 137.499 102.042 137.671 101.937C137.843 101.832 138.042 101.781 138.243 101.789C138.511 101.802 138.764 101.92 138.946 102.118C139.129 102.315 139.226 102.577 139.216 102.845V102.845Z" fill="white"/>
<path opacity="0.2" d="M138.048 106.194C138.218 107.192 137.907 108.078 137.352 108.175C136.797 108.273 136.213 107.533 136.043 106.53C135.872 105.527 136.184 104.646 136.739 104.549C137.294 104.452 137.878 105.192 138.048 106.194Z" fill="white"/>
<path opacity="0.2" d="M148.654 106.005C148.645 106.285 148.615 106.565 148.566 106.842C148.294 105.868 147.856 104.895 147.155 104.827C145.694 104.729 144.171 105.274 143.193 104.223C142.214 103.172 144.108 102.145 144.249 100.86C144.293 100.284 144.166 99.7083 143.884 99.2048C145.312 99.6619 146.552 100.574 147.413 101.802C148.275 103.03 148.71 104.506 148.654 106.005Z" fill="black"/>
<path d="M163.519 101.23C155.186 94.9801 147.267 100.451 145.412 101.921C145.03 101.845 144.636 101.845 144.254 101.921C143.971 102.077 143.689 103.78 144.93 103.868C145.617 103.922 145.792 103.337 145.816 102.802C147.053 101.77 154.792 95.8562 162.959 101.979C163.005 102.039 163.064 102.088 163.131 102.122C163.199 102.155 163.273 102.172 163.349 102.172C163.424 102.172 163.499 102.154 163.566 102.12C163.633 102.086 163.692 102.037 163.737 101.976C163.782 101.916 163.813 101.846 163.826 101.772C163.839 101.697 163.835 101.621 163.814 101.549C163.793 101.476 163.755 101.41 163.704 101.355C163.653 101.299 163.59 101.256 163.519 101.23V101.23Z" fill="#64BC26"/>
<path opacity="0.3" d="M163.519 101.23C155.186 94.9801 147.267 100.451 145.412 101.921C145.03 101.845 144.636 101.845 144.254 101.921C143.971 102.077 143.689 103.78 144.93 103.868C145.617 103.922 145.792 103.337 145.816 102.802C147.053 101.77 154.792 95.8562 162.959 101.979C163.005 102.039 163.064 102.088 163.131 102.122C163.199 102.155 163.273 102.172 163.349 102.172C163.424 102.172 163.499 102.154 163.566 102.12C163.633 102.086 163.692 102.037 163.737 101.976C163.782 101.916 163.813 101.846 163.826 101.772C163.839 101.697 163.835 101.621 163.814 101.549C163.793 101.476 163.755 101.41 163.704 101.355C163.653 101.299 163.59 101.256 163.519 101.23V101.23Z" fill="black"/>
<path d="M140.014 97.2286C140.72 98.1681 144.049 98.2021 144.142 99.2146C144.234 100.227 142.234 100.427 140.588 99.9544C138.943 99.4823 136.748 100.329 136.568 101.731C136.388 103.133 136.514 103.809 135.731 104.393C134.947 104.978 134.47 107.217 135.463 108.477C136.456 109.738 129.87 115.593 129.481 109.777C129.092 103.96 137.113 96.7322 137.113 96.7322L140.014 97.2286Z" fill="#64BC26"/>
<path opacity="0.7" d="M140.014 97.2286C140.72 98.1681 144.049 98.2021 144.142 99.2146C144.234 100.227 142.234 100.427 140.588 99.9544C138.943 99.4823 136.748 100.329 136.568 101.731C136.388 103.133 136.514 103.809 135.731 104.393C134.947 104.978 134.47 107.217 135.463 108.477C136.456 109.738 129.87 115.593 129.481 109.777C129.092 103.96 137.113 96.7322 137.113 96.7322L140.014 97.2286Z" fill="white"/>
<path opacity="0.4" d="M140.457 95.4959C140.384 96.0264 140.326 96.557 140.292 97.0924C140.292 97.3309 140.16 97.5791 140.292 97.8322C140.423 98.0853 140.778 98.1876 141.075 98.2314C141.526 98.2853 141.971 98.3815 142.404 98.5185C142.575 98.5719 142.733 98.6615 142.866 98.7814C142.932 98.8423 142.979 98.9198 143.003 99.0057C143.027 99.0915 143.027 99.1823 143.003 99.2681C142.91 99.5164 142.608 99.5942 142.355 99.638C142.043 99.7134 141.718 99.7134 141.406 99.638C141.1 99.5407 140.793 99.4628 140.496 99.3411C140.292 99.2584 140.102 99.1562 139.897 99.0832C139.454 98.9454 138.993 98.8749 138.53 98.8739C137.415 98.8155 135.755 99.127 135.711 100.529C135.638 103.011 135.468 103.824 133.331 104.642C131.194 105.459 130.722 108.468 130.766 112.206C130.81 115.944 124.891 112.323 123.791 110.882C122.691 109.441 127.588 108.867 127.534 107.406C127.481 105.946 124.546 104.807 120.89 106.667C117.235 108.526 119.634 113.763 116.763 113.569C113.891 113.374 114.855 109.504 113.224 105.888C111.593 102.271 118.145 98.5624 112.192 97.7738C109.963 97.4769 106.94 96.7322 106.575 94.8534C106.21 92.9746 114.363 92.9064 113.876 89.1975C113.389 85.4885 109.88 87.9368 105.918 88.1558C104.143 88.2962 102.371 87.8605 100.864 86.9135C99.3563 85.9665 98.1945 84.5587 97.5509 82.899C97.0982 81.7552 97.4195 80.0175 98.0376 78.2409C103.543 71.4022 115.22 66.0432 126.419 69.426C140.598 73.7094 141.465 88.1364 140.457 95.4959Z" fill="white"/>
</svg>
