<svg width="232" height="221" viewBox="0 0 232 221" fill="none" xmlns="http://www.w3.org/2000/svg">
<path d="M170.846 4.03074C151.404 -3.18547 127.775 -0.203563 109.478 8.93298C100.276 13.5311 94.1455 20.4729 86.816 27.4208C76.5284 37.1179 67.5946 38.1556 54.6114 41.6206C16.8129 51.7591 13.6997 93.297 23.2359 119.675C34.8355 151.754 68.364 172.103 102.811 167.982C126.01 165.214 146.406 157.545 162.198 143.53C174.532 132.575 173.56 119.442 172.874 104.169C172.355 92.4859 170.941 79.616 175.528 68.4875C179.702 58.3073 189.435 61.7246 195.805 54.0432C212.062 34.4461 187.211 10.1079 170.846 4.03074Z" fill="#64BC26"/>
<path opacity="0.9" d="M170.846 4.03074C151.404 -3.18547 127.775 -0.203563 109.478 8.93298C100.276 13.5311 94.1455 20.4729 86.816 27.4208C76.5284 37.1179 67.5946 38.1556 54.6114 41.6206C16.8129 51.7591 13.6997 93.297 23.2359 119.675C34.8355 151.754 68.364 172.103 102.811 167.982C126.01 165.214 146.406 157.545 162.198 143.53C174.532 132.575 173.56 119.442 172.874 104.169C172.355 92.4859 170.941 79.616 175.528 68.4875C179.702 58.3073 189.435 61.7246 195.805 54.0432C212.062 34.4461 187.211 10.1079 170.846 4.03074Z" fill="white"/>
<path d="M115.979 221C179.841 221 231.611 217.978 231.611 214.249C231.611 210.521 179.841 207.498 115.979 207.498C52.117 207.498 0.34668 210.521 0.34668 214.249C0.34668 217.978 52.117 221 115.979 221Z" fill="#F5F5F5"/>
<path d="M157.915 54.123H21.0371V115.266H157.915V54.123Z" fill="#C1E4A8"/>
<path d="M157.91 115.271H167.002V54.1282H157.91V115.271Z" fill="#64BC26"/>
<path d="M120.069 115.271H120.722V54.1282H120.069V115.271Z" fill="#426F30"/>
<path d="M93.3803 115.271H94.0332V54.1282H93.3803V115.271Z" fill="#426F30"/>
<path d="M56.8823 115.271H57.5352V54.1282H56.8823V115.271Z" fill="#426F30"/>
<path d="M51.2772 86.6623C52.2387 86.6623 53.0182 85.7825 53.0182 84.697C53.0182 83.6116 52.2387 82.7317 51.2772 82.7317C50.3156 82.7317 49.5361 83.6116 49.5361 84.697C49.5361 85.7825 50.3156 86.6623 51.2772 86.6623Z" fill="#426F30"/>
<path d="M63.1405 86.6623C64.102 86.6623 64.8815 85.7825 64.8815 84.697C64.8815 83.6116 64.102 82.7317 63.1405 82.7317C62.1789 82.7317 61.3994 83.6116 61.3994 84.697C61.3994 85.7825 62.1789 86.6623 63.1405 86.6623Z" fill="#426F30"/>
<path d="M114.464 86.6623C115.425 86.6623 116.205 85.7825 116.205 84.697C116.205 83.6116 115.425 82.7317 114.464 82.7317C113.502 82.7317 112.723 83.6116 112.723 84.697C112.723 85.7825 113.502 86.6623 114.464 86.6623Z" fill="#426F30"/>
<path d="M153.892 107.027H124.745C123.948 107.027 123.302 107.674 123.302 108.472V109.508C123.302 110.306 123.948 110.953 124.745 110.953H153.892C154.689 110.953 155.335 110.306 155.335 109.508V108.472C155.335 107.674 154.689 107.027 153.892 107.027Z" fill="#426F30"/>
<path d="M21.0375 212.846H157.916V151.704H21.0375V212.846Z" fill="#C1E4A8"/>
<path d="M157.91 212.846H167.003V151.704H157.91V212.846Z" fill="#64BC26"/>
<path d="M58.8838 151.698H58.231V212.841H58.8838V151.698Z" fill="#426F30"/>
<path d="M85.5723 151.698H84.9194V212.841H85.5723V151.698Z" fill="#426F30"/>
<path d="M122.07 151.698H121.417V212.841H122.07V151.698Z" fill="#426F30"/>
<path d="M125.929 159.251C125.969 158.915 126.105 158.597 126.321 158.336C126.538 158.076 126.824 157.883 127.147 157.781C127.47 157.68 127.816 157.674 128.142 157.764C128.469 157.854 128.762 158.037 128.987 158.29C129.212 158.544 129.359 158.856 129.41 159.191C129.462 159.526 129.416 159.869 129.277 160.178C129.139 160.487 128.914 160.75 128.63 160.934C128.345 161.118 128.014 161.216 127.676 161.217C127.184 161.187 126.724 160.963 126.397 160.595C126.07 160.226 125.902 159.743 125.929 159.251V159.251Z" fill="#426F30"/>
<path d="M115.812 161.217C116.774 161.217 117.553 160.337 117.553 159.252C117.553 158.166 116.774 157.286 115.812 157.286C114.851 157.286 114.071 158.166 114.071 159.252C114.071 160.337 114.851 161.217 115.812 161.217Z" fill="#426F30"/>
<path d="M80.1585 161.217C81.1201 161.217 81.8995 160.337 81.8995 159.252C81.8995 158.166 81.1201 157.286 80.1585 157.286C79.197 157.286 78.4175 158.166 78.4175 159.252C78.4175 160.337 79.197 161.217 80.1585 161.217Z" fill="#426F30"/>
<path d="M24.2221 157.292H55.0564C55.3877 157.292 55.6562 157.023 55.6562 156.692V156.622C55.6562 156.291 55.3877 156.022 55.0564 156.022H24.2221C23.8909 156.022 23.6223 156.291 23.6223 156.622V156.692C23.6223 157.023 23.8909 157.292 24.2221 157.292Z" fill="#426F30"/>
<path d="M24.2221 161.052H55.0564C55.3877 161.052 55.6562 160.783 55.6562 160.452V160.383C55.6562 160.051 55.3877 159.783 55.0564 159.783H24.2221C23.8909 159.783 23.6223 160.051 23.6223 160.383V160.452C23.6223 160.783 23.8909 161.052 24.2221 161.052Z" fill="#426F30"/>
<path d="M158.828 149.191H20.0342V151.703H158.828V149.191Z" fill="#64BC26" fill-opacity="0.701961"/>
<path d="M158.829 151.698H167.948V149.186H158.829V151.698Z" fill="#50961E"/>
<path d="M222.323 79.7407H175.968V207.89H222.323V79.7407Z" fill="#395B32"/>
<path d="M197.338 78.679H174.158V206.828H197.338V78.679Z" fill="#C1E4A8"/>
<path d="M221.267 78.6787H198.087V206.828H221.267V78.6787Z" fill="#C1E4A8"/>
<path d="M201.537 118.617H199.594V166.89H201.537V118.617Z" fill="#426F30"/>
<path d="M195.831 118.617H193.888V166.89H195.831V118.617Z" fill="#426F30"/>
<path d="M222.323 207.885H231.347V79.7359H222.323V207.885Z" fill="#64BC26"/>
<path d="M229.882 207.89H177.958V212.846H229.882V207.89Z" fill="#263238"/>
<path d="M10.2315 103.367C9.31565 95.3551 5.98949 81.2169 13.0669 77.1123C18.2249 74.1215 20.3284 78.52 23.9569 81.4494L22.7518 82.1861C22.7518 82.1861 14.7848 75.9414 14.4561 83.9402C14.1756 90.8514 19.7499 91.996 22.6115 108.305C25.4732 124.614 4.99031 121.899 3.44336 119.505C10.4682 120.093 11.1431 111.383 10.2315 103.367V103.367Z" fill="#263238"/>
<path d="M23.86 81.2171C23.3078 80.3838 21.6382 78.3973 21.1605 78.3841C20.6828 78.3709 18.9212 79.8137 19.1622 80.4847C19.4032 81.1556 22.3875 82.48 22.3875 82.48L23.86 81.2171Z" fill="#64BC26"/>
<path d="M5.47207 118.812C6.17299 118.812 6.85692 118.596 7.43097 118.194C10.2619 116.264 11.2743 110.125 10.8097 105.038C10.7133 103.998 10.5731 102.845 10.4197 101.626C9.54323 94.6664 8.38194 85.1328 14.3638 81.8921L14.1709 81.5281C7.94808 84.896 9.14884 94.5919 10.0253 101.67C10.1744 102.884 10.3189 104.033 10.411 105.068C10.8492 110.011 9.91134 115.979 7.21185 117.821C6.1601 118.536 4.92431 118.544 3.53074 117.821L3.34668 118.189C3.9961 118.562 4.72442 118.775 5.47207 118.812V118.812Z" fill="#263238"/>
<path d="M16.7039 104.551C15.6619 106.286 14.7197 108.08 13.8817 109.923C13.029 111.774 12.297 113.678 11.6905 115.624L11.5766 115.992L11.546 116.088L11.4978 116.264C11.4671 116.382 11.4496 116.492 11.4277 116.602C11.3718 116.988 11.3629 117.38 11.4014 117.768C11.4782 118.385 11.6252 118.991 11.8396 119.575C12.2111 120.582 12.6732 121.554 13.22 122.478C14.2563 124.23 15.4518 125.883 16.7916 127.416L18.3911 126.284C17.5146 124.596 16.6382 122.851 15.9107 121.136C15.555 120.317 15.262 119.473 15.0343 118.61C14.9427 118.259 14.8927 117.898 14.8852 117.536C14.8823 117.434 14.8941 117.332 14.9203 117.233C14.9203 117.233 14.9203 117.233 14.9203 117.233L14.9467 117.158L15.0782 116.83C15.7618 115.075 16.5594 113.361 17.4095 111.655C18.2597 109.949 19.1625 108.234 20.0784 106.621L16.7039 104.551Z" fill="#FFC3BD"/>
<path d="M36.3062 106.603C36.534 107.213 36.7444 107.73 36.9854 108.274C37.2264 108.818 37.4675 109.344 37.7173 109.87C38.2212 110.923 38.7909 111.949 39.3694 112.962C40.5414 115.013 41.9029 116.949 43.4362 118.746L43.7298 119.084L43.8744 119.25L43.9489 119.334L44.0716 119.465C44.398 119.806 44.7786 120.091 45.1979 120.307C45.918 120.662 46.7051 120.861 47.5074 120.891C48.8061 120.923 50.1014 120.742 51.3418 120.356C53.6004 119.666 55.7589 118.682 57.7619 117.431L56.8855 115.676C54.8635 116.429 52.7799 117.004 50.6582 117.395C49.7174 117.579 48.7547 117.624 47.801 117.527C47.4763 117.49 47.1629 117.385 46.8807 117.22C46.8049 117.169 46.7382 117.105 46.6835 117.032L46.2453 116.448C44.9586 114.729 43.7972 112.919 42.7701 111.032C42.253 110.085 41.7753 109.112 41.302 108.138C41.0698 107.651 40.8419 107.16 40.6228 106.669C40.4036 106.178 40.1846 105.665 40.0049 105.222L36.3062 106.603Z" fill="#FFC3BD"/>
<path d="M37.5637 101.302C39.2071 101.245 42.1213 107.235 42.1213 107.235L37.8354 112.436C37.8354 112.436 32.8396 106.161 33.5233 104.135C34.2376 102.021 35.1622 101.385 37.5637 101.302V101.302Z" fill="#64BC26"/>
<path opacity="0.2" d="M38.0544 112.164L37.8353 102.749L40.0615 109.734L38.0544 112.164Z" fill="black"/>
<path d="M56.5741 115.238L60.5664 115.598L61.2237 117.137L60.5708 117.869C60.3054 118.166 59.9784 118.401 59.6128 118.557C59.2472 118.714 58.8517 118.789 58.4541 118.777L54.4312 118.663L54.5188 117.347C54.5307 117.156 54.6045 116.975 54.7291 116.83C55.2652 116.214 55.8864 115.678 56.5741 115.238H56.5741Z" fill="#FFC3BD"/>
<path d="M55.1455 117.36C56.5084 117.119 56.3682 115.861 58.945 114.988C59.8565 114.681 60.1545 113.878 59.3306 113.992C57.5207 114.234 54.177 113.795 54.3523 116.72C54.4575 118.492 55.1455 117.36 55.1455 117.36Z" fill="#FFC3BD"/>
<path d="M30.5342 208.89H34.4038L33.7289 199.927H29.8594L30.5342 208.89Z" fill="#FFC3BD"/>
<path d="M34.7543 208.443H30.4114C30.3376 208.441 30.2655 208.467 30.2101 208.516C30.1547 208.564 30.1201 208.633 30.1134 208.706L29.8067 212.149C29.8031 212.238 29.8175 212.326 29.8489 212.409C29.8803 212.492 29.9281 212.568 29.9894 212.633C30.0508 212.697 30.1244 212.748 30.2059 212.783C30.2874 212.818 30.3752 212.837 30.464 212.837C31.9803 212.811 32.7034 212.723 34.6184 212.723C35.7929 212.723 39.176 212.846 40.8019 212.846C42.4277 212.846 42.4233 211.237 41.7397 211.092C38.6721 210.439 36.4809 209.54 35.416 208.68C35.2282 208.529 34.9951 208.446 34.7543 208.443V208.443Z" fill="#263238"/>
<g opacity="0.2">
<path opacity="0.2" d="M30.2056 204.549L29.855 199.927H33.729L34.0752 204.549H30.2056Z" fill="black"/>
</g>
<path d="M39.115 103.223C39.2027 105.67 38.7776 111.388 36.2052 124.711L20.4991 124.241C20.9373 117.852 21.0775 113.91 18.4131 100.692C20.6254 100.301 22.8635 100.072 25.1092 100.008C27.488 99.9103 29.8707 99.9821 32.2392 100.223C34.0579 100.442 36.0168 100.819 37.3052 101.1C37.7998 101.202 38.2463 101.466 38.5741 101.851C38.9019 102.235 39.0923 102.718 39.115 103.223V103.223Z" fill="#64BC26"/>
<path d="M26.0516 91.9961C26.4328 94.3028 26.7571 98.5258 25.1094 100.008C25.1094 100.008 25.9157 102.889 30.745 104.928C33.5672 102.674 32.2525 100.21 32.2525 100.21C29.7108 99.5213 29.8335 97.6224 30.3331 95.8508L26.0516 91.9961Z" fill="#FFC3BD"/>
<path opacity="0.2" d="M27.7909 93.5615L30.3195 95.8507C30.1936 96.261 30.107 96.6824 30.061 97.1092C29.0881 96.9382 27.7778 95.8243 27.7033 94.7982C27.6594 94.384 27.689 93.9653 27.7909 93.5615H27.7909Z" fill="black"/>
<path d="M28.0587 83.8567C27.5547 84.7864 29.3033 91.4126 30.7801 94.5306C31.7091 93.0264 33.1728 92.3379 34.058 90.8075C34.7326 89.7154 35.0632 88.4455 35.0069 87.1629C34.9507 85.8803 34.5101 84.6443 33.7425 83.6156C31.7267 80.7871 28.7467 82.5543 28.0587 83.8567V83.8567Z" fill="#263238"/>
<path d="M23.488 87.6589C24.176 91.439 24.3863 93.0528 26.5556 94.7762C29.7985 97.3723 34.2903 95.6971 34.7417 91.7854C35.1493 88.2772 33.9529 82.6772 30.0483 81.6072C29.1877 81.3706 28.281 81.3571 27.4138 81.5679C26.5465 81.7788 25.7471 82.207 25.0909 82.8124C24.4347 83.4177 23.9432 84.1802 23.6628 85.0281C23.3824 85.8759 23.3222 86.7813 23.488 87.6589Z" fill="#FFC3BD"/>
<path d="M25.4027 84.4446C26.5026 85.8611 25.4027 89.3167 24.2458 90.663C19.1623 91.1761 16.4234 80.2742 24.8856 80.2742C24.8856 80.2742 27.997 82.2125 25.4027 84.4446Z" fill="#263238"/>
<path d="M24.2286 84.9181C25.1051 85.5145 32.3797 85.3961 35.6226 84.2471C34.2202 83.1684 33.2517 81.8265 31.8187 80.7828C30.3068 79.6864 28.2559 78.7875 25.0744 80.182C21.8928 81.5765 23.0103 84.1024 24.2286 84.9181V84.9181Z" fill="#263238"/>
<path d="M36.2227 124.697C36.2227 124.697 35.8064 153.456 35.3463 165.213C34.8598 177.439 34.781 203.655 34.781 203.655H29.5529C29.5529 203.655 27.0068 176.996 26.7614 164.932C26.4941 151.776 24.7104 124.355 24.7104 124.355L36.2227 124.697Z" fill="#263238"/>
<path d="M29.1016 203.843H35.2368L35.583 201.883L28.694 201.641L29.1016 203.843Z" fill="#64BC26"/>
<path opacity="0.2" d="M25.3325 134.626C25.9285 133.92 26.6472 134.288 27.5237 136.296C30.508 143.155 28.3213 154.101 26.6165 160.415C26.3492 152.557 25.7839 142.216 25.3325 134.626V134.626Z" fill="black"/>
<path d="M29.9822 88.2375C30.0216 88.5445 30.2145 88.7769 30.4204 88.755C30.6264 88.7331 30.7579 88.4568 30.7228 88.1498C30.6877 87.8429 30.4906 87.6061 30.2846 87.6324C30.0786 87.6587 29.9471 87.9262 29.9822 88.2375V88.2375Z" fill="#263238"/>
<path d="M33.4705 87.729C33.5099 88.0404 33.7027 88.2728 33.9087 88.2464C34.1147 88.2201 34.2462 87.9526 34.2111 87.6413C34.176 87.3299 33.9788 87.0975 33.7729 87.1239C33.5669 87.1502 33.4354 87.4177 33.4705 87.729Z" fill="#263238"/>
<path d="M33.6851 87.1722L34.4037 86.8696C34.4037 86.8696 34.0882 87.4748 33.6851 87.1722Z" fill="#263238"/>
<path d="M32.1689 88.2114C32.5303 88.8848 32.9814 89.5059 33.5099 90.0576C33.3658 90.1893 33.1946 90.2877 33.0083 90.346C32.8221 90.4044 32.6253 90.4212 32.4319 90.3953L32.1689 88.2114Z" fill="#ED847E"/>
<path d="M30.8892 91.8119C31.0424 91.8225 31.1961 91.8225 31.3493 91.8119C31.3733 91.8076 31.3948 91.7943 31.4094 91.7748C31.4241 91.7553 31.4307 91.7309 31.4281 91.7067C31.4239 91.6835 31.4113 91.6626 31.3927 91.6481C31.3742 91.6336 31.351 91.6263 31.3274 91.6278C30.943 91.6834 30.5507 91.6473 30.1829 91.5223C29.815 91.3973 29.4819 91.187 29.2108 90.9086C29.2034 90.8982 29.194 90.8896 29.183 90.8831C29.1721 90.8766 29.16 90.8724 29.1474 90.8708C29.1348 90.8693 29.122 90.8703 29.1098 90.8739C29.0977 90.8775 29.0864 90.8836 29.0766 90.8918C29.0669 90.9 29.059 90.9101 29.0534 90.9215C29.0478 90.9329 29.0446 90.9453 29.044 90.958C29.0435 90.9707 29.0455 90.9833 29.0501 90.9952C29.0546 91.0071 29.0616 91.0179 29.0705 91.0269C29.3062 91.2723 29.5884 91.4681 29.9007 91.6029C30.213 91.7377 30.5491 91.8088 30.8892 91.8119V91.8119Z" fill="#263238"/>
<path d="M23.0496 91.3468C23.3153 91.601 23.6287 91.8 23.9717 91.9325C24.3146 92.0649 24.6804 92.1281 25.0479 92.1186C26.0339 92.0834 26.2267 91.1319 25.7096 90.3645C25.2407 89.6672 24.1627 88.8428 23.295 89.255C23.1081 89.3483 22.9473 89.4866 22.8273 89.6576C22.7072 89.8287 22.6316 90.0269 22.6072 90.2345C22.5829 90.442 22.6106 90.6525 22.6878 90.8466C22.765 91.0408 22.8893 91.2127 23.0496 91.3468V91.3468Z" fill="#FFC3BD"/>
<path d="M28.4355 87.4087C28.4748 87.4107 28.5136 87.3997 28.5461 87.3776C28.5785 87.3554 28.6028 87.3232 28.6152 87.2859C28.9044 86.4921 29.9562 86.1939 29.9693 86.1939C29.9927 86.1873 30.0145 86.1762 30.0335 86.1612C30.0525 86.1462 30.0684 86.1275 30.0802 86.1063C30.092 86.0851 30.0995 86.0618 30.1023 86.0377C30.105 86.0136 30.103 85.9892 30.0964 85.9659C30.083 85.9197 30.0522 85.8805 30.0105 85.8568C29.9687 85.833 29.9193 85.8266 29.8729 85.8388C29.8204 85.8388 28.6239 86.1896 28.2733 87.1543C28.2644 87.1767 28.2601 87.2007 28.2608 87.2249C28.2615 87.249 28.2672 87.2727 28.2775 87.2945C28.2878 87.3163 28.3025 87.3357 28.3206 87.3516C28.3388 87.3675 28.36 87.3795 28.383 87.3868C28.3984 87.3982 28.4165 87.4058 28.4355 87.4087H28.4355Z" fill="#263238"/>
<path d="M34.2903 85.7907C34.3224 85.7904 34.354 85.7823 34.3823 85.767C34.4105 85.7518 34.4346 85.7298 34.4525 85.7031C34.4773 85.6621 34.4852 85.6132 34.4746 85.5665C34.4639 85.5199 34.4356 85.4792 34.3955 85.4531C34.1543 85.2903 33.8778 85.1875 33.5889 85.1531C33.3 85.1188 33.0071 85.154 32.7346 85.2558C32.7123 85.2657 32.6922 85.2799 32.6755 85.2977C32.6588 85.3155 32.6458 85.3364 32.6372 85.3593C32.6286 85.3821 32.6247 85.4064 32.6256 85.4308C32.6265 85.4552 32.6323 85.4792 32.6425 85.5013C32.6626 85.5453 32.6991 85.5795 32.7442 85.5967C32.7893 85.614 32.8393 85.6128 32.8835 85.5935C33.0999 85.5137 33.3324 85.4872 33.5612 85.5162C33.79 85.5452 34.0085 85.6288 34.1982 85.7601C34.2264 85.7768 34.2578 85.7873 34.2903 85.7908V85.7907Z" fill="#263238"/>
<path d="M18.4132 100.679C16.8224 101.117 14.7715 106.476 14.7715 106.476L20.7489 111.024C20.7489 111.024 23.111 106.564 22.5019 104.507C21.884 102.367 20.2231 100.183 18.4132 100.679V100.679Z" fill="#64BC26"/>
<path d="M36.2447 209.118C36.5712 209.152 36.8989 209.068 37.1694 208.882C37.2282 208.826 37.2722 208.757 37.2975 208.681C37.3228 208.604 37.3284 208.522 37.3139 208.443C37.3077 208.392 37.2888 208.343 37.2589 208.301C37.2291 208.259 37.1893 208.225 37.143 208.202C36.6566 207.939 35.1579 208.728 34.9869 208.82C34.9699 208.828 34.9561 208.841 34.9481 208.858C34.9401 208.875 34.9383 208.894 34.943 208.912C34.9475 208.932 34.9572 208.949 34.9712 208.963C34.9851 208.977 35.0027 208.987 35.0219 208.991C35.4247 209.071 35.834 209.114 36.2446 209.118L36.2447 209.118ZM36.8933 208.32C36.9518 208.317 37.0103 208.328 37.0642 208.351C37.0832 208.36 37.0993 208.375 37.1109 208.392C37.1224 208.41 37.129 208.431 37.1299 208.452C37.1415 208.504 37.1395 208.559 37.1242 208.61C37.1088 208.662 37.0807 208.708 37.0423 208.746C36.8188 208.956 36.1659 208.991 35.3201 208.851C35.8092 208.583 36.3418 208.403 36.8933 208.32H36.8933Z" fill="#64BC26"/>
<path d="M35.0393 208.982C35.0506 208.987 35.0631 208.987 35.0744 208.982C35.5126 208.776 36.3891 207.938 36.2971 207.5C36.2752 207.399 36.1919 207.268 35.9377 207.241C35.8481 207.231 35.7573 207.24 35.6713 207.267C35.5853 207.295 35.5059 207.339 35.4381 207.399C34.9736 207.807 34.9429 208.851 34.9429 208.894C34.9424 208.91 34.9462 208.926 34.954 208.94C34.9617 208.954 34.973 208.965 34.9868 208.973C35.0027 208.982 35.0214 208.985 35.0393 208.982L35.0393 208.982ZM35.8763 207.412H35.929C36.0999 207.412 36.113 207.496 36.1174 207.518C36.1744 207.781 35.5916 208.438 35.1358 208.723C35.149 208.289 35.3028 207.87 35.574 207.531C35.656 207.454 35.7642 207.412 35.8764 207.412L35.8763 207.412Z" fill="#64BC26"/>
<path d="M7.83873 208.89H11.7039L13.5576 199.927H9.68806L7.83873 208.89Z" fill="#FFC3BD"/>
<path d="M12.1466 208.443H7.79933C7.72527 208.442 7.65326 208.468 7.59735 208.516C7.54145 208.565 7.50564 208.633 7.49694 208.706L7.05873 212.149C7.0508 212.236 7.06122 212.325 7.08936 212.408C7.1175 212.491 7.16274 212.568 7.22215 212.633C7.28156 212.697 7.35384 212.749 7.43437 212.784C7.51489 212.82 7.60189 212.838 7.68978 212.837C9.20604 212.811 9.93351 212.723 11.8442 212.723C13.023 212.723 14.1668 212.846 15.7882 212.846C17.4097 212.846 17.4711 211.237 16.7918 211.092C13.7505 210.439 13.8294 209.54 12.7908 208.68C12.6098 208.529 12.3822 208.445 12.1466 208.443V208.443Z" fill="#263238"/>
<g opacity="0.2">
<path opacity="0.2" d="M8.7327 204.549L9.68366 199.927H13.5532L12.6023 204.549H8.7327Z" fill="black"/>
</g>
<path d="M20.49 124.228C16.3444 130.223 14.8237 152.237 13.4783 164.003C12.0935 176.246 8.52637 203.654 8.52637 203.654H13.7676C13.7676 203.654 19.3594 175.755 22.4401 163.941C25.8452 150.899 30.5474 124.228 30.5474 124.228H20.49Z" fill="#263238"/>
<path d="M8.17142 203.843H14.311L14.6572 201.883L7.76826 201.641L8.17142 203.843Z" fill="#64BC26"/>
<path d="M12.6417 208.553C12.9873 208.433 13.2914 208.217 13.5181 207.93C13.5652 207.862 13.595 207.783 13.605 207.7C13.6149 207.618 13.6046 207.534 13.5751 207.456C13.5576 207.413 13.5281 207.376 13.4901 207.348C13.4521 207.321 13.4071 207.305 13.3604 207.303C12.8257 207.272 11.4935 208.649 11.3445 208.807C11.3306 208.82 11.3207 208.837 11.316 208.856C11.3113 208.875 11.3121 208.894 11.3182 208.912C11.3259 208.929 11.3396 208.943 11.3566 208.95C11.3736 208.957 11.3928 208.958 11.4103 208.952C11.8308 208.852 12.2427 208.719 12.6417 208.553L12.6417 208.553ZM13.1237 207.531C13.1793 207.502 13.2409 207.487 13.3034 207.487C13.3226 207.487 13.3411 207.494 13.3562 207.506C13.3712 207.518 13.3819 207.534 13.3867 207.553C13.4079 207.602 13.4162 207.657 13.4108 207.71C13.4054 207.764 13.3866 207.815 13.3561 207.86C13.1764 208.154 12.5541 208.461 11.6689 208.702C12.0977 208.246 12.5873 207.852 13.1238 207.531L13.1237 207.531Z" fill="#64BC26"/>
<path d="M11.4187 208.947C11.4322 208.941 11.4441 208.932 11.4538 208.921C11.857 208.535 12.5538 207.386 12.3785 207.022C12.3346 206.935 12.2295 206.851 11.971 206.939C11.7794 207.002 11.6153 207.129 11.5064 207.298C11.2702 207.795 11.1996 208.355 11.3049 208.895C11.3067 208.909 11.3133 208.923 11.3236 208.933C11.3339 208.943 11.3474 208.95 11.3618 208.952C11.3809 208.954 11.4004 208.953 11.4188 208.947L11.4187 208.947ZM11.9446 207.132L11.9971 207.11C12.168 207.053 12.1943 207.11 12.2031 207.11C12.3127 207.329 11.8613 208.189 11.4669 208.649C11.399 208.21 11.4663 207.76 11.6597 207.36C11.7293 207.257 11.8287 207.177 11.9445 207.132L11.9446 207.132Z" fill="#64BC26"/>
<path d="M30.1973 87.6588L30.9159 87.3562C30.9159 87.3562 30.6004 87.9833 30.1973 87.6588Z" fill="#263238"/>
<path d="M20.2884 123.298L19.8502 124.693C19.7932 124.802 19.9202 124.916 20.1 124.921L36.2663 125.403C36.4065 125.403 36.5248 125.342 36.538 125.254L36.722 123.851C36.722 123.754 36.6125 123.666 36.4591 123.662L20.5557 123.188C20.5055 123.182 20.4544 123.188 20.4074 123.207C20.3605 123.227 20.3195 123.258 20.2884 123.298V123.298Z" fill="#64BC26"/>
<path d="M22.3747 125.144H21.9365C21.8489 125.144 21.7875 125.096 21.7962 125.043L22.0504 123.219C22.0504 123.166 22.1293 123.122 22.2169 123.127H22.6552C22.7385 123.127 22.8041 123.175 22.7955 123.228L22.5413 125.052C22.533 125.104 22.458 125.144 22.3748 125.144L22.3747 125.144Z" fill="#263238"/>
<path d="M35.0611 125.522H34.6229C34.5396 125.522 34.4783 125.474 34.4826 125.421L34.7368 123.597C34.7368 123.544 34.8201 123.504 34.9077 123.504H35.3459C35.4293 123.504 35.495 123.553 35.4862 123.605L35.2321 125.43C35.2188 125.482 35.1444 125.522 35.0611 125.522V125.522Z" fill="#263238"/>
<path d="M28.7155 125.324H28.2773C28.194 125.324 28.1282 125.276 28.137 125.223L28.3912 123.399C28.3912 123.346 28.4745 123.302 28.5577 123.307H28.996C29.0836 123.307 29.145 123.355 29.1406 123.408L28.8864 125.232C28.8781 125.293 28.8031 125.324 28.7155 125.324H28.7155Z" fill="#263238"/>
<path d="M18.6669 127.469C28.1765 126.951 25.8232 106.678 25.8232 106.678H26.1168C25.718 105.073 24.4253 101.586 22.7118 100.047C22.9606 99.9673 23.223 99.9389 23.4831 99.9638C25.0539 101.93 26.1515 104.232 26.6909 106.691L33.9436 106.849C34.1321 105.055 34.3556 102.143 33.1461 100.135C33.4033 100.116 33.6617 100.152 33.9042 100.24C33.9042 100.24 35.1006 102.516 34.5133 106.862H34.6404C34.6404 118.141 34.5176 125.14 36.7044 127.205C37.1427 130.674 36.7044 149.869 36.7044 149.869C36.7044 149.869 27.1423 151.925 17.7554 148.913C19.6135 135.695 17.6941 129.082 18.6669 127.469H18.6669Z" fill="#64BC26"/>
<path opacity="0.8" d="M18.6669 127.469C28.1765 126.951 25.8232 106.678 25.8232 106.678H26.1168C25.718 105.073 24.4253 101.586 22.7118 100.047C22.9606 99.9673 23.223 99.9389 23.4831 99.9638C25.0539 101.93 26.1515 104.232 26.6909 106.691L33.9436 106.849C34.1321 105.055 34.3556 102.143 33.1461 100.135C33.4033 100.116 33.6617 100.152 33.9042 100.24C33.9042 100.24 35.1006 102.516 34.5133 106.862H34.6404C34.6404 118.141 34.5176 125.14 36.7044 127.205C37.1427 130.674 36.7044 149.869 36.7044 149.869C36.7044 149.869 27.1423 151.925 17.7554 148.913C19.6135 135.695 17.6941 129.082 18.6669 127.469H18.6669Z" fill="white"/>
<path d="M17.4798 125.504L21.0645 125.732L17.9268 128.802C17.9268 128.802 15.9942 128.148 16.0862 126.477L17.4798 125.504Z" fill="#FFC3BD"/>
<path d="M22.6201 128.017L19.9119 130.468L17.9267 128.815L21.0644 125.732L22.6201 128.017Z" fill="#FFC3BD"/>
</svg>
