<svg width="130" height="121" viewBox="0 0 130 121" fill="none" xmlns="http://www.w3.org/2000/svg">
<path d="M92.1305 2.52937C81.6166 -1.37304 68.8386 0.239526 58.9438 5.18043C53.9675 7.66701 50.652 11.4211 46.6883 15.1784C41.125 20.4224 36.2937 20.9836 29.2726 22.8574C8.83168 28.3401 7.14815 50.8032 12.3051 65.068C18.578 82.416 36.7098 93.4201 55.3381 91.1916C67.8839 89.6951 78.9139 85.5476 87.4541 77.9685C94.1236 72.0439 93.5979 64.9422 93.227 56.6826C92.9465 50.3646 92.1821 43.4047 94.6622 37.3866C96.9198 31.8813 102.183 33.7293 105.628 29.5754C114.419 18.9776 100.98 5.81578 92.1305 2.52937Z" fill="#64BC26"/>
<path opacity="0.9" d="M92.1305 2.52937C81.6166 -1.37304 68.8386 0.239526 58.9438 5.18043C53.9675 7.66701 50.652 11.4211 46.6883 15.1784C41.125 20.4224 36.2937 20.9836 29.2726 22.8574C8.83168 28.3401 7.14815 50.8032 12.3051 65.068C18.578 82.416 36.7098 93.4201 55.3381 91.1916C67.8839 89.6951 78.9139 85.5476 87.4541 77.9685C94.1236 72.044 93.5979 64.9422 93.227 56.6826C92.9465 50.3646 92.1821 43.4047 94.6622 37.3866C96.9198 31.8813 102.183 33.7293 105.628 29.5754C114.419 18.9776 100.98 5.81578 92.1305 2.52937Z" fill="white"/>
<path d="M64.8954 120.35C100.317 120.35 129.032 118.673 129.032 116.605C129.032 114.537 100.317 112.861 64.8954 112.861C29.4737 112.861 0.758789 114.537 0.758789 116.605C0.758789 118.673 29.4737 120.35 64.8954 120.35Z" fill="#F5F5F5"/>
<path d="M20.6966 96.0491L98.252 97.5554L99.1487 51.386L21.5934 49.8797L20.6966 96.0491Z" fill="#64BC26"/>
<path opacity="0.1" d="M20.6966 96.0491L98.252 97.5554L99.1487 51.386L21.5934 49.8797L20.6966 96.0491Z" fill="black"/>
<path opacity="0.1" d="M59.8832 75.8158L21.5938 49.8788L99.1478 51.3833L59.8832 75.8158Z" fill="#263238"/>
<path d="M55.9536 28.5016L21.5946 49.8789L99.1487 51.3834L65.6452 28.691C64.2209 27.7259 62.5475 27.1944 60.8274 27.1608C59.1073 27.1271 57.4144 27.5929 55.9536 28.5016V28.5016Z" fill="#64BC26"/>
<path opacity="0.2" d="M96.2671 51.3295L64.4344 29.7662C63.3605 29.0379 62.0983 28.6368 60.801 28.6113C59.5037 28.5858 58.2268 28.9372 57.1251 29.6227L24.4715 49.9321L96.2671 51.3295Z" fill="#263238"/>
<path d="M82.1665 49.128L92.2258 53.1029L92.1758 55.7212L59.8834 75.8159L28.3934 54.4854L28.4934 49.2489L82.1665 49.128Z" fill="white"/>
<path d="M82.1665 49.1279L83.4991 54.79L92.2258 53.1028" fill="#E0E0E0"/>
<path d="M82.1665 49.1279L82.6565 53.7267L92.2258 53.1028" fill="#F0F0F0"/>
<path d="M66.5767 71.6424L98.2522 97.5565L20.6985 96.0486L53.3534 71.3839C55.2676 69.9389 57.6118 69.1788 60.0098 69.2257C62.4078 69.2726 64.7204 70.1237 66.5767 71.6424V71.6424Z" fill="#64BC26"/>
</svg>
