<svg width="128" height="120" viewBox="0 0 128 120" fill="none" xmlns="http://www.w3.org/2000/svg">
<path d="M113.908 36.567C111.668 54.4304 96.0186 72.2642 78.8075 83.7492C34.3301 113.671 -8.66806 62.8976 2.17784 44.6618C10.3189 26.1658 35.7138 31.2461 46.5169 23.9749C107.233 -17.1815 116.014 21.616 113.908 36.567Z" fill="#64BC24"/>
<path opacity="0.9" d="M113.908 36.567C111.668 54.4304 96.0186 72.2642 78.8075 83.7492C34.3301 113.671 -8.66806 62.8976 2.17784 44.6618C10.3189 26.1658 35.7138 31.2461 46.5169 23.9749C107.233 -17.1815 116.014 21.616 113.908 36.567Z" fill="white"/>
<path d="M63.8794 120C99.1591 120 127.759 118.33 127.759 116.271C127.759 114.211 99.1591 112.541 63.8794 112.541C28.5998 112.541 0 114.211 0 116.271C0 118.33 28.5998 120 63.8794 120Z" fill="#F5F5F5"/>
<path d="M63.8665 98.0874H17.0829L14.5229 22.8481H61.3066L63.8665 98.0874Z" fill="#64BC24"/>
<path d="M66.2023 95.7515H19.4187L16.8555 20.5122H63.6391L66.2023 95.7515Z" fill="#64BC24"/>
<path opacity="0.3" d="M66.2023 95.7515H19.4187L16.8555 20.5122H63.6391L66.2023 95.7515Z" fill="white"/>
<path d="M50.5276 51.4731C55.5368 46.3775 55.3237 38.0453 50.0516 32.8626C44.7795 27.6799 36.4449 27.6093 31.4357 32.705C26.4265 37.8006 26.6396 46.1328 31.9117 51.3155C37.1838 56.4981 45.5184 56.5687 50.5276 51.4731Z" fill="#64BC24"/>
<path d="M51.8444 42.092C51.9118 43.8848 51.5206 45.6652 50.7077 47.2646C49.8305 48.9882 48.4903 50.4333 46.8376 51.4377C45.1849 52.4421 43.285 52.9662 41.351 52.9511C39.3716 52.9404 37.4298 52.4094 35.7205 51.4113C34.0111 50.4132 32.5943 48.9831 31.6121 47.2646C30.6963 45.6898 30.1847 43.9127 30.1229 42.092C30.0622 40.6803 30.289 39.271 30.7898 37.9496C31.2905 36.6283 32.0547 35.4226 33.0358 34.4057C34.0169 33.3888 35.1945 32.582 36.4971 32.0343C37.7997 31.4867 39.2 31.2095 40.613 31.2198C43.5239 31.2404 46.315 32.3815 48.4065 34.4061C50.498 36.4308 51.7292 39.1833 51.8444 42.092V42.092Z" fill="white"/>
<path opacity="0.6" d="M50.7011 47.2648C49.8239 48.9884 48.4837 50.4334 46.831 51.4379C45.1782 52.4423 43.2783 52.9664 41.3444 52.9513C39.365 52.9406 37.4232 52.4096 35.7138 51.4115C34.0045 50.4134 32.5876 48.9833 31.6055 47.2648C34.3918 45.3651 37.6888 44.3553 41.061 44.3688C44.4876 44.3762 47.8377 45.3826 50.7011 47.2648Z" fill="#64BC24"/>
<path opacity="0.6" d="M44.3661 41.8211C46.2081 39.9473 46.1297 36.8835 44.1911 34.9778C42.2525 33.0721 39.1878 33.0461 37.3459 34.9198C35.5039 36.7936 35.5823 39.8574 37.5209 41.7631C39.4595 43.6688 42.5242 43.6948 44.3661 41.8211Z" fill="#64BC24"/>
<path d="M56.8029 68.5051H26.9602L26.7593 62.5747H56.602L56.8029 68.5051Z" fill="white"/>
<path d="M57.1651 79.1039H27.3191L27.1182 73.1736H56.9641L57.1651 79.1039Z" fill="white"/>
<path d="M45.647 73.9906L38.4548 74.979C38.3862 74.9868 38.3199 75.0088 38.2602 75.0434C38.2005 75.0781 38.1485 75.1247 38.1077 75.1804C38.0668 75.2361 38.038 75.2997 38.0229 75.3671C38.0078 75.4344 38.0068 75.5042 38.0199 75.572L38.9655 80.392C38.9964 80.5335 39.0792 80.6583 39.1975 80.7418C39.3157 80.8253 39.461 80.8616 39.6046 80.8434L46.7968 79.855C46.8652 79.8464 46.9312 79.8237 46.9906 79.7886C47.0499 79.7534 47.1015 79.7064 47.1419 79.6505C47.1824 79.5946 47.2109 79.5309 47.2258 79.4636C47.2407 79.3962 47.2416 79.3264 47.2284 79.2587L46.2861 74.4387C46.2552 74.2975 46.1723 74.173 46.0539 74.0901C45.9355 74.0071 45.7903 73.9716 45.647 73.9906V73.9906ZM43.5812 78.8732L42.2634 79.0478L42.1349 77.4928C41.9991 77.4341 41.8794 77.3435 41.786 77.2289C41.6925 77.1142 41.628 76.9787 41.5979 76.8339C41.5737 76.7217 41.5733 76.6056 41.5967 76.4933C41.6202 76.3809 41.667 76.2747 41.734 76.1815C41.8011 76.0884 41.887 76.0103 41.9861 75.9524C42.0852 75.8946 42.1954 75.8581 42.3095 75.8455C42.5435 75.8154 42.7803 75.8741 42.9731 76.0102C43.1659 76.1462 43.3006 76.3496 43.3506 76.5802C43.3792 76.7194 43.3704 76.8638 43.3253 76.9986C43.2802 77.1333 43.2003 77.2538 43.0936 77.3478L43.5812 78.8732Z" fill="#64BC24"/>
<path d="M44.9358 73.7302C44.8086 73.7464 44.68 73.7145 44.5752 73.6408C44.4703 73.567 44.3968 73.4567 44.3691 73.3316L44.2768 72.8605C44.1452 72.2175 43.7848 71.6442 43.2626 71.2467C42.7403 70.8493 42.0917 70.6547 41.4369 70.6992C41.1065 70.718 40.784 70.8077 40.4913 70.9623C40.1987 71.1168 39.9427 71.3325 39.7408 71.5947C39.5389 71.8569 39.3958 72.1595 39.3212 72.482C39.2466 72.8044 39.2423 73.1391 39.3086 73.4634L39.414 74.007C39.4263 74.0672 39.4258 74.1294 39.4127 74.1894C39.3996 74.2495 39.3741 74.3061 39.3378 74.3558C39.3015 74.4054 39.2552 74.4469 39.202 74.4776C39.1487 74.5083 39.0896 74.5276 39.0285 74.5341V74.5341C38.9011 74.5519 38.7717 74.5206 38.6665 74.4466C38.5613 74.3726 38.4882 74.2614 38.4618 74.1355L38.3729 73.6775C38.2824 73.2495 38.2794 72.8077 38.3641 72.3785C38.4487 71.9493 38.6193 71.5416 38.8655 71.18C39.1116 70.8184 39.4284 70.5103 39.7967 70.2743C40.165 70.0382 40.5772 69.879 41.0086 69.8063C41.9439 69.6493 42.9038 69.8584 43.689 70.3903C44.4743 70.9221 45.0245 71.7359 45.2257 72.6628L45.3311 73.2031C45.3434 73.2641 45.3427 73.327 45.329 73.3877C45.3153 73.4484 45.2889 73.5055 45.2515 73.5552C45.2142 73.605 45.1668 73.6463 45.1124 73.6765C45.0579 73.7067 44.9978 73.725 44.9358 73.7302V73.7302Z" fill="#64BC24"/>
<path d="M52.2395 87.4096H32.8111L32.6826 83.5483H52.1077L52.2395 87.4096Z" fill="#64BC24"/>
<path d="M42.8664 65.54C42.8722 65.6809 42.8493 65.8214 42.7992 65.9532C42.7491 66.0849 42.6727 66.2051 42.5747 66.3064C42.4768 66.4078 42.3592 66.4882 42.2293 66.5428C42.0993 66.5973 41.9596 66.625 41.8187 66.624C41.5282 66.6217 41.2496 66.508 41.0406 66.3063C40.8315 66.1046 40.7079 65.8303 40.6952 65.54C40.6894 65.3992 40.7123 65.2586 40.7624 65.1269C40.8125 64.9952 40.8889 64.875 40.9869 64.7736C41.0848 64.6723 41.2023 64.5919 41.3323 64.5373C41.4623 64.4827 41.602 64.4551 41.7429 64.4561C42.0337 64.4575 42.3127 64.571 42.5219 64.7729C42.7311 64.9748 42.8545 65.2495 42.8664 65.54V65.54Z" fill="#263238"/>
<path d="M38.1814 65.54C38.1877 65.681 38.1652 65.8217 38.1152 65.9537C38.0653 66.0856 37.9889 66.206 37.8909 66.3075C37.7928 66.4089 37.6751 66.4893 37.5449 66.5437C37.4147 66.5981 37.2748 66.6254 37.1338 66.6239C36.8436 66.6217 36.5654 66.5078 36.3569 66.306C36.1483 66.1042 36.0254 65.83 36.0136 65.54C36.0078 65.3992 36.0306 65.2586 36.0808 65.1269C36.1309 64.9952 36.2073 64.875 36.3052 64.7736C36.4032 64.6723 36.5207 64.5919 36.6507 64.5373C36.7806 64.4827 36.9203 64.4551 37.0613 64.4561C37.3517 64.4576 37.6303 64.5711 37.839 64.7731C38.0477 64.9751 38.1704 65.2498 38.1814 65.54V65.54Z" fill="#263238"/>
<path d="M33.5262 65.54C33.532 65.6809 33.5091 65.8214 33.459 65.9532C33.4089 66.0849 33.3325 66.2051 33.2345 66.3064C33.1366 66.4078 33.019 66.4882 32.8891 66.5428C32.7591 66.5973 32.6194 66.625 32.4785 66.624C32.1881 66.6225 31.9094 66.5089 31.7007 66.3069C31.492 66.105 31.3693 65.8302 31.3583 65.54C31.3525 65.3992 31.3754 65.2586 31.4255 65.1269C31.4756 64.9952 31.552 64.875 31.6499 64.7736C31.7479 64.6723 31.8654 64.5919 31.9954 64.5373C32.1254 64.4827 32.265 64.4551 32.406 64.4561C32.6964 64.4576 32.975 64.5711 33.1838 64.7731C33.3925 64.9751 33.5151 65.2498 33.5262 65.54V65.54Z" fill="#263238"/>
<path d="M47.5347 65.5397C47.5405 65.6805 47.5176 65.8211 47.4675 65.9528C47.4174 66.0846 47.341 66.2048 47.243 66.3061C47.1451 66.4075 47.0276 66.4879 46.8976 66.5424C46.7676 66.597 46.628 66.6246 46.487 66.6236C46.1966 66.6221 45.918 66.5086 45.7093 66.3066C45.5005 66.1047 45.3779 65.8299 45.3668 65.5397C45.3619 65.3993 45.3856 65.2593 45.4364 65.1283C45.4871 64.9973 45.564 64.878 45.6623 64.7775C45.7605 64.6771 45.8782 64.5977 46.008 64.5441C46.1379 64.4905 46.2773 64.4638 46.4178 64.4657C46.706 64.4679 46.9824 64.5805 47.1902 64.7802C47.3979 64.98 47.5212 65.2518 47.5347 65.5397V65.5397Z" fill="#263238"/>
<path d="M52.2034 65.54C52.2097 65.681 52.1872 65.8217 52.1372 65.9537C52.0872 66.0856 52.0109 66.206 51.9128 66.3075C51.8148 66.4089 51.6971 66.4893 51.5669 66.5437C51.4367 66.5981 51.2968 66.6254 51.1557 66.6239C50.8656 66.6217 50.5874 66.5078 50.3788 66.306C50.1703 66.1042 50.0474 65.83 50.0356 65.54C50.0297 65.3992 50.0526 65.2586 50.1027 65.1269C50.1529 64.9952 50.2292 64.875 50.3272 64.7736C50.4252 64.6723 50.5427 64.5919 50.6726 64.5373C50.8026 64.4827 50.9423 64.4551 51.0832 64.4561C51.3737 64.4576 51.6523 64.5711 51.861 64.7731C52.0697 64.9751 52.1924 65.2498 52.2034 65.54V65.54Z" fill="#263238"/>
<path d="M91.5251 36.5537C91.9633 37.2588 92.329 37.9309 92.7045 38.6326C93.0801 39.3344 93.4195 40.0394 93.7522 40.7609C94.4312 42.2219 94.993 43.7345 95.4325 45.2845C95.4918 45.4788 95.5346 45.6864 95.5841 45.8874L95.6565 46.1938L95.6928 46.3453L95.7356 46.5957C95.8099 47.1637 95.7752 47.7407 95.6335 48.2957C95.406 49.1575 95.0601 49.9836 94.6056 50.7502C93.7925 52.1435 92.8098 53.4305 91.6799 54.5819L90.2929 53.5342C90.9891 52.2543 91.6085 50.9341 92.1478 49.5806C92.388 48.9843 92.5572 48.3617 92.6518 47.7258C92.6821 47.5316 92.6732 47.3333 92.6255 47.1426L92.4937 46.7407C92.441 46.576 92.3916 46.4112 92.329 46.2432C91.8279 44.884 91.2481 43.5551 90.5927 42.2633C89.9338 40.9454 89.2254 39.6276 88.5171 38.369L91.5251 36.5537Z" fill="#FF8B7B"/>
<path d="M90.6449 53.0762L89.1294 53.8768L90.869 55.9128C90.869 55.9128 91.9562 55.1781 92.0056 54.058L90.6449 53.0762Z" fill="#FF8B7B"/>
<path d="M87.0967 55.1322L88.9581 56.6115L90.869 55.913L89.1295 53.877L87.0967 55.1322Z" fill="#FF8B7B"/>
<path d="M80.7316 25.7736C80.6954 25.9581 80.5669 26.0866 80.4483 26.0636C80.3297 26.0405 80.2605 25.8692 80.2968 25.688C80.333 25.5068 80.4615 25.3585 80.5834 25.398C80.7053 25.4376 80.7679 25.5891 80.7316 25.7736Z" fill="#263238"/>
<path d="M80.5833 26.0901C80.2515 26.6061 79.8502 27.074 79.3906 27.4804C79.4991 27.5929 79.6307 27.6806 79.7763 27.7374C79.9219 27.7943 80.078 27.819 80.2341 27.8099L80.5833 26.0901Z" fill="#FF5652"/>
<path d="M79.9902 32.5541V30.3928L82.85 30.7223C82.85 30.7223 82.8038 32.5805 81.2027 33.1274L79.9902 32.5541Z" fill="#FF8B7B"/>
<path d="M80.8139 28.8376L82.8269 29.4175L82.8631 30.7386L80.0034 30.3927L80.8139 28.8376Z" fill="#FF8B7B"/>
<path opacity="0.2" d="M82.8269 29.4175L80.8139 28.8376L80.4219 29.5888C80.4433 30.1807 80.6282 30.7551 80.9562 31.2483C81.2842 31.7414 81.7425 32.1341 82.28 32.3827C82.6259 31.8995 82.8281 31.3285 82.8632 30.7353L82.8269 29.4175Z" fill="black"/>
<path d="M81.6078 24.894C81.6289 24.8934 81.6495 24.8869 81.667 24.8752C81.6846 24.8634 81.6985 24.847 81.7071 24.8277C81.7157 24.8084 81.7187 24.787 81.7157 24.7661C81.7127 24.7452 81.7039 24.7256 81.6902 24.7095C81.5745 24.5788 81.4291 24.4777 81.2664 24.4147C81.1036 24.3516 80.9281 24.3284 80.7545 24.3471C80.7261 24.3519 80.7008 24.3678 80.6842 24.3913C80.6675 24.4147 80.6608 24.4439 80.6656 24.4723C80.6704 24.5009 80.6862 24.5265 80.7095 24.5437C80.7329 24.5609 80.762 24.5683 80.7908 24.5645C80.9282 24.551 81.0669 24.5706 81.1953 24.6216C81.3237 24.6726 81.438 24.7536 81.5288 24.8577C81.5388 24.8687 81.551 24.8776 81.5646 24.8838C81.5782 24.8901 81.5929 24.8935 81.6078 24.894Z" fill="#263238"/>
<path d="M85.8187 29.1079C85.4892 30.8046 85.2849 33.1537 86.4776 34.2838C86.4776 34.2838 86.0163 36.0036 82.8535 36.0036C79.3909 36.0036 81.1897 34.4946 81.1897 34.4946C82.6295 34.0466 82.6163 32.4091 82.2868 31.0913L85.8187 29.1079Z" fill="#FF8B7B"/>
<path d="M87.1198 35.417C87.4295 34.9821 87.4164 33.6017 87.0869 33.3579C86.5565 32.9658 84.2799 32.8736 81.2192 33.5786C81.5487 34.9162 80.8403 35.6147 80.8403 35.6147L87.1198 35.417Z" fill="#64BC24"/>
<path d="M97.4189 113.635C97.3248 113.668 97.2252 113.682 97.1256 113.676C97.0261 113.671 96.9287 113.645 96.839 113.602C96.805 113.57 96.7817 113.529 96.7723 113.483C96.7628 113.438 96.7677 113.391 96.7863 113.348C96.7967 113.312 96.8147 113.28 96.8392 113.252C96.8637 113.224 96.894 113.202 96.928 113.187C97.241 113.035 97.9592 113.328 97.9921 113.342C98.002 113.345 98.0104 113.352 98.0162 113.361C98.0221 113.37 98.0252 113.38 98.0251 113.391C98.025 113.402 98.0222 113.412 98.017 113.421C98.0119 113.43 98.0044 113.438 97.9954 113.444C97.8096 113.525 97.6166 113.589 97.4189 113.635V113.635ZM97.04 113.262C97.0183 113.268 96.9972 113.275 96.9774 113.286C96.9568 113.293 96.9384 113.305 96.9235 113.321C96.9086 113.337 96.8977 113.357 96.8917 113.378C96.8621 113.477 96.8917 113.51 96.9115 113.519C97.0367 113.625 97.4979 113.519 97.8241 113.398C97.576 113.295 97.3081 113.249 97.04 113.262V113.262Z" fill="#64BC24"/>
<path d="M97.9821 113.447H97.9557C97.6922 113.371 97.1321 112.973 97.1255 112.712C97.1252 112.671 97.1392 112.631 97.1649 112.598C97.1907 112.566 97.2268 112.543 97.2672 112.534C97.3062 112.52 97.348 112.514 97.3896 112.517C97.4312 112.521 97.4715 112.533 97.5077 112.554C97.8174 112.712 98.015 113.351 98.0216 113.381C98.0263 113.389 98.0287 113.398 98.0287 113.407C98.0287 113.417 98.0263 113.426 98.0216 113.434C98.0165 113.439 98.0103 113.443 98.0034 113.445C97.9966 113.447 97.9893 113.448 97.9821 113.447V113.447ZM97.3232 112.627H97.2968C97.2309 112.65 97.2309 112.683 97.2309 112.699C97.2309 112.854 97.6065 113.167 97.8899 113.292C97.8207 113.108 97.6691 112.742 97.4681 112.633C97.4235 112.613 97.3728 112.611 97.3265 112.627H97.3232Z" fill="#64BC24"/>
<path d="M80.3064 114.023C80.0099 114.023 79.7233 113.981 79.6277 113.849C79.6028 113.814 79.5894 113.772 79.5894 113.729C79.5894 113.685 79.6028 113.643 79.6277 113.608C79.6465 113.576 79.6717 113.548 79.7018 113.526C79.7318 113.504 79.766 113.488 79.8024 113.48C80.1878 113.374 80.9983 113.836 81.0313 113.855C81.0414 113.86 81.0495 113.869 81.0543 113.879C81.0591 113.889 81.0603 113.9 81.0576 113.911C81.0564 113.923 81.0516 113.933 81.0438 113.942C81.0361 113.95 81.0259 113.955 81.0148 113.957C80.7811 114 80.544 114.022 80.3064 114.023ZM79.9407 113.572C79.9058 113.566 79.8702 113.566 79.8353 113.572C79.813 113.577 79.7918 113.586 79.7732 113.599C79.7545 113.612 79.7386 113.628 79.7266 113.648C79.687 113.717 79.7035 113.75 79.7266 113.77C79.8353 113.921 80.4185 113.925 80.8501 113.862C80.5683 113.708 80.2596 113.61 79.9407 113.572V113.572Z" fill="#64BC24"/>
<path d="M81.0119 113.958H80.9888C80.7088 113.832 80.1553 113.332 80.1981 113.068C80.1981 113.005 80.2509 112.93 80.4024 112.917C80.4566 112.91 80.5115 112.915 80.5636 112.931C80.6158 112.947 80.6641 112.973 80.7055 113.009C80.9166 113.261 81.0434 113.573 81.0679 113.902C81.0678 113.911 81.0657 113.92 81.0617 113.929C81.0578 113.937 81.052 113.945 81.0449 113.951C81.0347 113.956 81.0233 113.958 81.0119 113.958ZM80.4452 113.019H80.4123C80.3135 113.019 80.3069 113.065 80.3069 113.078C80.2805 113.236 80.6561 113.631 80.9427 113.803C80.9176 113.538 80.8104 113.288 80.6363 113.088C80.5822 113.042 80.513 113.017 80.4419 113.019H80.4452Z" fill="#64BC24"/>
<path d="M83.555 113.905H81.2389L81.0083 108.538H83.3244L83.555 113.905Z" fill="#FF8B7B"/>
<path d="M100.565 112.831L98.302 113.322L96.0254 108.324L98.2921 107.833L100.565 112.831Z" fill="#FF8B7B"/>
<path d="M98.0814 113.094L100.628 112.544C100.673 112.535 100.719 112.541 100.76 112.561C100.8 112.581 100.833 112.615 100.852 112.656L101.735 114.574C101.759 114.62 101.771 114.671 101.771 114.723C101.77 114.776 101.758 114.827 101.734 114.873C101.71 114.919 101.676 114.959 101.634 114.99C101.592 115.02 101.543 115.04 101.491 115.048C100.602 115.223 100.157 115.266 99.0401 115.506C98.3516 115.658 96.7965 116.036 95.8443 116.241C94.8922 116.445 94.566 115.532 94.9383 115.364C96.6021 114.603 97.294 113.935 97.7453 113.312C97.827 113.201 97.9465 113.123 98.0814 113.094V113.094Z" fill="#263238"/>
<path d="M81.2554 113.635H83.7857C83.8316 113.635 83.8761 113.651 83.912 113.68C83.9478 113.708 83.973 113.748 83.9833 113.793L84.4413 115.852C84.4547 115.902 84.4563 115.954 84.4459 116.005C84.4355 116.055 84.4133 116.102 84.3813 116.143C84.3492 116.183 84.3082 116.215 84.2614 116.237C84.2146 116.259 84.1634 116.269 84.1118 116.267C83.1992 116.251 81.8814 116.198 80.7349 116.198C79.3907 116.198 78.2343 116.27 76.6594 116.27C75.7073 116.27 75.4437 115.308 75.8424 115.219C77.6544 114.824 79.137 114.781 80.7019 113.816C80.8663 113.706 81.0578 113.643 81.2554 113.635V113.635Z" fill="#263238"/>
<path d="M90.6219 34.8141C92.7931 35.3115 94.5755 40.8564 94.5755 40.8564L90.2364 44.1741C89.1102 42.9699 88.3155 41.4942 87.9302 39.8911C87.1625 36.9852 88.4013 34.3001 90.6219 34.8141Z" fill="#64BC24"/>
<path opacity="0.4" d="M90.6219 34.8141C92.7931 35.3115 94.5755 40.8564 94.5755 40.8564L90.2364 44.1741C89.1102 42.9699 88.3155 41.4942 87.9302 39.8911C87.1625 36.9852 88.4013 34.3001 90.6219 34.8141Z" fill="black"/>
<path d="M79.1996 41.4264C78.6593 42.0095 78.1189 42.5301 77.5523 43.0737C77.2722 43.3373 76.9889 43.6008 76.699 43.8545L76.2608 44.24L76.1521 44.3355L75.9643 44.4871C75.771 44.6415 75.5569 44.7679 75.3284 44.8627C75.0741 44.9706 74.8008 45.0266 74.5245 45.0274C74.2885 45.0284 74.0541 44.9871 73.8326 44.9055C73.587 44.8119 73.3629 44.6696 73.1737 44.4871C72.9324 44.2512 72.7554 43.9574 72.6598 43.6338C72.6097 43.4742 72.5777 43.3096 72.5642 43.1429C72.547 42.9478 72.547 42.7515 72.5642 42.5564C72.5807 42.3983 72.6005 42.2599 72.6268 42.1314C72.717 41.6822 72.8448 41.2413 73.009 40.8136C73.1572 40.407 73.3277 40.0088 73.5197 39.6209C73.7305 39.2025 73.9315 38.8961 74.1325 38.5469C74.9487 37.2097 75.8803 35.9463 76.9164 34.7712C77.9421 33.6031 79.0725 32.5312 80.2934 31.5688L81.5058 32.8175C80.6558 33.9575 79.819 35.1798 79.0447 36.3823C78.2742 37.578 77.5703 38.8154 76.9362 40.0888C76.7945 40.3984 76.6067 40.7477 76.5178 40.9981C76.3999 41.2889 76.2976 41.5859 76.2114 41.8876C76.1283 42.1593 76.0656 42.4369 76.0236 42.7179C76.0213 42.7618 76.0213 42.8057 76.0236 42.8496C76.0236 42.876 76.0236 42.8892 76.0236 42.82C76.0181 42.746 76.0038 42.673 75.9807 42.6026C75.9095 42.369 75.779 42.1579 75.6018 41.9898C75.4443 41.845 75.2595 41.733 75.0582 41.6603C74.8814 41.5933 74.6939 41.5587 74.5047 41.5582C74.3228 41.556 74.1424 41.5907 73.9743 41.6603C73.9174 41.6835 73.8623 41.7111 73.8096 41.7427L73.9348 41.6273L74.3334 41.2649L75.1208 40.5269C75.6414 40.036 76.1652 39.5122 76.6594 39.0246L79.1996 41.4264Z" fill="#FF8B7B"/>
<path opacity="0.2" d="M88.7604 38.8862C89.9398 40.0525 90.3253 42.1809 90.4077 44.0258L90.2166 44.1741C89.0903 42.9699 88.2957 41.4942 87.9104 39.8911C87.8675 39.7198 87.828 39.5616 87.7983 39.3738L88.7604 38.8862Z" fill="black"/>
<path d="M76.8965 37.1203C76.4221 39.6242 76.1256 44.7671 77.4994 54.9475H89.907C89.9926 53.0465 88.7967 43.7623 90.6318 34.7976C89.2607 34.5343 87.8741 34.3593 86.4806 34.2738C84.7249 34.1731 82.9649 34.1731 81.2092 34.2738C80.6293 34.3265 80.0561 34.4121 79.5619 34.5011C78.9046 34.6164 78.2979 34.9285 77.8219 35.3963C77.346 35.864 77.0233 36.4652 76.8965 37.1203Z" fill="#64BC24"/>
<path opacity="0.4" d="M76.8965 37.1203C76.4221 39.6242 76.1256 44.7671 77.4994 54.9475H89.907C89.9926 53.0465 88.7967 43.7623 90.6318 34.7976C89.2607 34.5343 87.8741 34.3593 86.4806 34.2738C84.7249 34.1731 82.9649 34.1731 81.2092 34.2738C80.6293 34.3265 80.0561 34.4121 79.5619 34.5011C78.9046 34.6164 78.2979 34.9285 77.8219 35.3963C77.346 35.864 77.0233 36.4652 76.8965 37.1203Z" fill="black"/>
<path opacity="0.2" d="M78.7944 40.8334L76.5541 40.2964C76.4849 41.6538 76.4783 43.334 76.5771 45.4129C77.6084 44.2401 78.9262 42.4082 78.7944 40.8334Z" fill="black"/>
<path opacity="0.2" d="M81.0083 108.538L81.1269 111.305H83.4463L83.3277 108.538H81.0083Z" fill="black"/>
<path opacity="0.2" d="M98.2921 107.833L96.0254 108.324L97.1983 110.9L99.465 110.409L98.2921 107.833Z" fill="black"/>
<path d="M86.9189 26.6304C86.3259 28.851 86.0886 30.182 84.7181 31.1045C82.6589 32.508 80.0891 30.9003 80.0232 28.5545C79.9508 26.436 80.9359 23.1579 83.3179 22.7098C83.8413 22.6116 84.3812 22.6483 84.8865 22.8164C85.3919 22.9845 85.8461 23.2786 86.2064 23.6708C86.5667 24.0631 86.8211 24.5406 86.9458 25.0584C87.0704 25.5762 87.0612 26.1172 86.9189 26.6304V26.6304Z" fill="#FF8B7B"/>
<path d="M81.72 26.7127C81.608 26.4162 81.0973 24.1199 81.5784 23.5235C82.0594 22.9272 87.5449 23.3588 88.3554 24.1561C89.7029 25.474 88.7672 26.66 87.2945 28.1854C86.1875 29.332 86.1447 30.6235 85.5846 30.8211C84.5962 31.1506 83.0873 30.8409 82.7842 29.7965C82.4811 28.7521 81.72 26.7127 81.72 26.7127Z" fill="#263238"/>
<path d="M87.6894 21.5434C85.7522 20.7198 82.1182 21.6324 80.1546 21.158C80.1296 21.8881 80.3697 22.6026 80.8306 23.1695C81.2915 23.7363 81.9419 24.1172 82.6618 24.2417C84.2907 24.5521 85.9456 24.7055 87.6037 24.6997C89.7584 24.6008 89.3367 22.2452 87.6894 21.5434Z" fill="#263238"/>
<path d="M87.9927 24.2253C88.7003 24.2949 89.413 24.1588 90.0452 23.8333C90.4076 24.7096 88.4144 24.9501 87.9927 24.2253Z" fill="#263238"/>
<path d="M82.7745 26.8048C82.73 27.3762 82.4984 27.917 82.1155 28.3434C81.6082 28.9002 81.081 28.551 80.9921 27.8756C80.913 27.2628 81.0777 26.2283 81.6971 25.9318C82.3165 25.6353 82.8173 26.1163 82.7745 26.8048Z" fill="#FF8B7B"/>
<path d="M81.8979 54.9575C81.8979 54.9575 84.5336 72.6661 85.9734 79.3015C87.5515 86.5661 96.0319 110.6 96.0319 110.6L100.18 109.701C100.18 109.701 94.2495 90.1111 92.9316 79.9538C91.9103 72.1522 89.9039 54.9509 89.9039 54.9509L81.8979 54.9575Z" fill="#64BC24"/>
<path d="M95.0369 109.22C95.0204 109.22 95.8111 110.722 95.8111 110.722L100.476 109.711L100.084 108.307L95.0369 109.22Z" fill="#263238"/>
<path opacity="0.3" d="M83.5617 61.2666C86.6027 61.8629 86.2798 73.203 85.9141 79.0378C85.0378 74.9129 83.7528 66.9795 82.8765 61.3489C83.0888 61.2441 83.3306 61.215 83.5617 61.2666V61.2666Z" fill="black"/>
<path d="M77.4996 54.9575C77.4996 54.9575 77.1702 72.2839 77.4337 79.3377C77.6973 86.688 80.2638 110.755 80.2638 110.755H84.191C84.191 110.755 84.3327 87.1163 84.5205 79.8978C84.7115 72.0302 85.6604 54.9443 85.6604 54.9443L77.4996 54.9575Z" fill="#64BC24"/>
<path d="M79.5095 109.207C79.4897 109.207 79.7302 110.834 79.7302 110.834H84.5041L84.6359 109.381L79.5095 109.207Z" fill="#263238"/>
<path d="M81.7529 37.8914C82.8632 40.8862 76.3365 44.4147 76.3365 44.4147L73.5098 40.7906C73.5098 40.7906 75.4108 37.0282 77.717 35.3348C80.5668 33.246 80.9062 35.6115 81.7529 37.8914Z" fill="#64BC24"/>
<path opacity="0.4" d="M81.7529 37.8914C82.8632 40.8862 76.3365 44.4147 76.3365 44.4147L73.5098 40.7906C73.5098 40.7906 75.4108 37.0282 77.717 35.3348C80.5668 33.246 80.9062 35.6115 81.7529 37.8914Z" fill="black"/>
<path d="M107.326 15.1553C113.893 15.1553 119.216 11.7626 119.216 7.57763C119.216 3.39262 113.893 0 107.326 0C100.759 0 95.4355 3.39262 95.4355 7.57763C95.4355 11.7626 100.759 15.1553 107.326 15.1553Z" fill="#64BC24"/>
<path d="M103.036 11.3928C102.253 11.3903 101.496 11.1118 100.897 10.6063C100.299 10.1008 99.898 9.40053 99.7647 8.62865C99.6337 7.79257 99.8223 6.93779 100.293 6.23447C100.764 5.53116 101.482 5.03089 102.305 4.83325V4.83325C102.98 4.67764 103.687 4.73762 104.327 5.00474C104.966 5.27186 105.506 5.73269 105.87 6.32242L113.503 4.74759C113.797 4.68334 114.103 4.73212 114.362 4.8842C114.621 5.03628 114.813 5.28045 114.9 5.56795C114.94 5.7191 114.949 5.87681 114.926 6.03144C114.903 6.18607 114.848 6.33438 114.766 6.46728C114.684 6.60019 114.575 6.71491 114.447 6.80443C114.319 6.89395 114.174 6.95639 114.021 6.98793L113.823 7.02747C113.794 7.03274 113.766 7.04469 113.742 7.0624C113.718 7.08011 113.698 7.1031 113.685 7.1296C113.672 7.15651 113.666 7.18572 113.666 7.21526C113.666 7.24481 113.672 7.27401 113.685 7.30092L113.82 7.65015C113.865 7.76335 113.869 7.88879 113.832 8.00486C113.795 8.12093 113.718 8.22036 113.615 8.28602C113.534 8.33606 113.466 8.4039 113.415 8.4844C113.364 8.5649 113.332 8.65593 113.322 8.75056C113.312 8.85917 113.269 8.96193 113.197 9.04418C113.125 9.12642 113.03 9.18394 112.923 9.20851L112.769 9.24145C112.661 9.26129 112.55 9.24644 112.452 9.19905C112.354 9.15166 112.273 9.0742 112.222 8.97789C112.153 8.86297 112.051 8.77226 111.928 8.7184C111.806 8.66454 111.67 8.65021 111.539 8.67741C111.408 8.70461 111.289 8.77198 111.198 8.87014C111.107 8.9683 111.049 9.09234 111.032 9.22498C111.023 9.3329 110.98 9.4351 110.909 9.51683C110.838 9.59856 110.743 9.65557 110.637 9.67964L110.482 9.71259C110.375 9.7319 110.264 9.71681 110.166 9.66948C110.068 9.62214 109.987 9.54498 109.935 9.44902C109.886 9.36731 109.819 9.29729 109.74 9.24382C109.661 9.19035 109.571 9.15469 109.477 9.13932C109.351 9.12408 109.234 9.06311 109.149 8.96787C109.064 8.87263 109.017 8.74967 109.016 8.62207V8.24648C109.015 8.2171 109.007 8.18835 108.994 8.1622C108.98 8.13606 108.961 8.11313 108.938 8.09499C108.915 8.07684 108.888 8.06391 108.859 8.05708C108.831 8.05024 108.801 8.04967 108.772 8.05539L106.338 8.55618C106.238 9.2307 105.933 9.85825 105.465 10.3534C104.996 10.8486 104.386 11.1874 103.718 11.3237C103.494 11.3695 103.265 11.3927 103.036 11.3928V11.3928ZM102.377 5.13306C101.63 5.30761 100.977 5.75881 100.549 6.3958C100.121 7.03279 99.9502 7.80826 100.071 8.56606C100.201 9.27107 100.578 9.90642 101.136 10.3572C101.693 10.808 102.393 11.0444 103.11 11.0237C103.826 11.003 104.512 10.7265 105.042 10.2443C105.573 9.76215 105.913 9.10605 106.001 8.39474V8.27613L108.687 7.73252C108.764 7.71388 108.844 7.71264 108.921 7.72887C108.999 7.7451 109.072 7.77839 109.135 7.82635C109.198 7.8743 109.25 7.9357 109.286 8.00609C109.323 8.07648 109.343 8.1541 109.346 8.2333V8.60889C109.346 8.6536 109.362 8.6967 109.391 8.73091C109.42 8.76512 109.46 8.78835 109.504 8.79668C109.648 8.81731 109.785 8.87046 109.906 8.95208C110.026 9.03371 110.126 9.14168 110.199 9.26781C110.216 9.30337 110.244 9.33261 110.279 9.3515C110.314 9.37039 110.354 9.37799 110.393 9.37324L110.545 9.34029C110.583 9.33041 110.617 9.3084 110.642 9.27754C110.667 9.24668 110.682 9.20861 110.683 9.16898C110.704 8.96388 110.789 8.7707 110.927 8.61735C111.065 8.464 111.248 8.35842 111.45 8.31588C111.651 8.27334 111.861 8.29603 112.049 8.38068C112.237 8.46533 112.393 8.60756 112.495 8.7868C112.512 8.82209 112.54 8.85122 112.574 8.87012C112.608 8.88902 112.647 8.89675 112.686 8.89223L112.844 8.85928C112.882 8.8488 112.916 8.82653 112.94 8.79572C112.964 8.76492 112.978 8.72717 112.979 8.68796C112.996 8.54331 113.045 8.40429 113.123 8.28153C113.201 8.15877 113.307 8.0555 113.431 7.97962C113.467 7.95343 113.494 7.91587 113.506 7.8729C113.519 7.82993 113.517 7.784 113.5 7.7424L113.365 7.39317C113.337 7.32117 113.325 7.24395 113.33 7.16689C113.335 7.08982 113.357 7.01479 113.394 6.94702C113.431 6.87925 113.482 6.82037 113.544 6.77452C113.607 6.72866 113.678 6.69693 113.754 6.68153L113.955 6.6387C114.063 6.61551 114.166 6.57062 114.257 6.50672C114.348 6.44281 114.426 6.3612 114.484 6.26678C114.543 6.17235 114.582 6.06705 114.599 5.95716C114.616 5.84728 114.611 5.73507 114.584 5.62725C114.52 5.41992 114.379 5.24457 114.191 5.13641C114.003 5.02824 113.781 4.99527 113.569 5.0441L105.721 6.67494L105.662 6.57281C105.347 6.0115 104.857 5.56806 104.268 5.30951C103.678 5.05095 103.02 4.99133 102.394 5.13965L102.377 5.13306ZM103.036 10.1672C102.627 10.1718 102.225 10.0573 101.88 9.83778C101.471 9.56957 101.168 9.16795 101.023 8.70141C100.877 8.23487 100.898 7.73229 101.082 7.27933C101.265 6.82638 101.6 6.4511 102.029 6.21747C102.459 5.98384 102.956 5.90632 103.436 5.99813C103.916 6.08995 104.349 6.3454 104.662 6.72096C104.974 7.09651 105.147 7.56891 105.151 8.05762C105.154 8.54633 104.988 9.0211 104.68 9.40099C104.373 9.78088 103.943 10.0424 103.465 10.1409V10.1409C103.324 10.1663 103.182 10.1773 103.04 10.1738L103.036 10.1672ZM103.036 6.27629C102.914 6.27699 102.791 6.28912 102.671 6.31253C102.441 6.36142 102.223 6.45504 102.03 6.58805C101.837 6.72105 101.671 6.89083 101.544 7.0877C101.416 7.28457 101.328 7.50467 101.286 7.73543C101.243 7.96619 101.246 8.2031 101.295 8.43263C101.344 8.66215 101.438 8.8798 101.571 9.07314C101.704 9.26648 101.873 9.43174 102.07 9.55946C102.267 9.68719 102.487 9.77489 102.718 9.81756C102.949 9.86023 103.186 9.85702 103.415 9.80813V9.80813C103.76 9.7364 104.075 9.56427 104.322 9.31343C104.569 9.0626 104.736 8.74428 104.802 8.39863C104.869 8.05297 104.831 7.69543 104.694 7.3711C104.558 7.04676 104.328 6.77014 104.035 6.57611C103.743 6.38212 103.4 6.27999 103.049 6.28288L103.036 6.27629Z" fill="white"/>
<path opacity="0.6" d="M97.6496 19.5996C99.8076 19.5996 101.557 18.4845 101.557 17.1089C101.557 15.7333 99.8076 14.6182 97.6496 14.6182C95.4916 14.6182 93.7422 15.7333 93.7422 17.1089C93.7422 18.4845 95.4916 19.5996 97.6496 19.5996Z" fill="#64BC24"/>
<path opacity="0.3" d="M91.4326 20.621C92.3187 20.621 93.0371 20.1638 93.0371 19.5997C93.0371 19.0356 92.3187 18.5784 91.4326 18.5784C90.5465 18.5784 89.8281 19.0356 89.8281 19.5997C89.8281 20.1638 90.5465 20.621 91.4326 20.621Z" fill="#64BC24"/>
</svg>
