<svg width="129" height="121" viewBox="0 0 129 121" fill="none" xmlns="http://www.w3.org/2000/svg">
<path d="M91.5241 2.18263C80.9963 -1.72492 68.2014 -0.110229 58.2937 4.83719C53.3108 7.32704 49.9909 11.086 46.022 14.8483C40.4513 20.0993 35.6137 20.6612 28.5834 22.5374C8.11552 28.0274 6.42977 50.5201 11.5936 64.8036C17.8747 82.1745 36.0303 93.1931 54.6832 90.9616C67.2455 89.4632 78.29 85.3102 86.8414 77.7212C93.5198 71.7888 92.9934 64.6777 92.622 56.4072C92.3411 50.0809 91.5757 43.1118 94.0591 37.0858C96.3197 31.5733 101.59 33.4237 105.039 29.2642C113.842 18.6525 100.385 5.47338 91.5241 2.18263Z" fill="#64BC26"/>
<path opacity="0.9" d="M91.5241 2.18263C80.9963 -1.72492 68.2014 -0.110229 58.2937 4.83719C53.3108 7.32704 49.9909 11.086 46.022 14.8483C40.4513 20.0993 35.6137 20.6612 28.5834 22.5374C8.11551 28.0274 6.42977 50.5201 11.5936 64.8036C17.8747 82.1745 36.0303 93.1931 54.6832 90.9616C67.2455 89.4632 78.29 85.3102 86.8414 77.7212C93.5198 71.7888 92.9934 64.6777 92.622 56.4072C92.3411 50.0809 91.5757 43.1118 94.0591 37.0858C96.3197 31.5733 101.59 33.4237 105.039 29.2642C113.842 18.6525 100.385 5.47338 91.5241 2.18263Z" fill="white"/>
<path d="M64.2533 120.158C99.7216 120.158 128.474 118.479 128.474 116.409C128.474 114.338 99.7216 112.659 64.2533 112.659C28.785 112.659 0.0322266 114.338 0.0322266 116.409C0.0322266 118.479 28.785 120.158 64.2533 120.158Z" fill="#F5F5F5"/>
<path d="M104.763 15.5505H36.9536C35.1902 15.5505 33.7607 16.98 33.7607 18.7434V86.5525C33.7607 88.3159 35.1902 89.7454 36.9536 89.7454H104.763C106.526 89.7454 107.956 88.3159 107.956 86.5525V18.7434C107.956 16.98 106.526 15.5505 104.763 15.5505Z" fill="#64BC24"/>
<path opacity="0.5" d="M97.0888 61.2834H44.6277C43.0362 61.2834 41.7461 62.5736 41.7461 64.1651V73.7623C41.7461 75.3538 43.0362 76.644 44.6277 76.644H97.0888C98.6803 76.644 99.9705 75.3538 99.9705 73.7623V64.1651C99.9705 62.5736 98.6803 61.2834 97.0888 61.2834Z" fill="white"/>
<path d="M52.1524 68.9701L53.8515 69.8912L53.1171 71.1671L51.3682 70.1402L51.3993 72.0073H49.9367V70.1028L48.2189 71.1298L47.5156 69.8912L49.2148 68.9701L47.5156 68.0365L48.2625 66.7544L49.9803 67.7876V65.8831H51.4429L51.4118 67.7876L53.1296 66.7544L53.8951 68.0365L52.1524 68.9701Z" fill="white"/>
<path d="M62.2409 68.9698L63.94 69.891L63.1807 71.1669L61.4629 70.1399V72.0071H60.0003V70.1026L58.2887 71.1295L57.5356 69.8536L59.2348 68.9325L57.5356 67.9989L58.2887 66.7168L60.0003 67.75V65.8455H61.4629V67.75L63.1807 66.7168L63.94 67.9989L62.2409 68.9698Z" fill="white"/>
<path d="M72.3361 68.9698L74.0352 69.891L73.2697 71.1669L71.5581 70.1399L71.5893 72.0071H70.1204V70.1026L68.4026 71.1295L67.6558 69.8536L69.3549 68.9325L67.6558 67.9989L68.4026 66.7168L70.1204 67.75V65.8455H71.5893L71.5581 67.75L73.2697 66.7168L74.0352 67.9989L72.3361 68.9698Z" fill="white"/>
<path d="M82.4315 68.9698L84.1306 69.891L83.365 71.1669L81.6472 70.1399L81.6784 72.0071H80.2158V70.1026L78.5042 71.1295L77.7573 69.8536L79.4564 68.9325L77.7573 67.9989L78.5042 66.7168L80.2158 67.75V65.8455H81.6784L81.6472 67.75L83.365 66.7168L84.1306 67.9989L82.4315 68.9698Z" fill="white"/>
<path d="M92.5202 68.9701L94.1944 69.8912L93.4351 71.1671L91.7422 70.1402L91.7733 72.0073H90.3107V70.1028L88.5929 71.1671L87.8398 69.8912L89.539 68.9701L87.8398 68.0365L88.5929 66.7544L90.3045 67.7876V65.8831H91.7671L91.736 67.7876L93.4538 66.7544L94.2131 68.0365L92.5202 68.9701Z" fill="white"/>
<path opacity="0.5" d="M82.6179 50.2718C89.1148 43.7749 89.1148 33.2412 82.6179 26.7443C76.1209 20.2474 65.5873 20.2474 59.0904 26.7443C52.5935 33.2413 52.5935 43.7749 59.0904 50.2718C65.5873 56.7687 76.1209 56.7687 82.6179 50.2718Z" fill="white"/>
<path d="M77.3899 37.5767H64.382C64.1472 37.5758 63.9145 37.6215 63.6974 37.711C63.4803 37.8004 63.2831 37.932 63.1171 38.098C62.951 38.264 62.8195 38.4613 62.73 38.6784C62.6405 38.8955 62.5949 39.1281 62.5957 39.3629V47.2859C62.5957 47.7597 62.7839 48.214 63.1189 48.549C63.4539 48.884 63.9082 49.0722 64.382 49.0722H77.3899C77.8636 49.0722 78.3179 48.884 78.6529 48.549C78.9879 48.214 79.1761 47.7597 79.1761 47.2859V39.3629C79.1769 39.1281 79.1313 38.8955 79.0418 38.6784C78.9524 38.4613 78.8208 38.264 78.6548 38.098C78.4887 37.932 78.2915 37.8004 78.0744 37.711C77.8573 37.6215 77.6247 37.5758 77.3899 37.5767V37.5767ZM72.0809 46.3959H69.6909L70.1888 43.1533C69.8684 42.9958 69.6106 42.7345 69.4576 42.4119C69.3046 42.0893 69.2653 41.7244 69.3461 41.3766C69.4269 41.0288 69.6231 40.7186 69.9027 40.4965C70.1823 40.2744 70.5288 40.1535 70.8859 40.1535C71.243 40.1535 71.5895 40.2744 71.8691 40.4965C72.1487 40.7186 72.3449 41.0288 72.4257 41.3766C72.5066 41.7244 72.4673 42.0893 72.3142 42.4119C72.1612 42.7345 71.9035 42.9958 71.583 43.1533L72.0809 46.3959Z" fill="#64BC24"/>
<path d="M67.1082 36.307L66.8654 35.0622C66.6566 34.0198 66.8705 32.9372 67.4599 32.0524C68.0493 31.1677 68.9661 30.5533 70.0085 30.3445C71.0509 30.1357 72.1335 30.3496 73.0183 30.939C73.903 31.5284 74.5174 32.4452 74.7262 33.4876L74.9689 34.7012L77.2655 34.2407L77.0166 32.9959C76.8673 32.1651 76.5538 31.3723 76.0944 30.6641C75.6351 29.9559 75.0391 29.3464 74.3413 28.8712C73.6436 28.3961 72.8581 28.0649 72.0308 27.8971C71.2035 27.7292 70.351 27.728 69.5233 27.8935C68.6955 28.0591 67.9091 28.3881 67.21 28.8612C66.5109 29.3344 65.9132 29.9422 65.4518 30.6491C64.9905 31.3561 64.6748 32.1479 64.5232 32.9783C64.3715 33.8088 64.3871 34.6611 64.5688 35.4855L64.8116 36.7302L67.1082 36.307Z" fill="#64BC24"/>
</svg>
