<svg width="246" height="246" viewBox="0 0 246 246" fill="none" xmlns="http://www.w3.org/2000/svg">
<path d="M66.4989 172.766C46.0563 163.492 31.6259 142.616 29.2151 120.294C26.8043 97.972 36.1031 74.9218 52.6786 59.778C69.2541 44.6343 92.5552 37.456 114.897 39.6552C133.017 41.4412 148.845 52.6539 159.305 67.5516C163.118 72.9636 166.193 79.03 171.113 83.4826C180.613 92.0828 195.029 93.116 205.061 101.072C216.136 109.839 219.644 126.095 215.349 139.551C211.053 153.007 200.101 163.62 187.452 169.883C174.803 176.146 160.545 178.498 146.449 179.418C139.95 179.846 84.6242 180.992 66.4989 172.766Z" fill="#64BC26"/>
<path opacity="0.9" d="M66.4989 172.766C46.0563 163.492 31.6259 142.616 29.2151 120.294C26.8043 97.972 36.1031 74.9218 52.6786 59.778C69.2541 44.6343 92.5552 37.456 114.897 39.6552C133.017 41.4412 148.845 52.6539 159.305 67.5516C163.118 72.9636 166.193 79.03 171.113 83.4826C180.613 92.0828 195.029 93.116 205.061 101.072C216.136 109.839 219.644 126.095 215.349 139.551C211.053 153.007 200.101 163.62 187.452 169.883C174.803 176.146 160.545 178.498 146.449 179.418C139.95 179.846 84.6242 180.992 66.4989 172.766Z" fill="white"/>
<path d="M120.629 208.465C173.314 208.465 216.023 205.972 216.023 202.896C216.023 199.82 173.314 197.326 120.629 197.326C67.9446 197.326 25.2354 199.82 25.2354 202.896C25.2354 205.972 67.9446 208.465 120.629 208.465Z" fill="#F5F5F5"/>
<path d="M168.682 167.196H121.308C120.066 167.214 118.833 166.971 117.691 166.483C116.548 165.995 115.521 165.273 114.675 164.363C113.829 163.454 113.183 162.377 112.779 161.202C112.375 160.027 112.221 158.781 112.329 157.543L120.25 44.3095C120.463 41.704 121.639 39.2715 123.55 37.4874C125.461 35.7032 127.968 34.6956 130.582 34.6614H177.957C179.199 34.643 180.431 34.8853 181.573 35.3727C182.715 35.8601 183.743 36.5817 184.589 37.4909C185.435 38.4002 186.081 39.4769 186.486 40.6514C186.89 41.8258 187.043 43.0721 186.936 44.3095L179.014 157.543C178.802 160.149 177.625 162.582 175.715 164.367C173.804 166.152 171.297 167.161 168.682 167.196Z" fill="#64BC26"/>
<path d="M166.222 167.196H118.848C117.606 167.214 116.373 166.971 115.231 166.483C114.088 165.995 113.061 165.273 112.215 164.363C111.369 163.454 110.723 162.377 110.319 161.202C109.915 160.027 109.761 158.781 109.869 157.543L117.79 44.3095C118.003 41.704 119.179 39.2715 121.09 37.4874C123.001 35.7032 125.508 34.6956 128.122 34.6614H175.497C176.739 34.643 177.971 34.8853 179.113 35.3727C180.256 35.8601 181.283 36.5817 182.129 37.4909C182.975 38.4002 183.621 39.4769 184.026 40.6514C184.43 41.8258 184.583 43.0721 184.476 44.3095L176.554 157.543C176.342 160.149 175.165 162.582 173.255 164.367C171.344 166.152 168.837 167.161 166.222 167.196V167.196Z" fill="#263238"/>
<path d="M175.334 36.9001H163.034C162.636 36.9064 162.252 37.0482 161.945 37.3023C161.638 37.5563 161.427 37.9073 161.347 38.2973L161.273 38.686C161.078 39.6399 160.563 40.4985 159.813 41.1195C159.063 41.7405 158.123 42.0866 157.15 42.1005H145.431C144.499 42.1157 143.597 41.7679 142.917 41.1308C142.237 40.4936 141.831 39.617 141.785 38.686V38.2973C141.765 37.9197 141.6 37.5642 141.326 37.3042C141.051 37.0442 140.687 36.8995 140.309 36.9001H128.009C125.996 36.9288 124.066 37.7061 122.595 39.0805C121.124 40.4549 120.218 42.3279 120.053 44.3342L112.132 157.568C112.049 158.522 112.168 159.482 112.479 160.387C112.79 161.292 113.288 162.122 113.94 162.823C114.592 163.524 115.383 164.08 116.263 164.456C117.143 164.833 118.092 165.02 119.05 165.007H166.424C168.438 164.978 170.368 164.2 171.839 162.825C173.31 161.449 174.216 159.575 174.38 157.568L182.301 44.3342C182.384 43.3766 182.265 42.4123 181.95 41.504C181.636 40.5957 181.134 39.7638 180.477 39.0624C179.819 38.3611 179.022 37.8061 178.136 37.4335C177.25 37.0609 176.295 36.8792 175.334 36.9001V36.9001Z" fill="#64BC26"/>
<path opacity="0.8" d="M182.252 44.3144L174.336 157.548C174.17 159.555 173.263 161.428 171.791 162.802C170.319 164.177 168.389 164.954 166.375 164.982H119.001C118.044 164.997 117.094 164.811 116.214 164.435C115.334 164.06 114.542 163.504 113.891 162.803C113.239 162.102 112.742 161.272 112.431 160.367C112.121 159.462 112.004 158.501 112.088 157.548L120.004 44.3144C120.174 42.3116 121.082 40.4435 122.552 39.0731C124.023 37.7028 125.95 36.9282 127.96 36.8999H140.26C140.639 36.8995 141.004 37.0448 141.278 37.3058C141.553 37.5669 141.717 37.9236 141.736 38.3021V38.6859C141.777 39.6212 142.18 40.5039 142.861 41.1468C143.541 41.7897 144.446 42.1423 145.382 42.1299H157.086C158.064 42.1153 159.006 41.7651 159.756 41.138C160.506 40.511 161.017 39.6452 161.204 38.6859L161.283 38.3021C161.364 37.9021 161.583 37.543 161.901 37.287C162.219 37.0309 162.617 36.894 163.025 36.8999H175.325C176.28 36.8857 177.228 37.0716 178.108 37.4457C178.987 37.8198 179.779 38.3739 180.431 39.0723C181.084 39.7706 181.583 40.5978 181.896 41.5006C182.21 42.4034 182.331 43.3619 182.252 44.3144V44.3144Z" fill="white"/>
<path d="M175.285 143.939L174.336 157.548C174.17 159.555 173.263 161.428 171.791 162.802C170.319 164.177 168.389 164.954 166.375 164.982H119.001C118.044 164.997 117.094 164.811 116.214 164.435C115.334 164.06 114.542 163.504 113.891 162.803C113.239 162.102 112.742 161.272 112.431 160.367C112.121 159.462 112.004 158.501 112.088 157.548L113.038 143.939H175.285Z" fill="#263238"/>
<path opacity="0.5" d="M175.285 143.939L174.336 157.548C174.17 159.555 173.263 161.428 171.791 162.802C170.319 164.177 168.389 164.954 166.375 164.982H119.001C118.044 164.997 117.094 164.811 116.214 164.435C115.334 164.06 114.542 163.504 113.891 162.803C113.239 162.102 112.742 161.272 112.431 160.367C112.121 159.462 112.004 158.501 112.088 157.548L113.038 143.939H175.285Z" fill="white"/>
<g opacity="0.7">
<path opacity="0.7" d="M148.693 38.1299C148.674 38.3803 148.563 38.6147 148.381 38.7882C148.199 38.9616 147.96 39.0618 147.709 39.0696C147.588 39.0722 147.467 39.0491 147.356 39.0019C147.244 38.9548 147.143 38.8845 147.061 38.7958C146.978 38.7071 146.915 38.6019 146.876 38.4871C146.837 38.3724 146.822 38.2506 146.833 38.1299C146.853 37.8795 146.964 37.645 147.145 37.4716C147.327 37.2981 147.566 37.1979 147.817 37.1901C147.938 37.1875 148.059 37.2106 148.171 37.2578C148.282 37.305 148.383 37.3752 148.465 37.4639C148.548 37.5527 148.611 37.6578 148.65 37.7726C148.69 37.8874 148.704 38.0091 148.693 38.1299V38.1299Z" fill="black"/>
<path opacity="0.7" d="M155.433 37.1902H152.206C151.951 37.193 151.706 37.2909 151.519 37.4647C151.333 37.6386 151.218 37.8758 151.197 38.1299C151.187 38.2505 151.202 38.3719 151.241 38.4863C151.281 38.6008 151.344 38.7056 151.426 38.7942C151.509 38.8827 151.609 38.953 151.72 39.0004C151.832 39.0479 151.952 39.0714 152.073 39.0696H155.3C155.551 39.0619 155.791 38.9616 155.972 38.7882C156.154 38.6147 156.265 38.3803 156.284 38.1299C156.295 38.0112 156.281 37.8916 156.244 37.7785C156.206 37.6655 156.145 37.5615 156.065 37.4732C155.985 37.3848 155.888 37.3141 155.779 37.2654C155.67 37.2166 155.552 37.191 155.433 37.1902V37.1902Z" fill="black"/>
</g>
<path d="M125.318 42.061H126.312L126.381 41.0623H125.387L125.318 42.061Z" fill="#64BC26"/>
<path d="M127.379 41.0622L127.31 42.061H128.304L128.378 41.0622L128.447 40.0684H127.448L127.379 41.0622Z" fill="#64BC26"/>
<path d="M129.509 39.0698L129.44 40.0686L129.371 41.0624L129.302 42.0612H130.296L130.37 41.0624L130.439 40.0686L130.508 39.0698H129.509Z" fill="#64BC26"/>
<path d="M172.348 39.1387L172.298 39.8521H171.806L171.708 41.3281H172.2L172.151 42.0611H176.535L176.736 39.1387H172.348ZM174.168 41.3281H172.692L172.795 39.8521H174.271L174.168 41.3281Z" fill="#64BC26"/>
<path d="M128.142 95.6054H127.807C127.754 95.6063 127.701 95.596 127.652 95.5751C127.603 95.5543 127.559 95.5233 127.523 95.4844C127.487 95.4454 127.459 95.3992 127.442 95.3488C127.425 95.2985 127.419 95.2451 127.423 95.1921L127.915 88.1417C127.973 87.468 128.278 86.8397 128.773 86.3787C129.268 85.9177 129.916 85.657 130.592 85.6473H137.637C137.691 85.6464 137.743 85.6567 137.792 85.6775C137.841 85.6984 137.885 85.7293 137.921 85.7683C137.958 85.8073 137.985 85.8534 138.002 85.9038C138.02 85.9542 138.026 86.0076 138.021 86.0606V86.3902C138.014 86.5024 137.964 86.6076 137.881 86.6844C137.799 86.7611 137.691 86.8037 137.578 86.8035H130.508C130.147 86.8127 129.802 86.9541 129.538 87.2007C129.274 87.4473 129.11 87.7821 129.077 88.1417L128.585 95.1921C128.575 95.3035 128.524 95.4074 128.442 95.4837C128.361 95.56 128.254 95.6033 128.142 95.6054Z" fill="#64BC26"/>
<path d="M154.867 124.702L154.891 124.368C154.9 124.257 154.95 124.153 155.031 124.077C155.112 124 155.218 123.957 155.329 123.955H162.36C162.722 123.946 163.068 123.806 163.333 123.559C163.598 123.312 163.763 122.977 163.797 122.616L164.289 115.566C164.297 115.454 164.348 115.35 164.43 115.273C164.512 115.196 164.619 115.154 164.731 115.153H165.061C165.114 115.152 165.167 115.162 165.217 115.183C165.266 115.204 165.31 115.235 165.347 115.273C165.383 115.312 165.411 115.358 165.429 115.409C165.447 115.459 165.454 115.513 165.45 115.566L164.958 122.616C164.903 123.29 164.599 123.92 164.105 124.382C163.611 124.844 162.963 125.106 162.286 125.116H155.251C155.198 125.116 155.145 125.105 155.097 125.084C155.048 125.063 155.004 125.032 154.968 124.993C154.932 124.954 154.905 124.908 154.887 124.858C154.87 124.808 154.863 124.755 154.867 124.702V124.702Z" fill="#64BC26"/>
<path d="M166.449 95.6054H166.115C166.062 95.6063 166.009 95.596 165.96 95.5752C165.911 95.5543 165.867 95.5234 165.831 95.4844C165.794 95.4454 165.767 95.3993 165.75 95.3489C165.732 95.2985 165.726 95.2451 165.731 95.1921L166.223 88.1959C166.25 87.9166 166.188 87.636 166.046 87.3939C165.934 87.2121 165.777 87.0625 165.59 86.9598C165.402 86.8572 165.192 86.805 164.978 86.8085H157.933C157.88 86.8086 157.827 86.7978 157.779 86.7767C157.73 86.7556 157.686 86.7247 157.65 86.6858C157.614 86.647 157.587 86.6011 157.569 86.5511C157.552 86.5011 157.545 86.448 157.549 86.3952L157.574 86.0606C157.582 85.9488 157.632 85.8443 157.714 85.7677C157.796 85.6912 157.904 85.6482 158.016 85.6473H164.968C165.572 85.6314 166.16 85.838 166.621 86.2279C166.89 86.4656 167.1 86.7629 167.233 87.0961C167.366 87.4293 167.42 87.7891 167.389 88.1467L166.897 95.1921C166.887 95.3044 166.836 95.409 166.753 95.4854C166.67 95.5618 166.562 95.6046 166.449 95.6054V95.6054Z" fill="#64BC26"/>
<path d="M127.827 125.116C127.468 125.12 127.113 125.041 126.79 124.885C126.468 124.729 126.186 124.5 125.967 124.215C125.612 123.726 125.449 123.124 125.509 122.523L126.001 115.566C126.011 115.454 126.062 115.351 126.144 115.274C126.225 115.198 126.332 115.155 126.444 115.153H126.779C126.832 115.152 126.884 115.163 126.933 115.184C126.981 115.205 127.025 115.236 127.061 115.275C127.097 115.314 127.125 115.36 127.142 115.41C127.16 115.46 127.167 115.513 127.163 115.566L126.671 122.572C126.643 122.85 126.705 123.129 126.848 123.369C126.959 123.55 127.116 123.699 127.302 123.802C127.488 123.904 127.698 123.957 127.91 123.954H134.956C135.009 123.954 135.062 123.964 135.111 123.985C135.161 124.006 135.205 124.036 135.241 124.075C135.278 124.114 135.306 124.16 135.324 124.211C135.342 124.261 135.349 124.315 135.345 124.368V124.702C135.335 124.814 135.284 124.918 135.202 124.994C135.121 125.07 135.014 125.114 134.902 125.116H127.827Z" fill="#64BC26"/>
<path d="M180.524 68.993H118.109L119.58 47.9502H181.996L180.524 68.993Z" fill="#64BC26"/>
<path opacity="0.2" d="M112.216 157.15C112.138 158.116 112.263 159.088 112.584 160.002C112.906 160.917 113.415 161.754 114.081 162.458L180.393 38.4744C179.746 37.8316 178.978 37.3236 178.133 36.9798C177.289 36.6361 176.384 36.4635 175.473 36.472H128.093C126.08 36.503 124.151 37.2818 122.68 38.6568C121.21 40.0318 120.303 41.9047 120.137 43.911L112.216 157.15Z" fill="white"/>
<path d="M134.946 51.6687L134 65.2544L134.491 65.2885L135.437 51.7028L134.946 51.6687Z" fill="#E0E0E0"/>
<path d="M150.51 51.6667L149.564 65.2524L150.055 65.2866L151 51.7009L150.51 51.6667Z" fill="#E0E0E0"/>
<path d="M166.05 51.6575L165.107 65.2434L165.598 65.2775L166.541 51.6916L166.05 51.6575Z" fill="#E0E0E0"/>
<path d="M93.7806 201.922L97.6182 200.997L95.6354 192.082L91.8027 193.007L93.7806 201.922Z" fill="#FF887B"/>
<path d="M97.4709 200.072L93.279 201.085C93.2041 201.103 93.1375 201.145 93.0907 201.206C93.044 201.268 93.0201 201.343 93.0232 201.42L93.1708 204.982C93.1746 205.06 93.1936 205.136 93.2269 205.206C93.2601 205.276 93.3068 205.339 93.3644 205.391C93.422 205.443 93.4893 205.483 93.5624 205.509C93.6356 205.535 93.7132 205.547 93.7907 205.543C93.8283 205.548 93.8663 205.548 93.9039 205.543C95.3799 205.149 97.5644 204.534 99.4684 204.067C101.682 203.531 101.894 203.609 104.497 202.98C106.071 202.601 106.081 200.913 105.387 200.933C102.214 201.002 101.481 201.105 98.4696 200.136C98.1488 200.024 97.8034 200.002 97.4709 200.072V200.072Z" fill="#263238"/>
<path opacity="0.2" d="M95.6354 192.087L96.6588 196.682L92.8212 197.607L91.8027 193.012L95.6354 192.087Z" fill="black"/>
<path d="M97.9532 199.821C97.9383 199.821 97.9235 199.819 97.9099 199.813C97.8962 199.807 97.8841 199.798 97.8745 199.786C97.8658 199.778 97.859 199.768 97.8543 199.757C97.8496 199.746 97.8472 199.734 97.8472 199.722C97.8472 199.71 97.8496 199.699 97.8543 199.688C97.859 199.677 97.8658 199.667 97.8745 199.658C98.0221 199.526 99.3505 198.394 99.8671 198.542C99.9155 198.556 99.9597 198.581 99.9958 198.616C100.032 198.652 100.059 198.695 100.074 198.743C100.11 198.822 100.124 198.91 100.115 198.996C100.107 199.082 100.075 199.165 100.025 199.235C99.7964 199.482 99.4909 199.643 99.1586 199.693C98.7611 199.769 98.3579 199.812 97.9532 199.821ZM98.1992 199.624C99.07 199.565 99.6752 199.378 99.8572 199.132C99.8895 199.087 99.9092 199.034 99.9144 198.978C99.9196 198.923 99.91 198.868 99.8868 198.817C99.8823 198.797 99.8726 198.779 99.8588 198.765C99.845 198.75 99.8274 198.739 99.808 198.733C99.7496 198.721 99.6893 198.721 99.6309 198.733C99.1065 198.947 98.6223 199.248 98.1992 199.624V199.624Z" fill="#64BC26"/>
<path d="M97.9086 199.826C97.8947 199.818 97.8827 199.807 97.8733 199.795C97.864 199.782 97.8575 199.767 97.8544 199.752C97.8544 199.712 97.6921 198.669 98.0562 198.168C98.1076 198.092 98.1747 198.029 98.2528 197.983C98.3309 197.936 98.4183 197.907 98.5088 197.897C98.7597 197.858 98.8827 197.966 98.9073 198.059C99.0894 198.473 98.4153 199.496 98.007 199.816H97.9676C97.9491 199.824 97.9288 199.827 97.9086 199.826V199.826ZM98.2087 198.281C98.0182 198.677 97.9562 199.122 98.0316 199.555C98.4202 199.166 98.863 198.379 98.7548 198.138C98.7548 198.113 98.7154 198.04 98.5531 198.079H98.499C98.4375 198.09 98.3787 198.112 98.3263 198.146C98.2739 198.18 98.2289 198.224 98.1939 198.276L98.2087 198.281Z" fill="#64BC26"/>
<path d="M64.2656 201.154L68.1623 201.764L69.7416 192.77L65.84 192.155L64.2656 201.154Z" fill="#FF887B"/>
<path d="M68.1966 201.307L63.9309 200.642C63.8551 200.63 63.7772 200.644 63.7107 200.683C63.6442 200.721 63.5933 200.782 63.5669 200.854L62.3418 204.2C62.3146 204.273 62.3023 204.351 62.3057 204.429C62.3091 204.507 62.3281 204.584 62.3616 204.654C62.3951 204.725 62.4423 204.788 62.5006 204.84C62.5589 204.892 62.627 204.932 62.7009 204.957C62.7356 204.972 62.772 204.982 62.8092 204.987C64.3491 205.198 66.5779 205.454 68.5115 205.759C70.7648 206.114 70.9321 206.251 73.5741 206.679C75.1731 206.93 75.8275 205.376 75.1781 205.125C72.2261 203.978 71.5077 203.791 69.092 201.745C68.8381 201.521 68.5289 201.37 68.1966 201.307V201.307Z" fill="#263238"/>
<path opacity="0.2" d="M69.7415 192.77L68.8214 197.996L64.9248 197.385L65.8399 192.16L69.7415 192.77Z" fill="black"/>
<path d="M68.7326 201.257C68.7182 201.254 68.705 201.247 68.6946 201.236C68.6842 201.226 68.6769 201.213 68.6735 201.198C68.6698 201.187 68.6683 201.175 68.6692 201.163C68.6702 201.151 68.6735 201.14 68.679 201.129C68.6845 201.119 68.6921 201.109 68.7013 201.102C68.7105 201.094 68.7212 201.089 68.7326 201.085C68.9195 201.021 70.5727 200.475 70.9958 200.815C71.0367 200.845 71.0691 200.885 71.0898 200.932C71.1105 200.979 71.1188 201.03 71.1139 201.08C71.1146 201.164 71.0942 201.246 71.0546 201.319C71.015 201.392 70.9575 201.454 70.8876 201.499C70.5795 201.64 70.232 201.672 69.9036 201.587C69.5039 201.513 69.112 201.403 68.7326 201.257ZM69.0327 201.174C69.8642 201.449 70.5087 201.513 70.7646 201.336C70.8107 201.307 70.8485 201.266 70.8743 201.218C70.9001 201.169 70.9132 201.115 70.9122 201.061C70.9141 201.041 70.9116 201.021 70.9048 201.002C70.898 200.983 70.8871 200.966 70.8728 200.952C70.8208 200.923 70.7642 200.903 70.7055 200.893C70.1361 200.893 69.5707 200.987 69.0327 201.174V201.174Z" fill="#64BC26"/>
<path d="M68.6788 201.228C68.6685 201.215 68.6611 201.2 68.6569 201.184C68.6527 201.168 68.6517 201.151 68.6541 201.134C68.6541 201.095 68.9149 200.072 69.4463 199.747C69.5229 199.698 69.6088 199.666 69.6987 199.652C69.7885 199.639 69.8802 199.644 69.9678 199.668C70.2187 199.732 70.2925 199.88 70.2777 199.973C70.2777 200.426 69.2691 201.115 68.7722 201.252H68.7329C68.7127 201.25 68.6938 201.241 68.6788 201.228V201.228ZM69.5447 199.909C69.2182 200.204 68.9912 200.592 68.8952 201.021C69.3872 200.81 70.1154 200.254 70.1055 199.988C70.1055 199.988 70.1055 199.88 69.9432 199.855H69.8841C69.7658 199.838 69.6451 199.864 69.5447 199.929V199.909Z" fill="#64BC26"/>
<path d="M83.4734 144.122C86.5484 144.289 89.3774 144.486 92.4622 144.382C92.7673 140.791 92.2999 135.708 91.0404 132.333C88.4967 130.975 85.5201 131.841 82.7944 132.801L83.4734 144.122Z" fill="#64BC26"/>
<path opacity="0.2" d="M83.4734 144.122C86.5484 144.289 89.3774 144.486 92.4622 144.382C92.7673 140.791 92.2999 135.708 91.0404 132.333C88.4967 130.975 85.5201 131.841 82.7944 132.801L83.4734 144.122Z" fill="black"/>
<path opacity="0.2" d="M82.7944 132.85L83.8276 133.297L85.2692 143.167L92.5163 143.605L92.4622 144.431L83.4734 144.171L82.7944 132.85Z" fill="black"/>
<path opacity="0.2" d="M91.0203 132.348L91.4582 133.691L88.9343 134.631L84.7916 133.981L82.7744 132.815C84.1438 132.183 85.6116 131.79 87.1139 131.654C89.7362 131.364 91.0203 132.348 91.0203 132.348Z" fill="white"/>
<path d="M88.0246 116.038L93.653 163.501L97.8301 193.43C97.8958 193.792 97.818 194.165 97.6132 194.471C97.4085 194.777 97.0928 194.991 96.733 195.068L92.0885 196.254C91.7443 196.279 91.4031 196.175 91.1306 195.964C90.8581 195.752 90.6735 195.447 90.6125 195.107C89.1365 188.923 85.1709 176.854 84.4231 165.002C84.4231 165.002 76.5511 134.769 74.9324 125.416L74.4404 116.963L88.0246 116.038Z" fill="#64BC26"/>
<path opacity="0.2" d="M81.0479 127.502C81.0479 127.502 82.4796 140.958 81.0479 151.895C81.0479 151.895 78.0221 139.344 76.6494 134.39L81.0479 127.502Z" fill="black"/>
<path d="M82.1645 113.731L77.4216 167.28L71.3995 195.865C71.3779 196.034 71.3216 196.197 71.2343 196.343C71.147 196.49 71.0304 196.616 70.8919 196.716C70.7534 196.815 70.5959 196.885 70.4293 196.92C70.2627 196.956 70.0905 196.957 69.9235 196.923L64.8165 195.86C64.4795 195.76 64.1885 195.544 63.9943 195.251C63.8001 194.958 63.715 194.606 63.7538 194.256C64.2458 188.082 63.9506 178.02 66.9617 167.108C66.9617 167.108 67.3011 130.208 68.5902 113.829L82.1645 113.731Z" fill="#64BC26"/>
<path d="M111.891 89.6128L112.919 88.186L116.649 90.4788C115.891 91.123 115.066 91.6838 114.189 92.1516C113.895 92.3013 113.564 92.3642 113.235 92.3328C112.907 92.3014 112.594 92.1771 112.334 91.9744L112.196 91.8662C111.862 91.6038 111.644 91.2219 111.587 90.8013C111.53 90.3807 111.639 89.9545 111.891 89.6128V89.6128Z" fill="#FF8B7B"/>
<path d="M115.935 86.0752L117.889 89.4503L116.654 90.4835L112.924 88.1859L115.935 86.0752Z" fill="#FF8B7B"/>
<path d="M86.2679 93.6473C90.1654 94.5512 94.1066 95.2556 98.0759 95.758C100.044 96.0139 108.437 94.0852 112.054 93.4555C112.176 93.4619 112.299 93.4364 112.409 93.3814C112.519 93.3265 112.613 93.2441 112.682 93.142C112.751 93.04 112.792 92.922 112.802 92.7993C112.812 92.6766 112.789 92.5535 112.737 92.4419L112.295 89.2882C112.287 88.9828 112.178 88.6887 111.985 88.4518C111.804 88.3257 111.597 88.2431 111.379 88.2107C111.162 88.1782 110.939 88.1968 110.73 88.2648C105.943 89.052 99.1042 89.544 99.1042 89.544C95.7192 89.052 92.0932 87.6498 88.9985 86.2526C79.7636 82.1001 84.2162 93.116 86.2679 93.6473Z" fill="#263238"/>
<path opacity="0.1" d="M86.2679 93.6473C90.1654 94.5512 94.1066 95.2556 98.0759 95.758C100.044 96.0139 108.437 94.0852 112.054 93.4555C112.176 93.4619 112.299 93.4364 112.409 93.3814C112.519 93.3265 112.613 93.2441 112.682 93.142C112.751 93.04 112.792 92.922 112.802 92.7993C112.812 92.6766 112.789 92.5535 112.737 92.4419L112.295 89.2882C112.287 88.9828 112.178 88.6887 111.985 88.4518C111.804 88.3257 111.597 88.2431 111.379 88.2107C111.162 88.1782 110.939 88.1968 110.73 88.2648C105.943 89.052 99.1042 89.544 99.1042 89.544C95.7192 89.052 92.0932 87.6498 88.9985 86.2526C79.7636 82.1001 84.2162 93.116 86.2679 93.6473Z" fill="black"/>
<path d="M119.158 92.373L114.917 91.5317L117.514 82.6265L121.75 83.4678L119.158 92.373Z" fill="#64BC26"/>
<path d="M122.621 83.1479L119.719 93.1109C119.683 93.2275 119.606 93.3268 119.501 93.3895C119.396 93.4522 119.272 93.4739 119.153 93.4504L118.907 93.4011C119.026 93.4234 119.149 93.4011 119.252 93.3384C119.355 93.2758 119.432 93.1773 119.468 93.0617L122.37 83.0938C122.389 83.0288 122.393 82.9607 122.384 82.8938C122.375 82.8269 122.352 82.7626 122.317 82.7049C122.282 82.6473 122.236 82.5974 122.18 82.5585C122.125 82.5196 122.063 82.4924 121.997 82.4788L122.243 82.528C122.31 82.541 122.373 82.5678 122.429 82.6068C122.486 82.6458 122.533 82.6961 122.569 82.7544C122.604 82.8127 122.627 82.8778 122.636 82.9456C122.646 83.0133 122.64 83.0822 122.621 83.1479V83.1479Z" fill="#64BC26"/>
<path opacity="0.3" d="M122.621 83.1479L119.719 93.1109C119.683 93.2275 119.606 93.3268 119.501 93.3895C119.396 93.4522 119.272 93.4739 119.153 93.4504L118.907 93.4011C119.026 93.4234 119.149 93.4011 119.252 93.3384C119.355 93.2758 119.432 93.1773 119.468 93.0617L122.37 83.0938C122.389 83.0288 122.393 82.9607 122.384 82.8938C122.375 82.8269 122.352 82.7626 122.317 82.7049C122.282 82.6473 122.236 82.5974 122.18 82.5585C122.125 82.5196 122.063 82.4924 121.997 82.4788L122.243 82.528C122.31 82.541 122.373 82.5678 122.429 82.6068C122.486 82.6458 122.533 82.6961 122.569 82.7544C122.604 82.8127 122.627 82.8778 122.636 82.9456C122.646 83.0133 122.64 83.0822 122.621 83.1479V83.1479Z" fill="black"/>
<path d="M122.016 82.4592L117.79 81.6228C117.671 81.5992 117.546 81.6209 117.442 81.6836C117.337 81.7464 117.26 81.8457 117.224 81.9623L114.322 91.9253C114.303 91.9903 114.299 92.0583 114.308 92.1252C114.317 92.1921 114.34 92.2564 114.375 92.3141C114.41 92.3718 114.456 92.4216 114.512 92.4606C114.567 92.4995 114.629 92.5266 114.696 92.5403L118.927 93.3816C119.046 93.4038 119.168 93.3815 119.272 93.3189C119.375 93.2563 119.452 93.1578 119.488 93.0421L122.39 83.0742C122.409 83.0092 122.413 82.9412 122.404 82.8743C122.395 82.8074 122.372 82.7431 122.337 82.6854C122.302 82.6277 122.256 82.5779 122.2 82.5389C122.145 82.5 122.083 82.4729 122.016 82.4592ZM119.178 92.373L114.922 91.512L117.515 82.6068L121.751 83.4481L119.178 92.373Z" fill="#64BC26"/>
<path d="M121.75 83.4678L119.158 92.373L114.917 91.5317L117.514 82.6265L121.75 83.4678Z" fill="#64BC26"/>
<path opacity="0.7" d="M121.75 83.4678L119.158 92.373L114.917 91.5317L117.514 82.6265L121.75 83.4678Z" fill="white"/>
<path d="M114.784 86.8821L115.739 85.8735C115.759 85.8504 115.786 85.8332 115.815 85.8236C115.845 85.814 115.877 85.8123 115.907 85.8188C115.937 85.8253 115.966 85.8397 115.989 85.8605C116.012 85.8814 116.029 85.9079 116.039 85.9375L116.171 86.3213C116.211 86.4408 116.224 86.5678 116.209 86.6928C116.193 86.8179 116.15 86.938 116.083 87.0445L114.636 89.3225L112.929 88.1859L114.784 86.8821Z" fill="#FF8B7B"/>
<path d="M88.7376 99.1477C88.8114 112.102 89.5838 116.968 87.6601 116.963C84.0833 116.963 71.0157 117.455 70.2531 117.327C64.6099 116.525 68.0736 103.679 67.9949 101.667C67.9457 100.427 67.8423 99.2068 67.68 97.9719C67.5859 97.2345 67.4211 96.5079 67.188 95.8021C66.7747 94.6164 66.1056 93.5881 64.9543 93.2093C63.9211 92.8649 62.7895 93.165 61.7022 93.0912C60.6149 93.0174 59.3799 92.2647 59.5128 91.1872C59.628 90.6815 59.9001 90.2252 60.2901 89.8834C61.8744 88.1958 63.6554 86.523 64.2803 84.2992C64.5459 83.3693 64.6001 82.3312 65.1265 81.5243C67.3011 78.1836 72.5065 81.4407 75.0797 82.3951C76.7377 83.0052 78.2383 83.9154 79.8865 84.5304C81.6134 85.1799 84.6491 85.3324 86.8631 85.4209C88.8606 85.4997 88.7376 99.1477 88.7376 99.1477Z" fill="#263238"/>
<path d="M74.0615 77.8245C74.6076 80.0089 74.4846 83.5661 74.4994 86.0261C74.4994 88.309 80.4034 90.2081 80.4034 90.2081C80.4034 90.2081 82.8388 88.1515 80.9544 86.6165C79.3751 85.3275 79.1537 83.8269 79.4784 82.0212L74.0615 77.8245Z" fill="#FF8B7B"/>
<path opacity="0.2" d="M76.2901 79.5464L79.5127 82.0064C79.4111 82.5075 79.3486 83.0158 79.3257 83.5267C78.1547 83.4184 76.4869 82.2229 76.295 81.0125C76.2048 80.5281 76.2031 80.0314 76.2901 79.5464V79.5464Z" fill="black"/>
<path d="M73.5248 73.7262C73.943 77.4211 74.0168 79.6006 75.9848 81.4112C78.9368 84.127 83.4386 82.1935 84.1323 78.4592C84.7572 75.089 83.965 69.6032 80.2603 68.324C79.445 68.0364 78.5698 67.962 77.7177 68.1078C76.8656 68.2536 76.0649 68.6147 75.3916 69.1569C74.7182 69.6991 74.1947 70.4044 73.8705 71.2058C73.5464 72.0072 73.4325 72.8782 73.5396 73.736L73.5248 73.7262Z" fill="#FF8B7B"/>
<path d="M84.3101 77.3472C84.5069 78.7887 84.748 81.3373 85.176 82.7592C82.6521 82.7592 80.256 82.892 77.7173 82.8822C77.368 82.6165 74.2733 79.9302 74.4996 79.6793C75.3557 78.7986 76.4037 77.8047 75.4098 76.8109C75.1048 76.5059 75.2671 75.9597 75.2229 75.5366C76.138 76.9142 79.6509 77.9081 81.2548 77.6129L84.3101 77.3472Z" fill="#263238"/>
<path d="M80.3539 78.1001C79.8176 78.2919 80.595 79.0841 81.4461 79.1283H82.9664C83.149 79.1355 83.3301 79.0936 83.491 79.0071C83.652 78.9206 83.7868 78.7926 83.8815 78.6363C84.039 78.3461 84.034 78.0361 83.793 77.9475C83.4247 77.838 83.0384 77.8028 82.6564 77.8442C81.882 77.8464 81.11 77.9322 80.3539 78.1001V78.1001Z" fill="#FF8B7B"/>
<path d="M83.1483 78.4296C82.7319 78.556 82.2913 78.5809 81.8634 78.5021C81.4354 78.4234 81.0325 78.2433 80.6883 77.9769C80.6796 77.9683 80.6726 77.9579 80.6679 77.9465C80.6631 77.9351 80.6606 77.9229 80.6606 77.9105C80.6606 77.8982 80.6631 77.8859 80.6679 77.8745C80.6726 77.8631 80.6796 77.8528 80.6883 77.8441C80.7044 77.8335 80.7232 77.8279 80.7425 77.8279C80.7617 77.8279 80.7805 77.8335 80.7966 77.8441C81.122 78.0906 81.501 78.257 81.9028 78.3296C82.3046 78.4023 82.7178 78.3792 83.109 78.2623C83.1213 78.2586 83.1342 78.2575 83.1469 78.259C83.1596 78.2605 83.1719 78.2646 83.183 78.2711C83.1941 78.2775 83.2037 78.2862 83.2113 78.2966C83.2189 78.3069 83.2242 78.3187 83.2271 78.3312V78.3312C83.2316 78.3546 83.2269 78.3789 83.2141 78.399C83.2013 78.4191 83.1813 78.4336 83.1582 78.4394L83.1483 78.4296Z" fill="#263238"/>
<path d="M82.4993 76.3286C81.6983 76.2997 80.904 76.483 80.1967 76.86C79.4851 77.2326 78.6764 77.3786 77.8794 77.2782C78.5536 77.7829 79.3501 78.0988 80.1869 78.1933C81.0466 78.2994 81.9183 78.1416 82.6862 77.7407C83.1335 78.0143 83.6379 78.181 84.1601 78.228C84.6824 78.2749 85.2084 78.2007 85.6973 78.0113C84.7576 78.2376 84.3836 76.9584 83.4144 76.5107C83.1173 76.4152 82.8103 76.3541 82.4993 76.3286V76.3286Z" fill="#263238"/>
<path opacity="0.1" d="M82.4993 76.3286C81.6983 76.2997 80.904 76.483 80.1967 76.86C79.4851 77.2326 78.6764 77.3786 77.8794 77.2782C78.5536 77.7829 79.3501 78.0988 80.1869 78.1933C81.0466 78.2994 81.9183 78.1416 82.6862 77.7407C83.1335 78.0143 83.6379 78.181 84.1601 78.228C84.6824 78.2749 85.2084 78.2007 85.6973 78.0113C84.7576 78.2376 84.3836 76.9584 83.4144 76.5107C83.1173 76.4152 82.8103 76.3541 82.4993 76.3286V76.3286Z" fill="black"/>
<path d="M76.6987 72.8652C76.9398 73.2779 77.0592 73.7504 77.0431 74.2281C76.6513 74.6131 76.3076 75.0443 76.0198 75.5122C75.6016 76.201 75.4687 77.062 74.9324 77.6671C74.9324 77.6671 74.8144 77.7409 74.834 77.7311C74.4016 76.9318 74.0107 76.1108 73.6631 75.2711C74.5184 74.2893 75.5475 73.4737 76.6987 72.8652V72.8652Z" fill="#263238"/>
<path d="M72.1471 77.3324C72.5576 78.1746 73.2845 78.8202 74.1693 79.1283C75.3402 79.5268 75.9995 78.4936 75.724 77.3374C75.4829 76.314 74.5776 74.8774 73.3722 74.961C73.1081 74.9867 72.8545 75.0782 72.6348 75.2271C72.4151 75.376 72.2361 75.5775 72.1143 75.8133C71.9925 76.0491 71.9316 76.3117 71.9374 76.5771C71.9431 76.8424 72.0152 77.1021 72.1471 77.3324Z" fill="#FF8B7B"/>
<path d="M79.8179 74.4789C79.8179 74.7791 80.0049 75.0152 80.2066 75.0054C80.4083 74.9955 80.551 74.7446 80.5313 74.4445C80.5116 74.1444 80.3444 73.9033 80.1476 73.9131C79.9508 73.923 79.8032 74.1739 79.8179 74.4789Z" fill="#263238"/>
<path d="M82.9718 74.2919C82.9718 74.5969 83.1587 74.8331 83.3555 74.8184C83.5523 74.8036 83.6999 74.5576 83.6852 74.2525C83.6704 73.9475 83.4982 73.7212 83.2965 73.731C83.0948 73.7409 82.957 74.0016 82.9718 74.2919Z" fill="#263238"/>
<path d="M81.9775 74.1147C82.5433 74.9315 83.1977 75.3103 83.9455 75.9401C83.5421 76.5501 82.5483 76.4763 82.5483 76.4763L81.9775 74.1147Z" fill="#FF5652"/>
<path d="M78.7205 73.4308C78.7531 73.4362 78.7866 73.4316 78.8164 73.4176C78.8463 73.4035 78.8712 73.3806 78.8878 73.3521C79.0093 73.1654 79.1726 73.0096 79.3647 72.8969C79.5568 72.7841 79.7725 72.7177 79.9948 72.7026C80.0414 72.7027 80.0863 72.6849 80.1201 72.6528C80.154 72.6208 80.1743 72.577 80.1768 72.5304C80.1782 72.507 80.1747 72.4835 80.1666 72.4615C80.1586 72.4395 80.1461 72.4193 80.13 72.4023C80.1139 72.3852 80.0944 72.3716 80.0729 72.3624C80.0513 72.3531 80.0281 72.3484 80.0046 72.3484V72.3484C79.7227 72.3607 79.4478 72.4404 79.203 72.5807C78.9581 72.7211 78.7505 72.9181 78.5975 73.1553C78.5721 73.1942 78.5625 73.2413 78.5708 73.2871C78.579 73.3328 78.6044 73.3737 78.6418 73.4013C78.6658 73.4162 78.6926 73.4262 78.7205 73.4308V73.4308Z" fill="#263238"/>
<path d="M84.015 73.2587C84.0487 73.2687 84.0846 73.2687 84.1183 73.2587C84.1396 73.2484 84.1585 73.2337 84.1739 73.2158C84.1892 73.1978 84.2007 73.1768 84.2077 73.1542C84.2146 73.1316 84.2168 73.1078 84.2141 73.0843C84.2114 73.0608 84.2039 73.0381 84.1921 73.0176C84.0605 72.7648 83.8696 72.5476 83.6357 72.3848C83.4017 72.2219 83.1317 72.1183 82.8489 72.0828C82.8014 72.0801 82.7547 72.0961 82.7189 72.1273C82.683 72.1586 82.6608 72.2027 82.657 72.2501C82.6543 72.2963 82.6698 72.3417 82.7001 72.3767C82.7305 72.4116 82.7733 72.4333 82.8194 72.4371V72.4371C83.0394 72.4721 83.2481 72.5585 83.4285 72.6893C83.6089 72.8201 83.7559 72.9916 83.8575 73.1898C83.8771 73.2122 83.9013 73.23 83.9285 73.2419C83.9558 73.2538 83.9853 73.2595 84.015 73.2587V73.2587Z" fill="#263238"/>
<path opacity="0.4" d="M70.6664 90.2278C70.6664 90.2278 70.8632 96.8796 69.5447 99.9595C69.0231 101.19 68.5164 101.814 68.0932 102.115C67.9014 100.885 67.6455 99.6545 67.3405 98.4786C67.1622 97.7589 66.9134 97.0585 66.5976 96.3876L66.4795 94.8477L70.6664 90.2278Z" fill="black"/>
<path opacity="0.2" d="M71.8324 118.045C71.7881 118.257 71.6602 119.354 71.4929 120.087C71.0981 121.493 70.2043 122.707 68.9788 123.502C67.9948 124.023 68.5655 119.443 68.5655 119.443L68.7524 117.863L71.8324 118.045Z" fill="black"/>
<path d="M67.7931 118.045L71.5766 119.767C71.3157 121.189 70.5041 122.449 69.3183 123.275L68.9936 123.502C68.9936 123.502 65.3183 119.999 65.8152 118.946L67.7931 118.045Z" fill="#FF8B7B"/>
<path d="M60.27 106.631C60.27 112.072 62.1199 114.09 63.714 118.764C63.8711 119.227 64.1948 119.615 64.6223 119.852C65.0498 120.09 65.5503 120.159 66.0264 120.048C67.8321 119.644 69.6033 118.316 68.4864 115.974C68.4864 115.974 67.3942 112.933 66.6611 106.931C66.5141 106.118 66.5141 105.285 66.6611 104.471C67.2072 102.149 69.3966 97.5388 69.9034 94.4491C70.3314 91.807 70.8874 88.5057 69.6328 87.4085C63.8026 82.2622 60.27 96.2055 60.27 106.631Z" fill="#263238"/>
<path opacity="0.4" d="M66.9813 84.9044C67.0192 85.0834 67.0969 85.2515 67.2087 85.3964C67.3204 85.5413 67.4633 85.6593 67.6267 85.7415C67.7902 85.8237 67.9701 85.8681 68.153 85.8713C68.3359 85.8746 68.5173 85.8367 68.6836 85.7605C69.8742 85.1799 73.1854 86.2869 74.4941 86.0065C74.4941 86.0065 74.4941 84.2303 74.4941 83.7383C74.4941 83.2463 70.0661 81.5489 68.7623 81.4407C66.5483 81.2685 66.5778 83.1479 66.9813 84.9044Z" fill="black"/>
<path d="M83.5274 71.6843C82.1252 70.8971 80.3983 71.1923 79.0108 71.9008C77.8078 72.6141 76.7127 73.4955 75.7587 74.5182C74.7157 75.5318 73.712 76.4862 72.6837 77.4702C72.6171 77.5357 72.5357 77.5843 72.4465 77.612C72.3572 77.6396 72.2627 77.6455 72.1707 77.6291C72.0787 77.6127 71.992 77.5746 71.9177 77.5178C71.8435 77.4611 71.7839 77.3874 71.744 77.303C71.6259 77.052 71.5127 76.811 71.3701 76.5502C71.3252 76.4774 71.2964 76.3959 71.2853 76.3111C71.2743 76.2262 71.2814 76.1401 71.3061 76.0582C71.4242 75.6843 71.5521 75.3104 71.6603 74.9414C71.2333 73.6169 71.1342 72.2086 71.3716 70.8374C71.609 69.4662 72.1757 68.1732 73.0232 67.0694C74.1695 65.5934 76.3786 65.5934 78.1941 65.9722C79.1027 66.179 79.9605 66.566 80.7169 67.1102C81.4732 67.6545 82.1127 68.3449 82.5975 69.1407C82.7896 69.0916 82.991 69.0911 83.1834 69.1392C83.3757 69.1873 83.5531 69.2825 83.6996 69.4162C84.0185 69.6561 84.2571 69.9872 84.3835 70.3658C84.4663 70.5411 84.5092 70.7327 84.5092 70.9266C84.5092 71.1206 84.4663 71.3121 84.3835 71.4875C84.2929 71.6234 84.1537 71.7195 83.9946 71.7561C83.8354 71.7927 83.6682 71.767 83.5274 71.6843V71.6843Z" fill="#64BC26"/>
<path d="M80.8754 68.5403C81.1312 68.8256 81.3255 69.1606 81.4462 69.5243C80.736 69.5344 80.0351 69.6866 79.3847 69.972C79.2528 69.6135 79.0597 69.2805 78.814 68.988C79.5274 68.8207 80.167 68.7026 80.8754 68.5403Z" fill="white"/>
<path d="M72.1616 144.122C69.0866 144.289 66.2576 144.486 63.1727 144.382C62.8677 140.791 63.3351 135.708 64.5946 132.333C67.1382 130.975 70.1148 131.841 72.8405 132.801L72.1616 144.122Z" fill="#64BC26"/>
<path opacity="0.2" d="M72.8411 132.85L71.8079 133.297L70.3663 143.167L63.1191 143.605L63.1733 144.431L72.1621 144.171L72.8411 132.85Z" fill="black"/>
<path opacity="0.2" d="M64.5946 132.348L64.1567 133.691L66.6807 134.631L70.8233 133.981L72.8405 132.815C71.4712 132.183 70.0034 131.79 68.5011 131.654C65.8984 131.364 64.5946 132.348 64.5946 132.348Z" fill="white"/>
<path d="M132.108 136L132.81 131.959L134.051 131.962C134.488 131.964 134.815 132.059 135.034 132.248C135.254 132.434 135.351 132.694 135.325 133.027C135.292 133.42 135.052 133.715 134.606 133.913C134.773 133.972 134.901 134.08 134.992 134.238C135.083 134.395 135.122 134.583 135.109 134.801C135.083 135.171 134.934 135.463 134.662 135.678C134.392 135.893 134.034 136 133.59 136H132.108ZM133.11 134.177L132.891 135.439L133.61 135.442C133.826 135.442 134.01 135.385 134.162 135.27C134.314 135.155 134.404 134.998 134.431 134.798C134.457 134.608 134.429 134.459 134.345 134.351C134.262 134.244 134.124 134.187 133.932 134.179L133.11 134.177ZM133.199 133.66L133.829 133.663C134.055 133.663 134.239 133.609 134.381 133.502C134.524 133.395 134.608 133.249 134.634 133.066C134.68 132.72 134.505 132.541 134.109 132.528L133.396 132.525L133.199 133.66ZM137.987 135.059H136.474L135.991 136H135.253L137.434 131.959H138.051L138.833 136H138.145L137.987 135.059ZM136.763 134.493H137.895L137.62 132.822L136.763 134.493ZM141.043 134.443H140.271L139.999 136H139.313L140.016 131.959L141.29 131.962C141.728 131.962 142.064 132.067 142.297 132.278C142.53 132.489 142.631 132.782 142.6 133.158C142.579 133.419 142.492 133.645 142.339 133.838C142.185 134.028 141.97 134.178 141.692 134.288L142.289 135.958L142.286 136H141.559L141.043 134.443ZM140.365 133.88L141.029 133.885C141.267 133.885 141.466 133.823 141.625 133.699C141.786 133.573 141.881 133.403 141.909 133.188C141.936 132.979 141.899 132.819 141.797 132.708C141.696 132.595 141.541 132.535 141.334 132.528L140.601 132.525L140.365 133.88ZM145.988 134.682C145.92 135.104 145.73 135.44 145.42 135.692C145.109 135.942 144.73 136.063 144.284 136.056C144.027 136.05 143.801 135.989 143.607 135.872C143.415 135.756 143.264 135.586 143.155 135.364C143.046 135.141 142.984 134.888 142.972 134.607C142.96 134.396 142.986 134.109 143.049 133.746C143.112 133.382 143.232 133.055 143.41 132.767C143.59 132.478 143.809 132.26 144.068 132.114C144.329 131.968 144.618 131.898 144.937 131.903C145.338 131.911 145.655 132.038 145.889 132.284C146.124 132.528 146.248 132.866 146.263 133.297H145.583C145.574 133.008 145.513 132.8 145.4 132.672C145.289 132.543 145.123 132.475 144.903 132.47C144.602 132.46 144.349 132.569 144.146 132.794C143.942 133.02 143.805 133.348 143.735 133.78L143.679 134.149L143.654 134.432C143.639 134.622 143.652 134.802 143.693 134.97C143.736 135.137 143.81 135.264 143.915 135.353C144.021 135.44 144.155 135.487 144.318 135.492C144.834 135.512 145.165 135.244 145.311 134.687L145.988 134.682ZM147.967 136.056C147.705 136.05 147.473 135.987 147.274 135.867C147.076 135.747 146.921 135.573 146.81 135.345C146.699 135.116 146.636 134.856 146.621 134.565C146.608 134.334 146.629 134.064 146.682 133.755C146.738 133.446 146.835 133.164 146.974 132.911C147.114 132.656 147.282 132.447 147.476 132.286C147.796 132.024 148.166 131.896 148.586 131.903C148.986 131.911 149.304 132.049 149.541 132.317C149.78 132.585 149.91 132.948 149.932 133.405C149.944 133.634 149.922 133.898 149.869 134.196C149.817 134.492 149.726 134.765 149.597 135.015C149.469 135.263 149.31 135.47 149.119 135.636C148.79 135.925 148.406 136.065 147.967 136.056ZM149.23 133.871L149.255 133.577C149.266 133.375 149.249 133.189 149.203 133.019C149.156 132.847 149.078 132.717 148.967 132.628C148.857 132.537 148.719 132.489 148.55 132.483C148.317 132.476 148.11 132.542 147.929 132.681C147.749 132.819 147.603 133.03 147.49 133.313C147.379 133.596 147.314 133.952 147.296 134.379C147.277 134.718 147.329 134.984 147.451 135.178C147.573 135.373 147.756 135.474 148.001 135.481C148.321 135.49 148.584 135.37 148.792 135.12C149.001 134.87 149.138 134.519 149.203 134.065L149.23 133.871ZM150.249 136L150.948 131.959L152.042 131.962C152.379 131.962 152.668 132.046 152.911 132.214C153.155 132.381 153.332 132.612 153.441 132.908C153.55 133.202 153.583 133.527 153.541 133.882L153.51 134.102C153.455 134.473 153.332 134.804 153.141 135.092C152.952 135.379 152.708 135.602 152.408 135.761C152.108 135.92 151.779 136 151.42 136H150.249ZM151.537 132.525L151.032 135.439L151.437 135.442C151.803 135.442 152.107 135.326 152.347 135.095C152.59 134.862 152.745 134.541 152.813 134.132C152.862 133.851 152.879 133.606 152.866 133.397C152.85 133.128 152.771 132.918 152.63 132.767C152.491 132.615 152.298 132.535 152.05 132.528L151.537 132.525ZM156.488 134.196H154.878L154.662 135.439H156.544L156.447 136H153.879L154.579 131.959H157.129L157.029 132.525H155.167L154.973 133.641H156.585L156.488 134.196Z" fill="#263238"/>
<path d="M131.676 92.4971H131.125L128.904 118.562H129.456L131.676 92.4971Z" fill="#263238"/>
<path d="M133.331 92.4961H132.228L130.007 118.561H131.111L133.331 92.4961Z" fill="#263238"/>
<path d="M134.988 92.4961H133.884L131.664 118.561H132.767L134.988 92.4961Z" fill="#263238"/>
<path d="M137.194 92.4961H136.09L133.87 118.561H134.973L137.194 92.4961Z" fill="#263238"/>
<path d="M138.298 92.4961H137.746L135.526 118.561H136.077L138.298 92.4961Z" fill="#263238"/>
<path d="M141.056 92.4961H139.953L137.732 118.561H138.836L141.056 92.4961Z" fill="#263238"/>
<path d="M142.16 92.4961H141.608L139.388 118.561H139.94L142.16 92.4961Z" fill="#263238"/>
<path d="M142.712 92.4968H142.16L139.94 118.562H140.491L142.712 92.4968Z" fill="#263238"/>
<path d="M144.367 92.4961H143.263L141.043 118.561H142.146L144.367 92.4961Z" fill="#263238"/>
<path d="M146.574 92.4961H144.919L142.698 118.561H144.354L146.574 92.4961Z" fill="#263238"/>
<path d="M148.229 92.4961H147.125L144.905 118.561H146.008L148.229 92.4961Z" fill="#263238"/>
<path d="M149.333 92.4961H148.781L146.56 118.561H147.112L149.333 92.4961Z" fill="#263238"/>
<path d="M150.988 92.4961H150.437L148.216 118.561H148.768L150.988 92.4961Z" fill="#263238"/>
<path d="M153.196 92.4961H152.092L149.872 118.561H150.975L153.196 92.4961Z" fill="#263238"/>
<path d="M153.194 92.4968H152.643L150.422 118.562H150.974L153.194 92.4968Z" fill="#263238"/>
<path d="M154.85 92.4961H153.747L151.526 118.561H152.63L154.85 92.4961Z" fill="#263238"/>
<path d="M156.505 92.4961H155.401L153.181 118.561H154.284L156.505 92.4961Z" fill="#263238"/>
<path d="M158.713 92.4961H158.161L155.941 118.561H156.492L158.713 92.4961Z" fill="#263238"/>
<path d="M159.816 92.4961H159.264L157.044 118.561H157.595L159.816 92.4961Z" fill="#263238"/>
<path d="M161.471 92.4961H160.919L158.698 118.561H159.25L161.471 92.4961Z" fill="#263238"/>
<path d="M163.678 92.4961H162.575L160.354 118.561H161.458L163.678 92.4961Z" fill="#263238"/>
</svg>
