<svg width="246" height="246" viewBox="0 0 246 246" fill="none" xmlns="http://www.w3.org/2000/svg">
<path d="M103.174 168.547C122.38 171.193 142.207 166.394 155.351 153.405C168.496 140.415 173.634 123.914 182.594 109.041C190.663 95.7073 208.219 86.7358 211.497 71.3907C214.659 56.6588 204.087 40.1052 185.356 38.1071C174.104 36.9029 162.888 40.7315 153.644 45.8083C133.806 56.7029 115.412 53.2537 93.8613 49.456C79.3149 46.8933 63.3877 49.5795 52.3356 58.1893C39.7761 67.9768 37.7576 82.6779 39.1595 96.2983C41.8738 122.639 56.5519 153.069 87.1204 164.498C92.2428 166.416 97.6381 167.777 103.174 168.547V168.547Z" fill="#64BC26"/>
<path opacity="0.9" d="M103.174 168.547C122.38 171.193 142.207 166.394 155.351 153.405C168.496 140.415 173.634 123.914 182.594 109.041C190.663 95.7073 208.219 86.7358 211.497 71.3907C214.659 56.6588 204.087 40.1052 185.356 38.1071C174.104 36.9029 162.888 40.7315 153.644 45.8083C133.806 56.7029 115.412 53.2537 93.8613 49.456C79.3149 46.8933 63.3877 49.5795 52.3356 58.1893C39.7761 67.9768 37.7576 82.6779 39.1595 96.2983C41.8738 122.639 56.5519 153.069 87.1204 164.498C92.2428 166.416 97.6381 167.777 103.174 168.547V168.547Z" fill="white"/>
<path d="M123 210.36C175.684 210.36 218.394 207.866 218.394 204.79C218.394 201.714 175.684 199.221 123 199.221C70.3153 199.221 27.606 201.714 27.606 204.79C27.606 207.866 70.3153 210.36 123 210.36Z" fill="#F5F5F5"/>
<path d="M152.485 56.3135V202.177C152.486 202.459 152.43 202.739 152.322 203C152.213 203.26 152.054 203.497 151.852 203.695C151.651 203.893 151.413 204.05 151.151 204.155C150.888 204.26 150.608 204.312 150.325 204.307H82.4294C82.1781 204.311 81.9286 204.265 81.6954 204.171C81.4623 204.077 81.2501 203.938 81.0715 203.761C80.887 203.576 80.7411 203.357 80.6423 203.115C80.5435 202.874 80.4937 202.615 80.4959 202.354V56.1363C80.4786 55.6791 80.6435 55.2336 80.9543 54.8978C81.2652 54.5621 81.6967 54.3634 82.1539 54.3455H101.43C101.7 54.3506 101.961 54.4357 102.182 54.5899C102.403 54.744 102.573 54.9604 102.67 55.2114L103.472 57.1794C103.57 57.4298 103.74 57.6455 103.961 57.7989C104.182 57.9522 104.443 58.0363 104.712 58.0404H128.328C128.596 58.0388 128.856 57.9574 129.077 57.8066C129.298 57.6559 129.469 57.4426 129.568 57.1941L130.37 55.2261C130.467 54.9742 130.636 54.7568 130.857 54.6017C131.078 54.4466 131.34 54.3608 131.61 54.3553H150.611C151.115 54.3793 151.59 54.5958 151.939 54.9602C152.288 55.3246 152.483 55.809 152.485 56.3135Z" fill="#64BC26"/>
<g opacity="0.1">
<path opacity="0.1" d="M112.889 58.056L92.1663 135.659L91.9351 136.53L91.5611 137.927L91.325 138.798L80.501 179.329V130.277L100.776 54.3315H101.436C101.705 54.3364 101.968 54.4212 102.19 54.5754C102.411 54.7296 102.582 54.9461 102.68 55.1975L103.477 57.1655C103.575 57.4154 103.746 57.6304 103.967 57.7829C104.187 57.9354 104.449 58.0185 104.717 58.0215L112.889 58.056Z" fill="white"/>
<path opacity="0.1" d="M152.492 97.6768V146.734L139.567 195.142L139.252 196.323L137.121 204.308H124.024L126.155 196.328L126.499 195.044L128.211 188.628L128.551 187.349L129.24 184.78L129.579 183.496L130.263 180.933L130.602 179.649L141.377 139.3V139.295L141.879 137.43V137.425L152.492 97.6768Z" fill="white"/>
<path opacity="0.1" d="M119.985 58.0559L99.3845 135.172L99.2566 135.634L98.1348 139.861L98.0069 140.323L81.0821 203.762C80.897 203.576 80.7508 203.356 80.652 203.114C80.5531 202.871 80.5037 202.611 80.5065 202.35V194.891L95.0746 140.323L95.1976 139.861L96.3243 135.634L96.4473 135.172L117.042 58.0559H119.985Z" fill="white"/>
</g>
<path opacity="0.3" d="M152.486 63.8567H80.5068V197.853H152.486V63.8567Z" fill="white"/>
<path opacity="0.5" d="M151.546 80.688H81.6724V97.7456H151.546V80.688Z" fill="white"/>
<g opacity="0.2">
<path opacity="0.2" d="M111.09 85.8146H85.0778C84.8821 85.8146 84.6944 85.7369 84.556 85.5985C84.4176 85.4601 84.3398 85.2724 84.3398 85.0766C84.3398 84.8809 84.4176 84.6932 84.556 84.5548C84.6944 84.4164 84.8821 84.3386 85.0778 84.3386H111.09C111.286 84.3386 111.473 84.4164 111.612 84.5548C111.75 84.6932 111.828 84.8809 111.828 85.0766C111.828 85.2724 111.75 85.4601 111.612 85.5985C111.473 85.7369 111.286 85.8146 111.09 85.8146V85.8146Z" fill="#64BC26"/>
<path opacity="0.2" d="M138.17 89.2538H84.8318C84.7014 89.2538 84.5762 89.2019 84.4839 89.1097C84.3917 89.0174 84.3398 88.8923 84.3398 88.7618C84.3398 88.6313 84.3917 88.5061 84.4839 88.4139C84.5762 88.3216 84.7014 88.2698 84.8318 88.2698H138.17C138.3 88.2698 138.425 88.3216 138.517 88.4139C138.61 88.5061 138.662 88.6313 138.662 88.7618C138.662 88.8923 138.61 89.0174 138.517 89.1097C138.425 89.2019 138.3 89.2538 138.17 89.2538Z" fill="#64BC26"/>
<path opacity="0.2" d="M138.17 91.9054H84.8318C84.7014 91.9054 84.5762 91.8536 84.4839 91.7613C84.3917 91.669 84.3398 91.5439 84.3398 91.4134C84.3398 91.2829 84.3917 91.1578 84.4839 91.0655C84.5762 90.9732 84.7014 90.9214 84.8318 90.9214H138.17C138.3 90.9214 138.425 90.9732 138.517 91.0655C138.61 91.1578 138.662 91.2829 138.662 91.4134C138.662 91.5439 138.61 91.669 138.517 91.7613C138.425 91.8536 138.3 91.9054 138.17 91.9054Z" fill="#64BC26"/>
<path opacity="0.2" d="M128.33 94.5624H84.8318C84.7014 94.5624 84.5762 94.5105 84.4839 94.4183C84.3917 94.326 84.3398 94.2009 84.3398 94.0704C84.3398 93.9399 84.3917 93.8147 84.4839 93.7225C84.5762 93.6302 84.7014 93.5784 84.8318 93.5784H128.33C128.46 93.5784 128.585 93.6302 128.677 93.7225C128.77 93.8147 128.822 93.9399 128.822 94.0704C128.822 94.2009 128.77 94.326 128.677 94.4183C128.585 94.5105 128.46 94.5624 128.33 94.5624V94.5624Z" fill="#64BC26"/>
</g>
<path opacity="0.5" d="M151.463 116.21H81.5889V133.268H151.463V116.21Z" fill="white"/>
<path opacity="0.5" d="M151.546 98.3999H81.6724V115.458H151.546V98.3999Z" fill="white"/>
<g opacity="0.6">
<path opacity="0.6" d="M111.148 121.101H85.1164C84.9207 121.101 84.733 121.023 84.5946 120.885C84.4562 120.746 84.3784 120.558 84.3784 120.363C84.3784 120.167 84.4562 119.979 84.5946 119.841C84.733 119.703 84.9207 119.625 85.1164 119.625H111.133C111.329 119.625 111.517 119.703 111.655 119.841C111.794 119.979 111.871 120.167 111.871 120.363C111.871 120.558 111.794 120.746 111.655 120.885C111.517 121.023 111.329 121.101 111.133 121.101H111.148Z" fill="#64BC26"/>
<path opacity="0.6" d="M138.222 124.54H84.8841C84.7536 124.54 84.6285 124.488 84.5362 124.396C84.4439 124.304 84.3921 124.178 84.3921 124.048C84.3921 123.917 84.4439 123.792 84.5362 123.7C84.6285 123.608 84.7536 123.556 84.8841 123.556H138.222C138.352 123.556 138.477 123.608 138.57 123.7C138.662 123.792 138.714 123.917 138.714 124.048C138.714 124.178 138.662 124.304 138.57 124.396C138.477 124.488 138.352 124.54 138.222 124.54Z" fill="#64BC26"/>
<path opacity="0.6" d="M138.222 127.197H84.8841C84.7536 127.197 84.6285 127.145 84.5362 127.053C84.4439 126.96 84.3921 126.835 84.3921 126.705C84.3921 126.574 84.4439 126.449 84.5362 126.357C84.6285 126.264 84.7536 126.213 84.8841 126.213H138.222C138.352 126.213 138.477 126.264 138.57 126.357C138.662 126.449 138.714 126.574 138.714 126.705C138.714 126.835 138.662 126.96 138.57 127.053C138.477 127.145 138.352 127.197 138.222 127.197Z" fill="#64BC26"/>
<path opacity="0.6" d="M128.382 129.854H84.8841C84.7536 129.854 84.6285 129.802 84.5362 129.71C84.4439 129.617 84.3921 129.492 84.3921 129.362C84.3921 129.231 84.4439 129.106 84.5362 129.014C84.6285 128.921 84.7536 128.87 84.8841 128.87H128.382C128.512 128.87 128.637 128.921 128.73 129.014C128.822 129.106 128.874 129.231 128.874 129.362C128.874 129.492 128.822 129.617 128.73 129.71C128.637 129.802 128.512 129.854 128.382 129.854Z" fill="#64BC26"/>
</g>
<g opacity="0.6">
<path opacity="0.6" d="M111.232 103.29H85.1999C85.0042 103.29 84.8165 103.213 84.6781 103.074C84.5397 102.936 84.4619 102.748 84.4619 102.552C84.4619 102.357 84.5397 102.169 84.6781 102.031C84.8165 101.892 85.0042 101.814 85.1999 101.814H111.217C111.413 101.814 111.6 101.892 111.739 102.031C111.877 102.169 111.955 102.357 111.955 102.552C111.955 102.748 111.877 102.936 111.739 103.074C111.6 103.213 111.413 103.29 111.217 103.29H111.232Z" fill="#64BC26"/>
<path opacity="0.6" d="M138.307 106.73H84.9691C84.8386 106.73 84.7134 106.678 84.6212 106.586C84.5289 106.493 84.4771 106.368 84.4771 106.238C84.4771 106.107 84.5289 105.982 84.6212 105.89C84.7134 105.797 84.8386 105.746 84.9691 105.746H138.307C138.437 105.746 138.562 105.797 138.655 105.89C138.747 105.982 138.799 106.107 138.799 106.238C138.799 106.368 138.747 106.493 138.655 106.586C138.562 106.678 138.437 106.73 138.307 106.73Z" fill="#64BC26"/>
<path opacity="0.6" d="M138.307 109.386H84.9691C84.8386 109.386 84.7134 109.335 84.6212 109.242C84.5289 109.15 84.4771 109.025 84.4771 108.894C84.4771 108.764 84.5289 108.639 84.6212 108.546C84.7134 108.454 84.8386 108.402 84.9691 108.402H138.307C138.437 108.402 138.562 108.454 138.655 108.546C138.747 108.639 138.799 108.764 138.799 108.894C138.799 109.025 138.747 109.15 138.655 109.242C138.562 109.335 138.437 109.386 138.307 109.386Z" fill="#64BC26"/>
<path opacity="0.6" d="M128.467 112.043H84.9691C84.8386 112.043 84.7134 111.991 84.6212 111.899C84.5289 111.807 84.4771 111.682 84.4771 111.551C84.4771 111.421 84.5289 111.295 84.6212 111.203C84.7134 111.111 84.8386 111.059 84.9691 111.059H128.467C128.597 111.059 128.722 111.111 128.815 111.203C128.907 111.295 128.959 111.421 128.959 111.551C128.959 111.682 128.907 111.807 128.815 111.899C128.722 111.991 128.597 112.043 128.467 112.043Z" fill="#64BC26"/>
</g>
<path opacity="0.5" d="M151.488 133.858H81.6138V150.916H151.488V133.858Z" fill="white"/>
<g opacity="0.6">
<path opacity="0.6" d="M111.193 138.744H85.1609C84.9651 138.744 84.7774 138.666 84.639 138.528C84.5006 138.39 84.4229 138.202 84.4229 138.006C84.4229 137.81 84.5006 137.623 84.639 137.484C84.7774 137.346 84.9651 137.268 85.1609 137.268H111.193C111.388 137.268 111.576 137.346 111.714 137.484C111.853 137.623 111.931 137.81 111.931 138.006C111.931 138.202 111.853 138.39 111.714 138.528C111.576 138.666 111.388 138.744 111.193 138.744V138.744Z" fill="#64BC26"/>
<path opacity="0.6" d="M138.253 142.188H84.9153C84.7849 142.188 84.6597 142.136 84.5674 142.044C84.4752 141.952 84.4233 141.827 84.4233 141.696C84.4233 141.566 84.4752 141.44 84.5674 141.348C84.6597 141.256 84.7849 141.204 84.9153 141.204H138.253C138.384 141.204 138.509 141.256 138.601 141.348C138.693 141.44 138.745 141.566 138.745 141.696C138.745 141.827 138.693 141.952 138.601 142.044C138.509 142.136 138.384 142.188 138.253 142.188Z" fill="#64BC26"/>
<path opacity="0.6" d="M138.253 144.845H84.9153C84.7849 144.845 84.6597 144.793 84.5674 144.701C84.4752 144.608 84.4233 144.483 84.4233 144.353C84.4233 144.222 84.4752 144.097 84.5674 144.005C84.6597 143.913 84.7849 143.861 84.9153 143.861H138.253C138.384 143.861 138.509 143.913 138.601 144.005C138.693 144.097 138.745 144.222 138.745 144.353C138.745 144.483 138.693 144.608 138.601 144.701C138.509 144.793 138.384 144.845 138.253 144.845Z" fill="#64BC26"/>
<path opacity="0.6" d="M128.413 147.502H84.9153C84.7849 147.502 84.6597 147.45 84.5674 147.357C84.4752 147.265 84.4233 147.14 84.4233 147.01C84.4233 146.879 84.4752 146.754 84.5674 146.662C84.6597 146.569 84.7849 146.518 84.9153 146.518H128.413C128.544 146.518 128.669 146.569 128.761 146.662C128.853 146.754 128.905 146.879 128.905 147.01C128.905 147.14 128.853 147.265 128.761 147.357C128.669 147.45 128.544 147.502 128.413 147.502Z" fill="#64BC26"/>
</g>
<path opacity="0.5" d="M151.516 151.501H81.6426V168.559H151.516V151.501Z" fill="white"/>
<g opacity="0.6">
<path opacity="0.6" d="M111.193 156.392H85.1858C84.99 156.392 84.8023 156.314 84.6639 156.176C84.5255 156.037 84.4478 155.85 84.4478 155.654C84.4478 155.458 84.5255 155.271 84.6639 155.132C84.8023 154.994 84.99 154.916 85.1858 154.916H111.193C111.389 154.916 111.576 154.994 111.715 155.132C111.853 155.271 111.931 155.458 111.931 155.654C111.931 155.85 111.853 156.037 111.715 156.176C111.576 156.314 111.389 156.392 111.193 156.392V156.392Z" fill="#64BC26"/>
<path opacity="0.6" d="M138.282 159.831H84.9398C84.8093 159.831 84.6841 159.779 84.5919 159.687C84.4996 159.595 84.4478 159.47 84.4478 159.339C84.4478 159.209 84.4996 159.084 84.5919 158.991C84.6841 158.899 84.8093 158.847 84.9398 158.847H138.282C138.413 158.847 138.538 158.899 138.63 158.991C138.723 159.084 138.774 159.209 138.774 159.339C138.774 159.47 138.723 159.595 138.63 159.687C138.538 159.779 138.413 159.831 138.282 159.831Z" fill="#64BC26"/>
<path opacity="0.6" d="M138.282 162.488H84.9398C84.8093 162.488 84.6841 162.436 84.5919 162.344C84.4996 162.252 84.4478 162.126 84.4478 161.996C84.4478 161.865 84.4996 161.74 84.5919 161.648C84.6841 161.556 84.8093 161.504 84.9398 161.504H138.282C138.413 161.504 138.538 161.556 138.63 161.648C138.723 161.74 138.774 161.865 138.774 161.996C138.774 162.126 138.723 162.252 138.63 162.344C138.538 162.436 138.413 162.488 138.282 162.488Z" fill="#64BC26"/>
<path opacity="0.6" d="M128.442 165.145H84.9398C84.8093 165.145 84.6841 165.093 84.5919 165.001C84.4996 164.908 84.4478 164.783 84.4478 164.653C84.4478 164.522 84.4996 164.397 84.5919 164.305C84.6841 164.212 84.8093 164.161 84.9398 164.161H128.442C128.573 164.161 128.698 164.212 128.79 164.305C128.883 164.397 128.934 164.522 128.934 164.653C128.934 164.783 128.883 164.908 128.79 165.001C128.698 165.093 128.573 165.145 128.442 165.145Z" fill="#64BC26"/>
</g>
<path opacity="0.5" d="M151.546 169.145H81.6724V186.202H151.546V169.145Z" fill="white"/>
<g opacity="0.6">
<path opacity="0.6" d="M111.232 174.04H85.2151C85.0193 174.04 84.8316 173.962 84.6932 173.824C84.5548 173.685 84.4771 173.498 84.4771 173.302C84.4771 173.106 84.5548 172.919 84.6932 172.78C84.8316 172.642 85.0193 172.564 85.2151 172.564H111.232C111.428 172.564 111.615 172.642 111.754 172.78C111.892 172.919 111.97 173.106 111.97 173.302C111.97 173.498 111.892 173.685 111.754 173.824C111.615 173.962 111.428 174.04 111.232 174.04V174.04Z" fill="#64BC26"/>
<path opacity="0.6" d="M138.306 177.479H84.9681C84.8376 177.479 84.7124 177.427 84.6202 177.335C84.5279 177.243 84.4761 177.118 84.4761 176.987C84.4761 176.857 84.5279 176.731 84.6202 176.639C84.7124 176.547 84.8376 176.495 84.9681 176.495H138.306C138.436 176.495 138.561 176.547 138.654 176.639C138.746 176.731 138.798 176.857 138.798 176.987C138.798 177.118 138.746 177.243 138.654 177.335C138.561 177.427 138.436 177.479 138.306 177.479Z" fill="#64BC26"/>
<path opacity="0.6" d="M138.306 180.131H84.9681C84.8376 180.131 84.7124 180.079 84.6202 179.987C84.5279 179.895 84.4761 179.77 84.4761 179.639C84.4761 179.509 84.5279 179.384 84.6202 179.291C84.7124 179.199 84.8376 179.147 84.9681 179.147H138.306C138.436 179.147 138.561 179.199 138.654 179.291C138.746 179.384 138.798 179.509 138.798 179.639C138.798 179.77 138.746 179.895 138.654 179.987C138.561 180.079 138.436 180.131 138.306 180.131Z" fill="#64BC26"/>
<path opacity="0.6" d="M128.466 182.788H84.9681C84.8376 182.788 84.7124 182.736 84.6202 182.644C84.5279 182.552 84.4761 182.426 84.4761 182.296C84.4761 182.165 84.5279 182.04 84.6202 181.948C84.7124 181.856 84.8376 181.804 84.9681 181.804H128.466C128.596 181.804 128.721 181.856 128.814 181.948C128.906 182.04 128.958 182.165 128.958 182.296C128.958 182.426 128.906 182.552 128.814 182.644C128.721 182.736 128.596 182.788 128.466 182.788V182.788Z" fill="#64BC26"/>
</g>
<path d="M102.584 91.699C102.616 91.6988 102.648 91.6922 102.677 91.6795C102.707 91.6668 102.734 91.6483 102.756 91.6252L104.758 89.6227C104.782 89.6006 104.801 89.574 104.814 89.5444C104.826 89.5147 104.833 89.4828 104.833 89.4505C104.833 89.4183 104.826 89.3863 104.814 89.3567C104.801 89.3271 104.782 89.3004 104.758 89.2783L102.756 87.2759C102.733 87.2528 102.706 87.2345 102.676 87.222C102.646 87.2096 102.614 87.2031 102.581 87.2031C102.549 87.2031 102.517 87.2096 102.487 87.222C102.457 87.2345 102.43 87.2528 102.407 87.2759C102.362 87.3219 102.336 87.3837 102.336 87.4481C102.336 87.5125 102.362 87.5743 102.407 87.6203L104.237 89.4505L102.407 91.2808C102.362 91.3268 102.336 91.3886 102.336 91.453C102.336 91.5174 102.362 91.5792 102.407 91.6252C102.454 91.6723 102.517 91.6988 102.584 91.699V91.699Z" fill="#64BC26"/>
<path d="M107.504 91.699C107.536 91.6988 107.568 91.6922 107.597 91.6795C107.627 91.6668 107.654 91.6483 107.676 91.6252L109.678 89.6227C109.702 89.6006 109.721 89.574 109.733 89.5444C109.746 89.5147 109.753 89.4828 109.753 89.4505C109.753 89.4183 109.746 89.3863 109.733 89.3567C109.721 89.3271 109.702 89.3004 109.678 89.2783L107.676 87.2759C107.653 87.2528 107.626 87.2345 107.596 87.222C107.566 87.2096 107.534 87.2031 107.501 87.2031C107.469 87.2031 107.437 87.2096 107.407 87.222C107.377 87.2345 107.349 87.2528 107.327 87.2759C107.282 87.3219 107.256 87.3837 107.256 87.4481C107.256 87.5125 107.282 87.5743 107.327 87.6203L109.157 89.4505L107.327 91.2808C107.282 91.3268 107.256 91.3886 107.256 91.453C107.256 91.5174 107.282 91.5792 107.327 91.6252C107.374 91.6723 107.437 91.6988 107.504 91.699V91.699Z" fill="#64BC26"/>
<path d="M105.044 91.699C105.076 91.6988 105.108 91.6922 105.137 91.6795C105.167 91.6668 105.194 91.6483 105.216 91.6252L107.218 89.6227C107.242 89.6006 107.261 89.574 107.274 89.5444C107.286 89.5147 107.293 89.4828 107.293 89.4505C107.293 89.4183 107.286 89.3863 107.274 89.3567C107.261 89.3271 107.242 89.3004 107.218 89.2783L105.216 87.2759C105.193 87.2528 105.166 87.2345 105.136 87.222C105.106 87.2096 105.074 87.2031 105.041 87.2031C105.009 87.2031 104.977 87.2096 104.947 87.222C104.917 87.2345 104.89 87.2528 104.867 87.2759C104.822 87.3219 104.796 87.3837 104.796 87.4481C104.796 87.5125 104.822 87.5743 104.867 87.6203L106.697 89.4505L104.867 91.2808C104.822 91.3268 104.796 91.3886 104.796 91.453C104.796 91.5174 104.822 91.5792 104.867 91.6252C104.914 91.6723 104.977 91.6988 105.044 91.699V91.699Z" fill="#64BC26"/>
<path d="M98.8924 80.688H81.6724V97.662H98.8924V80.688Z" fill="#64BC26"/>
<path opacity="0.2" d="M98.8924 80.688H81.6724V97.662H98.8924V80.688Z" fill="black"/>
<path d="M92.4915 93.7751H87.9061L87.4141 87.0347H92.9835L92.4915 93.7751Z" fill="white"/>
<path d="M93.136 85.667H87.2615L87.0942 86.5428H93.3033L93.136 85.667Z" fill="white"/>
<path d="M91.3554 85.3471H90.9864V84.8551H89.412V85.3471H89.043V84.6632C89.0442 84.6154 89.0638 84.5698 89.0977 84.5359C89.1315 84.502 89.1771 84.4824 89.225 84.4812H91.193C91.2413 84.4812 91.2876 84.5004 91.3217 84.5345C91.3559 84.5687 91.3751 84.615 91.3751 84.6632L91.3554 85.3471Z" fill="white"/>
<path d="M86.6464 75.7679C86.5815 75.767 86.5196 75.7405 86.4742 75.6941L84.4718 73.6917C84.4258 73.646 84.3994 73.5843 84.3979 73.5195C84.3991 73.4532 84.4255 73.3899 84.4718 73.3424L86.4742 71.3399C86.5205 71.2936 86.5833 71.2676 86.6489 71.2676C86.7144 71.2676 86.7772 71.2936 86.8235 71.3399C86.8698 71.3862 86.8959 71.4491 86.8959 71.5146C86.8959 71.5801 86.8698 71.6429 86.8235 71.6892L84.9933 73.5195L86.8235 75.3448C86.8689 75.3916 86.8943 75.4543 86.8943 75.5195C86.8943 75.5847 86.8689 75.6473 86.8235 75.6941C86.7766 75.7412 86.7129 75.7678 86.6464 75.7679Z" fill="white"/>
<path opacity="0.6" d="M89.4558 60.2207H90.4595V58.8825H89.4558V60.2207Z" fill="white"/>
<path opacity="0.6" d="M87.822 60.2207H88.8257V58.4397H87.822V60.2207Z" fill="white"/>
<path opacity="0.6" d="M86.1838 60.2256H87.1875V57.9968H86.1838V60.2256Z" fill="white"/>
<path opacity="0.6" d="M84.5559 60.2207H85.5596V57.5442H84.5559V60.2207Z" fill="white"/>
<path opacity="0.6" d="M143.301 58.3955H142.706V59.7337H143.301V58.3955Z" fill="white"/>
<path opacity="0.6" d="M143.703 60.2256H148.441V57.9132H143.703V60.2256Z" fill="white"/>
<path d="M116.496 192.372C116.432 192.372 116.37 192.348 116.324 192.303L114.322 190.296C114.298 190.274 114.279 190.247 114.267 190.217C114.254 190.188 114.247 190.156 114.247 190.124C114.247 190.091 114.254 190.059 114.267 190.03C114.279 190 114.298 189.974 114.322 189.951C114.344 189.928 114.372 189.91 114.402 189.898C114.432 189.885 114.464 189.879 114.496 189.879C114.529 189.879 114.561 189.885 114.591 189.898C114.621 189.91 114.648 189.928 114.671 189.951L116.496 191.777L118.326 189.951C118.349 189.928 118.377 189.91 118.407 189.898C118.437 189.885 118.469 189.879 118.501 189.879C118.534 189.879 118.566 189.885 118.596 189.898C118.626 189.91 118.653 189.928 118.676 189.951C118.721 189.997 118.746 190.059 118.746 190.124C118.746 190.188 118.721 190.25 118.676 190.296L116.673 192.303C116.625 192.348 116.562 192.373 116.496 192.372V192.372Z" fill="white"/>
<path d="M89.9014 75H89.4401V71.5022H89.9014V75ZM91.0977 72.4007L91.1121 72.7274C91.3107 72.4775 91.5702 72.3526 91.8905 72.3526C92.4398 72.3526 92.7169 72.6625 92.7217 73.2823V75H92.2773V73.2799C92.2757 73.0925 92.2324 72.954 92.1476 72.8643C92.0643 72.7746 91.9338 72.7298 91.756 72.7298C91.6118 72.7298 91.4853 72.7682 91.3764 72.8451C91.2675 72.922 91.1826 73.0229 91.1218 73.1478V75H90.6773V72.4007H91.0977ZM94.2496 74.397L94.8934 72.4007H95.3475L94.4154 75H94.0766L93.1349 72.4007H93.589L94.2496 74.397ZM96.8201 75.048C96.4678 75.048 96.1811 74.9327 95.9601 74.7021C95.7391 74.4699 95.6286 74.16 95.6286 73.7724V73.6907C95.6286 73.4329 95.6774 73.203 95.7751 73.0012C95.8744 72.7979 96.0121 72.6393 96.1883 72.5256C96.3661 72.4103 96.5583 72.3526 96.7649 72.3526C97.1028 72.3526 97.3654 72.4639 97.5528 72.6865C97.7402 72.9092 97.8339 73.2279 97.8339 73.6427V73.8277H96.073C96.0794 74.0839 96.1539 74.2913 96.2964 74.4499C96.4405 74.6068 96.6231 74.6853 96.8441 74.6853C97.0011 74.6853 97.134 74.6533 97.2429 74.5892C97.3518 74.5251 97.4471 74.4403 97.5288 74.3346L97.8003 74.546C97.5825 74.8807 97.2557 75.048 96.8201 75.048ZM96.7649 72.7178C96.5855 72.7178 96.4349 72.7834 96.3132 72.9148C96.1915 73.0445 96.1162 73.2271 96.0874 73.4625H97.3895V73.4289C97.3767 73.203 97.3158 73.0285 97.2069 72.9052C97.098 72.7802 96.9506 72.7178 96.7649 72.7178ZM98.7708 72.4007L98.7852 72.7274C98.9838 72.4775 99.2433 72.3526 99.5636 72.3526C100.113 72.3526 100.39 72.6625 100.395 73.2823V75H99.9504V73.2799C99.9488 73.0925 99.9055 72.954 99.8206 72.8643C99.7374 72.7746 99.6068 72.7298 99.4291 72.7298C99.2849 72.7298 99.1584 72.7682 99.0495 72.8451C98.9406 72.922 98.8557 73.0229 98.7948 73.1478V75H98.3504V72.4007H98.7708ZM101.668 71.7712V72.4007H102.153V72.7442H101.668V74.3562C101.668 74.4603 101.69 74.5387 101.733 74.5916C101.776 74.6429 101.85 74.6685 101.954 74.6685C102.005 74.6685 102.076 74.6589 102.165 74.6396V75C102.048 75.032 101.935 75.048 101.824 75.048C101.626 75.048 101.476 74.988 101.375 74.8679C101.274 74.7478 101.224 74.5772 101.224 74.3562V72.7442H100.75V72.4007H101.224V71.7712H101.668ZM102.509 73.6763C102.509 73.4217 102.559 73.1926 102.658 72.9892C102.759 72.7858 102.898 72.6289 103.076 72.5184C103.255 72.4079 103.459 72.3526 103.688 72.3526C104.042 72.3526 104.328 72.4751 104.546 72.7202C104.765 72.9652 104.875 73.2911 104.875 73.6979V73.7292C104.875 73.9822 104.826 74.2096 104.729 74.4114C104.633 74.6116 104.494 74.7678 104.313 74.8799C104.134 74.992 103.927 75.048 103.693 75.048C103.341 75.048 103.055 74.9255 102.836 74.6805C102.618 74.4354 102.509 74.1111 102.509 73.7075V73.6763ZM102.956 73.7292C102.956 74.0174 103.022 74.2489 103.155 74.4234C103.29 74.598 103.469 74.6853 103.693 74.6853C103.919 74.6853 104.098 74.5972 104.231 74.421C104.364 74.2433 104.431 73.995 104.431 73.6763C104.431 73.3912 104.363 73.1606 104.227 72.9844C104.092 72.8067 103.913 72.7178 103.688 72.7178C103.469 72.7178 103.292 72.8051 103.158 72.9796C103.023 73.1542 102.956 73.404 102.956 73.7292ZM106.689 72.7995C106.622 72.7882 106.549 72.7826 106.47 72.7826C106.179 72.7826 105.981 72.9068 105.877 73.155V75H105.433V72.4007H105.865L105.872 72.701C106.018 72.4687 106.224 72.3526 106.492 72.3526C106.578 72.3526 106.644 72.3638 106.689 72.3862V72.7995ZM107.993 74.349L108.599 72.4007H109.074L108.029 75.4012C107.868 75.8336 107.611 76.0498 107.258 76.0498L107.174 76.0426L107.008 76.0114V75.651L107.129 75.6606C107.279 75.6606 107.396 75.6302 107.479 75.5694C107.564 75.5085 107.634 75.3972 107.688 75.2354L107.787 74.9712L106.86 72.4007H107.345L107.993 74.349Z" fill="white"/>
<path d="M143.208 73.4131L146.223 73.4168" stroke="white" stroke-width="0.3936" stroke-linecap="round" stroke-linejoin="round"/>
<path d="M144.718 71.9072L144.714 74.9223" stroke="white" stroke-width="0.3936" stroke-linecap="round" stroke-linejoin="round"/>
<path d="M147.244 71H142V75.7203H147.244V71Z" stroke="white" stroke-width="0.3936" stroke-linecap="round" stroke-linejoin="round"/>
</svg>
