<svg width="205" height="180" viewBox="0 0 205 180" fill="none" xmlns="http://www.w3.org/2000/svg">
<path d="M143.525 117.307C84.118 149.633 -48.5019 48.1224 36.4536 11.6685C68.9636 -2.28535 114.516 6.97688 143.825 32.4678C176.466 60.8652 181.042 96.8926 143.525 117.307Z" fill="#64BC26"/>
<path opacity="0.9" d="M143.525 117.307C84.118 149.633 -48.5019 48.1224 36.4536 11.6685C68.9636 -2.28535 114.516 6.97688 143.825 32.4678C176.466 60.8652 181.042 96.8926 143.525 117.307Z" fill="white"/>
<path d="M102.095 180C158.481 180 204.19 177.331 204.19 174.039C204.19 170.747 158.481 168.079 102.095 168.079C45.7095 168.079 0 170.747 0 174.039C0 177.331 45.7095 180 102.095 180Z" fill="#F5F5F5"/>
<path d="M169.107 174.039H114.176C113.267 174.044 112.368 173.864 111.531 173.51C110.694 173.156 109.939 172.636 109.309 171.981C108.68 171.326 108.19 170.55 107.87 169.7C107.55 168.85 107.405 167.944 107.446 167.036L113.575 8.84635C113.669 6.97296 114.473 5.20572 115.824 3.90456C117.175 2.6034 118.972 1.86619 120.847 1.84307H175.778C176.686 1.83934 177.586 2.02003 178.422 2.37418C179.258 2.72832 180.014 3.24856 180.643 3.90337C181.272 4.55817 181.762 5.3339 182.082 6.18356C182.403 7.03322 182.548 7.93912 182.508 8.84635L176.378 167.036C176.285 168.91 175.481 170.677 174.129 171.978C172.778 173.279 170.982 174.016 169.107 174.039Z" fill="#263238"/>
<path d="M108.014 18.1926H107.488L107.856 8.79352C107.967 6.44429 108.972 4.22636 110.666 2.595C112.36 0.963649 114.614 0.0426294 116.966 0.0209961V0.547558C114.75 0.569281 112.627 1.43772 111.031 2.97484C109.435 4.51196 108.488 6.60131 108.383 8.81458L108.014 18.1926Z" fill="#64BC26"/>
<path d="M125.175 0H120.699V0.526562H125.175V0Z" fill="#64BC26"/>
<path d="M165.225 174.039H110.294C109.386 174.044 108.486 173.864 107.65 173.51C106.813 173.156 106.057 172.636 105.428 171.981C104.799 171.326 104.309 170.55 103.989 169.7C103.668 168.85 103.524 167.944 103.565 167.036L109.694 8.84635C109.788 6.97296 110.592 5.20572 111.943 3.90456C113.294 2.6034 115.09 1.86619 116.966 1.84307H171.897C172.805 1.83934 173.704 2.02003 174.541 2.37418C175.377 2.72832 176.132 3.24856 176.762 3.90337C177.391 4.55817 177.88 5.3339 178.201 6.18356C178.521 7.03322 178.666 7.93912 178.626 8.84635L172.497 167.036C172.403 168.91 171.599 170.677 170.248 171.978C168.897 173.279 167.101 174.016 165.225 174.039Z" fill="#64BC26"/>
<path opacity="0.8" d="M166.974 155.841H109.958C109.45 155.845 108.946 155.745 108.478 155.547C108.01 155.35 107.587 155.059 107.235 154.693C106.883 154.327 106.609 153.894 106.43 153.418C106.251 152.943 106.17 152.436 106.193 151.929L111.511 14.6857C111.562 13.6368 112.012 12.6471 112.768 11.9188C113.525 11.1906 114.531 10.779 115.581 10.7681H172.592C173.1 10.7655 173.604 10.8661 174.072 11.0641C174.54 11.262 174.963 11.553 175.315 11.9194C175.667 12.2858 175.941 12.7199 176.12 13.1955C176.299 13.6711 176.38 14.1781 176.357 14.6857L171.039 151.929C170.988 152.976 170.539 153.965 169.783 154.692C169.027 155.419 168.022 155.83 166.974 155.841V155.841Z" fill="white"/>
<path opacity="0.4" d="M142.767 155.841H128.55L152.529 10.7681H166.747L142.767 155.841Z" fill="white"/>
<path opacity="0.4" d="M126.049 155.841H118.94L142.92 10.7681H150.029L126.049 155.841Z" fill="white"/>
<path d="M151.914 113.421H123.88C122.584 113.421 121.558 112.005 121.5 110.141L120.704 84.113C120.641 81.9699 121.873 80.1111 123.364 80.1111H154.957C156.448 80.1111 157.537 81.9699 157.311 84.113L154.541 110.141C154.341 112.005 153.204 113.421 151.914 113.421Z" fill="#64BC26"/>
<path d="M151.914 114.411H123.879C122.031 114.411 120.588 112.584 120.515 110.173L119.72 84.1446C119.643 82.675 120.15 81.2346 121.131 80.1375C121.416 79.8273 121.76 79.5779 122.144 79.4042C122.528 79.2305 122.942 79.136 123.363 79.1265H154.957C155.377 79.1365 155.79 79.2356 156.168 79.4172C156.547 79.5987 156.882 79.8586 157.153 80.1796C157.61 80.7427 157.946 81.3935 158.142 82.0917C158.338 82.79 158.388 83.5209 158.29 84.2394L155.52 110.267C155.278 112.616 153.699 114.411 151.914 114.411ZM123.363 81.0958C123.207 81.1081 123.054 81.1511 122.914 81.2225C122.774 81.2939 122.649 81.3922 122.547 81.5118C121.939 82.2251 121.632 83.1461 121.689 84.0814L122.484 110.109C122.521 111.394 123.147 112.437 123.879 112.437H151.914C152.582 112.437 153.409 111.473 153.562 110.036L156.331 84.0077C156.398 83.5648 156.375 83.1133 156.265 82.6793C156.154 82.2453 155.959 81.8377 155.689 81.4802C155.603 81.3664 155.492 81.2729 155.366 81.2065C155.239 81.1401 155.1 81.1023 154.957 81.0958H123.363Z" fill="#64BC26"/>
<path d="M154.541 111.126H154.436C154.307 111.112 154.183 111.073 154.069 111.011C153.956 110.949 153.855 110.865 153.774 110.764C153.693 110.664 153.632 110.548 153.596 110.424C153.56 110.3 153.548 110.17 153.562 110.041L156.605 81.4328C157.079 76.9623 159.896 73.5923 163.156 73.5923H165.283C165.544 73.5923 165.795 73.696 165.979 73.8807C166.164 74.0654 166.268 74.3158 166.268 74.577C166.268 74.8381 166.164 75.0886 165.979 75.2732C165.795 75.4579 165.544 75.5616 165.283 75.5616H163.177C160.965 75.5616 158.964 78.2313 158.585 81.6434L155.542 110.252C155.515 110.496 155.398 110.722 155.212 110.884C155.027 111.046 154.787 111.132 154.541 111.126V111.126Z" fill="#64BC26"/>
<path d="M129.645 123.105C129.097 123.095 128.557 122.974 128.058 122.747C127.559 122.521 127.112 122.195 126.744 121.788C125.459 120.451 124.743 118.266 124.827 115.944C124.98 112.01 127.365 108.814 130.151 108.814C130.699 108.822 131.239 108.943 131.738 109.17C132.238 109.396 132.685 109.723 133.052 110.13C134.337 111.468 135.053 113.653 134.969 115.975C134.816 119.909 132.431 123.105 129.645 123.105ZM130.172 109.672C127.844 109.672 125.838 112.5 125.706 115.991C125.627 118.097 126.233 120.035 127.386 121.209C127.674 121.531 128.025 121.791 128.417 121.972C128.809 122.153 129.234 122.252 129.666 122.262C131.993 122.262 134 119.435 134.131 115.944C134.21 113.837 133.605 111.9 132.452 110.725C132.161 110.401 131.807 110.14 131.411 109.958C131.015 109.777 130.586 109.68 130.151 109.672H130.172Z" fill="#64BC26"/>
<path d="M144.963 123.105C144.416 123.095 143.876 122.974 143.378 122.747C142.88 122.521 142.434 122.194 142.067 121.788C140.777 120.451 140.061 118.266 140.15 115.944C140.298 112.01 142.688 108.814 145.474 108.814C146.021 108.822 146.561 108.943 147.059 109.17C147.557 109.396 148.004 109.723 148.37 110.13C149.66 111.468 150.376 113.653 150.286 115.975C150.139 119.909 147.748 123.105 144.963 123.105ZM145.489 109.672C143.157 109.672 141.156 112.5 141.024 115.991C140.945 118.097 141.551 120.035 142.699 121.209C142.986 121.531 143.337 121.791 143.73 121.972C144.122 122.153 144.547 122.252 144.979 122.262C147.311 122.262 149.312 119.435 149.444 115.944C149.523 113.837 148.917 111.9 147.769 110.725C147.48 110.401 147.126 110.141 146.731 109.959C146.336 109.778 145.908 109.68 145.474 109.672H145.489Z" fill="#64BC26"/>
<path d="M151.366 54.517C152.03 45.3455 147.445 37.5397 141.124 37.0822C134.804 36.6248 129.142 43.6889 128.478 52.8604C127.815 62.0318 132.4 69.8377 138.72 70.2951C145.04 70.7526 150.702 63.6885 151.366 54.517Z" fill="#64BC26"/>
<path d="M139.298 71.3122C137.952 71.2895 136.626 70.9903 135.401 70.4332C134.177 69.8761 133.08 69.073 132.179 68.0738C129.019 64.7776 127.239 59.3856 127.44 53.6618C127.808 43.9678 133.685 36.0852 140.54 36.0852C141.885 36.1063 143.212 36.4043 144.437 36.9605C145.661 37.5168 146.759 38.3194 147.66 39.3183C150.819 42.6198 152.604 48.0066 152.399 53.7356C152.03 63.4243 146.154 71.3122 139.298 71.3122ZM140.535 38.0598C134.743 38.0598 129.73 45.0947 129.404 53.7408C129.204 58.9433 130.767 63.7929 133.579 66.7153C134.299 67.5202 135.175 68.1691 136.155 68.6219C137.135 69.0748 138.197 69.3219 139.277 69.3481C145.069 69.3481 150.082 62.3133 150.408 53.6671C150.608 48.4647 149.05 43.615 146.238 40.6926C145.518 39.8871 144.64 39.2378 143.659 38.785C142.679 38.3321 141.615 38.0853 140.535 38.0598Z" fill="white"/>
<path d="M132.109 53.3302C132.109 53.3302 136.48 57.5427 138.249 62.9558C139.776 58.7433 142.056 52.8405 147.485 46.2322C140.919 50.5921 138.418 56.0631 138.418 56.0631C136.588 54.6195 134.414 53.6776 132.109 53.3302V53.3302Z" fill="white"/>
<path d="M137.96 169.137C137.496 169.133 137.037 169.034 136.613 168.844C136.189 168.655 135.809 168.38 135.496 168.037C134.997 167.478 134.614 166.824 134.371 166.115C134.128 165.406 134.028 164.656 134.079 163.908C134.195 161.033 136.107 158.695 138.345 158.695C138.809 158.701 139.268 158.802 139.692 158.992C140.116 159.182 140.496 159.458 140.809 159.801C141.305 160.357 141.686 161.007 141.928 161.713C142.17 162.418 142.27 163.164 142.22 163.908C142.115 166.799 140.198 169.137 137.96 169.137ZM138.345 159.253C136.402 159.253 134.738 161.36 134.659 163.929C134.61 164.602 134.696 165.277 134.912 165.915C135.128 166.554 135.47 167.142 135.917 167.647C136.178 167.936 136.497 168.168 136.852 168.329C137.207 168.489 137.592 168.574 137.981 168.579C139.924 168.579 141.588 166.473 141.667 163.908C141.716 163.235 141.63 162.559 141.414 161.92C141.198 161.281 140.856 160.691 140.409 160.185C140.147 159.896 139.829 159.664 139.474 159.504C139.119 159.343 138.734 159.258 138.345 159.253V159.253Z" fill="white"/>
<path d="M144.189 8.37237C143.973 8.36684 143.761 8.31727 143.566 8.22672C143.37 8.13616 143.195 8.00653 143.051 7.84581C142.83 7.59848 142.661 7.3094 142.553 6.99559C142.446 6.68178 142.402 6.3496 142.425 6.01864C142.472 4.74436 143.336 3.70703 144.347 3.70703C144.562 3.71256 144.774 3.76213 144.97 3.85268C145.166 3.94324 145.341 4.07287 145.484 4.23359C145.706 4.48033 145.877 4.7692 145.985 5.08307C146.094 5.39694 146.138 5.72941 146.116 6.06076C146.069 7.33504 145.2 8.37237 144.189 8.37237ZM144.347 4.28625C143.631 4.28625 143.015 5.08136 142.978 6.06076C142.944 6.57683 143.114 7.08561 143.452 7.47721C143.545 7.5812 143.658 7.66483 143.785 7.72283C143.912 7.78082 144.049 7.81194 144.189 7.81421C144.905 7.81421 145.521 7.01911 145.558 6.0397C145.595 5.52171 145.424 5.01034 145.084 4.61798C144.99 4.5152 144.877 4.43272 144.75 4.37566C144.623 4.3186 144.486 4.28817 144.347 4.28625V4.28625Z" fill="white"/>
<path d="M69.8166 20.2884C63.7875 19.4828 60.5281 23.1371 62.2447 29.7665C63.8612 36.0115 60.7334 35.1796 60.1384 41.0929C59.5434 47.0062 64.4194 47.2484 66.0043 52.0769C67.5893 56.9055 76.346 62.3923 79.7687 59.9175C83.1913 57.4426 89.984 58.0113 90.6053 49.8391C91.2266 41.6668 84.7605 41.2245 86.9773 36.7593C89.8628 30.9671 83.4704 32.3783 83.4704 24.9959C83.4862 19.051 74.8664 12.6111 69.8166 20.2884Z" fill="#263238"/>
<path d="M62.229 51.7505C62.0973 54.2728 61.8656 56.7108 61.497 59.1909C61.1746 61.7548 60.6122 64.2829 59.8173 66.7418C59.5708 67.4595 59.2569 68.1524 58.88 68.8112C58.6222 69.2589 58.3051 69.6698 57.9375 70.0328L57.7532 70.2013L57.6532 70.2803L57.5952 70.3277L57.3741 70.4804L56.937 70.7858C55.8236 71.5003 54.6523 72.1203 53.4354 72.6393C51.1295 73.6514 48.7337 74.4447 46.2794 75.0088L45.4316 72.6761C47.5116 71.523 49.6441 70.3435 51.5924 69.1218C52.544 68.5403 53.4584 67.9002 54.3305 67.2051L54.6149 66.9577L54.7623 66.8365V66.8102C54.7623 66.8102 54.8202 66.7102 54.894 66.5575C55.0813 66.1394 55.2379 65.7082 55.3626 65.2674C55.6615 64.1957 55.8971 63.1073 56.0682 62.008C56.2683 60.8706 56.4315 59.7069 56.5684 58.5327C56.837 56.1947 57.0687 53.7936 57.2477 51.4609L62.229 51.7505Z" fill="#FFB573"/>
<path d="M46.98 72.7288L42.957 71.4861L43.71 76.3515C43.71 76.3515 46.3428 76.025 47.6118 74.5559L46.98 72.7288Z" fill="#FFB573"/>
<path d="M39.6713 74.6191L39.8925 75.2563C40.0198 75.6177 40.2601 75.9285 40.5778 76.1429C40.8954 76.3572 41.2736 76.4636 41.6565 76.4463L43.7101 76.3515L42.9571 71.4861L40.6981 72.3707C40.2699 72.5406 39.924 72.8694 39.7326 73.2884C39.5412 73.7075 39.5193 74.1843 39.6713 74.6191V74.6191Z" fill="#FFB573"/>
<path d="M66.9839 47.0484C66.9839 48.5702 66.2467 51.5663 65.6201 53.82C65.1567 55.4418 64.7671 56.674 64.7671 56.674L63.8456 56.4423L56.2368 54.5151C56.1157 50.608 56.2684 46.3112 60.1544 43.7416C62.6029 42.1303 66.9628 44.3419 66.9839 47.0484Z" fill="#64BC26"/>
<g opacity="0.5">
<path opacity="0.5" d="M66.9839 47.0484C66.9839 48.5702 66.2467 51.5663 65.6201 53.82C65.1567 55.4418 64.7671 56.674 64.7671 56.674L63.8456 56.4423L56.2368 54.5151C56.1157 50.608 56.2684 46.3112 60.1544 43.7416C62.6029 42.1303 66.9628 44.3419 66.9839 47.0484Z" fill="black"/>
</g>
<path opacity="0.3" d="M66.9732 47.3116C66.4783 46.785 65.3514 46.6955 62.8976 47.4748C59.3802 48.5858 58.3955 52.4403 58.3481 55.052L63.8455 56.4421L64.3194 56.5632L64.7669 56.6738C64.7669 56.6738 64.9618 56.0577 65.2356 55.1205C65.3462 54.7361 65.4831 54.2938 65.6147 53.8199C66.215 51.6925 66.91 48.8912 66.9732 47.3116Z" fill="black"/>
<path d="M51.3664 169.316L46.7222 167.689L49.6393 157.632L54.2783 159.264L51.3664 169.316Z" fill="#FFB573"/>
<path d="M113.406 157.4L109.63 160.212L101.895 152.371L105.67 149.554L113.406 157.4Z" fill="#FFB573"/>
<path d="M108.082 159.069L112.163 155.694C112.231 155.633 112.319 155.6 112.41 155.6C112.502 155.6 112.59 155.633 112.658 155.694L115.791 158.537C115.868 158.611 115.928 158.701 115.968 158.799C116.007 158.898 116.025 159.005 116.021 159.111C116.017 159.218 115.989 159.322 115.942 159.417C115.894 159.513 115.826 159.597 115.744 159.664C114.301 160.817 113.542 161.302 111.752 162.781C110.646 163.692 108.34 165.872 106.813 167.131C105.286 168.389 103.959 166.952 104.486 166.288C106.824 163.329 107.366 161.381 107.645 159.78C107.703 159.499 107.857 159.247 108.082 159.069V159.069Z" fill="#263238"/>
<path d="M46.4061 166.241L51.5665 168.394C51.6579 168.435 51.7338 168.504 51.783 168.592C51.8323 168.679 51.8524 168.779 51.8403 168.879L51.2558 173.428C51.2427 173.536 51.2047 173.639 51.1447 173.729C51.0847 173.82 51.0044 173.895 50.9103 173.948C50.8161 174.002 50.7107 174.033 50.6025 174.039C50.4943 174.044 50.3862 174.025 50.2869 173.981C48.4597 173.239 47.6014 172.87 45.3372 171.922L38.3813 169.026C36.4962 168.236 36.9017 166.167 37.7547 166.32C41.5723 167.01 44.0314 166.783 45.5373 166.214C45.8193 166.11 46.1311 166.119 46.4061 166.241V166.241Z" fill="#263238"/>
<path opacity="0.2" d="M49.6389 157.637L48.1382 162.818L52.6561 164.861L54.2832 159.264L49.6389 157.637Z" fill="black"/>
<path opacity="0.2" d="M105.676 149.554L101.895 152.371L105.881 156.415L109.662 153.598L105.676 149.554Z" fill="black"/>
<path d="M81.2644 71.6388L62.1344 71.9126C59.5016 57.1057 58.896 50.034 58.896 46.6376C58.8935 45.7904 59.1858 44.9687 59.7229 44.3135C60.2599 43.6583 61.0083 43.2103 61.8395 43.0465C63.0085 42.8201 64.4723 42.5568 65.9203 42.3567C66.4206 42.2882 66.9261 42.2251 67.421 42.1724C70.3086 41.9219 73.2104 41.8797 76.1041 42.046C76.5358 42.046 76.9624 42.0829 77.3889 42.1092C79.3266 42.2356 81.1485 42.4831 82.4281 42.6832C82.6639 42.7207 82.8895 42.8059 83.0912 42.9337C83.2929 43.0615 83.4663 43.2292 83.6009 43.4264C83.7355 43.6236 83.8284 43.8462 83.8739 44.0806C83.9194 44.315 83.9166 44.5562 83.8656 44.7894C83.3074 47.4222 82.8493 49.7338 82.4807 51.8032C81.8962 55.0942 81.5276 57.7534 81.3118 60.086C80.9877 63.9295 80.9718 67.7928 81.2644 71.6388V71.6388Z" fill="#64BC26"/>
<g opacity="0.5">
<path opacity="0.5" d="M81.2644 71.6388L62.1344 71.9126C59.5016 57.1057 58.896 50.034 58.896 46.6376C58.8935 45.7904 59.1858 44.9687 59.7229 44.3135C60.2599 43.6583 61.0083 43.2103 61.8395 43.0465C63.0085 42.8201 64.4723 42.5568 65.9203 42.3567C66.4206 42.2882 66.9261 42.2251 67.421 42.1724C70.3086 41.9219 73.2104 41.8797 76.1041 42.046C76.5358 42.046 76.9624 42.0829 77.3889 42.1092C79.3266 42.2356 81.1485 42.4831 82.4281 42.6832C82.6639 42.7207 82.8895 42.8059 83.0912 42.9337C83.2929 43.0615 83.4663 43.2292 83.6009 43.4264C83.7355 43.6236 83.8284 43.8462 83.8739 44.0806C83.9194 44.315 83.9166 44.5562 83.8656 44.7894C83.3074 47.4222 82.8493 49.7338 82.4807 51.8032C81.8962 55.0942 81.5276 57.7534 81.3118 60.086C80.9877 63.9295 80.9718 67.7928 81.2644 71.6388V71.6388Z" fill="black"/>
</g>
<path opacity="0.3" d="M81.3117 60.1019C80.3481 57.2163 80.4008 51.224 81.4381 49.281L82.4912 51.819C81.8962 55.1101 81.5276 57.7692 81.3117 60.1019Z" fill="black"/>
<path d="M74.6774 36.1326C74.5879 38.481 74.867 40.919 76.1097 42.0669C76.1097 42.0669 74.0561 44.7471 69.2222 47.3799C66.6631 44.9156 67.4214 42.1933 67.4214 42.1933C70.5281 41.4034 70.5808 39.3341 69.6698 35.9009L72.1341 34.9004C72.3606 34.7008 72.641 34.5725 72.9401 34.5317C73.2392 34.4908 73.5437 34.5393 73.8154 34.6709C74.0871 34.8025 74.3139 35.0115 74.4672 35.2715C74.6206 35.5316 74.6937 35.8311 74.6774 36.1326Z" fill="#FFB573"/>
<path opacity="0.2" d="M72.1385 34.9004C72.3506 34.7152 72.6097 34.5921 72.8872 34.5445C73.1647 34.4969 73.45 34.5267 73.7117 34.6306C73.9734 34.7346 74.2014 34.9086 74.3707 35.1336C74.54 35.3586 74.644 35.6259 74.6713 35.9062C73.5846 37.5824 71.9959 38.8725 70.1323 39.5921C70.2101 38.3349 70.0529 37.0742 69.6689 35.8746L72.1385 34.9004Z" fill="black"/>
<path d="M79.1267 29.2347C77.4627 33.6052 76.8467 35.485 73.8611 37.07C69.4011 39.45 64.3829 36.4486 64.7305 31.6675C65.0253 27.3654 67.7003 20.9467 72.6289 20.5359C73.713 20.4388 74.8039 20.6208 75.7977 21.0646C76.7915 21.5083 77.6553 22.1991 78.3066 23.0711C78.958 23.9431 79.3753 24.9673 79.5188 26.0462C79.6624 27.1251 79.5274 28.2228 79.1267 29.2347V29.2347Z" fill="#FFB573"/>
<path d="M70.7596 20.5148C67.6581 24.8905 76.5517 23.8163 76.1094 26.902C75.8514 28.7766 73.1765 32.2677 77.8734 32.9206C82.5703 33.5735 83.734 25.9068 81.3171 23.0265C78.9002 20.1462 73.8084 18.2769 70.7596 20.5148Z" fill="#263238"/>
<path d="M71.7443 20.3833C71.1019 21.963 67.6845 24.1271 66.4365 23.7269C66.8156 21.8366 70.0013 20.041 71.7443 20.3833Z" fill="#263238"/>
<path d="M78.8427 33.6946C78.3716 34.4666 77.6146 35.0212 76.7365 35.2375C75.5675 35.5113 75.0357 34.4582 75.399 33.3787C75.7255 32.4151 76.7312 31.104 77.8791 31.3093C78.1302 31.3578 78.3652 31.4683 78.5627 31.6308C78.7602 31.7934 78.9138 32.0028 79.0096 32.2399C79.1054 32.4771 79.1403 32.7344 79.1112 32.9885C79.082 33.2426 78.9897 33.4854 78.8427 33.6946V33.6946Z" fill="#FFB573"/>
<path d="M62.134 71.9125C62.134 71.9125 58.8956 99.7571 55.91 117.091C53.5721 130.672 47.6641 158.948 47.6641 158.948L55.3308 161.665C55.3308 161.665 64.1139 132.177 65.6514 119.603C71.8438 101.458 76.2932 71.7598 76.2932 71.7598L62.134 71.9125Z" fill="#64BC26"/>
<path d="M46.417 160.859L55.2948 163.987L56.4796 161.138L46.854 157.458L46.417 160.859Z" fill="#263238"/>
<path opacity="0.3" d="M71.8286 80.1849L68.9641 85.6769C67.9109 89.8157 68.1637 99.8941 69.4906 106.26C71.876 96.661 73.7821 86.5615 74.9669 79.7847L71.8286 80.1849Z" fill="black"/>
<path d="M66.2891 71.9125C66.2891 71.9125 69.717 103.074 76.1147 120.356C79.3215 129.039 103.127 154.762 103.127 154.762L108.498 150.465C108.498 150.465 93.4017 124.511 86.8039 117.729C84.1132 102.653 87.4937 80.0795 81.2434 71.6282L66.2891 71.9125Z" fill="#64BC26"/>
<path d="M103.585 156.626L109.883 151.46L108.182 148.669L101.284 154.672L103.585 156.626Z" fill="#263238"/>
<path d="M81.5586 70.5171L82.4432 72.2127C82.5116 72.3443 82.3589 72.4865 82.1378 72.4865L62.0705 72.7761C61.8967 72.7761 61.7546 72.6919 61.7388 72.5865L61.5439 70.8752C61.5439 70.7594 61.6809 70.6541 61.8651 70.6541L81.2426 70.375C81.3031 70.3695 81.3639 70.3797 81.4193 70.4046C81.4746 70.4295 81.5226 70.4683 81.5586 70.5171V70.5171Z" fill="#263238"/>
<path d="M78.9631 72.7181H79.4897C79.5897 72.7181 79.6687 72.6602 79.6635 72.597L79.3844 70.3749C79.3844 70.3064 79.2896 70.259 79.1843 70.259H78.6577C78.5577 70.259 78.4787 70.317 78.4892 70.3801L78.763 72.6022C78.7683 72.6654 78.8631 72.7181 78.9631 72.7181Z" fill="#64BC26"/>
<path d="M63.5089 72.9394H64.0355C64.1408 72.9394 64.2145 72.8815 64.2093 72.8183L63.9354 70.5962C63.9354 70.5277 63.8354 70.4751 63.7301 70.4803H63.2035C63.0982 70.4803 63.0192 70.5383 63.0298 70.6015L63.3036 72.8235C63.3141 72.8867 63.4089 72.9394 63.5089 72.9394Z" fill="#64BC26"/>
<path d="M71.2388 72.8129H71.7654C71.8707 72.8129 71.9497 72.755 71.9391 72.6918L71.6653 70.4697C71.6653 70.4013 71.5653 70.3486 71.4652 70.3539H70.9387C70.8334 70.3539 70.7596 70.4118 70.7649 70.475L71.0387 72.6971C71.0282 72.7761 71.1335 72.8129 71.2388 72.8129Z" fill="#64BC26"/>
<path d="M71.4384 28.1658C71.3279 28.5292 71.0435 28.7609 70.8066 28.6924C70.5696 28.6239 70.4696 28.2659 70.5801 27.9026C70.6907 27.5392 70.9803 27.3023 71.2173 27.376C71.4542 27.4497 71.5543 27.8025 71.4384 28.1658Z" fill="#263238"/>
<path d="M67.3421 26.8809C67.2263 27.2442 66.9419 27.4759 66.705 27.4075C66.468 27.339 66.368 26.981 66.4838 26.6176C66.5997 26.2543 66.8787 26.0226 67.1157 26.0911C67.3527 26.1595 67.4527 26.5176 67.3421 26.8809Z" fill="#263238"/>
<path d="M67.2151 26.1437L66.4253 25.6172C66.4253 25.6172 66.657 26.4386 67.2151 26.1437Z" fill="#263238"/>
<path d="M68.3532 27.8394C67.7724 28.5666 67.0937 29.2099 66.3364 29.7508C66.4804 29.9401 66.6637 30.096 66.8737 30.2078C67.0836 30.3196 67.3153 30.3847 67.5528 30.3984L68.3532 27.8394Z" fill="#ED893E"/>
<path d="M68.7639 32.4099C68.7455 32.3964 68.7319 32.3774 68.7253 32.3555C68.7186 32.3337 68.7192 32.3102 68.7271 32.2888C68.7367 32.2606 68.7569 32.2371 68.7834 32.2234C68.8098 32.2097 68.8406 32.2067 68.8692 32.2151C69.3167 32.3669 69.7937 32.4107 70.2613 32.343C70.729 32.2753 71.174 32.0979 71.56 31.8254C71.5714 31.8161 71.5845 31.8091 71.5986 31.8048C71.6127 31.8006 71.6276 31.7991 71.6422 31.8006C71.6569 31.8021 71.6711 31.8064 71.6841 31.8134C71.6971 31.8204 71.7086 31.8298 71.7179 31.8412C71.7273 31.8526 71.7343 31.8658 71.7385 31.8799C71.7428 31.894 71.7442 31.9088 71.7428 31.9235C71.7413 31.9381 71.7369 31.9524 71.73 31.9654C71.723 31.9784 71.7135 31.9899 71.7021 31.9992C71.2881 32.2976 70.8087 32.4924 70.3039 32.5676C69.7992 32.6427 69.2837 32.5958 68.8008 32.431L68.7639 32.4099Z" fill="#263238"/>
<path d="M73.0128 27.1864C72.9826 27.1609 72.9591 27.1283 72.9444 27.0916C72.8585 26.8254 72.7106 26.5835 72.5129 26.3857C72.3151 26.188 72.0732 26.0401 71.807 25.9542C71.7494 25.9404 71.6994 25.9046 71.6679 25.8544C71.6364 25.8042 71.6259 25.7436 71.6385 25.6857C71.6523 25.628 71.6882 25.5781 71.7384 25.5466C71.7886 25.5151 71.8492 25.5045 71.9071 25.5172C72.2459 25.6207 72.5551 25.8038 72.8088 26.0511C73.0626 26.2984 73.2535 26.6028 73.3656 26.9389C73.3862 26.9948 73.3839 27.0565 73.3593 27.1107C73.3346 27.1649 73.2896 27.2072 73.234 27.2285C73.1965 27.2404 73.1567 27.2428 73.1181 27.2354C73.0795 27.228 73.0433 27.2112 73.0128 27.1864V27.1864Z" fill="#263238"/>
<path d="M66.1204 24.5274C66.1204 24.5274 66.1204 24.501 66.1204 24.4905C66.1151 24.4618 66.1155 24.4323 66.1216 24.4038C66.1278 24.3752 66.1395 24.3482 66.1562 24.3242C66.1728 24.3002 66.194 24.2798 66.2186 24.264C66.2432 24.2483 66.2707 24.2376 66.2994 24.2325C66.6468 24.1617 67.006 24.1755 67.3469 24.2726C67.6878 24.3698 68.0004 24.5474 68.2582 24.7906C68.2793 24.8112 68.2959 24.8358 68.3073 24.8629C68.3187 24.8901 68.3246 24.9192 68.3246 24.9486C68.3246 24.978 68.3187 25.0072 68.3073 25.0343C68.2959 25.0614 68.2793 25.086 68.2582 25.1066C68.216 25.1477 68.1593 25.1708 68.1003 25.1708C68.0413 25.1708 67.9846 25.1477 67.9423 25.1066C67.7328 24.9136 67.4797 24.774 67.2047 24.6997C66.9297 24.6255 66.6408 24.6187 66.3626 24.6801C66.3107 24.6875 66.2578 24.6762 66.2135 24.6482C66.1691 24.6202 66.1361 24.5774 66.1204 24.5274Z" fill="#263238"/>
<path d="M47.9537 45.3263C47.1744 44.0679 46.5004 41.6088 47.8326 40.2187C49.1648 38.8286 50.2022 38.4336 49.8704 36.0062C49.5387 33.5787 53.2457 33.6472 53.5564 31.7937C55.4046 33.3734 57.3634 37.0593 56.3155 38.7496C55.2677 40.4398 55.8311 41.7089 55.6047 43.7572C55.3783 45.8055 50.9025 50.097 47.9537 45.3263Z" fill="#64BC26"/>
<path opacity="0.5" d="M47.9537 45.3263C47.1744 44.0679 46.5004 41.6088 47.8326 40.2187C49.1648 38.8286 50.2022 38.4336 49.8704 36.0062C49.5387 33.5787 53.2457 33.6472 53.5564 31.7937C55.4046 33.3734 57.3634 37.0593 56.3155 38.7496C55.2677 40.4398 55.8311 41.7089 55.6047 43.7572C55.3783 45.8055 50.9025 50.097 47.9537 45.3263Z" fill="white"/>
<path d="M53.7093 35.6956C52.8142 41.3192 51.166 47.8855 48.8018 52.7667C49.3767 52.7198 49.9162 52.4697 50.3235 52.0611C50.3235 52.0611 54.0674 41.8932 53.7093 35.6956Z" fill="#64BC26"/>
<path d="M46.1795 48.091C44.9947 47.2063 43.4677 45.1685 44.189 43.3835C44.9104 41.5984 45.7371 40.8507 44.5313 38.7129C43.3255 36.575 46.8061 35.2692 46.4111 33.4473C48.7227 34.2582 51.8979 36.9594 51.5346 38.8972C51.1713 40.8349 52.1717 41.8301 52.7141 43.8153C53.2564 45.8004 50.6816 51.4399 46.1795 48.091Z" fill="#64BC26"/>
<path opacity="0.6" d="M46.1795 48.091C44.9947 47.2063 43.4677 45.1685 44.189 43.3835C44.9104 41.5984 45.7371 40.8507 44.5313 38.7129C43.3255 36.575 46.8061 35.2692 46.4111 33.4473C48.7227 34.2582 51.8979 36.9594 51.5346 38.8972C51.1713 40.8349 52.1717 41.8301 52.7141 43.8153C53.2564 45.8004 50.6816 51.4399 46.1795 48.091Z" fill="white"/>
<path d="M54.6413 49.7863C55.884 49.6968 57.9007 48.9438 58.2008 47.3431C58.501 45.7424 58.2535 44.8367 60.0859 43.8625C61.9184 42.8884 60.0333 40.3819 61.1391 39.2656C59.1276 38.7917 55.6417 39.2656 55.0099 40.8137C54.378 42.3618 53.2248 42.604 51.9348 43.773C50.6447 44.942 49.9128 50.1233 54.6413 49.7863Z" fill="#64BC26"/>
<path opacity="0.7" d="M54.6413 49.7863C55.884 49.6968 57.9007 48.9438 58.2008 47.3431C58.501 45.7424 58.2535 44.8367 60.0859 43.8625C61.9184 42.8884 60.0333 40.3819 61.1391 39.2656C59.1276 38.7917 55.6417 39.2656 55.0099 40.8137C54.378 42.3618 53.2248 42.604 51.9348 43.773C50.6447 44.942 49.9128 50.1233 54.6413 49.7863Z" fill="white"/>
<path d="M47.7168 39.3184C48.6593 44.2417 49.1122 50.1024 48.2434 54.6729C48.8049 54.561 49.3054 54.246 49.6493 53.7883C49.6493 53.7883 50.2022 44.4945 47.7168 39.3184Z" fill="#64BC26"/>
<path d="M57.558 42.009C54.2618 45.6212 50.7391 50.2392 48.7329 54.4412C48.4575 54.0291 48.3363 53.5331 48.3906 53.0405C48.3906 53.0405 53.2086 45.0842 57.558 42.009Z" fill="#64BC26"/>
<path d="M42.6882 46.9481C41.1981 46.132 38.2546 48.412 39.8027 51.0606C41.3508 53.7092 44.5417 54.9361 46.0161 53.5144C48.0486 53.151 48.9333 49.8653 47.7117 47.0534C46.49 44.2416 42.9147 45.2631 42.6882 46.9481Z" fill="#64BC26"/>
<path d="M42.6884 46.9482C42.6884 46.9482 42.1618 45.2368 43.0306 44.6892C43.1484 44.8372 43.2574 44.9919 43.3571 45.1526C43.3571 45.1526 42.7674 45.3158 42.6884 46.9482Z" fill="#263238"/>
<path d="M59.533 42.4829C59.354 46.1004 55.6365 48.8491 51.5978 49.7337C51.3493 49.9889 51.1683 50.302 51.0712 50.6446C51.0373 50.7232 51.0313 50.811 51.0543 50.8934C51.0773 50.9758 51.1279 51.0479 51.1976 51.0975C51.5037 51.3512 51.864 51.5313 52.2507 51.6241C54.3839 51.6758 56.4637 50.9538 58.1061 49.5915C60.2123 47.9802 62.1343 44.7893 61.5287 43.3096C60.9232 41.83 60.444 42.325 60.2123 41.2034C60.0836 40.7482 60.0285 40.2753 60.0491 39.8027C60.0491 39.8027 59.5225 40.0502 59.3909 40.3714C59.5646 40.8243 59.591 41.3034 59.533 42.4829Z" fill="#64BC26"/>
<path opacity="0.2" d="M61.5503 43.3256C61.4125 42.9284 61.1856 42.5682 60.8868 42.2725C60.9289 43.4625 60.6235 44.9053 59.3071 47.0115C57.9328 49.2125 54.2468 51.1714 51.0664 50.9765C51.0918 51.0274 51.1299 51.071 51.177 51.1029C51.4832 51.3566 51.8434 51.5367 52.2301 51.6295C54.3634 51.6817 56.4434 50.9597 58.0855 49.5969C60.197 48.0015 62.1347 44.8105 61.5503 43.3256Z" fill="black"/>
<path d="M59.5438 41.1139C59.4665 40.8426 59.3751 40.5754 59.27 40.3136C59.486 40.0341 59.7788 39.8237 60.1125 39.708V40.5768C60.1125 40.5768 59.8229 41.0771 59.5438 41.1139Z" fill="#263238"/>
<path d="M51.1973 50.2866C51.1167 50.3753 51.0411 50.4685 50.9709 50.5657C50.935 50.6703 50.9329 50.7836 50.9651 50.8895C50.9972 50.9954 51.0619 51.0884 51.1499 51.1554C51.1826 51.1897 51.2218 51.2171 51.2652 51.2361C51.3086 51.255 51.3553 51.2652 51.4026 51.266C51.2998 51.1042 51.225 50.9262 51.1815 50.7395C51.1777 50.5883 51.183 50.4371 51.1973 50.2866Z" fill="#263238"/>
<path d="M62.4293 44.1154C61.4972 47.6117 57.29 49.5232 53.1512 49.5442C52.8488 49.7366 52.6005 50.0031 52.4298 50.3183C52.376 50.3855 52.3467 50.4691 52.3467 50.5552C52.3467 50.6414 52.376 50.7249 52.4298 50.7922C52.6791 51.1165 53.0022 51.3764 53.3724 51.5504C53.7936 51.661 56.2843 52.3508 59.5226 50.7922C61.8974 49.6443 64.4618 46.9325 64.1827 45.3633C63.9036 43.7942 63.3244 44.1733 63.335 43.0359C63.2994 42.5649 63.3439 42.0914 63.4666 41.6353C63.1788 41.6983 62.9143 41.8405 62.7031 42.046C62.8031 42.4936 62.7294 42.9727 62.4293 44.1154Z" fill="#64BC26"/>
<path opacity="0.2" d="M64.2088 45.3633C64.1581 44.9429 64.0123 44.5395 63.7823 44.1838C63.5717 45.3581 62.9714 46.7219 61.2601 48.4858C59.4592 50.3499 55.4679 51.503 52.377 50.6447C52.3913 50.6994 52.4183 50.75 52.4559 50.7922C52.707 51.1147 53.0297 51.3743 53.3985 51.5504C53.8197 51.661 56.3104 52.3455 59.5487 50.7869C61.9235 49.6443 64.4879 46.9325 64.2088 45.3633Z" fill="black"/>
<path d="M62.7246 42.7989C62.7246 42.7989 62.6772 42.1828 62.6245 41.9616C62.8945 41.7358 63.2233 41.5915 63.5723 41.5457L63.3828 42.3934C63.3828 42.3934 63.0036 42.7989 62.7246 42.7989Z" fill="#263238"/>
<path d="M52.6457 50.0022C52.6457 50.0022 52.4614 50.1391 52.3666 50.2286C52.3106 50.3232 52.2855 50.4329 52.2949 50.5425C52.3044 50.652 52.3479 50.7559 52.4193 50.8394C52.5457 50.9974 52.6457 51.0027 52.6457 51.0027C52.5778 50.8241 52.5404 50.6355 52.5352 50.4445C52.5667 50.2655 52.6457 50.0022 52.6457 50.0022Z" fill="#263238"/>
<path d="M64.8733 48.036L39.1709 51.5659L43.1221 80.3358L68.8246 76.8058L64.8733 48.036Z" fill="#64BC26"/>
<path opacity="0.8" d="M64.8733 48.036L39.1709 51.5659L43.1221 80.3358L68.8246 76.8058L64.8733 48.036Z" fill="white"/>
<path opacity="0.2" d="M64.8731 48.0379L57.2881 49.0796L61.2393 77.8494L68.8243 76.8077L64.8731 48.0379Z" fill="#64BC26"/>
<path opacity="0.2" d="M68.8322 76.8044L64.6565 74.5613L61.0864 48.5596L64.8777 48.0383L68.8322 76.8044Z" fill="#64BC26"/>
<path opacity="0.3" d="M64.6567 74.561L61.2446 77.8468L68.8324 76.8042L64.6567 74.561Z" fill="#64BC26"/>
<path d="M72.9762 72.771L69.0586 71.2334L69.443 76.141C69.443 76.141 72.0758 76.0146 73.4712 74.6403L72.9762 72.771Z" fill="#FFB573"/>
<path d="M85.3346 48.312C86.3877 51.2608 87.2934 54.1884 88.0727 57.2214C88.4623 58.7327 88.8309 60.2544 89.1258 61.8341C89.268 62.6187 89.3944 63.4138 89.4891 64.2458C89.5935 65.1192 89.6305 65.9994 89.5997 66.8786C89.5818 67.449 89.4934 68.0149 89.3364 68.5636C89.1224 69.2388 88.7629 69.859 88.2833 70.3802C87.5815 71.1295 86.748 71.7435 85.8243 72.1916C84.3141 72.926 82.7238 73.4827 81.0852 73.8503C78.0199 74.5616 74.8938 74.9794 71.7493 75.0982L71.4438 72.6339C72.8761 72.2916 74.3452 71.9125 75.7722 71.5123C77.1992 71.1121 78.6209 70.6698 79.9847 70.1696C81.2861 69.7241 82.5401 69.1509 83.7285 68.4583C84.1607 68.2055 84.547 67.8815 84.8712 67.4999C84.9554 67.3683 84.9554 67.3314 84.9396 67.3314C84.9531 67.1386 84.9531 66.9451 84.9396 66.7522C84.916 66.1165 84.8492 65.4832 84.7395 64.8566C84.6342 64.1721 84.4921 63.4717 84.3341 62.7503C84.0024 61.3444 83.639 59.9122 83.2283 58.4799C82.4069 55.6365 81.4854 52.7457 80.5586 49.9391L85.3346 48.312Z" fill="#FFB573"/>
<path d="M65.4251 73.6555L65.7306 74.7928C65.828 75.1542 66.0395 75.4745 66.3336 75.706C66.6277 75.9375 66.9887 76.0679 67.3629 76.0777L69.4691 76.1356L69.0847 71.228L66.9364 71.4755C66.6854 71.5006 66.443 71.5799 66.2256 71.7079C66.0083 71.8359 65.8214 72.0095 65.6777 72.2168C65.534 72.424 65.437 72.66 65.3934 72.9084C65.3498 73.1568 65.3607 73.4117 65.4251 73.6555V73.6555Z" fill="#FFB573"/>
<path d="M83.1023 42.8253C85.3033 43.7204 87.1042 50.9554 87.1042 50.9554L81.0224 55.6945C81.0224 55.6945 76.7151 48.9492 77.5945 46.0215C78.3422 43.5519 80.301 41.6932 83.1023 42.8253Z" fill="#64BC26"/>
<g opacity="0.5">
<path opacity="0.5" d="M83.1023 42.8253C85.3033 43.7204 87.1042 50.9554 87.1042 50.9554L81.0224 55.6945C81.0224 55.6945 76.7151 48.9492 77.5945 46.0215C78.3422 43.5519 80.301 41.6932 83.1023 42.8253Z" fill="black"/>
</g>
<path d="M106.592 161.112H106.513C106.403 161.106 106.296 161.071 106.204 161.011C106.112 160.951 106.037 160.868 105.986 160.77C105.948 160.714 105.924 160.649 105.919 160.582C105.913 160.514 105.926 160.447 105.955 160.385C106.223 159.859 107.913 159.648 108.103 159.627C108.125 159.624 108.148 159.628 108.168 159.638C108.188 159.648 108.204 159.665 108.214 159.685C108.225 159.703 108.232 159.724 108.232 159.746C108.232 159.767 108.225 159.788 108.214 159.806C107.856 160.285 107.171 161.07 106.592 161.112ZM107.871 159.885C107.197 159.985 106.292 160.201 106.165 160.485C106.149 160.511 106.141 160.54 106.141 160.57C106.141 160.6 106.149 160.629 106.165 160.654C106.196 160.72 106.244 160.777 106.304 160.817C106.365 160.858 106.435 160.882 106.508 160.886C106.834 160.901 107.361 160.533 107.887 159.885H107.871Z" fill="#263238"/>
<path d="M108.024 159.864C107.45 159.901 106.313 159.664 106.07 159.222C106.029 159.143 106.016 159.053 106.033 158.965C106.051 158.878 106.097 158.8 106.165 158.743C106.223 158.68 106.295 158.631 106.374 158.6C106.453 158.568 106.538 158.554 106.623 158.558C107.308 158.558 108.177 159.611 108.203 159.669C108.213 159.685 108.219 159.703 108.219 159.722C108.219 159.741 108.213 159.759 108.203 159.775C108.198 159.794 108.187 159.811 108.172 159.824C108.157 159.837 108.138 159.846 108.119 159.848L108.024 159.864ZM106.571 158.779C106.478 158.787 106.392 158.828 106.328 158.895C106.228 159.001 106.244 159.069 106.27 159.116C106.423 159.406 107.324 159.643 107.897 159.643C107.587 159.311 107.023 158.79 106.618 158.774L106.571 158.779Z" fill="#263238"/>
<path d="M43.7626 166.136C43.4026 166.015 43.087 165.79 42.8569 165.488C42.8029 165.398 42.77 165.296 42.7609 165.191C42.7518 165.086 42.7666 164.981 42.8043 164.882C42.8217 164.826 42.8538 164.775 42.8973 164.736C42.9408 164.696 42.9941 164.668 43.0518 164.656C43.6521 164.54 45.0738 166.067 45.3529 166.378C45.3658 166.396 45.3727 166.418 45.3727 166.441C45.3727 166.464 45.3658 166.486 45.3529 166.504C45.3412 166.525 45.3232 166.542 45.3015 166.552C45.2798 166.563 45.2554 166.566 45.2317 166.562C44.7292 166.469 44.2371 166.326 43.7626 166.136V166.136ZM43.3151 164.903C43.2466 164.869 43.1701 164.855 43.0939 164.861C43.0939 164.861 43.036 164.861 43.0149 164.94C42.988 165.009 42.9774 165.082 42.9838 165.155C42.9902 165.228 43.0134 165.299 43.0518 165.362C43.2571 165.714 43.9575 166.046 44.9527 166.262C44.4788 165.729 43.9266 165.271 43.3151 164.903V164.903Z" fill="#263238"/>
<path d="M45.2261 166.541C45.2119 166.535 45.1992 166.526 45.1892 166.515C44.7048 166.036 43.9255 164.603 44.194 164.145C44.2572 164.045 44.3836 163.94 44.6627 164.019C45.7158 164.324 45.3946 166.367 45.3788 166.457C45.3759 166.477 45.3668 166.496 45.3527 166.512C45.3385 166.527 45.3201 166.537 45.2998 166.541C45.2882 166.546 45.2757 166.549 45.263 166.549C45.2502 166.549 45.2377 166.546 45.2261 166.541ZM44.6995 164.256H44.6258C44.5152 164.224 44.4415 164.229 44.4152 164.256C44.2572 164.524 44.7574 165.604 45.2156 166.178C45.2261 165.672 45.2893 164.514 44.6995 164.256Z" fill="#263238"/>
<path d="M71.3181 27.4287L70.5229 26.9021C70.5229 26.9021 70.7599 27.7235 71.3181 27.4287Z" fill="#263238"/>
</svg>
