<svg width="20" height="20" viewBox="0 0 20 20" fill="none" xmlns="http://www.w3.org/2000/svg">
<path d="M16.377 14.4522H3.62308C3.42822 14.4522 3.24619 14.356 3.13647 14.195C1.45374 11.7273 1.32465 6.98047 1.31488 6.27582C1.31427 6.2482 1.31396 6.22028 1.31396 6.1925C1.31396 5.86765 1.57703 5.60413 1.90189 5.60352H1.90311C2.22736 5.60352 2.49088 5.86581 2.4921 6.19022C2.4921 6.19418 2.49225 6.22897 2.49362 6.29062C2.5455 7.96649 3.92505 9.31369 5.61328 9.31369C7.33432 9.31369 8.73447 7.91354 8.73447 6.1925C8.73447 5.86719 8.99829 5.60352 9.32346 5.60352H10.6765C11.0018 5.60352 11.2654 5.86719 11.2654 6.1925C11.2654 7.91354 12.6657 9.31369 14.3868 9.31369C16.0765 9.31369 17.457 7.96405 17.5066 6.28604C17.5077 6.22714 17.508 6.19418 17.508 6.19037C17.5092 5.86581 17.7726 5.60352 18.097 5.60352H18.098C18.4229 5.60413 18.6859 5.86765 18.6859 6.1925C18.6859 6.22043 18.6856 6.2482 18.6852 6.27597C18.6753 6.98047 18.5462 11.7275 16.8636 14.1951C16.7539 14.356 16.5717 14.4522 16.377 14.4522Z" fill="#FFF780"/>
<path d="M18.098 5.60352C18.0977 5.60352 18.0974 5.60352 18.0969 5.60352C17.7726 5.60352 17.5091 5.86581 17.5079 6.19022C17.5079 6.19418 17.5078 6.22714 17.5065 6.28604C17.4569 7.9639 16.0765 9.31369 14.3867 9.31369C12.6657 9.31369 11.2655 7.91354 11.2655 6.1925C11.2655 5.86719 11.0017 5.60352 10.6765 5.60352H10.0001V14.4521H16.3769C16.5718 14.4521 16.7538 14.3558 16.8635 14.195C18.5463 11.7273 18.6754 6.98032 18.6851 6.27582C18.6857 6.2482 18.686 6.22028 18.686 6.1925C18.6859 5.86765 18.4228 5.60413 18.098 5.60352Z" fill="#FFC02E"/>
<path d="M10 3.59375C8.95065 3.59375 8.09692 4.44748 8.09692 5.49683C8.09692 6.54617 8.95065 7.39975 10 7.39975C11.0493 7.39975 11.9031 6.54617 11.9031 5.49683C11.9031 4.44748 11.0493 3.59375 10 3.59375Z" fill="#FFC02E"/>
<path d="M10.0001 3.59375V7.3999C11.0495 7.39975 11.903 6.54617 11.903 5.49683C11.903 4.44748 11.0493 3.5939 10.0001 3.59375Z" fill="#FFA73B"/>
<path d="M1.90308 5.0625C0.853729 5.0625 0 5.91623 0 6.96558C0 8.01492 0.853729 8.86865 1.90308 8.86865C2.95242 8.86865 3.806 8.01492 3.806 6.96558C3.806 5.91623 2.95242 5.0625 1.90308 5.0625Z" fill="#FFC02E"/>
<path d="M18.0969 5.0625C17.0475 5.0625 16.194 5.91623 16.194 6.96558C16.194 8.01477 17.0475 8.8685 18.0969 8.8685C19.1462 8.8685 20 8.01477 20 6.96558C20 5.91623 19.1462 5.0625 18.0969 5.0625Z" fill="#FFA73B"/>
<path d="M16.377 16.3845H3.62305C3.29773 16.3845 3.03406 16.1208 3.03406 15.7955V14.0391H16.9659V15.7955C16.9659 16.1208 16.7023 16.3845 16.377 16.3845Z" fill="#FFC02E"/>
<path d="M10.0001 16.3845H16.3769C16.7022 16.3845 16.9659 16.1208 16.9659 15.7955V14.0391H10.0001V16.3845Z" fill="#FFA73B"/>
</svg>
