<svg width="36" height="36" viewBox="0 0 36 36" fill="none" xmlns="http://www.w3.org/2000/svg">
<path d="M32.1842 32.4226L27.8502 31.4687L26.5069 35.7093C26.4103 36.0142 25.9974 36.0589 25.8378 35.7817L20.4762 26.4678C23.1173 25.8956 25.4672 24.5393 27.2715 22.6543L32.5818 31.8802C32.7412 32.1569 32.4961 32.4913 32.1842 32.4226Z" fill="#FD646F"/>
<path d="M32.1843 32.4222L28.1783 31.5405C27.9925 31.4996 27.8063 31.6071 27.7488 31.7885L26.507 35.7088C26.4104 36.0137 25.9975 36.0584 25.8379 35.7812L21.2447 27.8015L20.4763 26.4673C23.1174 25.8951 25.4673 24.5388 27.2716 22.6538L28.0341 23.9776L32.582 31.8797C32.7412 32.1566 32.4961 32.4909 32.1843 32.4222Z" fill="#FD646F"/>
<path d="M32.1846 32.422L28.1789 31.5404C27.9929 31.5 27.8069 31.6073 27.7495 31.7882L28.1807 30.4484C28.2388 30.2677 28.4251 30.161 28.6104 30.2022L32.0574 30.9684L32.5824 31.8801C32.742 32.1566 32.4964 32.4911 32.1846 32.422Z" fill="#FC4755"/>
<path d="M15.6078 26.3557L10.1614 35.8153C10.0018 36.0925 9.58888 36.0478 9.49227 35.7429L8.2504 31.8224C8.19298 31.6411 8.00666 31.5335 7.82094 31.5744L3.81499 32.4561C3.50309 32.5248 3.25802 32.1904 3.41736 31.9137L8.48282 23.1133C10.3739 24.9062 12.9248 25.9139 15.6078 26.3557Z" fill="#FD646F"/>
<path d="M9.19956 24.4226L4.68576 32.2642L3.81505 32.4561C3.50315 32.5248 3.25802 32.1905 3.41735 31.9137L7.7291 24.4226L8.89508 22.3916C9.20904 22.6888 9.53697 22.9713 9.87887 23.2368L9.19956 24.4226Z" fill="#FC4755"/>
<path d="M10.6926 34.892L10.161 35.8155C10.0015 36.0927 9.58899 36.0485 9.49194 35.7434L8.25007 31.823C8.19272 31.6414 8.0067 31.534 7.82068 31.5744L9.19415 31.2723C9.37988 31.2314 9.56612 31.339 9.62355 31.5203L10.6926 34.892Z" fill="#FC4755"/>
<path d="M8.60522 22.8896L12.1874 24.505L15.6076 26.3559L14.6905 27.9478C12.1332 27.4286 9.76054 26.2383 7.79959 24.4852C7.77606 24.4646 7.75253 24.4439 7.729 24.4225L8.60522 22.8896Z" fill="#FC4755"/>
<path d="M28.0341 23.9776L27.2716 22.6538L23.2369 24.4346L20.4763 26.4673L20.7866 27.0061L21.5486 28.3294L25.8379 35.7812C25.9975 36.0583 26.4104 36.0136 26.507 35.7087L26.7802 34.8464L22.5168 27.4202C24.5807 26.702 26.4596 25.5335 28.0341 23.9776Z" fill="#FC4755"/>
<path d="M31.3442 13.3846C31.3442 16.9821 29.9288 20.2491 27.6252 22.6541C25.8209 24.5391 23.471 25.8954 20.8299 26.4676C19.9174 26.6653 18.9711 26.7693 17.9999 26.7693C17.2587 26.7693 16.5323 26.7087 15.8242 26.5923C13.2787 26.1734 10.9751 25.0317 9.13108 23.3842C9.03108 23.2957 8.93329 23.2058 8.83624 23.1136C8.49213 22.7876 8.16568 22.4432 7.85686 22.0826C7.56129 21.736 7.28336 21.3739 7.02381 20.9978C6.24443 19.8702 5.63342 18.6157 5.22682 17.272C4.85551 16.0419 4.65552 14.7372 4.65552 13.3847C4.65552 5.99278 10.6303 0 17.9999 0C19.3476 0 20.649 0.20058 21.8747 0.573801C23.2151 0.980183 24.465 1.59303 25.59 2.3755C25.965 2.63585 26.326 2.91459 26.6708 3.21179C27.1326 3.60707 27.5664 4.03411 27.9701 4.48836C30.0692 6.85348 31.3442 9.97005 31.3442 13.3846Z" fill="#FAA515"/>
<path d="M17.9999 22.9714C23.2785 22.9714 27.5577 18.6792 27.5577 13.3846C27.5577 8.08999 23.2785 3.79785 17.9999 3.79785C12.7212 3.79785 8.44202 8.08999 8.44202 13.3846C8.44202 18.6792 12.7212 22.9714 17.9999 22.9714Z" fill="#FAD207"/>
<path d="M27.5577 13.3845C27.5577 18.679 23.2784 22.9711 18 22.9711C12.7215 22.9711 8.44226 18.679 8.44226 13.3845C8.44226 12.9848 8.46652 12.591 8.51432 12.2046C9.09371 16.9429 13.12 20.6112 18 20.6112C22.8799 20.6112 26.9062 16.9429 27.4856 12.2046C27.5334 12.591 27.5577 12.9849 27.5577 13.3845Z" fill="#FAA515"/>
<path fill-rule="evenodd" clip-rule="evenodd" d="M18 3.79834C12.7215 3.79834 8.44226 8.09053 8.44226 13.385C8.44226 18.6794 12.7215 22.9716 18 22.9716C23.2784 22.9716 27.5577 18.6794 27.5577 13.385C27.5577 8.09053 23.2784 3.79834 18 3.79834ZM18 21.8653C13.3377 21.8653 9.54516 18.0613 9.54516 13.385C9.54516 8.70859 13.3377 4.90462 18 4.90462C22.6623 4.90462 26.4548 8.70859 26.4548 13.385C26.4548 18.0613 22.6623 21.8653 18 21.8653Z" fill="#FAF063"/>
<path d="M18.3298 8.08346L19.6427 10.7655C19.6962 10.8748 19.8002 10.9505 19.9207 10.9678L22.8714 11.3917C23.1733 11.4351 23.2941 11.8062 23.0755 12.019L20.9354 14.1029C20.8485 14.1876 20.8089 14.3095 20.8296 14.429L21.3396 17.3756C21.3917 17.6766 21.0752 17.9062 20.8052 17.7632L18.1717 16.3676C18.0641 16.3106 17.9351 16.3106 17.8274 16.3676L15.1939 17.7632C14.924 17.9062 14.6074 17.6767 14.6596 17.3756L15.1695 14.429C15.1902 14.3095 15.1506 14.1876 15.0637 14.1029L12.9236 12.019C12.705 11.8061 12.8258 11.4351 13.1278 11.3917L16.0785 10.9678C16.1988 10.9505 16.3029 10.8748 16.3564 10.7655L17.6694 8.08346C17.8038 7.80877 18.1953 7.80877 18.3298 8.08346Z" fill="#FAA515"/>
</svg>
