<svg width="43" height="43" viewBox="0 0 43 43" fill="none" xmlns="http://www.w3.org/2000/svg">
<path d="M38.2969 34.9375V28.2188C38.2969 28.0406 38.2261 27.8697 38.1001 27.7437C37.9741 27.6177 37.8032 27.5469 37.625 27.5469C37.4468 27.5469 37.2759 27.6177 37.1499 27.7437C37.0239 27.8697 36.9531 28.0406 36.9531 28.2188V34.2656H30.9062C30.7281 34.2656 30.5572 34.3364 30.4312 34.4624C30.3052 34.5884 30.2344 34.7593 30.2344 34.9375C30.2344 35.1157 30.3052 35.2866 30.4312 35.4126C30.5572 35.5386 30.7281 35.6094 30.9062 35.6094H37.625C37.8032 35.6094 37.9741 35.5386 38.1001 35.4126C38.2261 35.2866 38.2969 35.1157 38.2969 34.9375ZM12.0938 8.73438H6.04688V14.7812C6.04688 14.9594 5.97609 15.1303 5.85009 15.2563C5.72409 15.3823 5.55319 15.4531 5.375 15.4531C5.19681 15.4531 5.02591 15.3823 4.89991 15.2563C4.77391 15.1303 4.70312 14.9594 4.70312 14.7812V8.0625C4.70312 7.88431 4.77391 7.71341 4.89991 7.58741C5.02591 7.46141 5.19681 7.39062 5.375 7.39062H12.0938C12.2719 7.39062 12.4428 7.46141 12.5688 7.58741C12.6948 7.71341 12.7656 7.88431 12.7656 8.0625C12.7656 8.24069 12.6948 8.41159 12.5688 8.53759C12.4428 8.66359 12.2719 8.73438 12.0938 8.73438ZM37.625 15.4531C37.4468 15.4531 37.2759 15.3823 37.1499 15.2563C37.0239 15.1303 36.9531 14.9594 36.9531 14.7812V8.73438H30.9062C30.7281 8.73438 30.5572 8.66359 30.4312 8.53759C30.3052 8.41159 30.2344 8.24069 30.2344 8.0625C30.2344 7.88431 30.3052 7.71341 30.4312 7.58741C30.5572 7.46141 30.7281 7.39062 30.9062 7.39062H37.625C37.8032 7.39062 37.9741 7.46141 38.1001 7.58741C38.2261 7.71341 38.2969 7.88431 38.2969 8.0625V14.7812C38.2969 14.9594 38.2261 15.1303 38.1001 15.2563C37.9741 15.3823 37.8032 15.4531 37.625 15.4531ZM5.375 27.5469C5.55319 27.5469 5.72409 27.6177 5.85009 27.7437C5.97609 27.8697 6.04688 28.0406 6.04688 28.2188V34.2656H12.0938C12.2719 34.2656 12.4428 34.3364 12.5688 34.4624C12.6948 34.5884 12.7656 34.7593 12.7656 34.9375C12.7656 35.1157 12.6948 35.2866 12.5688 35.4126C12.4428 35.5386 12.2719 35.6094 12.0938 35.6094H5.375C5.19681 35.6094 5.02591 35.5386 4.89991 35.4126C4.77391 35.2866 4.70312 35.1157 4.70312 34.9375V28.2188C4.70312 28.0406 4.77391 27.8697 4.89991 27.7437C5.02591 27.6177 5.19681 27.5469 5.375 27.5469ZM13.4375 28.8906C13.2593 28.8906 13.0884 28.8198 12.9624 28.6938C12.8364 28.5678 12.7656 28.3969 12.7656 28.2188V14.7812C12.7656 14.6031 12.8364 14.4322 12.9624 14.3062C13.0884 14.1802 13.2593 14.1094 13.4375 14.1094C13.6157 14.1094 13.7866 14.1802 13.9126 14.3062C14.0386 14.4322 14.1094 14.6031 14.1094 14.7812V28.2188C14.1094 28.3969 14.0386 28.5678 13.9126 28.6938C13.7866 28.8198 13.6157 28.8906 13.4375 28.8906ZM30.2344 28.2188C30.2344 28.3969 30.1636 28.5678 30.0376 28.6938C29.9116 28.8198 29.7407 28.8906 29.5625 28.8906C29.3843 28.8906 29.2134 28.8198 29.0874 28.6938C28.9614 28.5678 28.8906 28.3969 28.8906 28.2188V14.7812C28.8906 14.6031 28.9614 14.4322 29.0874 14.3062C29.2134 14.1802 29.3843 14.1094 29.5625 14.1094C29.7407 14.1094 29.9116 14.1802 30.0376 14.3062C30.1636 14.4322 30.2344 14.6031 30.2344 14.7812V28.2188ZM24.1875 28.8906C24.0093 28.8906 23.8384 28.8198 23.7124 28.6938C23.5864 28.5678 23.5156 28.3969 23.5156 28.2188V14.7812C23.5156 14.6031 23.5864 14.4322 23.7124 14.3062C23.8384 14.1802 24.0093 14.1094 24.1875 14.1094C24.3657 14.1094 24.5366 14.1802 24.6626 14.3062C24.7886 14.4322 24.8594 14.6031 24.8594 14.7812V28.2188C24.8594 28.3969 24.7886 28.5678 24.6626 28.6938C24.5366 28.8198 24.3657 28.8906 24.1875 28.8906ZM18.8125 28.8906C18.6343 28.8906 18.4634 28.8198 18.3374 28.6938C18.2114 28.5678 18.1406 28.3969 18.1406 28.2188V14.7812C18.1406 14.6031 18.2114 14.4322 18.3374 14.3062C18.4634 14.1802 18.6343 14.1094 18.8125 14.1094C18.9907 14.1094 19.1616 14.1802 19.2876 14.3062C19.4136 14.4322 19.4844 14.6031 19.4844 14.7812V28.2188C19.4844 28.3969 19.4136 28.5678 19.2876 28.6938C19.1616 28.8198 18.9907 28.8906 18.8125 28.8906Z" fill="#64BC26"/>
</svg>
